%TF.GenerationSoftware,KiCad,Pcbnew,(5.1.9)-1*%
%TF.CreationDate,2021-05-17T17:29:26-07:00*%
%TF.ProjectId,dev_test_board_v1,6465765f-7465-4737-945f-626f6172645f,rev?*%
%TF.SameCoordinates,Original*%
%TF.FileFunction,Legend,Top*%
%TF.FilePolarity,Positive*%
%FSLAX46Y46*%
G04 Gerber Fmt 4.6, Leading zero omitted, Abs format (unit mm)*
G04 Created by KiCad (PCBNEW (5.1.9)-1) date 2021-05-17 17:29:26*
%MOMM*%
%LPD*%
G01*
G04 APERTURE LIST*
%ADD10C,0.080000*%
%ADD11C,0.120000*%
%ADD12C,0.100000*%
%ADD13C,0.150000*%
G04 APERTURE END LIST*
D10*
X235235714Y-71942857D02*
X235321428Y-71971428D01*
X235464285Y-71971428D01*
X235521428Y-71942857D01*
X235550000Y-71914285D01*
X235578571Y-71857142D01*
X235578571Y-71800000D01*
X235550000Y-71742857D01*
X235521428Y-71714285D01*
X235464285Y-71685714D01*
X235350000Y-71657142D01*
X235292857Y-71628571D01*
X235264285Y-71600000D01*
X235235714Y-71542857D01*
X235235714Y-71485714D01*
X235264285Y-71428571D01*
X235292857Y-71400000D01*
X235350000Y-71371428D01*
X235492857Y-71371428D01*
X235578571Y-71400000D01*
X235778571Y-71371428D02*
X235921428Y-71971428D01*
X236035714Y-71542857D01*
X236150000Y-71971428D01*
X236292857Y-71371428D01*
X236521428Y-71971428D02*
X236521428Y-71371428D01*
X236664285Y-71371428D01*
X236750000Y-71400000D01*
X236807142Y-71457142D01*
X236835714Y-71514285D01*
X236864285Y-71628571D01*
X236864285Y-71714285D01*
X236835714Y-71828571D01*
X236807142Y-71885714D01*
X236750000Y-71942857D01*
X236664285Y-71971428D01*
X236521428Y-71971428D01*
D11*
X242800000Y-67550000D02*
X243050000Y-67800000D01*
X242800000Y-67550000D02*
X243050000Y-67300000D01*
X243850000Y-67550000D02*
X242800000Y-67550000D01*
X222950000Y-88850000D02*
X222950000Y-89450000D01*
X222650000Y-89150000D02*
X223250000Y-89150000D01*
X222900000Y-86850000D02*
X222900000Y-87450000D01*
X222600000Y-87150000D02*
X223200000Y-87150000D01*
X193400000Y-97850000D02*
X193400000Y-98450000D01*
X193100000Y-98150000D02*
X193700000Y-98150000D01*
X193350000Y-95800000D02*
X193350000Y-96400000D01*
X193050000Y-96100000D02*
X193650000Y-96100000D01*
D10*
X196607142Y-74521428D02*
X196407142Y-74235714D01*
X196264285Y-74521428D02*
X196264285Y-73921428D01*
X196492857Y-73921428D01*
X196550000Y-73950000D01*
X196578571Y-73978571D01*
X196607142Y-74035714D01*
X196607142Y-74121428D01*
X196578571Y-74178571D01*
X196550000Y-74207142D01*
X196492857Y-74235714D01*
X196264285Y-74235714D01*
X196864285Y-73921428D02*
X196864285Y-74407142D01*
X196892857Y-74464285D01*
X196921428Y-74492857D01*
X196978571Y-74521428D01*
X197092857Y-74521428D01*
X197150000Y-74492857D01*
X197178571Y-74464285D01*
X197207142Y-74407142D01*
X197207142Y-73921428D01*
X197492857Y-74521428D02*
X197492857Y-73921428D01*
X197835714Y-74521428D01*
X197835714Y-73921428D01*
X196235714Y-79957142D02*
X196321428Y-79985714D01*
X196350000Y-80014285D01*
X196378571Y-80071428D01*
X196378571Y-80157142D01*
X196350000Y-80214285D01*
X196321428Y-80242857D01*
X196264285Y-80271428D01*
X196035714Y-80271428D01*
X196035714Y-79671428D01*
X196235714Y-79671428D01*
X196292857Y-79700000D01*
X196321428Y-79728571D01*
X196350000Y-79785714D01*
X196350000Y-79842857D01*
X196321428Y-79900000D01*
X196292857Y-79928571D01*
X196235714Y-79957142D01*
X196035714Y-79957142D01*
X196750000Y-79671428D02*
X196864285Y-79671428D01*
X196921428Y-79700000D01*
X196978571Y-79757142D01*
X197007142Y-79871428D01*
X197007142Y-80071428D01*
X196978571Y-80185714D01*
X196921428Y-80242857D01*
X196864285Y-80271428D01*
X196750000Y-80271428D01*
X196692857Y-80242857D01*
X196635714Y-80185714D01*
X196607142Y-80071428D01*
X196607142Y-79871428D01*
X196635714Y-79757142D01*
X196692857Y-79700000D01*
X196750000Y-79671428D01*
X197378571Y-79671428D02*
X197492857Y-79671428D01*
X197550000Y-79700000D01*
X197607142Y-79757142D01*
X197635714Y-79871428D01*
X197635714Y-80071428D01*
X197607142Y-80185714D01*
X197550000Y-80242857D01*
X197492857Y-80271428D01*
X197378571Y-80271428D01*
X197321428Y-80242857D01*
X197264285Y-80185714D01*
X197235714Y-80071428D01*
X197235714Y-79871428D01*
X197264285Y-79757142D01*
X197321428Y-79700000D01*
X197378571Y-79671428D01*
X197807142Y-79671428D02*
X198150000Y-79671428D01*
X197978571Y-80271428D02*
X197978571Y-79671428D01*
D11*
X210600000Y-86000000D02*
G75*
G03*
X210600000Y-86000000I-50000J0D01*
G01*
X212550000Y-108950000D02*
G75*
G03*
X212550000Y-108950000I-50000J0D01*
G01*
X226650000Y-99000000D02*
G75*
G03*
X226650000Y-99000000I-50000J0D01*
G01*
D10*
X230771428Y-72285714D02*
X230771428Y-71914285D01*
X231000000Y-72114285D01*
X231000000Y-72028571D01*
X231028571Y-71971428D01*
X231057142Y-71942857D01*
X231114285Y-71914285D01*
X231257142Y-71914285D01*
X231314285Y-71942857D01*
X231342857Y-71971428D01*
X231371428Y-72028571D01*
X231371428Y-72200000D01*
X231342857Y-72257142D01*
X231314285Y-72285714D01*
X231314285Y-71657142D02*
X231342857Y-71628571D01*
X231371428Y-71657142D01*
X231342857Y-71685714D01*
X231314285Y-71657142D01*
X231371428Y-71657142D01*
X230771428Y-71428571D02*
X230771428Y-71057142D01*
X231000000Y-71257142D01*
X231000000Y-71171428D01*
X231028571Y-71114285D01*
X231057142Y-71085714D01*
X231114285Y-71057142D01*
X231257142Y-71057142D01*
X231314285Y-71085714D01*
X231342857Y-71114285D01*
X231371428Y-71171428D01*
X231371428Y-71342857D01*
X231342857Y-71400000D01*
X231314285Y-71428571D01*
X230771428Y-70885714D02*
X231371428Y-70685714D01*
X230771428Y-70485714D01*
X228200000Y-71757142D02*
X228171428Y-71814285D01*
X228171428Y-71900000D01*
X228200000Y-71985714D01*
X228257142Y-72042857D01*
X228314285Y-72071428D01*
X228428571Y-72100000D01*
X228514285Y-72100000D01*
X228628571Y-72071428D01*
X228685714Y-72042857D01*
X228742857Y-71985714D01*
X228771428Y-71900000D01*
X228771428Y-71842857D01*
X228742857Y-71757142D01*
X228714285Y-71728571D01*
X228514285Y-71728571D01*
X228514285Y-71842857D01*
X228771428Y-71471428D02*
X228171428Y-71471428D01*
X228771428Y-71128571D01*
X228171428Y-71128571D01*
X228771428Y-70842857D02*
X228171428Y-70842857D01*
X228171428Y-70700000D01*
X228200000Y-70614285D01*
X228257142Y-70557142D01*
X228314285Y-70528571D01*
X228428571Y-70500000D01*
X228514285Y-70500000D01*
X228628571Y-70528571D01*
X228685714Y-70557142D01*
X228742857Y-70614285D01*
X228771428Y-70700000D01*
X228771428Y-70842857D01*
X225700000Y-73900000D02*
X225671428Y-73957142D01*
X225671428Y-74042857D01*
X225700000Y-74128571D01*
X225757142Y-74185714D01*
X225814285Y-74214285D01*
X225928571Y-74242857D01*
X226014285Y-74242857D01*
X226128571Y-74214285D01*
X226185714Y-74185714D01*
X226242857Y-74128571D01*
X226271428Y-74042857D01*
X226271428Y-73985714D01*
X226242857Y-73900000D01*
X226214285Y-73871428D01*
X226014285Y-73871428D01*
X226014285Y-73985714D01*
X226271428Y-73614285D02*
X225671428Y-73614285D01*
X225671428Y-73385714D01*
X225700000Y-73328571D01*
X225728571Y-73300000D01*
X225785714Y-73271428D01*
X225871428Y-73271428D01*
X225928571Y-73300000D01*
X225957142Y-73328571D01*
X225985714Y-73385714D01*
X225985714Y-73614285D01*
X226271428Y-73014285D02*
X225671428Y-73014285D01*
X225671428Y-72614285D02*
X225671428Y-72500000D01*
X225700000Y-72442857D01*
X225757142Y-72385714D01*
X225871428Y-72357142D01*
X226071428Y-72357142D01*
X226185714Y-72385714D01*
X226242857Y-72442857D01*
X226271428Y-72500000D01*
X226271428Y-72614285D01*
X226242857Y-72671428D01*
X226185714Y-72728571D01*
X226071428Y-72757142D01*
X225871428Y-72757142D01*
X225757142Y-72728571D01*
X225700000Y-72671428D01*
X225671428Y-72614285D01*
X225642857Y-71671428D02*
X226414285Y-72185714D01*
X226271428Y-71128571D02*
X225985714Y-71328571D01*
X226271428Y-71471428D02*
X225671428Y-71471428D01*
X225671428Y-71242857D01*
X225700000Y-71185714D01*
X225728571Y-71157142D01*
X225785714Y-71128571D01*
X225871428Y-71128571D01*
X225928571Y-71157142D01*
X225957142Y-71185714D01*
X225985714Y-71242857D01*
X225985714Y-71471428D01*
X225671428Y-70928571D02*
X226271428Y-70528571D01*
X225671428Y-70528571D02*
X226271428Y-70928571D01*
X223000000Y-73828571D02*
X222971428Y-73885714D01*
X222971428Y-73971428D01*
X223000000Y-74057142D01*
X223057142Y-74114285D01*
X223114285Y-74142857D01*
X223228571Y-74171428D01*
X223314285Y-74171428D01*
X223428571Y-74142857D01*
X223485714Y-74114285D01*
X223542857Y-74057142D01*
X223571428Y-73971428D01*
X223571428Y-73914285D01*
X223542857Y-73828571D01*
X223514285Y-73800000D01*
X223314285Y-73800000D01*
X223314285Y-73914285D01*
X223571428Y-73542857D02*
X222971428Y-73542857D01*
X222971428Y-73314285D01*
X223000000Y-73257142D01*
X223028571Y-73228571D01*
X223085714Y-73200000D01*
X223171428Y-73200000D01*
X223228571Y-73228571D01*
X223257142Y-73257142D01*
X223285714Y-73314285D01*
X223285714Y-73542857D01*
X223571428Y-72942857D02*
X222971428Y-72942857D01*
X222971428Y-72542857D02*
X222971428Y-72428571D01*
X223000000Y-72371428D01*
X223057142Y-72314285D01*
X223171428Y-72285714D01*
X223371428Y-72285714D01*
X223485714Y-72314285D01*
X223542857Y-72371428D01*
X223571428Y-72428571D01*
X223571428Y-72542857D01*
X223542857Y-72600000D01*
X223485714Y-72657142D01*
X223371428Y-72685714D01*
X223171428Y-72685714D01*
X223057142Y-72657142D01*
X223000000Y-72600000D01*
X222971428Y-72542857D01*
X222942857Y-71600000D02*
X223714285Y-72114285D01*
X222971428Y-71485714D02*
X222971428Y-71142857D01*
X223571428Y-71314285D02*
X222971428Y-71314285D01*
X222971428Y-71000000D02*
X223571428Y-70600000D01*
X222971428Y-70600000D02*
X223571428Y-71000000D01*
X220600000Y-72785714D02*
X220571428Y-72842857D01*
X220571428Y-72928571D01*
X220600000Y-73014285D01*
X220657142Y-73071428D01*
X220714285Y-73100000D01*
X220828571Y-73128571D01*
X220914285Y-73128571D01*
X221028571Y-73100000D01*
X221085714Y-73071428D01*
X221142857Y-73014285D01*
X221171428Y-72928571D01*
X221171428Y-72871428D01*
X221142857Y-72785714D01*
X221114285Y-72757142D01*
X220914285Y-72757142D01*
X220914285Y-72871428D01*
X221171428Y-72500000D02*
X220571428Y-72500000D01*
X220571428Y-72271428D01*
X220600000Y-72214285D01*
X220628571Y-72185714D01*
X220685714Y-72157142D01*
X220771428Y-72157142D01*
X220828571Y-72185714D01*
X220857142Y-72214285D01*
X220885714Y-72271428D01*
X220885714Y-72500000D01*
X221171428Y-71900000D02*
X220571428Y-71900000D01*
X220571428Y-71500000D02*
X220571428Y-71385714D01*
X220600000Y-71328571D01*
X220657142Y-71271428D01*
X220771428Y-71242857D01*
X220971428Y-71242857D01*
X221085714Y-71271428D01*
X221142857Y-71328571D01*
X221171428Y-71385714D01*
X221171428Y-71500000D01*
X221142857Y-71557142D01*
X221085714Y-71614285D01*
X220971428Y-71642857D01*
X220771428Y-71642857D01*
X220657142Y-71614285D01*
X220600000Y-71557142D01*
X220571428Y-71500000D01*
X220828571Y-70900000D02*
X220800000Y-70957142D01*
X220771428Y-70985714D01*
X220714285Y-71014285D01*
X220685714Y-71014285D01*
X220628571Y-70985714D01*
X220600000Y-70957142D01*
X220571428Y-70900000D01*
X220571428Y-70785714D01*
X220600000Y-70728571D01*
X220628571Y-70700000D01*
X220685714Y-70671428D01*
X220714285Y-70671428D01*
X220771428Y-70700000D01*
X220800000Y-70728571D01*
X220828571Y-70785714D01*
X220828571Y-70900000D01*
X220857142Y-70957142D01*
X220885714Y-70985714D01*
X220942857Y-71014285D01*
X221057142Y-71014285D01*
X221114285Y-70985714D01*
X221142857Y-70957142D01*
X221171428Y-70900000D01*
X221171428Y-70785714D01*
X221142857Y-70728571D01*
X221114285Y-70700000D01*
X221057142Y-70671428D01*
X220942857Y-70671428D01*
X220885714Y-70700000D01*
X220857142Y-70728571D01*
X220828571Y-70785714D01*
X218000000Y-72785714D02*
X217971428Y-72842857D01*
X217971428Y-72928571D01*
X218000000Y-73014285D01*
X218057142Y-73071428D01*
X218114285Y-73100000D01*
X218228571Y-73128571D01*
X218314285Y-73128571D01*
X218428571Y-73100000D01*
X218485714Y-73071428D01*
X218542857Y-73014285D01*
X218571428Y-72928571D01*
X218571428Y-72871428D01*
X218542857Y-72785714D01*
X218514285Y-72757142D01*
X218314285Y-72757142D01*
X218314285Y-72871428D01*
X218571428Y-72500000D02*
X217971428Y-72500000D01*
X217971428Y-72271428D01*
X218000000Y-72214285D01*
X218028571Y-72185714D01*
X218085714Y-72157142D01*
X218171428Y-72157142D01*
X218228571Y-72185714D01*
X218257142Y-72214285D01*
X218285714Y-72271428D01*
X218285714Y-72500000D01*
X218571428Y-71900000D02*
X217971428Y-71900000D01*
X217971428Y-71500000D02*
X217971428Y-71385714D01*
X218000000Y-71328571D01*
X218057142Y-71271428D01*
X218171428Y-71242857D01*
X218371428Y-71242857D01*
X218485714Y-71271428D01*
X218542857Y-71328571D01*
X218571428Y-71385714D01*
X218571428Y-71500000D01*
X218542857Y-71557142D01*
X218485714Y-71614285D01*
X218371428Y-71642857D01*
X218171428Y-71642857D01*
X218057142Y-71614285D01*
X218000000Y-71557142D01*
X217971428Y-71500000D01*
X217971428Y-71042857D02*
X217971428Y-70642857D01*
X218571428Y-70900000D01*
X215400000Y-72785714D02*
X215371428Y-72842857D01*
X215371428Y-72928571D01*
X215400000Y-73014285D01*
X215457142Y-73071428D01*
X215514285Y-73100000D01*
X215628571Y-73128571D01*
X215714285Y-73128571D01*
X215828571Y-73100000D01*
X215885714Y-73071428D01*
X215942857Y-73014285D01*
X215971428Y-72928571D01*
X215971428Y-72871428D01*
X215942857Y-72785714D01*
X215914285Y-72757142D01*
X215714285Y-72757142D01*
X215714285Y-72871428D01*
X215971428Y-72500000D02*
X215371428Y-72500000D01*
X215371428Y-72271428D01*
X215400000Y-72214285D01*
X215428571Y-72185714D01*
X215485714Y-72157142D01*
X215571428Y-72157142D01*
X215628571Y-72185714D01*
X215657142Y-72214285D01*
X215685714Y-72271428D01*
X215685714Y-72500000D01*
X215971428Y-71900000D02*
X215371428Y-71900000D01*
X215371428Y-71500000D02*
X215371428Y-71385714D01*
X215400000Y-71328571D01*
X215457142Y-71271428D01*
X215571428Y-71242857D01*
X215771428Y-71242857D01*
X215885714Y-71271428D01*
X215942857Y-71328571D01*
X215971428Y-71385714D01*
X215971428Y-71500000D01*
X215942857Y-71557142D01*
X215885714Y-71614285D01*
X215771428Y-71642857D01*
X215571428Y-71642857D01*
X215457142Y-71614285D01*
X215400000Y-71557142D01*
X215371428Y-71500000D01*
X215371428Y-70728571D02*
X215371428Y-70842857D01*
X215400000Y-70900000D01*
X215428571Y-70928571D01*
X215514285Y-70985714D01*
X215628571Y-71014285D01*
X215857142Y-71014285D01*
X215914285Y-70985714D01*
X215942857Y-70957142D01*
X215971428Y-70900000D01*
X215971428Y-70785714D01*
X215942857Y-70728571D01*
X215914285Y-70700000D01*
X215857142Y-70671428D01*
X215714285Y-70671428D01*
X215657142Y-70700000D01*
X215628571Y-70728571D01*
X215600000Y-70785714D01*
X215600000Y-70900000D01*
X215628571Y-70957142D01*
X215657142Y-70985714D01*
X215714285Y-71014285D01*
X212900000Y-72785714D02*
X212871428Y-72842857D01*
X212871428Y-72928571D01*
X212900000Y-73014285D01*
X212957142Y-73071428D01*
X213014285Y-73100000D01*
X213128571Y-73128571D01*
X213214285Y-73128571D01*
X213328571Y-73100000D01*
X213385714Y-73071428D01*
X213442857Y-73014285D01*
X213471428Y-72928571D01*
X213471428Y-72871428D01*
X213442857Y-72785714D01*
X213414285Y-72757142D01*
X213214285Y-72757142D01*
X213214285Y-72871428D01*
X213471428Y-72500000D02*
X212871428Y-72500000D01*
X212871428Y-72271428D01*
X212900000Y-72214285D01*
X212928571Y-72185714D01*
X212985714Y-72157142D01*
X213071428Y-72157142D01*
X213128571Y-72185714D01*
X213157142Y-72214285D01*
X213185714Y-72271428D01*
X213185714Y-72500000D01*
X213471428Y-71900000D02*
X212871428Y-71900000D01*
X212871428Y-71500000D02*
X212871428Y-71385714D01*
X212900000Y-71328571D01*
X212957142Y-71271428D01*
X213071428Y-71242857D01*
X213271428Y-71242857D01*
X213385714Y-71271428D01*
X213442857Y-71328571D01*
X213471428Y-71385714D01*
X213471428Y-71500000D01*
X213442857Y-71557142D01*
X213385714Y-71614285D01*
X213271428Y-71642857D01*
X213071428Y-71642857D01*
X212957142Y-71614285D01*
X212900000Y-71557142D01*
X212871428Y-71500000D01*
X212871428Y-70700000D02*
X212871428Y-70985714D01*
X213157142Y-71014285D01*
X213128571Y-70985714D01*
X213100000Y-70928571D01*
X213100000Y-70785714D01*
X213128571Y-70728571D01*
X213157142Y-70700000D01*
X213214285Y-70671428D01*
X213357142Y-70671428D01*
X213414285Y-70700000D01*
X213442857Y-70728571D01*
X213471428Y-70785714D01*
X213471428Y-70928571D01*
X213442857Y-70985714D01*
X213414285Y-71014285D01*
X210400000Y-72785714D02*
X210371428Y-72842857D01*
X210371428Y-72928571D01*
X210400000Y-73014285D01*
X210457142Y-73071428D01*
X210514285Y-73100000D01*
X210628571Y-73128571D01*
X210714285Y-73128571D01*
X210828571Y-73100000D01*
X210885714Y-73071428D01*
X210942857Y-73014285D01*
X210971428Y-72928571D01*
X210971428Y-72871428D01*
X210942857Y-72785714D01*
X210914285Y-72757142D01*
X210714285Y-72757142D01*
X210714285Y-72871428D01*
X210971428Y-72500000D02*
X210371428Y-72500000D01*
X210371428Y-72271428D01*
X210400000Y-72214285D01*
X210428571Y-72185714D01*
X210485714Y-72157142D01*
X210571428Y-72157142D01*
X210628571Y-72185714D01*
X210657142Y-72214285D01*
X210685714Y-72271428D01*
X210685714Y-72500000D01*
X210971428Y-71900000D02*
X210371428Y-71900000D01*
X210371428Y-71500000D02*
X210371428Y-71385714D01*
X210400000Y-71328571D01*
X210457142Y-71271428D01*
X210571428Y-71242857D01*
X210771428Y-71242857D01*
X210885714Y-71271428D01*
X210942857Y-71328571D01*
X210971428Y-71385714D01*
X210971428Y-71500000D01*
X210942857Y-71557142D01*
X210885714Y-71614285D01*
X210771428Y-71642857D01*
X210571428Y-71642857D01*
X210457142Y-71614285D01*
X210400000Y-71557142D01*
X210371428Y-71500000D01*
X210571428Y-70728571D02*
X210971428Y-70728571D01*
X210342857Y-70871428D02*
X210771428Y-71014285D01*
X210771428Y-70642857D01*
X207900000Y-72685714D02*
X207871428Y-72742857D01*
X207871428Y-72828571D01*
X207900000Y-72914285D01*
X207957142Y-72971428D01*
X208014285Y-73000000D01*
X208128571Y-73028571D01*
X208214285Y-73028571D01*
X208328571Y-73000000D01*
X208385714Y-72971428D01*
X208442857Y-72914285D01*
X208471428Y-72828571D01*
X208471428Y-72771428D01*
X208442857Y-72685714D01*
X208414285Y-72657142D01*
X208214285Y-72657142D01*
X208214285Y-72771428D01*
X208471428Y-72400000D02*
X207871428Y-72400000D01*
X207871428Y-72171428D01*
X207900000Y-72114285D01*
X207928571Y-72085714D01*
X207985714Y-72057142D01*
X208071428Y-72057142D01*
X208128571Y-72085714D01*
X208157142Y-72114285D01*
X208185714Y-72171428D01*
X208185714Y-72400000D01*
X208471428Y-71800000D02*
X207871428Y-71800000D01*
X207871428Y-71400000D02*
X207871428Y-71285714D01*
X207900000Y-71228571D01*
X207957142Y-71171428D01*
X208071428Y-71142857D01*
X208271428Y-71142857D01*
X208385714Y-71171428D01*
X208442857Y-71228571D01*
X208471428Y-71285714D01*
X208471428Y-71400000D01*
X208442857Y-71457142D01*
X208385714Y-71514285D01*
X208271428Y-71542857D01*
X208071428Y-71542857D01*
X207957142Y-71514285D01*
X207900000Y-71457142D01*
X207871428Y-71400000D01*
X207871428Y-70942857D02*
X207871428Y-70571428D01*
X208100000Y-70771428D01*
X208100000Y-70685714D01*
X208128571Y-70628571D01*
X208157142Y-70600000D01*
X208214285Y-70571428D01*
X208357142Y-70571428D01*
X208414285Y-70600000D01*
X208442857Y-70628571D01*
X208471428Y-70685714D01*
X208471428Y-70857142D01*
X208442857Y-70914285D01*
X208414285Y-70942857D01*
X205400000Y-72685714D02*
X205371428Y-72742857D01*
X205371428Y-72828571D01*
X205400000Y-72914285D01*
X205457142Y-72971428D01*
X205514285Y-73000000D01*
X205628571Y-73028571D01*
X205714285Y-73028571D01*
X205828571Y-73000000D01*
X205885714Y-72971428D01*
X205942857Y-72914285D01*
X205971428Y-72828571D01*
X205971428Y-72771428D01*
X205942857Y-72685714D01*
X205914285Y-72657142D01*
X205714285Y-72657142D01*
X205714285Y-72771428D01*
X205971428Y-72400000D02*
X205371428Y-72400000D01*
X205371428Y-72171428D01*
X205400000Y-72114285D01*
X205428571Y-72085714D01*
X205485714Y-72057142D01*
X205571428Y-72057142D01*
X205628571Y-72085714D01*
X205657142Y-72114285D01*
X205685714Y-72171428D01*
X205685714Y-72400000D01*
X205971428Y-71800000D02*
X205371428Y-71800000D01*
X205371428Y-71400000D02*
X205371428Y-71285714D01*
X205400000Y-71228571D01*
X205457142Y-71171428D01*
X205571428Y-71142857D01*
X205771428Y-71142857D01*
X205885714Y-71171428D01*
X205942857Y-71228571D01*
X205971428Y-71285714D01*
X205971428Y-71400000D01*
X205942857Y-71457142D01*
X205885714Y-71514285D01*
X205771428Y-71542857D01*
X205571428Y-71542857D01*
X205457142Y-71514285D01*
X205400000Y-71457142D01*
X205371428Y-71400000D01*
X205428571Y-70914285D02*
X205400000Y-70885714D01*
X205371428Y-70828571D01*
X205371428Y-70685714D01*
X205400000Y-70628571D01*
X205428571Y-70600000D01*
X205485714Y-70571428D01*
X205542857Y-70571428D01*
X205628571Y-70600000D01*
X205971428Y-70942857D01*
X205971428Y-70571428D01*
X202800000Y-72685714D02*
X202771428Y-72742857D01*
X202771428Y-72828571D01*
X202800000Y-72914285D01*
X202857142Y-72971428D01*
X202914285Y-73000000D01*
X203028571Y-73028571D01*
X203114285Y-73028571D01*
X203228571Y-73000000D01*
X203285714Y-72971428D01*
X203342857Y-72914285D01*
X203371428Y-72828571D01*
X203371428Y-72771428D01*
X203342857Y-72685714D01*
X203314285Y-72657142D01*
X203114285Y-72657142D01*
X203114285Y-72771428D01*
X203371428Y-72400000D02*
X202771428Y-72400000D01*
X202771428Y-72171428D01*
X202800000Y-72114285D01*
X202828571Y-72085714D01*
X202885714Y-72057142D01*
X202971428Y-72057142D01*
X203028571Y-72085714D01*
X203057142Y-72114285D01*
X203085714Y-72171428D01*
X203085714Y-72400000D01*
X203371428Y-71800000D02*
X202771428Y-71800000D01*
X202771428Y-71400000D02*
X202771428Y-71285714D01*
X202800000Y-71228571D01*
X202857142Y-71171428D01*
X202971428Y-71142857D01*
X203171428Y-71142857D01*
X203285714Y-71171428D01*
X203342857Y-71228571D01*
X203371428Y-71285714D01*
X203371428Y-71400000D01*
X203342857Y-71457142D01*
X203285714Y-71514285D01*
X203171428Y-71542857D01*
X202971428Y-71542857D01*
X202857142Y-71514285D01*
X202800000Y-71457142D01*
X202771428Y-71400000D01*
X203371428Y-70571428D02*
X203371428Y-70914285D01*
X203371428Y-70742857D02*
X202771428Y-70742857D01*
X202857142Y-70800000D01*
X202914285Y-70857142D01*
X202942857Y-70914285D01*
X229771428Y-123185714D02*
X229771428Y-123471428D01*
X229171428Y-123471428D01*
X229457142Y-122985714D02*
X229457142Y-122785714D01*
X229771428Y-122700000D02*
X229771428Y-122985714D01*
X229171428Y-122985714D01*
X229171428Y-122700000D01*
X229771428Y-122442857D02*
X229171428Y-122442857D01*
X229171428Y-122300000D01*
X229200000Y-122214285D01*
X229257142Y-122157142D01*
X229314285Y-122128571D01*
X229428571Y-122100000D01*
X229514285Y-122100000D01*
X229628571Y-122128571D01*
X229685714Y-122157142D01*
X229742857Y-122214285D01*
X229771428Y-122300000D01*
X229771428Y-122442857D01*
X227242857Y-123571428D02*
X227271428Y-123485714D01*
X227271428Y-123342857D01*
X227242857Y-123285714D01*
X227214285Y-123257142D01*
X227157142Y-123228571D01*
X227100000Y-123228571D01*
X227042857Y-123257142D01*
X227014285Y-123285714D01*
X226985714Y-123342857D01*
X226957142Y-123457142D01*
X226928571Y-123514285D01*
X226900000Y-123542857D01*
X226842857Y-123571428D01*
X226785714Y-123571428D01*
X226728571Y-123542857D01*
X226700000Y-123514285D01*
X226671428Y-123457142D01*
X226671428Y-123314285D01*
X226700000Y-123228571D01*
X227214285Y-122628571D02*
X227242857Y-122657142D01*
X227271428Y-122742857D01*
X227271428Y-122800000D01*
X227242857Y-122885714D01*
X227185714Y-122942857D01*
X227128571Y-122971428D01*
X227014285Y-123000000D01*
X226928571Y-123000000D01*
X226814285Y-122971428D01*
X226757142Y-122942857D01*
X226700000Y-122885714D01*
X226671428Y-122800000D01*
X226671428Y-122742857D01*
X226700000Y-122657142D01*
X226728571Y-122628571D01*
X227271428Y-122371428D02*
X226671428Y-122371428D01*
X227271428Y-122028571D02*
X226928571Y-122285714D01*
X226671428Y-122028571D02*
X227014285Y-122371428D01*
X224771428Y-123542857D02*
X224171428Y-123542857D01*
X224600000Y-123342857D01*
X224171428Y-123142857D01*
X224771428Y-123142857D01*
X224171428Y-122742857D02*
X224171428Y-122628571D01*
X224200000Y-122571428D01*
X224257142Y-122514285D01*
X224371428Y-122485714D01*
X224571428Y-122485714D01*
X224685714Y-122514285D01*
X224742857Y-122571428D01*
X224771428Y-122628571D01*
X224771428Y-122742857D01*
X224742857Y-122800000D01*
X224685714Y-122857142D01*
X224571428Y-122885714D01*
X224371428Y-122885714D01*
X224257142Y-122857142D01*
X224200000Y-122800000D01*
X224171428Y-122742857D01*
X224742857Y-122257142D02*
X224771428Y-122171428D01*
X224771428Y-122028571D01*
X224742857Y-121971428D01*
X224714285Y-121942857D01*
X224657142Y-121914285D01*
X224600000Y-121914285D01*
X224542857Y-121942857D01*
X224514285Y-121971428D01*
X224485714Y-122028571D01*
X224457142Y-122142857D01*
X224428571Y-122200000D01*
X224400000Y-122228571D01*
X224342857Y-122257142D01*
X224285714Y-122257142D01*
X224228571Y-122228571D01*
X224200000Y-122200000D01*
X224171428Y-122142857D01*
X224171428Y-122000000D01*
X224200000Y-121914285D01*
X224771428Y-121657142D02*
X224171428Y-121657142D01*
X222000000Y-123428571D02*
X222000000Y-123142857D01*
X222171428Y-123485714D02*
X221571428Y-123285714D01*
X222171428Y-123085714D01*
X221571428Y-122771428D02*
X221571428Y-122714285D01*
X221600000Y-122657142D01*
X221628571Y-122628571D01*
X221685714Y-122600000D01*
X221800000Y-122571428D01*
X221942857Y-122571428D01*
X222057142Y-122600000D01*
X222114285Y-122628571D01*
X222142857Y-122657142D01*
X222171428Y-122714285D01*
X222171428Y-122771428D01*
X222142857Y-122828571D01*
X222114285Y-122857142D01*
X222057142Y-122885714D01*
X221942857Y-122914285D01*
X221800000Y-122914285D01*
X221685714Y-122885714D01*
X221628571Y-122857142D01*
X221600000Y-122828571D01*
X221571428Y-122771428D01*
X219671428Y-123128571D02*
X219385714Y-123328571D01*
X219671428Y-123471428D02*
X219071428Y-123471428D01*
X219071428Y-123242857D01*
X219100000Y-123185714D01*
X219128571Y-123157142D01*
X219185714Y-123128571D01*
X219271428Y-123128571D01*
X219328571Y-123157142D01*
X219357142Y-123185714D01*
X219385714Y-123242857D01*
X219385714Y-123471428D01*
X219642857Y-122900000D02*
X219671428Y-122814285D01*
X219671428Y-122671428D01*
X219642857Y-122614285D01*
X219614285Y-122585714D01*
X219557142Y-122557142D01*
X219500000Y-122557142D01*
X219442857Y-122585714D01*
X219414285Y-122614285D01*
X219385714Y-122671428D01*
X219357142Y-122785714D01*
X219328571Y-122842857D01*
X219300000Y-122871428D01*
X219242857Y-122900000D01*
X219185714Y-122900000D01*
X219128571Y-122871428D01*
X219100000Y-122842857D01*
X219071428Y-122785714D01*
X219071428Y-122642857D01*
X219100000Y-122557142D01*
X219071428Y-122385714D02*
X219071428Y-122042857D01*
X219671428Y-122214285D02*
X219071428Y-122214285D01*
X217114285Y-123100000D02*
X217142857Y-123128571D01*
X217171428Y-123214285D01*
X217171428Y-123271428D01*
X217142857Y-123357142D01*
X217085714Y-123414285D01*
X217028571Y-123442857D01*
X216914285Y-123471428D01*
X216828571Y-123471428D01*
X216714285Y-123442857D01*
X216657142Y-123414285D01*
X216600000Y-123357142D01*
X216571428Y-123271428D01*
X216571428Y-123214285D01*
X216600000Y-123128571D01*
X216628571Y-123100000D01*
X217142857Y-122871428D02*
X217171428Y-122785714D01*
X217171428Y-122642857D01*
X217142857Y-122585714D01*
X217114285Y-122557142D01*
X217057142Y-122528571D01*
X217000000Y-122528571D01*
X216942857Y-122557142D01*
X216914285Y-122585714D01*
X216885714Y-122642857D01*
X216857142Y-122757142D01*
X216828571Y-122814285D01*
X216800000Y-122842857D01*
X216742857Y-122871428D01*
X216685714Y-122871428D01*
X216628571Y-122842857D01*
X216600000Y-122814285D01*
X216571428Y-122757142D01*
X216571428Y-122614285D01*
X216600000Y-122528571D01*
X214100000Y-123107142D02*
X214071428Y-123164285D01*
X214071428Y-123250000D01*
X214100000Y-123335714D01*
X214157142Y-123392857D01*
X214214285Y-123421428D01*
X214328571Y-123450000D01*
X214414285Y-123450000D01*
X214528571Y-123421428D01*
X214585714Y-123392857D01*
X214642857Y-123335714D01*
X214671428Y-123250000D01*
X214671428Y-123192857D01*
X214642857Y-123107142D01*
X214614285Y-123078571D01*
X214414285Y-123078571D01*
X214414285Y-123192857D01*
X214671428Y-122821428D02*
X214071428Y-122821428D01*
X214671428Y-122478571D01*
X214071428Y-122478571D01*
X214671428Y-122192857D02*
X214071428Y-122192857D01*
X214071428Y-122050000D01*
X214100000Y-121964285D01*
X214157142Y-121907142D01*
X214214285Y-121878571D01*
X214328571Y-121850000D01*
X214414285Y-121850000D01*
X214528571Y-121878571D01*
X214585714Y-121907142D01*
X214642857Y-121964285D01*
X214671428Y-122050000D01*
X214671428Y-122192857D01*
X211571428Y-123535714D02*
X211571428Y-123164285D01*
X211800000Y-123364285D01*
X211800000Y-123278571D01*
X211828571Y-123221428D01*
X211857142Y-123192857D01*
X211914285Y-123164285D01*
X212057142Y-123164285D01*
X212114285Y-123192857D01*
X212142857Y-123221428D01*
X212171428Y-123278571D01*
X212171428Y-123450000D01*
X212142857Y-123507142D01*
X212114285Y-123535714D01*
X212114285Y-122907142D02*
X212142857Y-122878571D01*
X212171428Y-122907142D01*
X212142857Y-122935714D01*
X212114285Y-122907142D01*
X212171428Y-122907142D01*
X211571428Y-122678571D02*
X211571428Y-122307142D01*
X211800000Y-122507142D01*
X211800000Y-122421428D01*
X211828571Y-122364285D01*
X211857142Y-122335714D01*
X211914285Y-122307142D01*
X212057142Y-122307142D01*
X212114285Y-122335714D01*
X212142857Y-122364285D01*
X212171428Y-122421428D01*
X212171428Y-122592857D01*
X212142857Y-122650000D01*
X212114285Y-122678571D01*
X211571428Y-122135714D02*
X212171428Y-121935714D01*
X211571428Y-121735714D01*
D11*
X242080952Y-120111904D02*
X242080952Y-119311904D01*
X242347619Y-119883333D01*
X242614285Y-119311904D01*
X242614285Y-120111904D01*
X243338095Y-120111904D02*
X243338095Y-119692857D01*
X243300000Y-119616666D01*
X243223809Y-119578571D01*
X243071428Y-119578571D01*
X242995238Y-119616666D01*
X243338095Y-120073809D02*
X243261904Y-120111904D01*
X243071428Y-120111904D01*
X242995238Y-120073809D01*
X242957142Y-119997619D01*
X242957142Y-119921428D01*
X242995238Y-119845238D01*
X243071428Y-119807142D01*
X243261904Y-119807142D01*
X243338095Y-119769047D01*
X243642857Y-119578571D02*
X243833333Y-120111904D01*
X244023809Y-119578571D02*
X243833333Y-120111904D01*
X243757142Y-120302380D01*
X243719047Y-120340476D01*
X243642857Y-120378571D01*
X245357142Y-120111904D02*
X244900000Y-120111904D01*
X245128571Y-120111904D02*
X245128571Y-119311904D01*
X245052380Y-119426190D01*
X244976190Y-119502380D01*
X244900000Y-119540476D01*
X245623809Y-119311904D02*
X246157142Y-119311904D01*
X245814285Y-120111904D01*
X246500000Y-120073809D02*
X246500000Y-120111904D01*
X246461904Y-120188095D01*
X246423809Y-120226190D01*
X247414285Y-119388095D02*
X247452380Y-119350000D01*
X247528571Y-119311904D01*
X247719047Y-119311904D01*
X247795238Y-119350000D01*
X247833333Y-119388095D01*
X247871428Y-119464285D01*
X247871428Y-119540476D01*
X247833333Y-119654761D01*
X247376190Y-120111904D01*
X247871428Y-120111904D01*
X248366666Y-119311904D02*
X248442857Y-119311904D01*
X248519047Y-119350000D01*
X248557142Y-119388095D01*
X248595238Y-119464285D01*
X248633333Y-119616666D01*
X248633333Y-119807142D01*
X248595238Y-119959523D01*
X248557142Y-120035714D01*
X248519047Y-120073809D01*
X248442857Y-120111904D01*
X248366666Y-120111904D01*
X248290476Y-120073809D01*
X248252380Y-120035714D01*
X248214285Y-119959523D01*
X248176190Y-119807142D01*
X248176190Y-119616666D01*
X248214285Y-119464285D01*
X248252380Y-119388095D01*
X248290476Y-119350000D01*
X248366666Y-119311904D01*
X248938095Y-119388095D02*
X248976190Y-119350000D01*
X249052380Y-119311904D01*
X249242857Y-119311904D01*
X249319047Y-119350000D01*
X249357142Y-119388095D01*
X249395238Y-119464285D01*
X249395238Y-119540476D01*
X249357142Y-119654761D01*
X248900000Y-120111904D01*
X249395238Y-120111904D01*
X250157142Y-120111904D02*
X249700000Y-120111904D01*
X249928571Y-120111904D02*
X249928571Y-119311904D01*
X249852380Y-119426190D01*
X249776190Y-119502380D01*
X249700000Y-119540476D01*
D12*
X209423809Y-103440476D02*
X209066666Y-103440476D01*
X208995238Y-103416666D01*
X208947619Y-103369047D01*
X208923809Y-103297619D01*
X208923809Y-103250000D01*
X208923809Y-103916666D02*
X208923809Y-103678571D01*
X209423809Y-103678571D01*
X208971428Y-104369047D02*
X208947619Y-104345238D01*
X208923809Y-104273809D01*
X208923809Y-104226190D01*
X208947619Y-104154761D01*
X208995238Y-104107142D01*
X209042857Y-104083333D01*
X209138095Y-104059523D01*
X209209523Y-104059523D01*
X209304761Y-104083333D01*
X209352380Y-104107142D01*
X209400000Y-104154761D01*
X209423809Y-104226190D01*
X209423809Y-104273809D01*
X209400000Y-104345238D01*
X209376190Y-104369047D01*
X209423809Y-104726190D02*
X209066666Y-104726190D01*
X208995238Y-104702380D01*
X208947619Y-104654761D01*
X208923809Y-104583333D01*
X208923809Y-104535714D01*
X208923809Y-105202380D02*
X208923809Y-104964285D01*
X209423809Y-104964285D01*
X208971428Y-105654761D02*
X208947619Y-105630952D01*
X208923809Y-105559523D01*
X208923809Y-105511904D01*
X208947619Y-105440476D01*
X208995238Y-105392857D01*
X209042857Y-105369047D01*
X209138095Y-105345238D01*
X209209523Y-105345238D01*
X209304761Y-105369047D01*
X209352380Y-105392857D01*
X209400000Y-105440476D01*
X209423809Y-105511904D01*
X209423809Y-105559523D01*
X209400000Y-105630952D01*
X209376190Y-105654761D01*
X209423809Y-106011904D02*
X209066666Y-106011904D01*
X208995238Y-105988095D01*
X208947619Y-105940476D01*
X208923809Y-105869047D01*
X208923809Y-105821428D01*
X208923809Y-106488095D02*
X208923809Y-106250000D01*
X209423809Y-106250000D01*
X208971428Y-106940476D02*
X208947619Y-106916666D01*
X208923809Y-106845238D01*
X208923809Y-106797619D01*
X208947619Y-106726190D01*
X208995238Y-106678571D01*
X209042857Y-106654761D01*
X209138095Y-106630952D01*
X209209523Y-106630952D01*
X209304761Y-106654761D01*
X209352380Y-106678571D01*
X209400000Y-106726190D01*
X209423809Y-106797619D01*
X209423809Y-106845238D01*
X209400000Y-106916666D01*
X209376190Y-106940476D01*
X209423809Y-107297619D02*
X209066666Y-107297619D01*
X208995238Y-107273809D01*
X208947619Y-107226190D01*
X208923809Y-107154761D01*
X208923809Y-107107142D01*
X208923809Y-107773809D02*
X208923809Y-107535714D01*
X209423809Y-107535714D01*
X208971428Y-108226190D02*
X208947619Y-108202380D01*
X208923809Y-108130952D01*
X208923809Y-108083333D01*
X208947619Y-108011904D01*
X208995238Y-107964285D01*
X209042857Y-107940476D01*
X209138095Y-107916666D01*
X209209523Y-107916666D01*
X209304761Y-107940476D01*
X209352380Y-107964285D01*
X209400000Y-108011904D01*
X209423809Y-108083333D01*
X209423809Y-108130952D01*
X209400000Y-108202380D01*
X209376190Y-108226190D01*
D11*
X229361904Y-118373809D02*
X229476190Y-118411904D01*
X229666666Y-118411904D01*
X229742857Y-118373809D01*
X229780952Y-118335714D01*
X229819047Y-118259523D01*
X229819047Y-118183333D01*
X229780952Y-118107142D01*
X229742857Y-118069047D01*
X229666666Y-118030952D01*
X229514285Y-117992857D01*
X229438095Y-117954761D01*
X229400000Y-117916666D01*
X229361904Y-117840476D01*
X229361904Y-117764285D01*
X229400000Y-117688095D01*
X229438095Y-117650000D01*
X229514285Y-117611904D01*
X229704761Y-117611904D01*
X229819047Y-117650000D01*
X230047619Y-117611904D02*
X230504761Y-117611904D01*
X230276190Y-118411904D02*
X230276190Y-117611904D01*
X230771428Y-118411904D02*
X230771428Y-117611904D01*
X231038095Y-118183333D01*
X231304761Y-117611904D01*
X231304761Y-118411904D01*
X231609523Y-117611904D02*
X232104761Y-117611904D01*
X231838095Y-117916666D01*
X231952380Y-117916666D01*
X232028571Y-117954761D01*
X232066666Y-117992857D01*
X232104761Y-118069047D01*
X232104761Y-118259523D01*
X232066666Y-118335714D01*
X232028571Y-118373809D01*
X231952380Y-118411904D01*
X231723809Y-118411904D01*
X231647619Y-118373809D01*
X231609523Y-118335714D01*
X232409523Y-117688095D02*
X232447619Y-117650000D01*
X232523809Y-117611904D01*
X232714285Y-117611904D01*
X232790476Y-117650000D01*
X232828571Y-117688095D01*
X232866666Y-117764285D01*
X232866666Y-117840476D01*
X232828571Y-117954761D01*
X232371428Y-118411904D01*
X232866666Y-118411904D01*
X233704761Y-117611904D02*
X234161904Y-117611904D01*
X233933333Y-118411904D02*
X233933333Y-117611904D01*
X234428571Y-117992857D02*
X234695238Y-117992857D01*
X234809523Y-118411904D02*
X234428571Y-118411904D01*
X234428571Y-117611904D01*
X234809523Y-117611904D01*
X235114285Y-118373809D02*
X235228571Y-118411904D01*
X235419047Y-118411904D01*
X235495238Y-118373809D01*
X235533333Y-118335714D01*
X235571428Y-118259523D01*
X235571428Y-118183333D01*
X235533333Y-118107142D01*
X235495238Y-118069047D01*
X235419047Y-118030952D01*
X235266666Y-117992857D01*
X235190476Y-117954761D01*
X235152380Y-117916666D01*
X235114285Y-117840476D01*
X235114285Y-117764285D01*
X235152380Y-117688095D01*
X235190476Y-117650000D01*
X235266666Y-117611904D01*
X235457142Y-117611904D01*
X235571428Y-117650000D01*
X235800000Y-117611904D02*
X236257142Y-117611904D01*
X236028571Y-118411904D02*
X236028571Y-117611904D01*
X237133333Y-118411904D02*
X237133333Y-117611904D01*
X237323809Y-117611904D01*
X237438095Y-117650000D01*
X237514285Y-117726190D01*
X237552380Y-117802380D01*
X237590476Y-117954761D01*
X237590476Y-118069047D01*
X237552380Y-118221428D01*
X237514285Y-118297619D01*
X237438095Y-118373809D01*
X237323809Y-118411904D01*
X237133333Y-118411904D01*
X237933333Y-117992857D02*
X238200000Y-117992857D01*
X238314285Y-118411904D02*
X237933333Y-118411904D01*
X237933333Y-117611904D01*
X238314285Y-117611904D01*
X238542857Y-117611904D02*
X238809523Y-118411904D01*
X239076190Y-117611904D01*
X240219047Y-117992857D02*
X240333333Y-118030952D01*
X240371428Y-118069047D01*
X240409523Y-118145238D01*
X240409523Y-118259523D01*
X240371428Y-118335714D01*
X240333333Y-118373809D01*
X240257142Y-118411904D01*
X239952380Y-118411904D01*
X239952380Y-117611904D01*
X240219047Y-117611904D01*
X240295238Y-117650000D01*
X240333333Y-117688095D01*
X240371428Y-117764285D01*
X240371428Y-117840476D01*
X240333333Y-117916666D01*
X240295238Y-117954761D01*
X240219047Y-117992857D01*
X239952380Y-117992857D01*
X240904761Y-117611904D02*
X241057142Y-117611904D01*
X241133333Y-117650000D01*
X241209523Y-117726190D01*
X241247619Y-117878571D01*
X241247619Y-118145238D01*
X241209523Y-118297619D01*
X241133333Y-118373809D01*
X241057142Y-118411904D01*
X240904761Y-118411904D01*
X240828571Y-118373809D01*
X240752380Y-118297619D01*
X240714285Y-118145238D01*
X240714285Y-117878571D01*
X240752380Y-117726190D01*
X240828571Y-117650000D01*
X240904761Y-117611904D01*
X241552380Y-118183333D02*
X241933333Y-118183333D01*
X241476190Y-118411904D02*
X241742857Y-117611904D01*
X242009523Y-118411904D01*
X242733333Y-118411904D02*
X242466666Y-118030952D01*
X242276190Y-118411904D02*
X242276190Y-117611904D01*
X242580952Y-117611904D01*
X242657142Y-117650000D01*
X242695238Y-117688095D01*
X242733333Y-117764285D01*
X242733333Y-117878571D01*
X242695238Y-117954761D01*
X242657142Y-117992857D01*
X242580952Y-118030952D01*
X242276190Y-118030952D01*
X243076190Y-118411904D02*
X243076190Y-117611904D01*
X243266666Y-117611904D01*
X243380952Y-117650000D01*
X243457142Y-117726190D01*
X243495238Y-117802380D01*
X243533333Y-117954761D01*
X243533333Y-118069047D01*
X243495238Y-118221428D01*
X243457142Y-118297619D01*
X243380952Y-118373809D01*
X243266666Y-118411904D01*
X243076190Y-118411904D01*
X244676190Y-118678571D02*
X244676190Y-117535714D01*
X246314285Y-118411904D02*
X246047619Y-118030952D01*
X245857142Y-118411904D02*
X245857142Y-117611904D01*
X246161904Y-117611904D01*
X246238095Y-117650000D01*
X246276190Y-117688095D01*
X246314285Y-117764285D01*
X246314285Y-117878571D01*
X246276190Y-117954761D01*
X246238095Y-117992857D01*
X246161904Y-118030952D01*
X245857142Y-118030952D01*
X246657142Y-117992857D02*
X246923809Y-117992857D01*
X247038095Y-118411904D02*
X246657142Y-118411904D01*
X246657142Y-117611904D01*
X247038095Y-117611904D01*
X247266666Y-117611904D02*
X247533333Y-118411904D01*
X247800000Y-117611904D01*
X249095238Y-118411904D02*
X248638095Y-118411904D01*
X248866666Y-118411904D02*
X248866666Y-117611904D01*
X248790476Y-117726190D01*
X248714285Y-117802380D01*
X248638095Y-117840476D01*
X249438095Y-118335714D02*
X249476190Y-118373809D01*
X249438095Y-118411904D01*
X249400000Y-118373809D01*
X249438095Y-118335714D01*
X249438095Y-118411904D01*
X250238095Y-118411904D02*
X249780952Y-118411904D01*
X250009523Y-118411904D02*
X250009523Y-117611904D01*
X249933333Y-117726190D01*
X249857142Y-117802380D01*
X249780952Y-117840476D01*
%TO.C,J1*%
X208975000Y-128250000D02*
X201025000Y-128250000D01*
%TO.C,R2*%
X203872500Y-112762742D02*
X203872500Y-113237258D01*
X202827500Y-112762742D02*
X202827500Y-113237258D01*
%TO.C,R1*%
X206522500Y-112762742D02*
X206522500Y-113237258D01*
X205477500Y-112762742D02*
X205477500Y-113237258D01*
%TO.C,R13*%
X240280000Y-88846359D02*
X240280000Y-89153641D01*
X239520000Y-88846359D02*
X239520000Y-89153641D01*
%TO.C,R12*%
X240280000Y-99946359D02*
X240280000Y-100253641D01*
X239520000Y-99946359D02*
X239520000Y-100253641D01*
%TO.C,R11*%
X240280000Y-110946359D02*
X240280000Y-111253641D01*
X239520000Y-110946359D02*
X239520000Y-111253641D01*
%TO.C,SW4*%
X242260000Y-82350000D02*
X242290000Y-82350000D01*
X248720000Y-82350000D02*
X248690000Y-82350000D01*
X248720000Y-88810000D02*
X248690000Y-88810000D01*
X242290000Y-88810000D02*
X242260000Y-88810000D01*
X244190000Y-82350000D02*
X246790000Y-82350000D01*
X242260000Y-88810000D02*
X242260000Y-82350000D01*
X244190000Y-88810000D02*
X246790000Y-88810000D01*
X248720000Y-88810000D02*
X248720000Y-82350000D01*
%TO.C,SW3*%
X242260000Y-93400000D02*
X242290000Y-93400000D01*
X248720000Y-93400000D02*
X248690000Y-93400000D01*
X248720000Y-99860000D02*
X248690000Y-99860000D01*
X242290000Y-99860000D02*
X242260000Y-99860000D01*
X244190000Y-93400000D02*
X246790000Y-93400000D01*
X242260000Y-99860000D02*
X242260000Y-93400000D01*
X244190000Y-99860000D02*
X246790000Y-99860000D01*
X248720000Y-99860000D02*
X248720000Y-93400000D01*
%TO.C,D2*%
X196485000Y-98265000D02*
X194200000Y-98265000D01*
X196485000Y-99735000D02*
X196485000Y-98265000D01*
X194200000Y-99735000D02*
X196485000Y-99735000D01*
%TO.C,D3*%
X194200000Y-97735000D02*
X196485000Y-97735000D01*
X196485000Y-97735000D02*
X196485000Y-96265000D01*
X196485000Y-96265000D02*
X194200000Y-96265000D01*
%TO.C,R4*%
X198762742Y-96477500D02*
X199237258Y-96477500D01*
X198762742Y-97522500D02*
X199237258Y-97522500D01*
%TO.C,R3*%
X198762742Y-99522500D02*
X199237258Y-99522500D01*
X198762742Y-98477500D02*
X199237258Y-98477500D01*
%TO.C,SW1*%
X195250000Y-73250000D02*
X192250000Y-73250000D01*
X192250000Y-73250000D02*
X192250000Y-81250000D01*
X192250000Y-81250000D02*
X195250000Y-81250000D01*
X195250000Y-73250000D02*
X195250000Y-81250000D01*
%TO.C,C1*%
X196640580Y-118260000D02*
X196359420Y-118260000D01*
X196640580Y-117240000D02*
X196359420Y-117240000D01*
%TO.C,C2*%
X198240000Y-103740000D02*
X198240000Y-104940000D01*
X198240000Y-108260000D02*
X198240000Y-107060000D01*
X201695563Y-108260000D02*
X198240000Y-108260000D01*
X201695563Y-103740000D02*
X198240000Y-103740000D01*
X202760000Y-104804437D02*
X202760000Y-104940000D01*
X202760000Y-107195563D02*
X202760000Y-107060000D01*
X202760000Y-107195563D02*
X201695563Y-108260000D01*
X202760000Y-104804437D02*
X201695563Y-103740000D01*
X203500000Y-107560000D02*
X203000000Y-107560000D01*
X203250000Y-107810000D02*
X203250000Y-107310000D01*
%TO.C,C3*%
X205110000Y-105642164D02*
X205110000Y-105857836D01*
X204390000Y-105642164D02*
X204390000Y-105857836D01*
%TO.C,C4*%
X204407836Y-103540000D02*
X204192164Y-103540000D01*
X204407836Y-104260000D02*
X204192164Y-104260000D01*
%TO.C,C5*%
X207140580Y-117360000D02*
X206859420Y-117360000D01*
X207140580Y-116340000D02*
X206859420Y-116340000D01*
%TO.C,C6*%
X202490580Y-116340000D02*
X202209420Y-116340000D01*
X202490580Y-117360000D02*
X202209420Y-117360000D01*
%TO.C,C7*%
X211892164Y-82390000D02*
X212107836Y-82390000D01*
X211892164Y-83110000D02*
X212107836Y-83110000D01*
%TO.C,C8*%
X211892164Y-84360000D02*
X212107836Y-84360000D01*
X211892164Y-83640000D02*
X212107836Y-83640000D01*
%TO.C,C9*%
X220860000Y-86692164D02*
X220860000Y-86907836D01*
X220140000Y-86692164D02*
X220140000Y-86907836D01*
%TO.C,C10*%
X217357836Y-96360000D02*
X217142164Y-96360000D01*
X217357836Y-95640000D02*
X217142164Y-95640000D01*
%TO.C,C11*%
X207610000Y-91107836D02*
X207610000Y-90892164D01*
X206890000Y-91107836D02*
X206890000Y-90892164D01*
%TO.C,C12*%
X208140000Y-91107836D02*
X208140000Y-90892164D01*
X208860000Y-91107836D02*
X208860000Y-90892164D01*
%TO.C,C13*%
X204357836Y-77360000D02*
X204142164Y-77360000D01*
X204357836Y-76640000D02*
X204142164Y-76640000D01*
%TO.C,C14*%
X204357836Y-88860000D02*
X204142164Y-88860000D01*
X204357836Y-88140000D02*
X204142164Y-88140000D01*
%TO.C,C15*%
X225357836Y-103640000D02*
X225142164Y-103640000D01*
X225357836Y-104360000D02*
X225142164Y-104360000D01*
%TO.C,C16*%
X225357836Y-102140000D02*
X225142164Y-102140000D01*
X225357836Y-102860000D02*
X225142164Y-102860000D01*
%TO.C,C17*%
X227140000Y-101892164D02*
X227140000Y-102107836D01*
X227860000Y-101892164D02*
X227860000Y-102107836D01*
%TO.C,D4*%
X225985000Y-87265000D02*
X223700000Y-87265000D01*
X225985000Y-88735000D02*
X225985000Y-87265000D01*
X223700000Y-88735000D02*
X225985000Y-88735000D01*
%TO.C,D5*%
X223700000Y-90735000D02*
X225985000Y-90735000D01*
X225985000Y-90735000D02*
X225985000Y-89265000D01*
X225985000Y-89265000D02*
X223700000Y-89265000D01*
%TO.C,FB1*%
X197560000Y-113850378D02*
X197560000Y-114649622D01*
X196440000Y-113850378D02*
X196440000Y-114649622D01*
%TO.C,J2*%
X235515000Y-67120000D02*
X235515000Y-67942470D01*
X235515000Y-69827530D02*
X235515000Y-70650000D01*
X235515000Y-68557530D02*
X235515000Y-69212470D01*
X240530000Y-67120000D02*
X235515000Y-67120000D01*
X241985000Y-70650000D02*
X235515000Y-70650000D01*
X240530000Y-67120000D02*
X240530000Y-67686529D01*
X240530000Y-68813471D02*
X240530000Y-68956529D01*
X240583471Y-69010000D02*
X240726529Y-69010000D01*
X241853471Y-69010000D02*
X241985000Y-69010000D01*
X241985000Y-69010000D02*
X241985000Y-69212470D01*
X241985000Y-69827530D02*
X241985000Y-70650000D01*
X241290000Y-67120000D02*
X242050000Y-67120000D01*
X242050000Y-67120000D02*
X242050000Y-68250000D01*
%TO.C,J3*%
X213020000Y-126830000D02*
X213020000Y-124170000D01*
X213020000Y-126830000D02*
X230860000Y-126830000D01*
X230860000Y-126830000D02*
X230860000Y-124170000D01*
X213020000Y-124170000D02*
X230860000Y-124170000D01*
X210420000Y-124170000D02*
X211750000Y-124170000D01*
X210420000Y-125500000D02*
X210420000Y-124170000D01*
%TO.C,J4*%
X201730000Y-67170000D02*
X201730000Y-69830000D01*
X229730000Y-67170000D02*
X201730000Y-67170000D01*
X229730000Y-69830000D02*
X201730000Y-69830000D01*
X229730000Y-67170000D02*
X229730000Y-69830000D01*
X231000000Y-67170000D02*
X232330000Y-67170000D01*
X232330000Y-67170000D02*
X232330000Y-68500000D01*
%TO.C,L1*%
X205162779Y-92010000D02*
X204837221Y-92010000D01*
X205162779Y-90990000D02*
X204837221Y-90990000D01*
%TO.C,R5*%
X197096359Y-77120000D02*
X197403641Y-77120000D01*
X197096359Y-77880000D02*
X197403641Y-77880000D01*
%TO.C,R6*%
X227762742Y-87477500D02*
X228237258Y-87477500D01*
X227762742Y-88522500D02*
X228237258Y-88522500D01*
%TO.C,R7*%
X227762742Y-90522500D02*
X228237258Y-90522500D01*
X227762742Y-89477500D02*
X228237258Y-89477500D01*
%TO.C,R8*%
X224153641Y-97630000D02*
X223846359Y-97630000D01*
X224153641Y-96870000D02*
X223846359Y-96870000D01*
%TO.C,R9*%
X226653641Y-96870000D02*
X226346359Y-96870000D01*
X226653641Y-97630000D02*
X226346359Y-97630000D01*
%TO.C,R10*%
X241680000Y-73653641D02*
X241680000Y-73346359D01*
X240920000Y-73653641D02*
X240920000Y-73346359D01*
%TO.C,SW2*%
X242245000Y-104445000D02*
X242275000Y-104445000D01*
X248705000Y-104445000D02*
X248675000Y-104445000D01*
X248705000Y-110905000D02*
X248675000Y-110905000D01*
X242275000Y-110905000D02*
X242245000Y-110905000D01*
X244175000Y-104445000D02*
X246775000Y-104445000D01*
X242245000Y-110905000D02*
X242245000Y-104445000D01*
X244175000Y-110905000D02*
X246775000Y-110905000D01*
X248705000Y-110905000D02*
X248705000Y-104445000D01*
%TO.C,U1*%
X217660000Y-93610000D02*
X218110000Y-93610000D01*
X218110000Y-93610000D02*
X218110000Y-93160000D01*
X211340000Y-93610000D02*
X210890000Y-93610000D01*
X210890000Y-93610000D02*
X210890000Y-93160000D01*
X217660000Y-86390000D02*
X218110000Y-86390000D01*
X218110000Y-86390000D02*
X218110000Y-86840000D01*
X211340000Y-86390000D02*
X210890000Y-86390000D01*
X210890000Y-86390000D02*
X210890000Y-86840000D01*
X210890000Y-86840000D02*
X209600000Y-86840000D01*
D13*
%TO.C,U2*%
X211000000Y-103075000D02*
X207000000Y-103075000D01*
X212275000Y-108475000D02*
X207000000Y-108475000D01*
D11*
%TO.C,U3*%
X226350000Y-101100000D02*
X226350000Y-101600000D01*
X226350000Y-101600000D02*
X225850000Y-101600000D01*
X225850000Y-101600000D02*
X225850000Y-101600000D01*
X224650000Y-101600000D02*
X224150000Y-101600000D01*
X224150000Y-101600000D02*
X224150000Y-101100000D01*
X224150000Y-101100000D02*
X224150000Y-101100000D01*
X224150000Y-99900000D02*
X224150000Y-99400000D01*
X224150000Y-99400000D02*
X224650000Y-99400000D01*
X224650000Y-99400000D02*
X224650000Y-99400000D01*
X226350000Y-99900000D02*
X226350000Y-99400000D01*
X226350000Y-99400000D02*
X226350000Y-99400000D01*
%TO.C,Y1*%
X206550000Y-79450000D02*
X206550000Y-86050000D01*
X201950000Y-86050000D02*
X201950000Y-79450000D01*
X205350000Y-78100000D02*
X203150000Y-78100000D01*
X205350000Y-87375000D02*
X203150000Y-87375000D01*
%TO.C,J1*%
D13*
X200066666Y-122752380D02*
X200066666Y-123466666D01*
X200019047Y-123609523D01*
X199923809Y-123704761D01*
X199780952Y-123752380D01*
X199685714Y-123752380D01*
X201066666Y-123752380D02*
X200495238Y-123752380D01*
X200780952Y-123752380D02*
X200780952Y-122752380D01*
X200685714Y-122895238D01*
X200590476Y-122990476D01*
X200495238Y-123038095D01*
%TO.C,R2*%
X205232380Y-113166666D02*
X204756190Y-113500000D01*
X205232380Y-113738095D02*
X204232380Y-113738095D01*
X204232380Y-113357142D01*
X204280000Y-113261904D01*
X204327619Y-113214285D01*
X204422857Y-113166666D01*
X204565714Y-113166666D01*
X204660952Y-113214285D01*
X204708571Y-113261904D01*
X204756190Y-113357142D01*
X204756190Y-113738095D01*
X204327619Y-112785714D02*
X204280000Y-112738095D01*
X204232380Y-112642857D01*
X204232380Y-112404761D01*
X204280000Y-112309523D01*
X204327619Y-112261904D01*
X204422857Y-112214285D01*
X204518095Y-112214285D01*
X204660952Y-112261904D01*
X205232380Y-112833333D01*
X205232380Y-112214285D01*
%TO.C,R1*%
X207882380Y-113166666D02*
X207406190Y-113500000D01*
X207882380Y-113738095D02*
X206882380Y-113738095D01*
X206882380Y-113357142D01*
X206930000Y-113261904D01*
X206977619Y-113214285D01*
X207072857Y-113166666D01*
X207215714Y-113166666D01*
X207310952Y-113214285D01*
X207358571Y-113261904D01*
X207406190Y-113357142D01*
X207406190Y-113738095D01*
X207882380Y-112214285D02*
X207882380Y-112785714D01*
X207882380Y-112500000D02*
X206882380Y-112500000D01*
X207025238Y-112595238D01*
X207120476Y-112690476D01*
X207168095Y-112785714D01*
%TO.C,R13*%
X238952380Y-89642857D02*
X238476190Y-89976190D01*
X238952380Y-90214285D02*
X237952380Y-90214285D01*
X237952380Y-89833333D01*
X238000000Y-89738095D01*
X238047619Y-89690476D01*
X238142857Y-89642857D01*
X238285714Y-89642857D01*
X238380952Y-89690476D01*
X238428571Y-89738095D01*
X238476190Y-89833333D01*
X238476190Y-90214285D01*
X238952380Y-88690476D02*
X238952380Y-89261904D01*
X238952380Y-88976190D02*
X237952380Y-88976190D01*
X238095238Y-89071428D01*
X238190476Y-89166666D01*
X238238095Y-89261904D01*
X237952380Y-88357142D02*
X237952380Y-87738095D01*
X238333333Y-88071428D01*
X238333333Y-87928571D01*
X238380952Y-87833333D01*
X238428571Y-87785714D01*
X238523809Y-87738095D01*
X238761904Y-87738095D01*
X238857142Y-87785714D01*
X238904761Y-87833333D01*
X238952380Y-87928571D01*
X238952380Y-88214285D01*
X238904761Y-88309523D01*
X238857142Y-88357142D01*
%TO.C,R12*%
X239052380Y-100742857D02*
X238576190Y-101076190D01*
X239052380Y-101314285D02*
X238052380Y-101314285D01*
X238052380Y-100933333D01*
X238100000Y-100838095D01*
X238147619Y-100790476D01*
X238242857Y-100742857D01*
X238385714Y-100742857D01*
X238480952Y-100790476D01*
X238528571Y-100838095D01*
X238576190Y-100933333D01*
X238576190Y-101314285D01*
X239052380Y-99790476D02*
X239052380Y-100361904D01*
X239052380Y-100076190D02*
X238052380Y-100076190D01*
X238195238Y-100171428D01*
X238290476Y-100266666D01*
X238338095Y-100361904D01*
X238147619Y-99409523D02*
X238100000Y-99361904D01*
X238052380Y-99266666D01*
X238052380Y-99028571D01*
X238100000Y-98933333D01*
X238147619Y-98885714D01*
X238242857Y-98838095D01*
X238338095Y-98838095D01*
X238480952Y-98885714D01*
X239052380Y-99457142D01*
X239052380Y-98838095D01*
%TO.C,R11*%
X239052380Y-111742857D02*
X238576190Y-112076190D01*
X239052380Y-112314285D02*
X238052380Y-112314285D01*
X238052380Y-111933333D01*
X238100000Y-111838095D01*
X238147619Y-111790476D01*
X238242857Y-111742857D01*
X238385714Y-111742857D01*
X238480952Y-111790476D01*
X238528571Y-111838095D01*
X238576190Y-111933333D01*
X238576190Y-112314285D01*
X239052380Y-110790476D02*
X239052380Y-111361904D01*
X239052380Y-111076190D02*
X238052380Y-111076190D01*
X238195238Y-111171428D01*
X238290476Y-111266666D01*
X238338095Y-111361904D01*
X239052380Y-109838095D02*
X239052380Y-110409523D01*
X239052380Y-110123809D02*
X238052380Y-110123809D01*
X238195238Y-110219047D01*
X238290476Y-110314285D01*
X238338095Y-110409523D01*
%TO.C,SW4*%
X241844761Y-86913333D02*
X241892380Y-86770476D01*
X241892380Y-86532380D01*
X241844761Y-86437142D01*
X241797142Y-86389523D01*
X241701904Y-86341904D01*
X241606666Y-86341904D01*
X241511428Y-86389523D01*
X241463809Y-86437142D01*
X241416190Y-86532380D01*
X241368571Y-86722857D01*
X241320952Y-86818095D01*
X241273333Y-86865714D01*
X241178095Y-86913333D01*
X241082857Y-86913333D01*
X240987619Y-86865714D01*
X240940000Y-86818095D01*
X240892380Y-86722857D01*
X240892380Y-86484761D01*
X240940000Y-86341904D01*
X240892380Y-86008571D02*
X241892380Y-85770476D01*
X241178095Y-85580000D01*
X241892380Y-85389523D01*
X240892380Y-85151428D01*
X241225714Y-84341904D02*
X241892380Y-84341904D01*
X240844761Y-84580000D02*
X241559047Y-84818095D01*
X241559047Y-84199047D01*
%TO.C,SW3*%
X241844761Y-97963333D02*
X241892380Y-97820476D01*
X241892380Y-97582380D01*
X241844761Y-97487142D01*
X241797142Y-97439523D01*
X241701904Y-97391904D01*
X241606666Y-97391904D01*
X241511428Y-97439523D01*
X241463809Y-97487142D01*
X241416190Y-97582380D01*
X241368571Y-97772857D01*
X241320952Y-97868095D01*
X241273333Y-97915714D01*
X241178095Y-97963333D01*
X241082857Y-97963333D01*
X240987619Y-97915714D01*
X240940000Y-97868095D01*
X240892380Y-97772857D01*
X240892380Y-97534761D01*
X240940000Y-97391904D01*
X240892380Y-97058571D02*
X241892380Y-96820476D01*
X241178095Y-96630000D01*
X241892380Y-96439523D01*
X240892380Y-96201428D01*
X240892380Y-95915714D02*
X240892380Y-95296666D01*
X241273333Y-95630000D01*
X241273333Y-95487142D01*
X241320952Y-95391904D01*
X241368571Y-95344285D01*
X241463809Y-95296666D01*
X241701904Y-95296666D01*
X241797142Y-95344285D01*
X241844761Y-95391904D01*
X241892380Y-95487142D01*
X241892380Y-95772857D01*
X241844761Y-95868095D01*
X241797142Y-95915714D01*
%TO.C,D2*%
X194261904Y-100882380D02*
X194261904Y-99882380D01*
X194500000Y-99882380D01*
X194642857Y-99930000D01*
X194738095Y-100025238D01*
X194785714Y-100120476D01*
X194833333Y-100310952D01*
X194833333Y-100453809D01*
X194785714Y-100644285D01*
X194738095Y-100739523D01*
X194642857Y-100834761D01*
X194500000Y-100882380D01*
X194261904Y-100882380D01*
X195214285Y-99977619D02*
X195261904Y-99930000D01*
X195357142Y-99882380D01*
X195595238Y-99882380D01*
X195690476Y-99930000D01*
X195738095Y-99977619D01*
X195785714Y-100072857D01*
X195785714Y-100168095D01*
X195738095Y-100310952D01*
X195166666Y-100882380D01*
X195785714Y-100882380D01*
%TO.C,D3*%
X194261904Y-95952380D02*
X194261904Y-94952380D01*
X194500000Y-94952380D01*
X194642857Y-95000000D01*
X194738095Y-95095238D01*
X194785714Y-95190476D01*
X194833333Y-95380952D01*
X194833333Y-95523809D01*
X194785714Y-95714285D01*
X194738095Y-95809523D01*
X194642857Y-95904761D01*
X194500000Y-95952380D01*
X194261904Y-95952380D01*
X195166666Y-94952380D02*
X195785714Y-94952380D01*
X195452380Y-95333333D01*
X195595238Y-95333333D01*
X195690476Y-95380952D01*
X195738095Y-95428571D01*
X195785714Y-95523809D01*
X195785714Y-95761904D01*
X195738095Y-95857142D01*
X195690476Y-95904761D01*
X195595238Y-95952380D01*
X195309523Y-95952380D01*
X195214285Y-95904761D01*
X195166666Y-95857142D01*
%TO.C,R4*%
X198833333Y-95952380D02*
X198500000Y-95476190D01*
X198261904Y-95952380D02*
X198261904Y-94952380D01*
X198642857Y-94952380D01*
X198738095Y-95000000D01*
X198785714Y-95047619D01*
X198833333Y-95142857D01*
X198833333Y-95285714D01*
X198785714Y-95380952D01*
X198738095Y-95428571D01*
X198642857Y-95476190D01*
X198261904Y-95476190D01*
X199690476Y-95285714D02*
X199690476Y-95952380D01*
X199452380Y-94904761D02*
X199214285Y-95619047D01*
X199833333Y-95619047D01*
%TO.C,R3*%
X198833333Y-100952380D02*
X198500000Y-100476190D01*
X198261904Y-100952380D02*
X198261904Y-99952380D01*
X198642857Y-99952380D01*
X198738095Y-100000000D01*
X198785714Y-100047619D01*
X198833333Y-100142857D01*
X198833333Y-100285714D01*
X198785714Y-100380952D01*
X198738095Y-100428571D01*
X198642857Y-100476190D01*
X198261904Y-100476190D01*
X199166666Y-99952380D02*
X199785714Y-99952380D01*
X199452380Y-100333333D01*
X199595238Y-100333333D01*
X199690476Y-100380952D01*
X199738095Y-100428571D01*
X199785714Y-100523809D01*
X199785714Y-100761904D01*
X199738095Y-100857142D01*
X199690476Y-100904761D01*
X199595238Y-100952380D01*
X199309523Y-100952380D01*
X199214285Y-100904761D01*
X199166666Y-100857142D01*
%TO.C,SW1*%
X191754761Y-78583333D02*
X191802380Y-78440476D01*
X191802380Y-78202380D01*
X191754761Y-78107142D01*
X191707142Y-78059523D01*
X191611904Y-78011904D01*
X191516666Y-78011904D01*
X191421428Y-78059523D01*
X191373809Y-78107142D01*
X191326190Y-78202380D01*
X191278571Y-78392857D01*
X191230952Y-78488095D01*
X191183333Y-78535714D01*
X191088095Y-78583333D01*
X190992857Y-78583333D01*
X190897619Y-78535714D01*
X190850000Y-78488095D01*
X190802380Y-78392857D01*
X190802380Y-78154761D01*
X190850000Y-78011904D01*
X190802380Y-77678571D02*
X191802380Y-77440476D01*
X191088095Y-77250000D01*
X191802380Y-77059523D01*
X190802380Y-76821428D01*
X191802380Y-75916666D02*
X191802380Y-76488095D01*
X191802380Y-76202380D02*
X190802380Y-76202380D01*
X190945238Y-76297619D01*
X191040476Y-76392857D01*
X191088095Y-76488095D01*
%TO.C,C1*%
X196333333Y-119537142D02*
X196285714Y-119584761D01*
X196142857Y-119632380D01*
X196047619Y-119632380D01*
X195904761Y-119584761D01*
X195809523Y-119489523D01*
X195761904Y-119394285D01*
X195714285Y-119203809D01*
X195714285Y-119060952D01*
X195761904Y-118870476D01*
X195809523Y-118775238D01*
X195904761Y-118680000D01*
X196047619Y-118632380D01*
X196142857Y-118632380D01*
X196285714Y-118680000D01*
X196333333Y-118727619D01*
X197285714Y-119632380D02*
X196714285Y-119632380D01*
X197000000Y-119632380D02*
X197000000Y-118632380D01*
X196904761Y-118775238D01*
X196809523Y-118870476D01*
X196714285Y-118918095D01*
%TO.C,C2*%
X198633333Y-109557142D02*
X198585714Y-109604761D01*
X198442857Y-109652380D01*
X198347619Y-109652380D01*
X198204761Y-109604761D01*
X198109523Y-109509523D01*
X198061904Y-109414285D01*
X198014285Y-109223809D01*
X198014285Y-109080952D01*
X198061904Y-108890476D01*
X198109523Y-108795238D01*
X198204761Y-108700000D01*
X198347619Y-108652380D01*
X198442857Y-108652380D01*
X198585714Y-108700000D01*
X198633333Y-108747619D01*
X199014285Y-108747619D02*
X199061904Y-108700000D01*
X199157142Y-108652380D01*
X199395238Y-108652380D01*
X199490476Y-108700000D01*
X199538095Y-108747619D01*
X199585714Y-108842857D01*
X199585714Y-108938095D01*
X199538095Y-109080952D01*
X198966666Y-109652380D01*
X199585714Y-109652380D01*
%TO.C,C3*%
X204057142Y-109166666D02*
X204104761Y-109214285D01*
X204152380Y-109357142D01*
X204152380Y-109452380D01*
X204104761Y-109595238D01*
X204009523Y-109690476D01*
X203914285Y-109738095D01*
X203723809Y-109785714D01*
X203580952Y-109785714D01*
X203390476Y-109738095D01*
X203295238Y-109690476D01*
X203200000Y-109595238D01*
X203152380Y-109452380D01*
X203152380Y-109357142D01*
X203200000Y-109214285D01*
X203247619Y-109166666D01*
X203152380Y-108833333D02*
X203152380Y-108214285D01*
X203533333Y-108547619D01*
X203533333Y-108404761D01*
X203580952Y-108309523D01*
X203628571Y-108261904D01*
X203723809Y-108214285D01*
X203961904Y-108214285D01*
X204057142Y-108261904D01*
X204104761Y-108309523D01*
X204152380Y-108404761D01*
X204152380Y-108690476D01*
X204104761Y-108785714D01*
X204057142Y-108833333D01*
%TO.C,C4*%
X204133333Y-102357142D02*
X204085714Y-102404761D01*
X203942857Y-102452380D01*
X203847619Y-102452380D01*
X203704761Y-102404761D01*
X203609523Y-102309523D01*
X203561904Y-102214285D01*
X203514285Y-102023809D01*
X203514285Y-101880952D01*
X203561904Y-101690476D01*
X203609523Y-101595238D01*
X203704761Y-101500000D01*
X203847619Y-101452380D01*
X203942857Y-101452380D01*
X204085714Y-101500000D01*
X204133333Y-101547619D01*
X204990476Y-101785714D02*
X204990476Y-102452380D01*
X204752380Y-101404761D02*
X204514285Y-102119047D01*
X205133333Y-102119047D01*
%TO.C,C5*%
X206833333Y-118637142D02*
X206785714Y-118684761D01*
X206642857Y-118732380D01*
X206547619Y-118732380D01*
X206404761Y-118684761D01*
X206309523Y-118589523D01*
X206261904Y-118494285D01*
X206214285Y-118303809D01*
X206214285Y-118160952D01*
X206261904Y-117970476D01*
X206309523Y-117875238D01*
X206404761Y-117780000D01*
X206547619Y-117732380D01*
X206642857Y-117732380D01*
X206785714Y-117780000D01*
X206833333Y-117827619D01*
X207738095Y-117732380D02*
X207261904Y-117732380D01*
X207214285Y-118208571D01*
X207261904Y-118160952D01*
X207357142Y-118113333D01*
X207595238Y-118113333D01*
X207690476Y-118160952D01*
X207738095Y-118208571D01*
X207785714Y-118303809D01*
X207785714Y-118541904D01*
X207738095Y-118637142D01*
X207690476Y-118684761D01*
X207595238Y-118732380D01*
X207357142Y-118732380D01*
X207261904Y-118684761D01*
X207214285Y-118637142D01*
%TO.C,C6*%
X202183333Y-118637142D02*
X202135714Y-118684761D01*
X201992857Y-118732380D01*
X201897619Y-118732380D01*
X201754761Y-118684761D01*
X201659523Y-118589523D01*
X201611904Y-118494285D01*
X201564285Y-118303809D01*
X201564285Y-118160952D01*
X201611904Y-117970476D01*
X201659523Y-117875238D01*
X201754761Y-117780000D01*
X201897619Y-117732380D01*
X201992857Y-117732380D01*
X202135714Y-117780000D01*
X202183333Y-117827619D01*
X203040476Y-117732380D02*
X202850000Y-117732380D01*
X202754761Y-117780000D01*
X202707142Y-117827619D01*
X202611904Y-117970476D01*
X202564285Y-118160952D01*
X202564285Y-118541904D01*
X202611904Y-118637142D01*
X202659523Y-118684761D01*
X202754761Y-118732380D01*
X202945238Y-118732380D01*
X203040476Y-118684761D01*
X203088095Y-118637142D01*
X203135714Y-118541904D01*
X203135714Y-118303809D01*
X203088095Y-118208571D01*
X203040476Y-118160952D01*
X202945238Y-118113333D01*
X202754761Y-118113333D01*
X202659523Y-118160952D01*
X202611904Y-118208571D01*
X202564285Y-118303809D01*
%TO.C,C7*%
X209233333Y-83107142D02*
X209185714Y-83154761D01*
X209042857Y-83202380D01*
X208947619Y-83202380D01*
X208804761Y-83154761D01*
X208709523Y-83059523D01*
X208661904Y-82964285D01*
X208614285Y-82773809D01*
X208614285Y-82630952D01*
X208661904Y-82440476D01*
X208709523Y-82345238D01*
X208804761Y-82250000D01*
X208947619Y-82202380D01*
X209042857Y-82202380D01*
X209185714Y-82250000D01*
X209233333Y-82297619D01*
X209566666Y-82202380D02*
X210233333Y-82202380D01*
X209804761Y-83202380D01*
%TO.C,C8*%
X209333333Y-84357142D02*
X209285714Y-84404761D01*
X209142857Y-84452380D01*
X209047619Y-84452380D01*
X208904761Y-84404761D01*
X208809523Y-84309523D01*
X208761904Y-84214285D01*
X208714285Y-84023809D01*
X208714285Y-83880952D01*
X208761904Y-83690476D01*
X208809523Y-83595238D01*
X208904761Y-83500000D01*
X209047619Y-83452380D01*
X209142857Y-83452380D01*
X209285714Y-83500000D01*
X209333333Y-83547619D01*
X209904761Y-83880952D02*
X209809523Y-83833333D01*
X209761904Y-83785714D01*
X209714285Y-83690476D01*
X209714285Y-83642857D01*
X209761904Y-83547619D01*
X209809523Y-83500000D01*
X209904761Y-83452380D01*
X210095238Y-83452380D01*
X210190476Y-83500000D01*
X210238095Y-83547619D01*
X210285714Y-83642857D01*
X210285714Y-83690476D01*
X210238095Y-83785714D01*
X210190476Y-83833333D01*
X210095238Y-83880952D01*
X209904761Y-83880952D01*
X209809523Y-83928571D01*
X209761904Y-83976190D01*
X209714285Y-84071428D01*
X209714285Y-84261904D01*
X209761904Y-84357142D01*
X209809523Y-84404761D01*
X209904761Y-84452380D01*
X210095238Y-84452380D01*
X210190476Y-84404761D01*
X210238095Y-84357142D01*
X210285714Y-84261904D01*
X210285714Y-84071428D01*
X210238095Y-83976190D01*
X210190476Y-83928571D01*
X210095238Y-83880952D01*
%TO.C,C9*%
X220957142Y-85166666D02*
X221004761Y-85214285D01*
X221052380Y-85357142D01*
X221052380Y-85452380D01*
X221004761Y-85595238D01*
X220909523Y-85690476D01*
X220814285Y-85738095D01*
X220623809Y-85785714D01*
X220480952Y-85785714D01*
X220290476Y-85738095D01*
X220195238Y-85690476D01*
X220100000Y-85595238D01*
X220052380Y-85452380D01*
X220052380Y-85357142D01*
X220100000Y-85214285D01*
X220147619Y-85166666D01*
X221052380Y-84690476D02*
X221052380Y-84500000D01*
X221004761Y-84404761D01*
X220957142Y-84357142D01*
X220814285Y-84261904D01*
X220623809Y-84214285D01*
X220242857Y-84214285D01*
X220147619Y-84261904D01*
X220100000Y-84309523D01*
X220052380Y-84404761D01*
X220052380Y-84595238D01*
X220100000Y-84690476D01*
X220147619Y-84738095D01*
X220242857Y-84785714D01*
X220480952Y-84785714D01*
X220576190Y-84738095D01*
X220623809Y-84690476D01*
X220671428Y-84595238D01*
X220671428Y-84404761D01*
X220623809Y-84309523D01*
X220576190Y-84261904D01*
X220480952Y-84214285D01*
%TO.C,C10*%
X216607142Y-97517142D02*
X216559523Y-97564761D01*
X216416666Y-97612380D01*
X216321428Y-97612380D01*
X216178571Y-97564761D01*
X216083333Y-97469523D01*
X216035714Y-97374285D01*
X215988095Y-97183809D01*
X215988095Y-97040952D01*
X216035714Y-96850476D01*
X216083333Y-96755238D01*
X216178571Y-96660000D01*
X216321428Y-96612380D01*
X216416666Y-96612380D01*
X216559523Y-96660000D01*
X216607142Y-96707619D01*
X217559523Y-97612380D02*
X216988095Y-97612380D01*
X217273809Y-97612380D02*
X217273809Y-96612380D01*
X217178571Y-96755238D01*
X217083333Y-96850476D01*
X216988095Y-96898095D01*
X218178571Y-96612380D02*
X218273809Y-96612380D01*
X218369047Y-96660000D01*
X218416666Y-96707619D01*
X218464285Y-96802857D01*
X218511904Y-96993333D01*
X218511904Y-97231428D01*
X218464285Y-97421904D01*
X218416666Y-97517142D01*
X218369047Y-97564761D01*
X218273809Y-97612380D01*
X218178571Y-97612380D01*
X218083333Y-97564761D01*
X218035714Y-97517142D01*
X217988095Y-97421904D01*
X217940476Y-97231428D01*
X217940476Y-96993333D01*
X217988095Y-96802857D01*
X218035714Y-96707619D01*
X218083333Y-96660000D01*
X218178571Y-96612380D01*
%TO.C,C11*%
X207607142Y-94122857D02*
X207654761Y-94170476D01*
X207702380Y-94313333D01*
X207702380Y-94408571D01*
X207654761Y-94551428D01*
X207559523Y-94646666D01*
X207464285Y-94694285D01*
X207273809Y-94741904D01*
X207130952Y-94741904D01*
X206940476Y-94694285D01*
X206845238Y-94646666D01*
X206750000Y-94551428D01*
X206702380Y-94408571D01*
X206702380Y-94313333D01*
X206750000Y-94170476D01*
X206797619Y-94122857D01*
X207702380Y-93170476D02*
X207702380Y-93741904D01*
X207702380Y-93456190D02*
X206702380Y-93456190D01*
X206845238Y-93551428D01*
X206940476Y-93646666D01*
X206988095Y-93741904D01*
X207702380Y-92218095D02*
X207702380Y-92789523D01*
X207702380Y-92503809D02*
X206702380Y-92503809D01*
X206845238Y-92599047D01*
X206940476Y-92694285D01*
X206988095Y-92789523D01*
%TO.C,C12*%
X208857142Y-94142857D02*
X208904761Y-94190476D01*
X208952380Y-94333333D01*
X208952380Y-94428571D01*
X208904761Y-94571428D01*
X208809523Y-94666666D01*
X208714285Y-94714285D01*
X208523809Y-94761904D01*
X208380952Y-94761904D01*
X208190476Y-94714285D01*
X208095238Y-94666666D01*
X208000000Y-94571428D01*
X207952380Y-94428571D01*
X207952380Y-94333333D01*
X208000000Y-94190476D01*
X208047619Y-94142857D01*
X208952380Y-93190476D02*
X208952380Y-93761904D01*
X208952380Y-93476190D02*
X207952380Y-93476190D01*
X208095238Y-93571428D01*
X208190476Y-93666666D01*
X208238095Y-93761904D01*
X208047619Y-92809523D02*
X208000000Y-92761904D01*
X207952380Y-92666666D01*
X207952380Y-92428571D01*
X208000000Y-92333333D01*
X208047619Y-92285714D01*
X208142857Y-92238095D01*
X208238095Y-92238095D01*
X208380952Y-92285714D01*
X208952380Y-92857142D01*
X208952380Y-92238095D01*
%TO.C,C13*%
X203607142Y-76107142D02*
X203559523Y-76154761D01*
X203416666Y-76202380D01*
X203321428Y-76202380D01*
X203178571Y-76154761D01*
X203083333Y-76059523D01*
X203035714Y-75964285D01*
X202988095Y-75773809D01*
X202988095Y-75630952D01*
X203035714Y-75440476D01*
X203083333Y-75345238D01*
X203178571Y-75250000D01*
X203321428Y-75202380D01*
X203416666Y-75202380D01*
X203559523Y-75250000D01*
X203607142Y-75297619D01*
X204559523Y-76202380D02*
X203988095Y-76202380D01*
X204273809Y-76202380D02*
X204273809Y-75202380D01*
X204178571Y-75345238D01*
X204083333Y-75440476D01*
X203988095Y-75488095D01*
X204892857Y-75202380D02*
X205511904Y-75202380D01*
X205178571Y-75583333D01*
X205321428Y-75583333D01*
X205416666Y-75630952D01*
X205464285Y-75678571D01*
X205511904Y-75773809D01*
X205511904Y-76011904D01*
X205464285Y-76107142D01*
X205416666Y-76154761D01*
X205321428Y-76202380D01*
X205035714Y-76202380D01*
X204940476Y-76154761D01*
X204892857Y-76107142D01*
%TO.C,C14*%
X203607142Y-90017142D02*
X203559523Y-90064761D01*
X203416666Y-90112380D01*
X203321428Y-90112380D01*
X203178571Y-90064761D01*
X203083333Y-89969523D01*
X203035714Y-89874285D01*
X202988095Y-89683809D01*
X202988095Y-89540952D01*
X203035714Y-89350476D01*
X203083333Y-89255238D01*
X203178571Y-89160000D01*
X203321428Y-89112380D01*
X203416666Y-89112380D01*
X203559523Y-89160000D01*
X203607142Y-89207619D01*
X204559523Y-90112380D02*
X203988095Y-90112380D01*
X204273809Y-90112380D02*
X204273809Y-89112380D01*
X204178571Y-89255238D01*
X204083333Y-89350476D01*
X203988095Y-89398095D01*
X205416666Y-89445714D02*
X205416666Y-90112380D01*
X205178571Y-89064761D02*
X204940476Y-89779047D01*
X205559523Y-89779047D01*
%TO.C,C15*%
X221457142Y-104257142D02*
X221409523Y-104304761D01*
X221266666Y-104352380D01*
X221171428Y-104352380D01*
X221028571Y-104304761D01*
X220933333Y-104209523D01*
X220885714Y-104114285D01*
X220838095Y-103923809D01*
X220838095Y-103780952D01*
X220885714Y-103590476D01*
X220933333Y-103495238D01*
X221028571Y-103400000D01*
X221171428Y-103352380D01*
X221266666Y-103352380D01*
X221409523Y-103400000D01*
X221457142Y-103447619D01*
X222409523Y-104352380D02*
X221838095Y-104352380D01*
X222123809Y-104352380D02*
X222123809Y-103352380D01*
X222028571Y-103495238D01*
X221933333Y-103590476D01*
X221838095Y-103638095D01*
X223314285Y-103352380D02*
X222838095Y-103352380D01*
X222790476Y-103828571D01*
X222838095Y-103780952D01*
X222933333Y-103733333D01*
X223171428Y-103733333D01*
X223266666Y-103780952D01*
X223314285Y-103828571D01*
X223361904Y-103923809D01*
X223361904Y-104161904D01*
X223314285Y-104257142D01*
X223266666Y-104304761D01*
X223171428Y-104352380D01*
X222933333Y-104352380D01*
X222838095Y-104304761D01*
X222790476Y-104257142D01*
%TO.C,C16*%
X221457142Y-102857142D02*
X221409523Y-102904761D01*
X221266666Y-102952380D01*
X221171428Y-102952380D01*
X221028571Y-102904761D01*
X220933333Y-102809523D01*
X220885714Y-102714285D01*
X220838095Y-102523809D01*
X220838095Y-102380952D01*
X220885714Y-102190476D01*
X220933333Y-102095238D01*
X221028571Y-102000000D01*
X221171428Y-101952380D01*
X221266666Y-101952380D01*
X221409523Y-102000000D01*
X221457142Y-102047619D01*
X222409523Y-102952380D02*
X221838095Y-102952380D01*
X222123809Y-102952380D02*
X222123809Y-101952380D01*
X222028571Y-102095238D01*
X221933333Y-102190476D01*
X221838095Y-102238095D01*
X223266666Y-101952380D02*
X223076190Y-101952380D01*
X222980952Y-102000000D01*
X222933333Y-102047619D01*
X222838095Y-102190476D01*
X222790476Y-102380952D01*
X222790476Y-102761904D01*
X222838095Y-102857142D01*
X222885714Y-102904761D01*
X222980952Y-102952380D01*
X223171428Y-102952380D01*
X223266666Y-102904761D01*
X223314285Y-102857142D01*
X223361904Y-102761904D01*
X223361904Y-102523809D01*
X223314285Y-102428571D01*
X223266666Y-102380952D01*
X223171428Y-102333333D01*
X222980952Y-102333333D01*
X222885714Y-102380952D01*
X222838095Y-102428571D01*
X222790476Y-102523809D01*
%TO.C,C17*%
X228057142Y-105042857D02*
X228104761Y-105090476D01*
X228152380Y-105233333D01*
X228152380Y-105328571D01*
X228104761Y-105471428D01*
X228009523Y-105566666D01*
X227914285Y-105614285D01*
X227723809Y-105661904D01*
X227580952Y-105661904D01*
X227390476Y-105614285D01*
X227295238Y-105566666D01*
X227200000Y-105471428D01*
X227152380Y-105328571D01*
X227152380Y-105233333D01*
X227200000Y-105090476D01*
X227247619Y-105042857D01*
X228152380Y-104090476D02*
X228152380Y-104661904D01*
X228152380Y-104376190D02*
X227152380Y-104376190D01*
X227295238Y-104471428D01*
X227390476Y-104566666D01*
X227438095Y-104661904D01*
X227152380Y-103757142D02*
X227152380Y-103090476D01*
X228152380Y-103519047D01*
%TO.C,D4*%
X223761904Y-86952380D02*
X223761904Y-85952380D01*
X224000000Y-85952380D01*
X224142857Y-86000000D01*
X224238095Y-86095238D01*
X224285714Y-86190476D01*
X224333333Y-86380952D01*
X224333333Y-86523809D01*
X224285714Y-86714285D01*
X224238095Y-86809523D01*
X224142857Y-86904761D01*
X224000000Y-86952380D01*
X223761904Y-86952380D01*
X225190476Y-86285714D02*
X225190476Y-86952380D01*
X224952380Y-85904761D02*
X224714285Y-86619047D01*
X225333333Y-86619047D01*
%TO.C,D5*%
X223761904Y-91952380D02*
X223761904Y-90952380D01*
X224000000Y-90952380D01*
X224142857Y-91000000D01*
X224238095Y-91095238D01*
X224285714Y-91190476D01*
X224333333Y-91380952D01*
X224333333Y-91523809D01*
X224285714Y-91714285D01*
X224238095Y-91809523D01*
X224142857Y-91904761D01*
X224000000Y-91952380D01*
X223761904Y-91952380D01*
X225238095Y-90952380D02*
X224761904Y-90952380D01*
X224714285Y-91428571D01*
X224761904Y-91380952D01*
X224857142Y-91333333D01*
X225095238Y-91333333D01*
X225190476Y-91380952D01*
X225238095Y-91428571D01*
X225285714Y-91523809D01*
X225285714Y-91761904D01*
X225238095Y-91857142D01*
X225190476Y-91904761D01*
X225095238Y-91952380D01*
X224857142Y-91952380D01*
X224761904Y-91904761D01*
X224714285Y-91857142D01*
%TO.C,FB1*%
X198478571Y-115083333D02*
X198478571Y-115416666D01*
X199002380Y-115416666D02*
X198002380Y-115416666D01*
X198002380Y-114940476D01*
X198478571Y-114226190D02*
X198526190Y-114083333D01*
X198573809Y-114035714D01*
X198669047Y-113988095D01*
X198811904Y-113988095D01*
X198907142Y-114035714D01*
X198954761Y-114083333D01*
X199002380Y-114178571D01*
X199002380Y-114559523D01*
X198002380Y-114559523D01*
X198002380Y-114226190D01*
X198050000Y-114130952D01*
X198097619Y-114083333D01*
X198192857Y-114035714D01*
X198288095Y-114035714D01*
X198383333Y-114083333D01*
X198430952Y-114130952D01*
X198478571Y-114226190D01*
X198478571Y-114559523D01*
X199002380Y-113035714D02*
X199002380Y-113607142D01*
X199002380Y-113321428D02*
X198002380Y-113321428D01*
X198145238Y-113416666D01*
X198240476Y-113511904D01*
X198288095Y-113607142D01*
%TO.C,H1*%
X243238095Y-66952380D02*
X243238095Y-65952380D01*
X243238095Y-66428571D02*
X243809523Y-66428571D01*
X243809523Y-66952380D02*
X243809523Y-65952380D01*
X244809523Y-66952380D02*
X244238095Y-66952380D01*
X244523809Y-66952380D02*
X244523809Y-65952380D01*
X244428571Y-66095238D01*
X244333333Y-66190476D01*
X244238095Y-66238095D01*
%TO.C,H2*%
X196738095Y-66952380D02*
X196738095Y-65952380D01*
X196738095Y-66428571D02*
X197309523Y-66428571D01*
X197309523Y-66952380D02*
X197309523Y-65952380D01*
X197738095Y-66047619D02*
X197785714Y-66000000D01*
X197880952Y-65952380D01*
X198119047Y-65952380D01*
X198214285Y-66000000D01*
X198261904Y-66047619D01*
X198309523Y-66142857D01*
X198309523Y-66238095D01*
X198261904Y-66380952D01*
X197690476Y-66952380D01*
X198309523Y-66952380D01*
%TO.C,H3*%
X196738095Y-127352380D02*
X196738095Y-126352380D01*
X196738095Y-126828571D02*
X197309523Y-126828571D01*
X197309523Y-127352380D02*
X197309523Y-126352380D01*
X197690476Y-126352380D02*
X198309523Y-126352380D01*
X197976190Y-126733333D01*
X198119047Y-126733333D01*
X198214285Y-126780952D01*
X198261904Y-126828571D01*
X198309523Y-126923809D01*
X198309523Y-127161904D01*
X198261904Y-127257142D01*
X198214285Y-127304761D01*
X198119047Y-127352380D01*
X197833333Y-127352380D01*
X197738095Y-127304761D01*
X197690476Y-127257142D01*
%TO.C,H4*%
X242538095Y-127052380D02*
X242538095Y-126052380D01*
X242538095Y-126528571D02*
X243109523Y-126528571D01*
X243109523Y-127052380D02*
X243109523Y-126052380D01*
X244014285Y-126385714D02*
X244014285Y-127052380D01*
X243776190Y-126004761D02*
X243538095Y-126719047D01*
X244157142Y-126719047D01*
%TO.C,J2*%
X242437380Y-69218333D02*
X243151666Y-69218333D01*
X243294523Y-69265952D01*
X243389761Y-69361190D01*
X243437380Y-69504047D01*
X243437380Y-69599285D01*
X242532619Y-68789761D02*
X242485000Y-68742142D01*
X242437380Y-68646904D01*
X242437380Y-68408809D01*
X242485000Y-68313571D01*
X242532619Y-68265952D01*
X242627857Y-68218333D01*
X242723095Y-68218333D01*
X242865952Y-68265952D01*
X243437380Y-68837380D01*
X243437380Y-68218333D01*
%TO.C,J3*%
X231952380Y-125833333D02*
X232666666Y-125833333D01*
X232809523Y-125880952D01*
X232904761Y-125976190D01*
X232952380Y-126119047D01*
X232952380Y-126214285D01*
X231952380Y-125452380D02*
X231952380Y-124833333D01*
X232333333Y-125166666D01*
X232333333Y-125023809D01*
X232380952Y-124928571D01*
X232428571Y-124880952D01*
X232523809Y-124833333D01*
X232761904Y-124833333D01*
X232857142Y-124880952D01*
X232904761Y-124928571D01*
X232952380Y-125023809D01*
X232952380Y-125309523D01*
X232904761Y-125404761D01*
X232857142Y-125452380D01*
%TO.C,J4*%
X232782380Y-68833333D02*
X233496666Y-68833333D01*
X233639523Y-68880952D01*
X233734761Y-68976190D01*
X233782380Y-69119047D01*
X233782380Y-69214285D01*
X233115714Y-67928571D02*
X233782380Y-67928571D01*
X232734761Y-68166666D02*
X233449047Y-68404761D01*
X233449047Y-67785714D01*
%TO.C,L1*%
X204833333Y-93382380D02*
X204357142Y-93382380D01*
X204357142Y-92382380D01*
X205690476Y-93382380D02*
X205119047Y-93382380D01*
X205404761Y-93382380D02*
X205404761Y-92382380D01*
X205309523Y-92525238D01*
X205214285Y-92620476D01*
X205119047Y-92668095D01*
%TO.C,R5*%
X197083333Y-76782380D02*
X196750000Y-76306190D01*
X196511904Y-76782380D02*
X196511904Y-75782380D01*
X196892857Y-75782380D01*
X196988095Y-75830000D01*
X197035714Y-75877619D01*
X197083333Y-75972857D01*
X197083333Y-76115714D01*
X197035714Y-76210952D01*
X196988095Y-76258571D01*
X196892857Y-76306190D01*
X196511904Y-76306190D01*
X197988095Y-75782380D02*
X197511904Y-75782380D01*
X197464285Y-76258571D01*
X197511904Y-76210952D01*
X197607142Y-76163333D01*
X197845238Y-76163333D01*
X197940476Y-76210952D01*
X197988095Y-76258571D01*
X198035714Y-76353809D01*
X198035714Y-76591904D01*
X197988095Y-76687142D01*
X197940476Y-76734761D01*
X197845238Y-76782380D01*
X197607142Y-76782380D01*
X197511904Y-76734761D01*
X197464285Y-76687142D01*
%TO.C,R6*%
X227833333Y-87022380D02*
X227500000Y-86546190D01*
X227261904Y-87022380D02*
X227261904Y-86022380D01*
X227642857Y-86022380D01*
X227738095Y-86070000D01*
X227785714Y-86117619D01*
X227833333Y-86212857D01*
X227833333Y-86355714D01*
X227785714Y-86450952D01*
X227738095Y-86498571D01*
X227642857Y-86546190D01*
X227261904Y-86546190D01*
X228690476Y-86022380D02*
X228500000Y-86022380D01*
X228404761Y-86070000D01*
X228357142Y-86117619D01*
X228261904Y-86260476D01*
X228214285Y-86450952D01*
X228214285Y-86831904D01*
X228261904Y-86927142D01*
X228309523Y-86974761D01*
X228404761Y-87022380D01*
X228595238Y-87022380D01*
X228690476Y-86974761D01*
X228738095Y-86927142D01*
X228785714Y-86831904D01*
X228785714Y-86593809D01*
X228738095Y-86498571D01*
X228690476Y-86450952D01*
X228595238Y-86403333D01*
X228404761Y-86403333D01*
X228309523Y-86450952D01*
X228261904Y-86498571D01*
X228214285Y-86593809D01*
%TO.C,R7*%
X227833333Y-91952380D02*
X227500000Y-91476190D01*
X227261904Y-91952380D02*
X227261904Y-90952380D01*
X227642857Y-90952380D01*
X227738095Y-91000000D01*
X227785714Y-91047619D01*
X227833333Y-91142857D01*
X227833333Y-91285714D01*
X227785714Y-91380952D01*
X227738095Y-91428571D01*
X227642857Y-91476190D01*
X227261904Y-91476190D01*
X228166666Y-90952380D02*
X228833333Y-90952380D01*
X228404761Y-91952380D01*
%TO.C,R8*%
X223833333Y-96552380D02*
X223500000Y-96076190D01*
X223261904Y-96552380D02*
X223261904Y-95552380D01*
X223642857Y-95552380D01*
X223738095Y-95600000D01*
X223785714Y-95647619D01*
X223833333Y-95742857D01*
X223833333Y-95885714D01*
X223785714Y-95980952D01*
X223738095Y-96028571D01*
X223642857Y-96076190D01*
X223261904Y-96076190D01*
X224404761Y-95980952D02*
X224309523Y-95933333D01*
X224261904Y-95885714D01*
X224214285Y-95790476D01*
X224214285Y-95742857D01*
X224261904Y-95647619D01*
X224309523Y-95600000D01*
X224404761Y-95552380D01*
X224595238Y-95552380D01*
X224690476Y-95600000D01*
X224738095Y-95647619D01*
X224785714Y-95742857D01*
X224785714Y-95790476D01*
X224738095Y-95885714D01*
X224690476Y-95933333D01*
X224595238Y-95980952D01*
X224404761Y-95980952D01*
X224309523Y-96028571D01*
X224261904Y-96076190D01*
X224214285Y-96171428D01*
X224214285Y-96361904D01*
X224261904Y-96457142D01*
X224309523Y-96504761D01*
X224404761Y-96552380D01*
X224595238Y-96552380D01*
X224690476Y-96504761D01*
X224738095Y-96457142D01*
X224785714Y-96361904D01*
X224785714Y-96171428D01*
X224738095Y-96076190D01*
X224690476Y-96028571D01*
X224595238Y-95980952D01*
%TO.C,R9*%
X227233333Y-96552380D02*
X226900000Y-96076190D01*
X226661904Y-96552380D02*
X226661904Y-95552380D01*
X227042857Y-95552380D01*
X227138095Y-95600000D01*
X227185714Y-95647619D01*
X227233333Y-95742857D01*
X227233333Y-95885714D01*
X227185714Y-95980952D01*
X227138095Y-96028571D01*
X227042857Y-96076190D01*
X226661904Y-96076190D01*
X227709523Y-96552380D02*
X227900000Y-96552380D01*
X227995238Y-96504761D01*
X228042857Y-96457142D01*
X228138095Y-96314285D01*
X228185714Y-96123809D01*
X228185714Y-95742857D01*
X228138095Y-95647619D01*
X228090476Y-95600000D01*
X227995238Y-95552380D01*
X227804761Y-95552380D01*
X227709523Y-95600000D01*
X227661904Y-95647619D01*
X227614285Y-95742857D01*
X227614285Y-95980952D01*
X227661904Y-96076190D01*
X227709523Y-96123809D01*
X227804761Y-96171428D01*
X227995238Y-96171428D01*
X228090476Y-96123809D01*
X228138095Y-96076190D01*
X228185714Y-95980952D01*
%TO.C,R10*%
X240582380Y-74142857D02*
X240106190Y-74476190D01*
X240582380Y-74714285D02*
X239582380Y-74714285D01*
X239582380Y-74333333D01*
X239630000Y-74238095D01*
X239677619Y-74190476D01*
X239772857Y-74142857D01*
X239915714Y-74142857D01*
X240010952Y-74190476D01*
X240058571Y-74238095D01*
X240106190Y-74333333D01*
X240106190Y-74714285D01*
X240582380Y-73190476D02*
X240582380Y-73761904D01*
X240582380Y-73476190D02*
X239582380Y-73476190D01*
X239725238Y-73571428D01*
X239820476Y-73666666D01*
X239868095Y-73761904D01*
X239582380Y-72571428D02*
X239582380Y-72476190D01*
X239630000Y-72380952D01*
X239677619Y-72333333D01*
X239772857Y-72285714D01*
X239963333Y-72238095D01*
X240201428Y-72238095D01*
X240391904Y-72285714D01*
X240487142Y-72333333D01*
X240534761Y-72380952D01*
X240582380Y-72476190D01*
X240582380Y-72571428D01*
X240534761Y-72666666D01*
X240487142Y-72714285D01*
X240391904Y-72761904D01*
X240201428Y-72809523D01*
X239963333Y-72809523D01*
X239772857Y-72761904D01*
X239677619Y-72714285D01*
X239630000Y-72666666D01*
X239582380Y-72571428D01*
%TO.C,SW2*%
X241829761Y-109008333D02*
X241877380Y-108865476D01*
X241877380Y-108627380D01*
X241829761Y-108532142D01*
X241782142Y-108484523D01*
X241686904Y-108436904D01*
X241591666Y-108436904D01*
X241496428Y-108484523D01*
X241448809Y-108532142D01*
X241401190Y-108627380D01*
X241353571Y-108817857D01*
X241305952Y-108913095D01*
X241258333Y-108960714D01*
X241163095Y-109008333D01*
X241067857Y-109008333D01*
X240972619Y-108960714D01*
X240925000Y-108913095D01*
X240877380Y-108817857D01*
X240877380Y-108579761D01*
X240925000Y-108436904D01*
X240877380Y-108103571D02*
X241877380Y-107865476D01*
X241163095Y-107675000D01*
X241877380Y-107484523D01*
X240877380Y-107246428D01*
X240972619Y-106913095D02*
X240925000Y-106865476D01*
X240877380Y-106770238D01*
X240877380Y-106532142D01*
X240925000Y-106436904D01*
X240972619Y-106389285D01*
X241067857Y-106341666D01*
X241163095Y-106341666D01*
X241305952Y-106389285D01*
X241877380Y-106960714D01*
X241877380Y-106341666D01*
%TO.C,U1*%
X218238095Y-93952380D02*
X218238095Y-94761904D01*
X218285714Y-94857142D01*
X218333333Y-94904761D01*
X218428571Y-94952380D01*
X218619047Y-94952380D01*
X218714285Y-94904761D01*
X218761904Y-94857142D01*
X218809523Y-94761904D01*
X218809523Y-93952380D01*
X219809523Y-94952380D02*
X219238095Y-94952380D01*
X219523809Y-94952380D02*
X219523809Y-93952380D01*
X219428571Y-94095238D01*
X219333333Y-94190476D01*
X219238095Y-94238095D01*
%TO.C,U2*%
X208238095Y-108702380D02*
X208238095Y-109511904D01*
X208285714Y-109607142D01*
X208333333Y-109654761D01*
X208428571Y-109702380D01*
X208619047Y-109702380D01*
X208714285Y-109654761D01*
X208761904Y-109607142D01*
X208809523Y-109511904D01*
X208809523Y-108702380D01*
X209238095Y-108797619D02*
X209285714Y-108750000D01*
X209380952Y-108702380D01*
X209619047Y-108702380D01*
X209714285Y-108750000D01*
X209761904Y-108797619D01*
X209809523Y-108892857D01*
X209809523Y-108988095D01*
X209761904Y-109130952D01*
X209190476Y-109702380D01*
X209809523Y-109702380D01*
%TO.C,U3*%
X221738095Y-99252380D02*
X221738095Y-100061904D01*
X221785714Y-100157142D01*
X221833333Y-100204761D01*
X221928571Y-100252380D01*
X222119047Y-100252380D01*
X222214285Y-100204761D01*
X222261904Y-100157142D01*
X222309523Y-100061904D01*
X222309523Y-99252380D01*
X222690476Y-99252380D02*
X223309523Y-99252380D01*
X222976190Y-99633333D01*
X223119047Y-99633333D01*
X223214285Y-99680952D01*
X223261904Y-99728571D01*
X223309523Y-99823809D01*
X223309523Y-100061904D01*
X223261904Y-100157142D01*
X223214285Y-100204761D01*
X223119047Y-100252380D01*
X222833333Y-100252380D01*
X222738095Y-100204761D01*
X222690476Y-100157142D01*
%TO.C,Y1*%
X207626190Y-83226190D02*
X208102380Y-83226190D01*
X207102380Y-83559523D02*
X207626190Y-83226190D01*
X207102380Y-82892857D01*
X208102380Y-82035714D02*
X208102380Y-82607142D01*
X208102380Y-82321428D02*
X207102380Y-82321428D01*
X207245238Y-82416666D01*
X207340476Y-82511904D01*
X207388095Y-82607142D01*
%TD*%
M02*
