%TF.GenerationSoftware,KiCad,Pcbnew,(5.1.9)-1*%
%TF.CreationDate,2021-05-17T17:29:25-07:00*%
%TF.ProjectId,dev_test_board_v1,6465765f-7465-4737-945f-626f6172645f,rev?*%
%TF.SameCoordinates,Original*%
%TF.FileFunction,Copper,L1,Top*%
%TF.FilePolarity,Positive*%
%FSLAX46Y46*%
G04 Gerber Fmt 4.6, Leading zero omitted, Abs format (unit mm)*
G04 Created by KiCad (PCBNEW (5.1.9)-1) date 2021-05-17 17:29:25*
%MOMM*%
%LPD*%
G01*
G04 APERTURE LIST*
%TA.AperFunction,SMDPad,CuDef*%
%ADD10R,1.275000X1.400000*%
%TD*%
%TA.AperFunction,ComponentPad*%
%ADD11C,1.300000*%
%TD*%
%TA.AperFunction,ComponentPad*%
%ADD12O,1.300000X1.700000*%
%TD*%
%TA.AperFunction,SMDPad,CuDef*%
%ADD13R,0.400000X1.750000*%
%TD*%
%TA.AperFunction,WasherPad*%
%ADD14C,1.524000*%
%TD*%
%TA.AperFunction,SMDPad,CuDef*%
%ADD15R,1.300000X1.550000*%
%TD*%
%TA.AperFunction,ComponentPad*%
%ADD16R,1.400000X1.400000*%
%TD*%
%TA.AperFunction,ComponentPad*%
%ADD17C,1.400000*%
%TD*%
%TA.AperFunction,ComponentPad*%
%ADD18C,5.400000*%
%TD*%
%TA.AperFunction,ComponentPad*%
%ADD19C,0.800000*%
%TD*%
%TA.AperFunction,ComponentPad*%
%ADD20R,1.000000X1.000000*%
%TD*%
%TA.AperFunction,ComponentPad*%
%ADD21O,1.000000X1.000000*%
%TD*%
%TA.AperFunction,ComponentPad*%
%ADD22R,1.700000X1.700000*%
%TD*%
%TA.AperFunction,ComponentPad*%
%ADD23O,1.700000X1.700000*%
%TD*%
%TA.AperFunction,SMDPad,CuDef*%
%ADD24R,1.200000X0.400000*%
%TD*%
%TA.AperFunction,SMDPad,CuDef*%
%ADD25R,0.350000X0.375000*%
%TD*%
%TA.AperFunction,SMDPad,CuDef*%
%ADD26R,0.375000X0.350000*%
%TD*%
%TA.AperFunction,SMDPad,CuDef*%
%ADD27R,3.000000X2.500000*%
%TD*%
%TA.AperFunction,ViaPad*%
%ADD28C,0.800000*%
%TD*%
%TA.AperFunction,Conductor*%
%ADD29C,0.500000*%
%TD*%
%TA.AperFunction,Conductor*%
%ADD30C,0.300000*%
%TD*%
%TA.AperFunction,Conductor*%
%ADD31C,0.250000*%
%TD*%
%TA.AperFunction,Conductor*%
%ADD32C,0.200000*%
%TD*%
G04 APERTURE END LIST*
D10*
%TO.P,J1,11*%
%TO.N,N/C*%
X202862500Y-127150000D03*
%TO.P,J1,10*%
X207137500Y-127150000D03*
D11*
%TO.P,J1,7*%
X202575000Y-124500000D03*
%TO.P,J1,6*%
%TO.N,Net-(J1-Pad6)*%
X207425000Y-124500000D03*
D12*
%TO.P,J1,9*%
%TO.N,N/C*%
X201375000Y-127150000D03*
%TO.P,J1,8*%
X208625000Y-127150000D03*
D13*
%TO.P,J1,1*%
%TO.N,Net-(C1-Pad1)*%
X203700000Y-124375000D03*
%TO.P,J1,5*%
%TO.N,GND*%
X206300000Y-124375000D03*
%TO.P,J1,4*%
%TO.N,Net-(J1-Pad4)*%
X205650000Y-124375000D03*
%TO.P,J1,2*%
%TO.N,USB_CONN_D-*%
X204350000Y-124375000D03*
%TO.P,J1,3*%
%TO.N,USB_CONN_D+*%
X205000000Y-124375000D03*
%TD*%
%TO.P,R2,2*%
%TO.N,USB_CONN_D-*%
%TA.AperFunction,SMDPad,CuDef*%
G36*
G01*
X203075000Y-113425000D02*
X203625000Y-113425000D01*
G75*
G02*
X203825000Y-113625000I0J-200000D01*
G01*
X203825000Y-114025000D01*
G75*
G02*
X203625000Y-114225000I-200000J0D01*
G01*
X203075000Y-114225000D01*
G75*
G02*
X202875000Y-114025000I0J200000D01*
G01*
X202875000Y-113625000D01*
G75*
G02*
X203075000Y-113425000I200000J0D01*
G01*
G37*
%TD.AperFunction*%
%TO.P,R2,1*%
%TO.N,USB_D-*%
%TA.AperFunction,SMDPad,CuDef*%
G36*
G01*
X203075000Y-111775000D02*
X203625000Y-111775000D01*
G75*
G02*
X203825000Y-111975000I0J-200000D01*
G01*
X203825000Y-112375000D01*
G75*
G02*
X203625000Y-112575000I-200000J0D01*
G01*
X203075000Y-112575000D01*
G75*
G02*
X202875000Y-112375000I0J200000D01*
G01*
X202875000Y-111975000D01*
G75*
G02*
X203075000Y-111775000I200000J0D01*
G01*
G37*
%TD.AperFunction*%
%TD*%
%TO.P,R1,2*%
%TO.N,USB_CONN_D+*%
%TA.AperFunction,SMDPad,CuDef*%
G36*
G01*
X205725000Y-113425000D02*
X206275000Y-113425000D01*
G75*
G02*
X206475000Y-113625000I0J-200000D01*
G01*
X206475000Y-114025000D01*
G75*
G02*
X206275000Y-114225000I-200000J0D01*
G01*
X205725000Y-114225000D01*
G75*
G02*
X205525000Y-114025000I0J200000D01*
G01*
X205525000Y-113625000D01*
G75*
G02*
X205725000Y-113425000I200000J0D01*
G01*
G37*
%TD.AperFunction*%
%TO.P,R1,1*%
%TO.N,USB_D+*%
%TA.AperFunction,SMDPad,CuDef*%
G36*
G01*
X205725000Y-111775000D02*
X206275000Y-111775000D01*
G75*
G02*
X206475000Y-111975000I0J-200000D01*
G01*
X206475000Y-112375000D01*
G75*
G02*
X206275000Y-112575000I-200000J0D01*
G01*
X205725000Y-112575000D01*
G75*
G02*
X205525000Y-112375000I0J200000D01*
G01*
X205525000Y-111975000D01*
G75*
G02*
X205725000Y-111775000I200000J0D01*
G01*
G37*
%TD.AperFunction*%
%TD*%
D14*
%TO.P,REF\u002A\u002A,*%
%TO.N,*%
X243250000Y-123150000D03*
%TD*%
%TO.P,REF\u002A\u002A,*%
%TO.N,*%
X197300000Y-71850000D03*
%TD*%
%TO.P,REF\u002A\u002A,*%
%TO.N,*%
X197300000Y-71850000D03*
%TD*%
%TO.P,REF\u002A\u002A,*%
%TO.N,*%
X245000000Y-72750000D03*
%TD*%
%TO.P,R13,2*%
%TO.N,SW_GP3*%
%TA.AperFunction,SMDPad,CuDef*%
G36*
G01*
X239715000Y-89240000D02*
X240085000Y-89240000D01*
G75*
G02*
X240220000Y-89375000I0J-135000D01*
G01*
X240220000Y-89645000D01*
G75*
G02*
X240085000Y-89780000I-135000J0D01*
G01*
X239715000Y-89780000D01*
G75*
G02*
X239580000Y-89645000I0J135000D01*
G01*
X239580000Y-89375000D01*
G75*
G02*
X239715000Y-89240000I135000J0D01*
G01*
G37*
%TD.AperFunction*%
%TO.P,R13,1*%
%TO.N,GND*%
%TA.AperFunction,SMDPad,CuDef*%
G36*
G01*
X239715000Y-88220000D02*
X240085000Y-88220000D01*
G75*
G02*
X240220000Y-88355000I0J-135000D01*
G01*
X240220000Y-88625000D01*
G75*
G02*
X240085000Y-88760000I-135000J0D01*
G01*
X239715000Y-88760000D01*
G75*
G02*
X239580000Y-88625000I0J135000D01*
G01*
X239580000Y-88355000D01*
G75*
G02*
X239715000Y-88220000I135000J0D01*
G01*
G37*
%TD.AperFunction*%
%TD*%
%TO.P,R12,2*%
%TO.N,SW_GP2*%
%TA.AperFunction,SMDPad,CuDef*%
G36*
G01*
X239715000Y-100340000D02*
X240085000Y-100340000D01*
G75*
G02*
X240220000Y-100475000I0J-135000D01*
G01*
X240220000Y-100745000D01*
G75*
G02*
X240085000Y-100880000I-135000J0D01*
G01*
X239715000Y-100880000D01*
G75*
G02*
X239580000Y-100745000I0J135000D01*
G01*
X239580000Y-100475000D01*
G75*
G02*
X239715000Y-100340000I135000J0D01*
G01*
G37*
%TD.AperFunction*%
%TO.P,R12,1*%
%TO.N,GND*%
%TA.AperFunction,SMDPad,CuDef*%
G36*
G01*
X239715000Y-99320000D02*
X240085000Y-99320000D01*
G75*
G02*
X240220000Y-99455000I0J-135000D01*
G01*
X240220000Y-99725000D01*
G75*
G02*
X240085000Y-99860000I-135000J0D01*
G01*
X239715000Y-99860000D01*
G75*
G02*
X239580000Y-99725000I0J135000D01*
G01*
X239580000Y-99455000D01*
G75*
G02*
X239715000Y-99320000I135000J0D01*
G01*
G37*
%TD.AperFunction*%
%TD*%
%TO.P,R11,2*%
%TO.N,SW_GP1*%
%TA.AperFunction,SMDPad,CuDef*%
G36*
G01*
X239715000Y-111340000D02*
X240085000Y-111340000D01*
G75*
G02*
X240220000Y-111475000I0J-135000D01*
G01*
X240220000Y-111745000D01*
G75*
G02*
X240085000Y-111880000I-135000J0D01*
G01*
X239715000Y-111880000D01*
G75*
G02*
X239580000Y-111745000I0J135000D01*
G01*
X239580000Y-111475000D01*
G75*
G02*
X239715000Y-111340000I135000J0D01*
G01*
G37*
%TD.AperFunction*%
%TO.P,R11,1*%
%TO.N,GND*%
%TA.AperFunction,SMDPad,CuDef*%
G36*
G01*
X239715000Y-110320000D02*
X240085000Y-110320000D01*
G75*
G02*
X240220000Y-110455000I0J-135000D01*
G01*
X240220000Y-110725000D01*
G75*
G02*
X240085000Y-110860000I-135000J0D01*
G01*
X239715000Y-110860000D01*
G75*
G02*
X239580000Y-110725000I0J135000D01*
G01*
X239580000Y-110455000D01*
G75*
G02*
X239715000Y-110320000I135000J0D01*
G01*
G37*
%TD.AperFunction*%
%TD*%
D15*
%TO.P,SW4,2*%
%TO.N,+3V3*%
X247740000Y-81605000D03*
%TO.P,SW4,1*%
%TO.N,SW_GP3*%
X243240000Y-81605000D03*
X243240000Y-89555000D03*
%TO.P,SW4,2*%
%TO.N,+3V3*%
X247740000Y-89555000D03*
%TD*%
%TO.P,SW3,2*%
%TO.N,+3V3*%
X247740000Y-92655000D03*
%TO.P,SW3,1*%
%TO.N,SW_GP2*%
X243240000Y-92655000D03*
X243240000Y-100605000D03*
%TO.P,SW3,2*%
%TO.N,+3V3*%
X247740000Y-100605000D03*
%TD*%
%TO.P,D2,2*%
%TO.N,+3V3*%
%TA.AperFunction,SMDPad,CuDef*%
G36*
G01*
X194650000Y-98743750D02*
X194650000Y-99256250D01*
G75*
G02*
X194431250Y-99475000I-218750J0D01*
G01*
X193993750Y-99475000D01*
G75*
G02*
X193775000Y-99256250I0J218750D01*
G01*
X193775000Y-98743750D01*
G75*
G02*
X193993750Y-98525000I218750J0D01*
G01*
X194431250Y-98525000D01*
G75*
G02*
X194650000Y-98743750I0J-218750D01*
G01*
G37*
%TD.AperFunction*%
%TO.P,D2,1*%
%TO.N,Net-(D2-Pad1)*%
%TA.AperFunction,SMDPad,CuDef*%
G36*
G01*
X196225000Y-98743750D02*
X196225000Y-99256250D01*
G75*
G02*
X196006250Y-99475000I-218750J0D01*
G01*
X195568750Y-99475000D01*
G75*
G02*
X195350000Y-99256250I0J218750D01*
G01*
X195350000Y-98743750D01*
G75*
G02*
X195568750Y-98525000I218750J0D01*
G01*
X196006250Y-98525000D01*
G75*
G02*
X196225000Y-98743750I0J-218750D01*
G01*
G37*
%TD.AperFunction*%
%TD*%
%TO.P,D3,1*%
%TO.N,Net-(D3-Pad1)*%
%TA.AperFunction,SMDPad,CuDef*%
G36*
G01*
X196225000Y-96743750D02*
X196225000Y-97256250D01*
G75*
G02*
X196006250Y-97475000I-218750J0D01*
G01*
X195568750Y-97475000D01*
G75*
G02*
X195350000Y-97256250I0J218750D01*
G01*
X195350000Y-96743750D01*
G75*
G02*
X195568750Y-96525000I218750J0D01*
G01*
X196006250Y-96525000D01*
G75*
G02*
X196225000Y-96743750I0J-218750D01*
G01*
G37*
%TD.AperFunction*%
%TO.P,D3,2*%
%TO.N,+3V3*%
%TA.AperFunction,SMDPad,CuDef*%
G36*
G01*
X194650000Y-96743750D02*
X194650000Y-97256250D01*
G75*
G02*
X194431250Y-97475000I-218750J0D01*
G01*
X193993750Y-97475000D01*
G75*
G02*
X193775000Y-97256250I0J218750D01*
G01*
X193775000Y-96743750D01*
G75*
G02*
X193993750Y-96525000I218750J0D01*
G01*
X194431250Y-96525000D01*
G75*
G02*
X194650000Y-96743750I0J-218750D01*
G01*
G37*
%TD.AperFunction*%
%TD*%
%TO.P,R4,1*%
%TO.N,Net-(D3-Pad1)*%
%TA.AperFunction,SMDPad,CuDef*%
G36*
G01*
X197775000Y-97275000D02*
X197775000Y-96725000D01*
G75*
G02*
X197975000Y-96525000I200000J0D01*
G01*
X198375000Y-96525000D01*
G75*
G02*
X198575000Y-96725000I0J-200000D01*
G01*
X198575000Y-97275000D01*
G75*
G02*
X198375000Y-97475000I-200000J0D01*
G01*
X197975000Y-97475000D01*
G75*
G02*
X197775000Y-97275000I0J200000D01*
G01*
G37*
%TD.AperFunction*%
%TO.P,R4,2*%
%TO.N,LED_USB_TX*%
%TA.AperFunction,SMDPad,CuDef*%
G36*
G01*
X199425000Y-97275000D02*
X199425000Y-96725000D01*
G75*
G02*
X199625000Y-96525000I200000J0D01*
G01*
X200025000Y-96525000D01*
G75*
G02*
X200225000Y-96725000I0J-200000D01*
G01*
X200225000Y-97275000D01*
G75*
G02*
X200025000Y-97475000I-200000J0D01*
G01*
X199625000Y-97475000D01*
G75*
G02*
X199425000Y-97275000I0J200000D01*
G01*
G37*
%TD.AperFunction*%
%TD*%
%TO.P,R3,2*%
%TO.N,LED_USB_RX*%
%TA.AperFunction,SMDPad,CuDef*%
G36*
G01*
X199425000Y-99275000D02*
X199425000Y-98725000D01*
G75*
G02*
X199625000Y-98525000I200000J0D01*
G01*
X200025000Y-98525000D01*
G75*
G02*
X200225000Y-98725000I0J-200000D01*
G01*
X200225000Y-99275000D01*
G75*
G02*
X200025000Y-99475000I-200000J0D01*
G01*
X199625000Y-99475000D01*
G75*
G02*
X199425000Y-99275000I0J200000D01*
G01*
G37*
%TD.AperFunction*%
%TO.P,R3,1*%
%TO.N,Net-(D2-Pad1)*%
%TA.AperFunction,SMDPad,CuDef*%
G36*
G01*
X197775000Y-99275000D02*
X197775000Y-98725000D01*
G75*
G02*
X197975000Y-98525000I200000J0D01*
G01*
X198375000Y-98525000D01*
G75*
G02*
X198575000Y-98725000I0J-200000D01*
G01*
X198575000Y-99275000D01*
G75*
G02*
X198375000Y-99475000I-200000J0D01*
G01*
X197975000Y-99475000D01*
G75*
G02*
X197775000Y-99275000I0J200000D01*
G01*
G37*
%TD.AperFunction*%
%TD*%
D16*
%TO.P,SW1,1*%
%TO.N,+3V3*%
X193750000Y-79750000D03*
D17*
%TO.P,SW1,2*%
%TO.N,Net-(R5-Pad1)*%
X193750000Y-77250000D03*
%TO.P,SW1,3*%
%TO.N,GND*%
X193750000Y-74750000D03*
%TD*%
%TO.P,C1,1*%
%TO.N,Net-(C1-Pad1)*%
%TA.AperFunction,SMDPad,CuDef*%
G36*
G01*
X197725000Y-117500000D02*
X197725000Y-118000000D01*
G75*
G02*
X197500000Y-118225000I-225000J0D01*
G01*
X197050000Y-118225000D01*
G75*
G02*
X196825000Y-118000000I0J225000D01*
G01*
X196825000Y-117500000D01*
G75*
G02*
X197050000Y-117275000I225000J0D01*
G01*
X197500000Y-117275000D01*
G75*
G02*
X197725000Y-117500000I0J-225000D01*
G01*
G37*
%TD.AperFunction*%
%TO.P,C1,2*%
%TO.N,GND*%
%TA.AperFunction,SMDPad,CuDef*%
G36*
G01*
X196175000Y-117500000D02*
X196175000Y-118000000D01*
G75*
G02*
X195950000Y-118225000I-225000J0D01*
G01*
X195500000Y-118225000D01*
G75*
G02*
X195275000Y-118000000I0J225000D01*
G01*
X195275000Y-117500000D01*
G75*
G02*
X195500000Y-117275000I225000J0D01*
G01*
X195950000Y-117275000D01*
G75*
G02*
X196175000Y-117500000I0J-225000D01*
G01*
G37*
%TD.AperFunction*%
%TD*%
%TO.P,C2,1*%
%TO.N,+5V*%
%TA.AperFunction,SMDPad,CuDef*%
G36*
G01*
X203600000Y-105450000D02*
X203600000Y-106550000D01*
G75*
G02*
X203350000Y-106800000I-250000J0D01*
G01*
X201250000Y-106800000D01*
G75*
G02*
X201000000Y-106550000I0J250000D01*
G01*
X201000000Y-105450000D01*
G75*
G02*
X201250000Y-105200000I250000J0D01*
G01*
X203350000Y-105200000D01*
G75*
G02*
X203600000Y-105450000I0J-250000D01*
G01*
G37*
%TD.AperFunction*%
%TO.P,C2,2*%
%TO.N,GND*%
%TA.AperFunction,SMDPad,CuDef*%
G36*
G01*
X200000000Y-105450000D02*
X200000000Y-106550000D01*
G75*
G02*
X199750000Y-106800000I-250000J0D01*
G01*
X197650000Y-106800000D01*
G75*
G02*
X197400000Y-106550000I0J250000D01*
G01*
X197400000Y-105450000D01*
G75*
G02*
X197650000Y-105200000I250000J0D01*
G01*
X199750000Y-105200000D01*
G75*
G02*
X200000000Y-105450000I0J-250000D01*
G01*
G37*
%TD.AperFunction*%
%TD*%
%TO.P,C3,1*%
%TO.N,+5V*%
%TA.AperFunction,SMDPad,CuDef*%
G36*
G01*
X204580000Y-104990000D02*
X204920000Y-104990000D01*
G75*
G02*
X205060000Y-105130000I0J-140000D01*
G01*
X205060000Y-105410000D01*
G75*
G02*
X204920000Y-105550000I-140000J0D01*
G01*
X204580000Y-105550000D01*
G75*
G02*
X204440000Y-105410000I0J140000D01*
G01*
X204440000Y-105130000D01*
G75*
G02*
X204580000Y-104990000I140000J0D01*
G01*
G37*
%TD.AperFunction*%
%TO.P,C3,2*%
%TO.N,GND*%
%TA.AperFunction,SMDPad,CuDef*%
G36*
G01*
X204580000Y-105950000D02*
X204920000Y-105950000D01*
G75*
G02*
X205060000Y-106090000I0J-140000D01*
G01*
X205060000Y-106370000D01*
G75*
G02*
X204920000Y-106510000I-140000J0D01*
G01*
X204580000Y-106510000D01*
G75*
G02*
X204440000Y-106370000I0J140000D01*
G01*
X204440000Y-106090000D01*
G75*
G02*
X204580000Y-105950000I140000J0D01*
G01*
G37*
%TD.AperFunction*%
%TD*%
%TO.P,C4,2*%
%TO.N,GND*%
%TA.AperFunction,SMDPad,CuDef*%
G36*
G01*
X204100000Y-103730000D02*
X204100000Y-104070000D01*
G75*
G02*
X203960000Y-104210000I-140000J0D01*
G01*
X203680000Y-104210000D01*
G75*
G02*
X203540000Y-104070000I0J140000D01*
G01*
X203540000Y-103730000D01*
G75*
G02*
X203680000Y-103590000I140000J0D01*
G01*
X203960000Y-103590000D01*
G75*
G02*
X204100000Y-103730000I0J-140000D01*
G01*
G37*
%TD.AperFunction*%
%TO.P,C4,1*%
%TO.N,+3V3*%
%TA.AperFunction,SMDPad,CuDef*%
G36*
G01*
X205060000Y-103730000D02*
X205060000Y-104070000D01*
G75*
G02*
X204920000Y-104210000I-140000J0D01*
G01*
X204640000Y-104210000D01*
G75*
G02*
X204500000Y-104070000I0J140000D01*
G01*
X204500000Y-103730000D01*
G75*
G02*
X204640000Y-103590000I140000J0D01*
G01*
X204920000Y-103590000D01*
G75*
G02*
X205060000Y-103730000I0J-140000D01*
G01*
G37*
%TD.AperFunction*%
%TD*%
%TO.P,C5,1*%
%TO.N,GND*%
%TA.AperFunction,SMDPad,CuDef*%
G36*
G01*
X208225000Y-116600000D02*
X208225000Y-117100000D01*
G75*
G02*
X208000000Y-117325000I-225000J0D01*
G01*
X207550000Y-117325000D01*
G75*
G02*
X207325000Y-117100000I0J225000D01*
G01*
X207325000Y-116600000D01*
G75*
G02*
X207550000Y-116375000I225000J0D01*
G01*
X208000000Y-116375000D01*
G75*
G02*
X208225000Y-116600000I0J-225000D01*
G01*
G37*
%TD.AperFunction*%
%TO.P,C5,2*%
%TO.N,USB_CONN_D+*%
%TA.AperFunction,SMDPad,CuDef*%
G36*
G01*
X206675000Y-116600000D02*
X206675000Y-117100000D01*
G75*
G02*
X206450000Y-117325000I-225000J0D01*
G01*
X206000000Y-117325000D01*
G75*
G02*
X205775000Y-117100000I0J225000D01*
G01*
X205775000Y-116600000D01*
G75*
G02*
X206000000Y-116375000I225000J0D01*
G01*
X206450000Y-116375000D01*
G75*
G02*
X206675000Y-116600000I0J-225000D01*
G01*
G37*
%TD.AperFunction*%
%TD*%
%TO.P,C6,2*%
%TO.N,GND*%
%TA.AperFunction,SMDPad,CuDef*%
G36*
G01*
X202025000Y-116600000D02*
X202025000Y-117100000D01*
G75*
G02*
X201800000Y-117325000I-225000J0D01*
G01*
X201350000Y-117325000D01*
G75*
G02*
X201125000Y-117100000I0J225000D01*
G01*
X201125000Y-116600000D01*
G75*
G02*
X201350000Y-116375000I225000J0D01*
G01*
X201800000Y-116375000D01*
G75*
G02*
X202025000Y-116600000I0J-225000D01*
G01*
G37*
%TD.AperFunction*%
%TO.P,C6,1*%
%TO.N,USB_CONN_D-*%
%TA.AperFunction,SMDPad,CuDef*%
G36*
G01*
X203575000Y-116600000D02*
X203575000Y-117100000D01*
G75*
G02*
X203350000Y-117325000I-225000J0D01*
G01*
X202900000Y-117325000D01*
G75*
G02*
X202675000Y-117100000I0J225000D01*
G01*
X202675000Y-116600000D01*
G75*
G02*
X202900000Y-116375000I225000J0D01*
G01*
X203350000Y-116375000D01*
G75*
G02*
X203575000Y-116600000I0J-225000D01*
G01*
G37*
%TD.AperFunction*%
%TD*%
%TO.P,C7,1*%
%TO.N,+3V3*%
%TA.AperFunction,SMDPad,CuDef*%
G36*
G01*
X211240000Y-82920000D02*
X211240000Y-82580000D01*
G75*
G02*
X211380000Y-82440000I140000J0D01*
G01*
X211660000Y-82440000D01*
G75*
G02*
X211800000Y-82580000I0J-140000D01*
G01*
X211800000Y-82920000D01*
G75*
G02*
X211660000Y-83060000I-140000J0D01*
G01*
X211380000Y-83060000D01*
G75*
G02*
X211240000Y-82920000I0J140000D01*
G01*
G37*
%TD.AperFunction*%
%TO.P,C7,2*%
%TO.N,GND*%
%TA.AperFunction,SMDPad,CuDef*%
G36*
G01*
X212200000Y-82920000D02*
X212200000Y-82580000D01*
G75*
G02*
X212340000Y-82440000I140000J0D01*
G01*
X212620000Y-82440000D01*
G75*
G02*
X212760000Y-82580000I0J-140000D01*
G01*
X212760000Y-82920000D01*
G75*
G02*
X212620000Y-83060000I-140000J0D01*
G01*
X212340000Y-83060000D01*
G75*
G02*
X212200000Y-82920000I0J140000D01*
G01*
G37*
%TD.AperFunction*%
%TD*%
%TO.P,C8,2*%
%TO.N,GND*%
%TA.AperFunction,SMDPad,CuDef*%
G36*
G01*
X212200000Y-84170000D02*
X212200000Y-83830000D01*
G75*
G02*
X212340000Y-83690000I140000J0D01*
G01*
X212620000Y-83690000D01*
G75*
G02*
X212760000Y-83830000I0J-140000D01*
G01*
X212760000Y-84170000D01*
G75*
G02*
X212620000Y-84310000I-140000J0D01*
G01*
X212340000Y-84310000D01*
G75*
G02*
X212200000Y-84170000I0J140000D01*
G01*
G37*
%TD.AperFunction*%
%TO.P,C8,1*%
%TO.N,+3V3*%
%TA.AperFunction,SMDPad,CuDef*%
G36*
G01*
X211240000Y-84170000D02*
X211240000Y-83830000D01*
G75*
G02*
X211380000Y-83690000I140000J0D01*
G01*
X211660000Y-83690000D01*
G75*
G02*
X211800000Y-83830000I0J-140000D01*
G01*
X211800000Y-84170000D01*
G75*
G02*
X211660000Y-84310000I-140000J0D01*
G01*
X211380000Y-84310000D01*
G75*
G02*
X211240000Y-84170000I0J140000D01*
G01*
G37*
%TD.AperFunction*%
%TD*%
%TO.P,C9,1*%
%TO.N,+3V3*%
%TA.AperFunction,SMDPad,CuDef*%
G36*
G01*
X220330000Y-86040000D02*
X220670000Y-86040000D01*
G75*
G02*
X220810000Y-86180000I0J-140000D01*
G01*
X220810000Y-86460000D01*
G75*
G02*
X220670000Y-86600000I-140000J0D01*
G01*
X220330000Y-86600000D01*
G75*
G02*
X220190000Y-86460000I0J140000D01*
G01*
X220190000Y-86180000D01*
G75*
G02*
X220330000Y-86040000I140000J0D01*
G01*
G37*
%TD.AperFunction*%
%TO.P,C9,2*%
%TO.N,GND*%
%TA.AperFunction,SMDPad,CuDef*%
G36*
G01*
X220330000Y-87000000D02*
X220670000Y-87000000D01*
G75*
G02*
X220810000Y-87140000I0J-140000D01*
G01*
X220810000Y-87420000D01*
G75*
G02*
X220670000Y-87560000I-140000J0D01*
G01*
X220330000Y-87560000D01*
G75*
G02*
X220190000Y-87420000I0J140000D01*
G01*
X220190000Y-87140000D01*
G75*
G02*
X220330000Y-87000000I140000J0D01*
G01*
G37*
%TD.AperFunction*%
%TD*%
%TO.P,C10,1*%
%TO.N,+3V3*%
%TA.AperFunction,SMDPad,CuDef*%
G36*
G01*
X218010000Y-95830000D02*
X218010000Y-96170000D01*
G75*
G02*
X217870000Y-96310000I-140000J0D01*
G01*
X217590000Y-96310000D01*
G75*
G02*
X217450000Y-96170000I0J140000D01*
G01*
X217450000Y-95830000D01*
G75*
G02*
X217590000Y-95690000I140000J0D01*
G01*
X217870000Y-95690000D01*
G75*
G02*
X218010000Y-95830000I0J-140000D01*
G01*
G37*
%TD.AperFunction*%
%TO.P,C10,2*%
%TO.N,GND*%
%TA.AperFunction,SMDPad,CuDef*%
G36*
G01*
X217050000Y-95830000D02*
X217050000Y-96170000D01*
G75*
G02*
X216910000Y-96310000I-140000J0D01*
G01*
X216630000Y-96310000D01*
G75*
G02*
X216490000Y-96170000I0J140000D01*
G01*
X216490000Y-95830000D01*
G75*
G02*
X216630000Y-95690000I140000J0D01*
G01*
X216910000Y-95690000D01*
G75*
G02*
X217050000Y-95830000I0J-140000D01*
G01*
G37*
%TD.AperFunction*%
%TD*%
%TO.P,C11,2*%
%TO.N,GND*%
%TA.AperFunction,SMDPad,CuDef*%
G36*
G01*
X207420000Y-90800000D02*
X207080000Y-90800000D01*
G75*
G02*
X206940000Y-90660000I0J140000D01*
G01*
X206940000Y-90380000D01*
G75*
G02*
X207080000Y-90240000I140000J0D01*
G01*
X207420000Y-90240000D01*
G75*
G02*
X207560000Y-90380000I0J-140000D01*
G01*
X207560000Y-90660000D01*
G75*
G02*
X207420000Y-90800000I-140000J0D01*
G01*
G37*
%TD.AperFunction*%
%TO.P,C11,1*%
%TO.N,+3.3VA*%
%TA.AperFunction,SMDPad,CuDef*%
G36*
G01*
X207420000Y-91760000D02*
X207080000Y-91760000D01*
G75*
G02*
X206940000Y-91620000I0J140000D01*
G01*
X206940000Y-91340000D01*
G75*
G02*
X207080000Y-91200000I140000J0D01*
G01*
X207420000Y-91200000D01*
G75*
G02*
X207560000Y-91340000I0J-140000D01*
G01*
X207560000Y-91620000D01*
G75*
G02*
X207420000Y-91760000I-140000J0D01*
G01*
G37*
%TD.AperFunction*%
%TD*%
%TO.P,C12,1*%
%TO.N,+3.3VA*%
%TA.AperFunction,SMDPad,CuDef*%
G36*
G01*
X208670000Y-91760000D02*
X208330000Y-91760000D01*
G75*
G02*
X208190000Y-91620000I0J140000D01*
G01*
X208190000Y-91340000D01*
G75*
G02*
X208330000Y-91200000I140000J0D01*
G01*
X208670000Y-91200000D01*
G75*
G02*
X208810000Y-91340000I0J-140000D01*
G01*
X208810000Y-91620000D01*
G75*
G02*
X208670000Y-91760000I-140000J0D01*
G01*
G37*
%TD.AperFunction*%
%TO.P,C12,2*%
%TO.N,GND*%
%TA.AperFunction,SMDPad,CuDef*%
G36*
G01*
X208670000Y-90800000D02*
X208330000Y-90800000D01*
G75*
G02*
X208190000Y-90660000I0J140000D01*
G01*
X208190000Y-90380000D01*
G75*
G02*
X208330000Y-90240000I140000J0D01*
G01*
X208670000Y-90240000D01*
G75*
G02*
X208810000Y-90380000I0J-140000D01*
G01*
X208810000Y-90660000D01*
G75*
G02*
X208670000Y-90800000I-140000J0D01*
G01*
G37*
%TD.AperFunction*%
%TD*%
%TO.P,C13,1*%
%TO.N,HSE_OCC_IN*%
%TA.AperFunction,SMDPad,CuDef*%
G36*
G01*
X205010000Y-76830000D02*
X205010000Y-77170000D01*
G75*
G02*
X204870000Y-77310000I-140000J0D01*
G01*
X204590000Y-77310000D01*
G75*
G02*
X204450000Y-77170000I0J140000D01*
G01*
X204450000Y-76830000D01*
G75*
G02*
X204590000Y-76690000I140000J0D01*
G01*
X204870000Y-76690000D01*
G75*
G02*
X205010000Y-76830000I0J-140000D01*
G01*
G37*
%TD.AperFunction*%
%TO.P,C13,2*%
%TO.N,GND*%
%TA.AperFunction,SMDPad,CuDef*%
G36*
G01*
X204050000Y-76830000D02*
X204050000Y-77170000D01*
G75*
G02*
X203910000Y-77310000I-140000J0D01*
G01*
X203630000Y-77310000D01*
G75*
G02*
X203490000Y-77170000I0J140000D01*
G01*
X203490000Y-76830000D01*
G75*
G02*
X203630000Y-76690000I140000J0D01*
G01*
X203910000Y-76690000D01*
G75*
G02*
X204050000Y-76830000I0J-140000D01*
G01*
G37*
%TD.AperFunction*%
%TD*%
%TO.P,C14,1*%
%TO.N,HSE_OCC_OUT*%
%TA.AperFunction,SMDPad,CuDef*%
G36*
G01*
X205010000Y-88330000D02*
X205010000Y-88670000D01*
G75*
G02*
X204870000Y-88810000I-140000J0D01*
G01*
X204590000Y-88810000D01*
G75*
G02*
X204450000Y-88670000I0J140000D01*
G01*
X204450000Y-88330000D01*
G75*
G02*
X204590000Y-88190000I140000J0D01*
G01*
X204870000Y-88190000D01*
G75*
G02*
X205010000Y-88330000I0J-140000D01*
G01*
G37*
%TD.AperFunction*%
%TO.P,C14,2*%
%TO.N,GND*%
%TA.AperFunction,SMDPad,CuDef*%
G36*
G01*
X204050000Y-88330000D02*
X204050000Y-88670000D01*
G75*
G02*
X203910000Y-88810000I-140000J0D01*
G01*
X203630000Y-88810000D01*
G75*
G02*
X203490000Y-88670000I0J140000D01*
G01*
X203490000Y-88330000D01*
G75*
G02*
X203630000Y-88190000I140000J0D01*
G01*
X203910000Y-88190000D01*
G75*
G02*
X204050000Y-88330000I0J-140000D01*
G01*
G37*
%TD.AperFunction*%
%TD*%
%TO.P,C15,2*%
%TO.N,GND*%
%TA.AperFunction,SMDPad,CuDef*%
G36*
G01*
X225050000Y-103830000D02*
X225050000Y-104170000D01*
G75*
G02*
X224910000Y-104310000I-140000J0D01*
G01*
X224630000Y-104310000D01*
G75*
G02*
X224490000Y-104170000I0J140000D01*
G01*
X224490000Y-103830000D01*
G75*
G02*
X224630000Y-103690000I140000J0D01*
G01*
X224910000Y-103690000D01*
G75*
G02*
X225050000Y-103830000I0J-140000D01*
G01*
G37*
%TD.AperFunction*%
%TO.P,C15,1*%
%TO.N,+3V3*%
%TA.AperFunction,SMDPad,CuDef*%
G36*
G01*
X226010000Y-103830000D02*
X226010000Y-104170000D01*
G75*
G02*
X225870000Y-104310000I-140000J0D01*
G01*
X225590000Y-104310000D01*
G75*
G02*
X225450000Y-104170000I0J140000D01*
G01*
X225450000Y-103830000D01*
G75*
G02*
X225590000Y-103690000I140000J0D01*
G01*
X225870000Y-103690000D01*
G75*
G02*
X226010000Y-103830000I0J-140000D01*
G01*
G37*
%TD.AperFunction*%
%TD*%
%TO.P,C16,2*%
%TO.N,GND*%
%TA.AperFunction,SMDPad,CuDef*%
G36*
G01*
X225050000Y-102330000D02*
X225050000Y-102670000D01*
G75*
G02*
X224910000Y-102810000I-140000J0D01*
G01*
X224630000Y-102810000D01*
G75*
G02*
X224490000Y-102670000I0J140000D01*
G01*
X224490000Y-102330000D01*
G75*
G02*
X224630000Y-102190000I140000J0D01*
G01*
X224910000Y-102190000D01*
G75*
G02*
X225050000Y-102330000I0J-140000D01*
G01*
G37*
%TD.AperFunction*%
%TO.P,C16,1*%
%TO.N,+3V3*%
%TA.AperFunction,SMDPad,CuDef*%
G36*
G01*
X226010000Y-102330000D02*
X226010000Y-102670000D01*
G75*
G02*
X225870000Y-102810000I-140000J0D01*
G01*
X225590000Y-102810000D01*
G75*
G02*
X225450000Y-102670000I0J140000D01*
G01*
X225450000Y-102330000D01*
G75*
G02*
X225590000Y-102190000I140000J0D01*
G01*
X225870000Y-102190000D01*
G75*
G02*
X226010000Y-102330000I0J-140000D01*
G01*
G37*
%TD.AperFunction*%
%TD*%
%TO.P,C17,2*%
%TO.N,GND*%
%TA.AperFunction,SMDPad,CuDef*%
G36*
G01*
X227330000Y-102200000D02*
X227670000Y-102200000D01*
G75*
G02*
X227810000Y-102340000I0J-140000D01*
G01*
X227810000Y-102620000D01*
G75*
G02*
X227670000Y-102760000I-140000J0D01*
G01*
X227330000Y-102760000D01*
G75*
G02*
X227190000Y-102620000I0J140000D01*
G01*
X227190000Y-102340000D01*
G75*
G02*
X227330000Y-102200000I140000J0D01*
G01*
G37*
%TD.AperFunction*%
%TO.P,C17,1*%
%TO.N,+3V3*%
%TA.AperFunction,SMDPad,CuDef*%
G36*
G01*
X227330000Y-101240000D02*
X227670000Y-101240000D01*
G75*
G02*
X227810000Y-101380000I0J-140000D01*
G01*
X227810000Y-101660000D01*
G75*
G02*
X227670000Y-101800000I-140000J0D01*
G01*
X227330000Y-101800000D01*
G75*
G02*
X227190000Y-101660000I0J140000D01*
G01*
X227190000Y-101380000D01*
G75*
G02*
X227330000Y-101240000I140000J0D01*
G01*
G37*
%TD.AperFunction*%
%TD*%
%TO.P,D4,2*%
%TO.N,LED_STATUS*%
%TA.AperFunction,SMDPad,CuDef*%
G36*
G01*
X224150000Y-87743750D02*
X224150000Y-88256250D01*
G75*
G02*
X223931250Y-88475000I-218750J0D01*
G01*
X223493750Y-88475000D01*
G75*
G02*
X223275000Y-88256250I0J218750D01*
G01*
X223275000Y-87743750D01*
G75*
G02*
X223493750Y-87525000I218750J0D01*
G01*
X223931250Y-87525000D01*
G75*
G02*
X224150000Y-87743750I0J-218750D01*
G01*
G37*
%TD.AperFunction*%
%TO.P,D4,1*%
%TO.N,Net-(D4-Pad1)*%
%TA.AperFunction,SMDPad,CuDef*%
G36*
G01*
X225725000Y-87743750D02*
X225725000Y-88256250D01*
G75*
G02*
X225506250Y-88475000I-218750J0D01*
G01*
X225068750Y-88475000D01*
G75*
G02*
X224850000Y-88256250I0J218750D01*
G01*
X224850000Y-87743750D01*
G75*
G02*
X225068750Y-87525000I218750J0D01*
G01*
X225506250Y-87525000D01*
G75*
G02*
X225725000Y-87743750I0J-218750D01*
G01*
G37*
%TD.AperFunction*%
%TD*%
%TO.P,D5,1*%
%TO.N,Net-(D5-Pad1)*%
%TA.AperFunction,SMDPad,CuDef*%
G36*
G01*
X225725000Y-89743750D02*
X225725000Y-90256250D01*
G75*
G02*
X225506250Y-90475000I-218750J0D01*
G01*
X225068750Y-90475000D01*
G75*
G02*
X224850000Y-90256250I0J218750D01*
G01*
X224850000Y-89743750D01*
G75*
G02*
X225068750Y-89525000I218750J0D01*
G01*
X225506250Y-89525000D01*
G75*
G02*
X225725000Y-89743750I0J-218750D01*
G01*
G37*
%TD.AperFunction*%
%TO.P,D5,2*%
%TO.N,LED_GP*%
%TA.AperFunction,SMDPad,CuDef*%
G36*
G01*
X224150000Y-89743750D02*
X224150000Y-90256250D01*
G75*
G02*
X223931250Y-90475000I-218750J0D01*
G01*
X223493750Y-90475000D01*
G75*
G02*
X223275000Y-90256250I0J218750D01*
G01*
X223275000Y-89743750D01*
G75*
G02*
X223493750Y-89525000I218750J0D01*
G01*
X223931250Y-89525000D01*
G75*
G02*
X224150000Y-89743750I0J-218750D01*
G01*
G37*
%TD.AperFunction*%
%TD*%
%TO.P,FB1,1*%
%TO.N,+5V*%
%TA.AperFunction,SMDPad,CuDef*%
G36*
G01*
X196618750Y-112750000D02*
X197381250Y-112750000D01*
G75*
G02*
X197600000Y-112968750I0J-218750D01*
G01*
X197600000Y-113406250D01*
G75*
G02*
X197381250Y-113625000I-218750J0D01*
G01*
X196618750Y-113625000D01*
G75*
G02*
X196400000Y-113406250I0J218750D01*
G01*
X196400000Y-112968750D01*
G75*
G02*
X196618750Y-112750000I218750J0D01*
G01*
G37*
%TD.AperFunction*%
%TO.P,FB1,2*%
%TO.N,Net-(C1-Pad1)*%
%TA.AperFunction,SMDPad,CuDef*%
G36*
G01*
X196618750Y-114875000D02*
X197381250Y-114875000D01*
G75*
G02*
X197600000Y-115093750I0J-218750D01*
G01*
X197600000Y-115531250D01*
G75*
G02*
X197381250Y-115750000I-218750J0D01*
G01*
X196618750Y-115750000D01*
G75*
G02*
X196400000Y-115531250I0J218750D01*
G01*
X196400000Y-115093750D01*
G75*
G02*
X196618750Y-114875000I218750J0D01*
G01*
G37*
%TD.AperFunction*%
%TD*%
D18*
%TO.P,H1,1*%
%TO.N,GND*%
X247500000Y-69000000D03*
D19*
X249525000Y-69000000D03*
X248931891Y-70431891D03*
X247500000Y-71025000D03*
X246068109Y-70431891D03*
X245475000Y-69000000D03*
X246068109Y-67568109D03*
X247500000Y-66975000D03*
X248931891Y-67568109D03*
%TD*%
%TO.P,H2,1*%
%TO.N,GND*%
X195181891Y-67568109D03*
X193750000Y-66975000D03*
X192318109Y-67568109D03*
X191725000Y-69000000D03*
X192318109Y-70431891D03*
X193750000Y-71025000D03*
X195181891Y-70431891D03*
X195775000Y-69000000D03*
D18*
X193750000Y-69000000D03*
%TD*%
D19*
%TO.P,H3,1*%
%TO.N,GND*%
X195181891Y-123318109D03*
X193750000Y-122725000D03*
X192318109Y-123318109D03*
X191725000Y-124750000D03*
X192318109Y-126181891D03*
X193750000Y-126775000D03*
X195181891Y-126181891D03*
X195775000Y-124750000D03*
D18*
X193750000Y-124750000D03*
%TD*%
%TO.P,H4,1*%
%TO.N,GND*%
X247500000Y-124750000D03*
D19*
X249525000Y-124750000D03*
X248931891Y-126181891D03*
X247500000Y-126775000D03*
X246068109Y-126181891D03*
X245475000Y-124750000D03*
X246068109Y-123318109D03*
X247500000Y-122725000D03*
X248931891Y-123318109D03*
%TD*%
D20*
%TO.P,J2,1*%
%TO.N,+3V3*%
X241290000Y-68250000D03*
D21*
%TO.P,J2,2*%
%TO.N,Net-(J2-Pad2)*%
X241290000Y-69520000D03*
%TO.P,J2,3*%
%TO.N,GND*%
X240020000Y-68250000D03*
%TO.P,J2,4*%
%TO.N,SW_CLK*%
X240020000Y-69520000D03*
%TO.P,J2,5*%
%TO.N,GND*%
X238750000Y-68250000D03*
%TO.P,J2,6*%
%TO.N,Net-(J2-Pad6)*%
X238750000Y-69520000D03*
%TO.P,J2,7*%
%TO.N,Net-(J2-Pad7)*%
X237480000Y-68250000D03*
%TO.P,J2,8*%
%TO.N,Net-(J2-Pad8)*%
X237480000Y-69520000D03*
%TO.P,J2,9*%
%TO.N,GND*%
X236210000Y-68250000D03*
%TO.P,J2,10*%
%TO.N,NRST*%
X236210000Y-69520000D03*
%TD*%
D22*
%TO.P,J3,1*%
%TO.N,+3V3*%
X211750000Y-125500000D03*
D23*
%TO.P,J3,2*%
%TO.N,GND*%
X214290000Y-125500000D03*
%TO.P,J3,3*%
%TO.N,LCD_CS*%
X216830000Y-125500000D03*
%TO.P,J3,4*%
%TO.N,LCD_RST*%
X219370000Y-125500000D03*
%TO.P,J3,5*%
%TO.N,LCD_A0*%
X221910000Y-125500000D03*
%TO.P,J3,6*%
%TO.N,SPI1_MOSI*%
X224450000Y-125500000D03*
%TO.P,J3,7*%
%TO.N,SPI1_SCK*%
X226990000Y-125500000D03*
%TO.P,J3,8*%
%TO.N,LCD_LED*%
X229530000Y-125500000D03*
%TD*%
D22*
%TO.P,J4,1*%
%TO.N,+3V3*%
X231000000Y-68500000D03*
D23*
%TO.P,J4,2*%
%TO.N,GND*%
X228460000Y-68500000D03*
%TO.P,J4,3*%
%TO.N,LPUART1_RX*%
X225920000Y-68500000D03*
%TO.P,J4,4*%
%TO.N,LPUART1_TX*%
X223380000Y-68500000D03*
%TO.P,J4,5*%
%TO.N,GPIO8*%
X220840000Y-68500000D03*
%TO.P,J4,6*%
%TO.N,GPIO7*%
X218300000Y-68500000D03*
%TO.P,J4,7*%
%TO.N,GPIO6*%
X215760000Y-68500000D03*
%TO.P,J4,8*%
%TO.N,GPIO5*%
X213220000Y-68500000D03*
%TO.P,J4,9*%
%TO.N,GPIO4*%
X210680000Y-68500000D03*
%TO.P,J4,10*%
%TO.N,GPIO3*%
X208140000Y-68500000D03*
%TO.P,J4,11*%
%TO.N,GPIO2*%
X205600000Y-68500000D03*
%TO.P,J4,12*%
%TO.N,GPIO1*%
X203060000Y-68500000D03*
%TD*%
%TO.P,L1,1*%
%TO.N,+3.3VA*%
%TA.AperFunction,SMDPad,CuDef*%
G36*
G01*
X206225000Y-91243750D02*
X206225000Y-91756250D01*
G75*
G02*
X206006250Y-91975000I-218750J0D01*
G01*
X205568750Y-91975000D01*
G75*
G02*
X205350000Y-91756250I0J218750D01*
G01*
X205350000Y-91243750D01*
G75*
G02*
X205568750Y-91025000I218750J0D01*
G01*
X206006250Y-91025000D01*
G75*
G02*
X206225000Y-91243750I0J-218750D01*
G01*
G37*
%TD.AperFunction*%
%TO.P,L1,2*%
%TO.N,+3V3*%
%TA.AperFunction,SMDPad,CuDef*%
G36*
G01*
X204650000Y-91243750D02*
X204650000Y-91756250D01*
G75*
G02*
X204431250Y-91975000I-218750J0D01*
G01*
X203993750Y-91975000D01*
G75*
G02*
X203775000Y-91756250I0J218750D01*
G01*
X203775000Y-91243750D01*
G75*
G02*
X203993750Y-91025000I218750J0D01*
G01*
X204431250Y-91025000D01*
G75*
G02*
X204650000Y-91243750I0J-218750D01*
G01*
G37*
%TD.AperFunction*%
%TD*%
%TO.P,R5,1*%
%TO.N,Net-(R5-Pad1)*%
%TA.AperFunction,SMDPad,CuDef*%
G36*
G01*
X196470000Y-77685000D02*
X196470000Y-77315000D01*
G75*
G02*
X196605000Y-77180000I135000J0D01*
G01*
X196875000Y-77180000D01*
G75*
G02*
X197010000Y-77315000I0J-135000D01*
G01*
X197010000Y-77685000D01*
G75*
G02*
X196875000Y-77820000I-135000J0D01*
G01*
X196605000Y-77820000D01*
G75*
G02*
X196470000Y-77685000I0J135000D01*
G01*
G37*
%TD.AperFunction*%
%TO.P,R5,2*%
%TO.N,BOOT0*%
%TA.AperFunction,SMDPad,CuDef*%
G36*
G01*
X197490000Y-77685000D02*
X197490000Y-77315000D01*
G75*
G02*
X197625000Y-77180000I135000J0D01*
G01*
X197895000Y-77180000D01*
G75*
G02*
X198030000Y-77315000I0J-135000D01*
G01*
X198030000Y-77685000D01*
G75*
G02*
X197895000Y-77820000I-135000J0D01*
G01*
X197625000Y-77820000D01*
G75*
G02*
X197490000Y-77685000I0J135000D01*
G01*
G37*
%TD.AperFunction*%
%TD*%
%TO.P,R6,1*%
%TO.N,Net-(D4-Pad1)*%
%TA.AperFunction,SMDPad,CuDef*%
G36*
G01*
X226775000Y-88275000D02*
X226775000Y-87725000D01*
G75*
G02*
X226975000Y-87525000I200000J0D01*
G01*
X227375000Y-87525000D01*
G75*
G02*
X227575000Y-87725000I0J-200000D01*
G01*
X227575000Y-88275000D01*
G75*
G02*
X227375000Y-88475000I-200000J0D01*
G01*
X226975000Y-88475000D01*
G75*
G02*
X226775000Y-88275000I0J200000D01*
G01*
G37*
%TD.AperFunction*%
%TO.P,R6,2*%
%TO.N,GND*%
%TA.AperFunction,SMDPad,CuDef*%
G36*
G01*
X228425000Y-88275000D02*
X228425000Y-87725000D01*
G75*
G02*
X228625000Y-87525000I200000J0D01*
G01*
X229025000Y-87525000D01*
G75*
G02*
X229225000Y-87725000I0J-200000D01*
G01*
X229225000Y-88275000D01*
G75*
G02*
X229025000Y-88475000I-200000J0D01*
G01*
X228625000Y-88475000D01*
G75*
G02*
X228425000Y-88275000I0J200000D01*
G01*
G37*
%TD.AperFunction*%
%TD*%
%TO.P,R7,2*%
%TO.N,GND*%
%TA.AperFunction,SMDPad,CuDef*%
G36*
G01*
X228425000Y-90275000D02*
X228425000Y-89725000D01*
G75*
G02*
X228625000Y-89525000I200000J0D01*
G01*
X229025000Y-89525000D01*
G75*
G02*
X229225000Y-89725000I0J-200000D01*
G01*
X229225000Y-90275000D01*
G75*
G02*
X229025000Y-90475000I-200000J0D01*
G01*
X228625000Y-90475000D01*
G75*
G02*
X228425000Y-90275000I0J200000D01*
G01*
G37*
%TD.AperFunction*%
%TO.P,R7,1*%
%TO.N,Net-(D5-Pad1)*%
%TA.AperFunction,SMDPad,CuDef*%
G36*
G01*
X226775000Y-90275000D02*
X226775000Y-89725000D01*
G75*
G02*
X226975000Y-89525000I200000J0D01*
G01*
X227375000Y-89525000D01*
G75*
G02*
X227575000Y-89725000I0J-200000D01*
G01*
X227575000Y-90275000D01*
G75*
G02*
X227375000Y-90475000I-200000J0D01*
G01*
X226975000Y-90475000D01*
G75*
G02*
X226775000Y-90275000I0J200000D01*
G01*
G37*
%TD.AperFunction*%
%TD*%
%TO.P,R8,1*%
%TO.N,I2C1_SDA*%
%TA.AperFunction,SMDPad,CuDef*%
G36*
G01*
X224780000Y-97065000D02*
X224780000Y-97435000D01*
G75*
G02*
X224645000Y-97570000I-135000J0D01*
G01*
X224375000Y-97570000D01*
G75*
G02*
X224240000Y-97435000I0J135000D01*
G01*
X224240000Y-97065000D01*
G75*
G02*
X224375000Y-96930000I135000J0D01*
G01*
X224645000Y-96930000D01*
G75*
G02*
X224780000Y-97065000I0J-135000D01*
G01*
G37*
%TD.AperFunction*%
%TO.P,R8,2*%
%TO.N,+3V3*%
%TA.AperFunction,SMDPad,CuDef*%
G36*
G01*
X223760000Y-97065000D02*
X223760000Y-97435000D01*
G75*
G02*
X223625000Y-97570000I-135000J0D01*
G01*
X223355000Y-97570000D01*
G75*
G02*
X223220000Y-97435000I0J135000D01*
G01*
X223220000Y-97065000D01*
G75*
G02*
X223355000Y-96930000I135000J0D01*
G01*
X223625000Y-96930000D01*
G75*
G02*
X223760000Y-97065000I0J-135000D01*
G01*
G37*
%TD.AperFunction*%
%TD*%
%TO.P,R9,2*%
%TO.N,I2C1_SCL*%
%TA.AperFunction,SMDPad,CuDef*%
G36*
G01*
X226260000Y-97065000D02*
X226260000Y-97435000D01*
G75*
G02*
X226125000Y-97570000I-135000J0D01*
G01*
X225855000Y-97570000D01*
G75*
G02*
X225720000Y-97435000I0J135000D01*
G01*
X225720000Y-97065000D01*
G75*
G02*
X225855000Y-96930000I135000J0D01*
G01*
X226125000Y-96930000D01*
G75*
G02*
X226260000Y-97065000I0J-135000D01*
G01*
G37*
%TD.AperFunction*%
%TO.P,R9,1*%
%TO.N,+3V3*%
%TA.AperFunction,SMDPad,CuDef*%
G36*
G01*
X227280000Y-97065000D02*
X227280000Y-97435000D01*
G75*
G02*
X227145000Y-97570000I-135000J0D01*
G01*
X226875000Y-97570000D01*
G75*
G02*
X226740000Y-97435000I0J135000D01*
G01*
X226740000Y-97065000D01*
G75*
G02*
X226875000Y-96930000I135000J0D01*
G01*
X227145000Y-96930000D01*
G75*
G02*
X227280000Y-97065000I0J-135000D01*
G01*
G37*
%TD.AperFunction*%
%TD*%
%TO.P,R10,2*%
%TO.N,Net-(J2-Pad2)*%
%TA.AperFunction,SMDPad,CuDef*%
G36*
G01*
X241485000Y-73260000D02*
X241115000Y-73260000D01*
G75*
G02*
X240980000Y-73125000I0J135000D01*
G01*
X240980000Y-72855000D01*
G75*
G02*
X241115000Y-72720000I135000J0D01*
G01*
X241485000Y-72720000D01*
G75*
G02*
X241620000Y-72855000I0J-135000D01*
G01*
X241620000Y-73125000D01*
G75*
G02*
X241485000Y-73260000I-135000J0D01*
G01*
G37*
%TD.AperFunction*%
%TO.P,R10,1*%
%TO.N,SW_DIO*%
%TA.AperFunction,SMDPad,CuDef*%
G36*
G01*
X241485000Y-74280000D02*
X241115000Y-74280000D01*
G75*
G02*
X240980000Y-74145000I0J135000D01*
G01*
X240980000Y-73875000D01*
G75*
G02*
X241115000Y-73740000I135000J0D01*
G01*
X241485000Y-73740000D01*
G75*
G02*
X241620000Y-73875000I0J-135000D01*
G01*
X241620000Y-74145000D01*
G75*
G02*
X241485000Y-74280000I-135000J0D01*
G01*
G37*
%TD.AperFunction*%
%TD*%
D15*
%TO.P,SW2,2*%
%TO.N,+3V3*%
X247725000Y-111650000D03*
%TO.P,SW2,1*%
%TO.N,SW_GP1*%
X243225000Y-111650000D03*
X243225000Y-103700000D03*
%TO.P,SW2,2*%
%TO.N,+3V3*%
X247725000Y-103700000D03*
%TD*%
%TO.P,U1,1*%
%TO.N,GPIO4*%
%TA.AperFunction,SMDPad,CuDef*%
G36*
G01*
X209600000Y-87325000D02*
X209600000Y-87175000D01*
G75*
G02*
X209675000Y-87100000I75000J0D01*
G01*
X211000000Y-87100000D01*
G75*
G02*
X211075000Y-87175000I0J-75000D01*
G01*
X211075000Y-87325000D01*
G75*
G02*
X211000000Y-87400000I-75000J0D01*
G01*
X209675000Y-87400000D01*
G75*
G02*
X209600000Y-87325000I0J75000D01*
G01*
G37*
%TD.AperFunction*%
%TO.P,U1,2*%
%TO.N,GPIO3*%
%TA.AperFunction,SMDPad,CuDef*%
G36*
G01*
X209600000Y-87825000D02*
X209600000Y-87675000D01*
G75*
G02*
X209675000Y-87600000I75000J0D01*
G01*
X211000000Y-87600000D01*
G75*
G02*
X211075000Y-87675000I0J-75000D01*
G01*
X211075000Y-87825000D01*
G75*
G02*
X211000000Y-87900000I-75000J0D01*
G01*
X209675000Y-87900000D01*
G75*
G02*
X209600000Y-87825000I0J75000D01*
G01*
G37*
%TD.AperFunction*%
%TO.P,U1,3*%
%TO.N,GPIO2*%
%TA.AperFunction,SMDPad,CuDef*%
G36*
G01*
X209600000Y-88325000D02*
X209600000Y-88175000D01*
G75*
G02*
X209675000Y-88100000I75000J0D01*
G01*
X211000000Y-88100000D01*
G75*
G02*
X211075000Y-88175000I0J-75000D01*
G01*
X211075000Y-88325000D01*
G75*
G02*
X211000000Y-88400000I-75000J0D01*
G01*
X209675000Y-88400000D01*
G75*
G02*
X209600000Y-88325000I0J75000D01*
G01*
G37*
%TD.AperFunction*%
%TO.P,U1,4*%
%TO.N,GPIO1*%
%TA.AperFunction,SMDPad,CuDef*%
G36*
G01*
X209600000Y-88825000D02*
X209600000Y-88675000D01*
G75*
G02*
X209675000Y-88600000I75000J0D01*
G01*
X211000000Y-88600000D01*
G75*
G02*
X211075000Y-88675000I0J-75000D01*
G01*
X211075000Y-88825000D01*
G75*
G02*
X211000000Y-88900000I-75000J0D01*
G01*
X209675000Y-88900000D01*
G75*
G02*
X209600000Y-88825000I0J75000D01*
G01*
G37*
%TD.AperFunction*%
%TO.P,U1,5*%
%TO.N,HSE_OCC_IN*%
%TA.AperFunction,SMDPad,CuDef*%
G36*
G01*
X209600000Y-89325000D02*
X209600000Y-89175000D01*
G75*
G02*
X209675000Y-89100000I75000J0D01*
G01*
X211000000Y-89100000D01*
G75*
G02*
X211075000Y-89175000I0J-75000D01*
G01*
X211075000Y-89325000D01*
G75*
G02*
X211000000Y-89400000I-75000J0D01*
G01*
X209675000Y-89400000D01*
G75*
G02*
X209600000Y-89325000I0J75000D01*
G01*
G37*
%TD.AperFunction*%
%TO.P,U1,6*%
%TO.N,HSE_OCC_OUT*%
%TA.AperFunction,SMDPad,CuDef*%
G36*
G01*
X209600000Y-89825000D02*
X209600000Y-89675000D01*
G75*
G02*
X209675000Y-89600000I75000J0D01*
G01*
X211000000Y-89600000D01*
G75*
G02*
X211075000Y-89675000I0J-75000D01*
G01*
X211075000Y-89825000D01*
G75*
G02*
X211000000Y-89900000I-75000J0D01*
G01*
X209675000Y-89900000D01*
G75*
G02*
X209600000Y-89825000I0J75000D01*
G01*
G37*
%TD.AperFunction*%
%TO.P,U1,7*%
%TO.N,NRST*%
%TA.AperFunction,SMDPad,CuDef*%
G36*
G01*
X209600000Y-90325000D02*
X209600000Y-90175000D01*
G75*
G02*
X209675000Y-90100000I75000J0D01*
G01*
X211000000Y-90100000D01*
G75*
G02*
X211075000Y-90175000I0J-75000D01*
G01*
X211075000Y-90325000D01*
G75*
G02*
X211000000Y-90400000I-75000J0D01*
G01*
X209675000Y-90400000D01*
G75*
G02*
X209600000Y-90325000I0J75000D01*
G01*
G37*
%TD.AperFunction*%
%TO.P,U1,8*%
%TO.N,GND*%
%TA.AperFunction,SMDPad,CuDef*%
G36*
G01*
X209600000Y-90825000D02*
X209600000Y-90675000D01*
G75*
G02*
X209675000Y-90600000I75000J0D01*
G01*
X211000000Y-90600000D01*
G75*
G02*
X211075000Y-90675000I0J-75000D01*
G01*
X211075000Y-90825000D01*
G75*
G02*
X211000000Y-90900000I-75000J0D01*
G01*
X209675000Y-90900000D01*
G75*
G02*
X209600000Y-90825000I0J75000D01*
G01*
G37*
%TD.AperFunction*%
%TO.P,U1,9*%
%TO.N,+3.3VA*%
%TA.AperFunction,SMDPad,CuDef*%
G36*
G01*
X209600000Y-91325000D02*
X209600000Y-91175000D01*
G75*
G02*
X209675000Y-91100000I75000J0D01*
G01*
X211000000Y-91100000D01*
G75*
G02*
X211075000Y-91175000I0J-75000D01*
G01*
X211075000Y-91325000D01*
G75*
G02*
X211000000Y-91400000I-75000J0D01*
G01*
X209675000Y-91400000D01*
G75*
G02*
X209600000Y-91325000I0J75000D01*
G01*
G37*
%TD.AperFunction*%
%TO.P,U1,10*%
%TO.N,USB_CBUS0*%
%TA.AperFunction,SMDPad,CuDef*%
G36*
G01*
X209600000Y-91825000D02*
X209600000Y-91675000D01*
G75*
G02*
X209675000Y-91600000I75000J0D01*
G01*
X211000000Y-91600000D01*
G75*
G02*
X211075000Y-91675000I0J-75000D01*
G01*
X211075000Y-91825000D01*
G75*
G02*
X211000000Y-91900000I-75000J0D01*
G01*
X209675000Y-91900000D01*
G75*
G02*
X209600000Y-91825000I0J75000D01*
G01*
G37*
%TD.AperFunction*%
%TO.P,U1,11*%
%TO.N,USB_CBUS3*%
%TA.AperFunction,SMDPad,CuDef*%
G36*
G01*
X209600000Y-92325000D02*
X209600000Y-92175000D01*
G75*
G02*
X209675000Y-92100000I75000J0D01*
G01*
X211000000Y-92100000D01*
G75*
G02*
X211075000Y-92175000I0J-75000D01*
G01*
X211075000Y-92325000D01*
G75*
G02*
X211000000Y-92400000I-75000J0D01*
G01*
X209675000Y-92400000D01*
G75*
G02*
X209600000Y-92325000I0J75000D01*
G01*
G37*
%TD.AperFunction*%
%TO.P,U1,12*%
%TO.N,LPUART1_TX*%
%TA.AperFunction,SMDPad,CuDef*%
G36*
G01*
X209600000Y-92825000D02*
X209600000Y-92675000D01*
G75*
G02*
X209675000Y-92600000I75000J0D01*
G01*
X211000000Y-92600000D01*
G75*
G02*
X211075000Y-92675000I0J-75000D01*
G01*
X211075000Y-92825000D01*
G75*
G02*
X211000000Y-92900000I-75000J0D01*
G01*
X209675000Y-92900000D01*
G75*
G02*
X209600000Y-92825000I0J75000D01*
G01*
G37*
%TD.AperFunction*%
%TO.P,U1,13*%
%TO.N,LPUART1_RX*%
%TA.AperFunction,SMDPad,CuDef*%
G36*
G01*
X211600000Y-94825000D02*
X211600000Y-93500000D01*
G75*
G02*
X211675000Y-93425000I75000J0D01*
G01*
X211825000Y-93425000D01*
G75*
G02*
X211900000Y-93500000I0J-75000D01*
G01*
X211900000Y-94825000D01*
G75*
G02*
X211825000Y-94900000I-75000J0D01*
G01*
X211675000Y-94900000D01*
G75*
G02*
X211600000Y-94825000I0J75000D01*
G01*
G37*
%TD.AperFunction*%
%TO.P,U1,14*%
%TO.N,LCD_CS*%
%TA.AperFunction,SMDPad,CuDef*%
G36*
G01*
X212100000Y-94825000D02*
X212100000Y-93500000D01*
G75*
G02*
X212175000Y-93425000I75000J0D01*
G01*
X212325000Y-93425000D01*
G75*
G02*
X212400000Y-93500000I0J-75000D01*
G01*
X212400000Y-94825000D01*
G75*
G02*
X212325000Y-94900000I-75000J0D01*
G01*
X212175000Y-94900000D01*
G75*
G02*
X212100000Y-94825000I0J75000D01*
G01*
G37*
%TD.AperFunction*%
%TO.P,U1,15*%
%TO.N,SPI1_SCK*%
%TA.AperFunction,SMDPad,CuDef*%
G36*
G01*
X212600000Y-94825000D02*
X212600000Y-93500000D01*
G75*
G02*
X212675000Y-93425000I75000J0D01*
G01*
X212825000Y-93425000D01*
G75*
G02*
X212900000Y-93500000I0J-75000D01*
G01*
X212900000Y-94825000D01*
G75*
G02*
X212825000Y-94900000I-75000J0D01*
G01*
X212675000Y-94900000D01*
G75*
G02*
X212600000Y-94825000I0J75000D01*
G01*
G37*
%TD.AperFunction*%
%TO.P,U1,16*%
%TO.N,Net-(U1-Pad16)*%
%TA.AperFunction,SMDPad,CuDef*%
G36*
G01*
X213100000Y-94825000D02*
X213100000Y-93500000D01*
G75*
G02*
X213175000Y-93425000I75000J0D01*
G01*
X213325000Y-93425000D01*
G75*
G02*
X213400000Y-93500000I0J-75000D01*
G01*
X213400000Y-94825000D01*
G75*
G02*
X213325000Y-94900000I-75000J0D01*
G01*
X213175000Y-94900000D01*
G75*
G02*
X213100000Y-94825000I0J75000D01*
G01*
G37*
%TD.AperFunction*%
%TO.P,U1,17*%
%TO.N,SPI1_MOSI*%
%TA.AperFunction,SMDPad,CuDef*%
G36*
G01*
X213600000Y-94825000D02*
X213600000Y-93500000D01*
G75*
G02*
X213675000Y-93425000I75000J0D01*
G01*
X213825000Y-93425000D01*
G75*
G02*
X213900000Y-93500000I0J-75000D01*
G01*
X213900000Y-94825000D01*
G75*
G02*
X213825000Y-94900000I-75000J0D01*
G01*
X213675000Y-94900000D01*
G75*
G02*
X213600000Y-94825000I0J75000D01*
G01*
G37*
%TD.AperFunction*%
%TO.P,U1,18*%
%TO.N,LCD_RST*%
%TA.AperFunction,SMDPad,CuDef*%
G36*
G01*
X214100000Y-94825000D02*
X214100000Y-93500000D01*
G75*
G02*
X214175000Y-93425000I75000J0D01*
G01*
X214325000Y-93425000D01*
G75*
G02*
X214400000Y-93500000I0J-75000D01*
G01*
X214400000Y-94825000D01*
G75*
G02*
X214325000Y-94900000I-75000J0D01*
G01*
X214175000Y-94900000D01*
G75*
G02*
X214100000Y-94825000I0J75000D01*
G01*
G37*
%TD.AperFunction*%
%TO.P,U1,19*%
%TO.N,LCD_A0*%
%TA.AperFunction,SMDPad,CuDef*%
G36*
G01*
X214600000Y-94825000D02*
X214600000Y-93500000D01*
G75*
G02*
X214675000Y-93425000I75000J0D01*
G01*
X214825000Y-93425000D01*
G75*
G02*
X214900000Y-93500000I0J-75000D01*
G01*
X214900000Y-94825000D01*
G75*
G02*
X214825000Y-94900000I-75000J0D01*
G01*
X214675000Y-94900000D01*
G75*
G02*
X214600000Y-94825000I0J75000D01*
G01*
G37*
%TD.AperFunction*%
%TO.P,U1,20*%
%TO.N,LCD_LED*%
%TA.AperFunction,SMDPad,CuDef*%
G36*
G01*
X215100000Y-94825000D02*
X215100000Y-93500000D01*
G75*
G02*
X215175000Y-93425000I75000J0D01*
G01*
X215325000Y-93425000D01*
G75*
G02*
X215400000Y-93500000I0J-75000D01*
G01*
X215400000Y-94825000D01*
G75*
G02*
X215325000Y-94900000I-75000J0D01*
G01*
X215175000Y-94900000D01*
G75*
G02*
X215100000Y-94825000I0J75000D01*
G01*
G37*
%TD.AperFunction*%
%TO.P,U1,21*%
%TO.N,ACC_INT1*%
%TA.AperFunction,SMDPad,CuDef*%
G36*
G01*
X215600000Y-94825000D02*
X215600000Y-93500000D01*
G75*
G02*
X215675000Y-93425000I75000J0D01*
G01*
X215825000Y-93425000D01*
G75*
G02*
X215900000Y-93500000I0J-75000D01*
G01*
X215900000Y-94825000D01*
G75*
G02*
X215825000Y-94900000I-75000J0D01*
G01*
X215675000Y-94900000D01*
G75*
G02*
X215600000Y-94825000I0J75000D01*
G01*
G37*
%TD.AperFunction*%
%TO.P,U1,22*%
%TO.N,ACC_INT2*%
%TA.AperFunction,SMDPad,CuDef*%
G36*
G01*
X216100000Y-94825000D02*
X216100000Y-93500000D01*
G75*
G02*
X216175000Y-93425000I75000J0D01*
G01*
X216325000Y-93425000D01*
G75*
G02*
X216400000Y-93500000I0J-75000D01*
G01*
X216400000Y-94825000D01*
G75*
G02*
X216325000Y-94900000I-75000J0D01*
G01*
X216175000Y-94900000D01*
G75*
G02*
X216100000Y-94825000I0J75000D01*
G01*
G37*
%TD.AperFunction*%
%TO.P,U1,23*%
%TO.N,GND*%
%TA.AperFunction,SMDPad,CuDef*%
G36*
G01*
X216600000Y-94825000D02*
X216600000Y-93500000D01*
G75*
G02*
X216675000Y-93425000I75000J0D01*
G01*
X216825000Y-93425000D01*
G75*
G02*
X216900000Y-93500000I0J-75000D01*
G01*
X216900000Y-94825000D01*
G75*
G02*
X216825000Y-94900000I-75000J0D01*
G01*
X216675000Y-94900000D01*
G75*
G02*
X216600000Y-94825000I0J75000D01*
G01*
G37*
%TD.AperFunction*%
%TO.P,U1,24*%
%TO.N,+3V3*%
%TA.AperFunction,SMDPad,CuDef*%
G36*
G01*
X217100000Y-94825000D02*
X217100000Y-93500000D01*
G75*
G02*
X217175000Y-93425000I75000J0D01*
G01*
X217325000Y-93425000D01*
G75*
G02*
X217400000Y-93500000I0J-75000D01*
G01*
X217400000Y-94825000D01*
G75*
G02*
X217325000Y-94900000I-75000J0D01*
G01*
X217175000Y-94900000D01*
G75*
G02*
X217100000Y-94825000I0J75000D01*
G01*
G37*
%TD.AperFunction*%
%TO.P,U1,25*%
%TO.N,SW_GP1*%
%TA.AperFunction,SMDPad,CuDef*%
G36*
G01*
X217925000Y-92825000D02*
X217925000Y-92675000D01*
G75*
G02*
X218000000Y-92600000I75000J0D01*
G01*
X219325000Y-92600000D01*
G75*
G02*
X219400000Y-92675000I0J-75000D01*
G01*
X219400000Y-92825000D01*
G75*
G02*
X219325000Y-92900000I-75000J0D01*
G01*
X218000000Y-92900000D01*
G75*
G02*
X217925000Y-92825000I0J75000D01*
G01*
G37*
%TD.AperFunction*%
%TO.P,U1,26*%
%TO.N,SW_GP2*%
%TA.AperFunction,SMDPad,CuDef*%
G36*
G01*
X217925000Y-92325000D02*
X217925000Y-92175000D01*
G75*
G02*
X218000000Y-92100000I75000J0D01*
G01*
X219325000Y-92100000D01*
G75*
G02*
X219400000Y-92175000I0J-75000D01*
G01*
X219400000Y-92325000D01*
G75*
G02*
X219325000Y-92400000I-75000J0D01*
G01*
X218000000Y-92400000D01*
G75*
G02*
X217925000Y-92325000I0J75000D01*
G01*
G37*
%TD.AperFunction*%
%TO.P,U1,27*%
%TO.N,SW_GP3*%
%TA.AperFunction,SMDPad,CuDef*%
G36*
G01*
X217925000Y-91825000D02*
X217925000Y-91675000D01*
G75*
G02*
X218000000Y-91600000I75000J0D01*
G01*
X219325000Y-91600000D01*
G75*
G02*
X219400000Y-91675000I0J-75000D01*
G01*
X219400000Y-91825000D01*
G75*
G02*
X219325000Y-91900000I-75000J0D01*
G01*
X218000000Y-91900000D01*
G75*
G02*
X217925000Y-91825000I0J75000D01*
G01*
G37*
%TD.AperFunction*%
%TO.P,U1,28*%
%TO.N,Net-(U1-Pad28)*%
%TA.AperFunction,SMDPad,CuDef*%
G36*
G01*
X217925000Y-91325000D02*
X217925000Y-91175000D01*
G75*
G02*
X218000000Y-91100000I75000J0D01*
G01*
X219325000Y-91100000D01*
G75*
G02*
X219400000Y-91175000I0J-75000D01*
G01*
X219400000Y-91325000D01*
G75*
G02*
X219325000Y-91400000I-75000J0D01*
G01*
X218000000Y-91400000D01*
G75*
G02*
X217925000Y-91325000I0J75000D01*
G01*
G37*
%TD.AperFunction*%
%TO.P,U1,29*%
%TO.N,Net-(U1-Pad29)*%
%TA.AperFunction,SMDPad,CuDef*%
G36*
G01*
X217925000Y-90825000D02*
X217925000Y-90675000D01*
G75*
G02*
X218000000Y-90600000I75000J0D01*
G01*
X219325000Y-90600000D01*
G75*
G02*
X219400000Y-90675000I0J-75000D01*
G01*
X219400000Y-90825000D01*
G75*
G02*
X219325000Y-90900000I-75000J0D01*
G01*
X218000000Y-90900000D01*
G75*
G02*
X217925000Y-90825000I0J75000D01*
G01*
G37*
%TD.AperFunction*%
%TO.P,U1,30*%
%TO.N,I2C1_SCL*%
%TA.AperFunction,SMDPad,CuDef*%
G36*
G01*
X217925000Y-90325000D02*
X217925000Y-90175000D01*
G75*
G02*
X218000000Y-90100000I75000J0D01*
G01*
X219325000Y-90100000D01*
G75*
G02*
X219400000Y-90175000I0J-75000D01*
G01*
X219400000Y-90325000D01*
G75*
G02*
X219325000Y-90400000I-75000J0D01*
G01*
X218000000Y-90400000D01*
G75*
G02*
X217925000Y-90325000I0J75000D01*
G01*
G37*
%TD.AperFunction*%
%TO.P,U1,31*%
%TO.N,I2C1_SDA*%
%TA.AperFunction,SMDPad,CuDef*%
G36*
G01*
X217925000Y-89825000D02*
X217925000Y-89675000D01*
G75*
G02*
X218000000Y-89600000I75000J0D01*
G01*
X219325000Y-89600000D01*
G75*
G02*
X219400000Y-89675000I0J-75000D01*
G01*
X219400000Y-89825000D01*
G75*
G02*
X219325000Y-89900000I-75000J0D01*
G01*
X218000000Y-89900000D01*
G75*
G02*
X217925000Y-89825000I0J75000D01*
G01*
G37*
%TD.AperFunction*%
%TO.P,U1,32*%
%TO.N,LED_GP*%
%TA.AperFunction,SMDPad,CuDef*%
G36*
G01*
X217925000Y-89325000D02*
X217925000Y-89175000D01*
G75*
G02*
X218000000Y-89100000I75000J0D01*
G01*
X219325000Y-89100000D01*
G75*
G02*
X219400000Y-89175000I0J-75000D01*
G01*
X219400000Y-89325000D01*
G75*
G02*
X219325000Y-89400000I-75000J0D01*
G01*
X218000000Y-89400000D01*
G75*
G02*
X217925000Y-89325000I0J75000D01*
G01*
G37*
%TD.AperFunction*%
%TO.P,U1,33*%
%TO.N,LED_STATUS*%
%TA.AperFunction,SMDPad,CuDef*%
G36*
G01*
X217925000Y-88825000D02*
X217925000Y-88675000D01*
G75*
G02*
X218000000Y-88600000I75000J0D01*
G01*
X219325000Y-88600000D01*
G75*
G02*
X219400000Y-88675000I0J-75000D01*
G01*
X219400000Y-88825000D01*
G75*
G02*
X219325000Y-88900000I-75000J0D01*
G01*
X218000000Y-88900000D01*
G75*
G02*
X217925000Y-88825000I0J75000D01*
G01*
G37*
%TD.AperFunction*%
%TO.P,U1,34*%
%TO.N,SW_DIO*%
%TA.AperFunction,SMDPad,CuDef*%
G36*
G01*
X217925000Y-88325000D02*
X217925000Y-88175000D01*
G75*
G02*
X218000000Y-88100000I75000J0D01*
G01*
X219325000Y-88100000D01*
G75*
G02*
X219400000Y-88175000I0J-75000D01*
G01*
X219400000Y-88325000D01*
G75*
G02*
X219325000Y-88400000I-75000J0D01*
G01*
X218000000Y-88400000D01*
G75*
G02*
X217925000Y-88325000I0J75000D01*
G01*
G37*
%TD.AperFunction*%
%TO.P,U1,35*%
%TO.N,GND*%
%TA.AperFunction,SMDPad,CuDef*%
G36*
G01*
X217925000Y-87825000D02*
X217925000Y-87675000D01*
G75*
G02*
X218000000Y-87600000I75000J0D01*
G01*
X219325000Y-87600000D01*
G75*
G02*
X219400000Y-87675000I0J-75000D01*
G01*
X219400000Y-87825000D01*
G75*
G02*
X219325000Y-87900000I-75000J0D01*
G01*
X218000000Y-87900000D01*
G75*
G02*
X217925000Y-87825000I0J75000D01*
G01*
G37*
%TD.AperFunction*%
%TO.P,U1,36*%
%TO.N,+3V3*%
%TA.AperFunction,SMDPad,CuDef*%
G36*
G01*
X217925000Y-87325000D02*
X217925000Y-87175000D01*
G75*
G02*
X218000000Y-87100000I75000J0D01*
G01*
X219325000Y-87100000D01*
G75*
G02*
X219400000Y-87175000I0J-75000D01*
G01*
X219400000Y-87325000D01*
G75*
G02*
X219325000Y-87400000I-75000J0D01*
G01*
X218000000Y-87400000D01*
G75*
G02*
X217925000Y-87325000I0J75000D01*
G01*
G37*
%TD.AperFunction*%
%TO.P,U1,37*%
%TO.N,SW_CLK*%
%TA.AperFunction,SMDPad,CuDef*%
G36*
G01*
X217100000Y-86500000D02*
X217100000Y-85175000D01*
G75*
G02*
X217175000Y-85100000I75000J0D01*
G01*
X217325000Y-85100000D01*
G75*
G02*
X217400000Y-85175000I0J-75000D01*
G01*
X217400000Y-86500000D01*
G75*
G02*
X217325000Y-86575000I-75000J0D01*
G01*
X217175000Y-86575000D01*
G75*
G02*
X217100000Y-86500000I0J75000D01*
G01*
G37*
%TD.AperFunction*%
%TO.P,U1,38*%
%TO.N,GPIO8*%
%TA.AperFunction,SMDPad,CuDef*%
G36*
G01*
X216600000Y-86500000D02*
X216600000Y-85175000D01*
G75*
G02*
X216675000Y-85100000I75000J0D01*
G01*
X216825000Y-85100000D01*
G75*
G02*
X216900000Y-85175000I0J-75000D01*
G01*
X216900000Y-86500000D01*
G75*
G02*
X216825000Y-86575000I-75000J0D01*
G01*
X216675000Y-86575000D01*
G75*
G02*
X216600000Y-86500000I0J75000D01*
G01*
G37*
%TD.AperFunction*%
%TO.P,U1,39*%
%TO.N,GPIO7*%
%TA.AperFunction,SMDPad,CuDef*%
G36*
G01*
X216100000Y-86500000D02*
X216100000Y-85175000D01*
G75*
G02*
X216175000Y-85100000I75000J0D01*
G01*
X216325000Y-85100000D01*
G75*
G02*
X216400000Y-85175000I0J-75000D01*
G01*
X216400000Y-86500000D01*
G75*
G02*
X216325000Y-86575000I-75000J0D01*
G01*
X216175000Y-86575000D01*
G75*
G02*
X216100000Y-86500000I0J75000D01*
G01*
G37*
%TD.AperFunction*%
%TO.P,U1,40*%
%TO.N,GPIO6*%
%TA.AperFunction,SMDPad,CuDef*%
G36*
G01*
X215600000Y-86500000D02*
X215600000Y-85175000D01*
G75*
G02*
X215675000Y-85100000I75000J0D01*
G01*
X215825000Y-85100000D01*
G75*
G02*
X215900000Y-85175000I0J-75000D01*
G01*
X215900000Y-86500000D01*
G75*
G02*
X215825000Y-86575000I-75000J0D01*
G01*
X215675000Y-86575000D01*
G75*
G02*
X215600000Y-86500000I0J75000D01*
G01*
G37*
%TD.AperFunction*%
%TO.P,U1,41*%
%TO.N,GPIO5*%
%TA.AperFunction,SMDPad,CuDef*%
G36*
G01*
X215100000Y-86500000D02*
X215100000Y-85175000D01*
G75*
G02*
X215175000Y-85100000I75000J0D01*
G01*
X215325000Y-85100000D01*
G75*
G02*
X215400000Y-85175000I0J-75000D01*
G01*
X215400000Y-86500000D01*
G75*
G02*
X215325000Y-86575000I-75000J0D01*
G01*
X215175000Y-86575000D01*
G75*
G02*
X215100000Y-86500000I0J75000D01*
G01*
G37*
%TD.AperFunction*%
%TO.P,U1,42*%
%TO.N,USART2_TX*%
%TA.AperFunction,SMDPad,CuDef*%
G36*
G01*
X214600000Y-86500000D02*
X214600000Y-85175000D01*
G75*
G02*
X214675000Y-85100000I75000J0D01*
G01*
X214825000Y-85100000D01*
G75*
G02*
X214900000Y-85175000I0J-75000D01*
G01*
X214900000Y-86500000D01*
G75*
G02*
X214825000Y-86575000I-75000J0D01*
G01*
X214675000Y-86575000D01*
G75*
G02*
X214600000Y-86500000I0J75000D01*
G01*
G37*
%TD.AperFunction*%
%TO.P,U1,43*%
%TO.N,USART2_RX*%
%TA.AperFunction,SMDPad,CuDef*%
G36*
G01*
X214100000Y-86500000D02*
X214100000Y-85175000D01*
G75*
G02*
X214175000Y-85100000I75000J0D01*
G01*
X214325000Y-85100000D01*
G75*
G02*
X214400000Y-85175000I0J-75000D01*
G01*
X214400000Y-86500000D01*
G75*
G02*
X214325000Y-86575000I-75000J0D01*
G01*
X214175000Y-86575000D01*
G75*
G02*
X214100000Y-86500000I0J75000D01*
G01*
G37*
%TD.AperFunction*%
%TO.P,U1,44*%
%TO.N,BOOT0*%
%TA.AperFunction,SMDPad,CuDef*%
G36*
G01*
X213600000Y-86500000D02*
X213600000Y-85175000D01*
G75*
G02*
X213675000Y-85100000I75000J0D01*
G01*
X213825000Y-85100000D01*
G75*
G02*
X213900000Y-85175000I0J-75000D01*
G01*
X213900000Y-86500000D01*
G75*
G02*
X213825000Y-86575000I-75000J0D01*
G01*
X213675000Y-86575000D01*
G75*
G02*
X213600000Y-86500000I0J75000D01*
G01*
G37*
%TD.AperFunction*%
%TO.P,U1,45*%
%TO.N,Net-(U1-Pad45)*%
%TA.AperFunction,SMDPad,CuDef*%
G36*
G01*
X213100000Y-86500000D02*
X213100000Y-85175000D01*
G75*
G02*
X213175000Y-85100000I75000J0D01*
G01*
X213325000Y-85100000D01*
G75*
G02*
X213400000Y-85175000I0J-75000D01*
G01*
X213400000Y-86500000D01*
G75*
G02*
X213325000Y-86575000I-75000J0D01*
G01*
X213175000Y-86575000D01*
G75*
G02*
X213100000Y-86500000I0J75000D01*
G01*
G37*
%TD.AperFunction*%
%TO.P,U1,46*%
%TO.N,Net-(U1-Pad46)*%
%TA.AperFunction,SMDPad,CuDef*%
G36*
G01*
X212600000Y-86500000D02*
X212600000Y-85175000D01*
G75*
G02*
X212675000Y-85100000I75000J0D01*
G01*
X212825000Y-85100000D01*
G75*
G02*
X212900000Y-85175000I0J-75000D01*
G01*
X212900000Y-86500000D01*
G75*
G02*
X212825000Y-86575000I-75000J0D01*
G01*
X212675000Y-86575000D01*
G75*
G02*
X212600000Y-86500000I0J75000D01*
G01*
G37*
%TD.AperFunction*%
%TO.P,U1,47*%
%TO.N,GND*%
%TA.AperFunction,SMDPad,CuDef*%
G36*
G01*
X212100000Y-86500000D02*
X212100000Y-85175000D01*
G75*
G02*
X212175000Y-85100000I75000J0D01*
G01*
X212325000Y-85100000D01*
G75*
G02*
X212400000Y-85175000I0J-75000D01*
G01*
X212400000Y-86500000D01*
G75*
G02*
X212325000Y-86575000I-75000J0D01*
G01*
X212175000Y-86575000D01*
G75*
G02*
X212100000Y-86500000I0J75000D01*
G01*
G37*
%TD.AperFunction*%
%TO.P,U1,48*%
%TO.N,+3V3*%
%TA.AperFunction,SMDPad,CuDef*%
G36*
G01*
X211600000Y-86500000D02*
X211600000Y-85175000D01*
G75*
G02*
X211675000Y-85100000I75000J0D01*
G01*
X211825000Y-85100000D01*
G75*
G02*
X211900000Y-85175000I0J-75000D01*
G01*
X211900000Y-86500000D01*
G75*
G02*
X211825000Y-86575000I-75000J0D01*
G01*
X211675000Y-86575000D01*
G75*
G02*
X211600000Y-86500000I0J75000D01*
G01*
G37*
%TD.AperFunction*%
%TD*%
D24*
%TO.P,U2,1*%
%TO.N,USART2_RX*%
X211600000Y-107972500D03*
%TO.P,U2,2*%
%TO.N,Net-(U2-Pad2)*%
X211600000Y-107337500D03*
%TO.P,U2,3*%
%TO.N,+3V3*%
X211600000Y-106702500D03*
%TO.P,U2,4*%
%TO.N,USART2_TX*%
X211600000Y-106067500D03*
%TO.P,U2,5*%
%TO.N,GND*%
X211600000Y-105432500D03*
%TO.P,U2,6*%
%TO.N,Net-(U2-Pad2)*%
X211600000Y-104797500D03*
%TO.P,U2,7*%
%TO.N,LED_USB_TX*%
X211600000Y-104162500D03*
%TO.P,U2,8*%
%TO.N,USB_D+*%
X211600000Y-103527500D03*
%TO.P,U2,9*%
%TO.N,USB_D-*%
X206400000Y-103527500D03*
%TO.P,U2,10*%
%TO.N,+3V3*%
X206400000Y-104162500D03*
%TO.P,U2,11*%
X206400000Y-104797500D03*
%TO.P,U2,12*%
%TO.N,+5V*%
X206400000Y-105432500D03*
%TO.P,U2,13*%
%TO.N,GND*%
X206400000Y-106067500D03*
%TO.P,U2,14*%
%TO.N,LED_USB_RX*%
X206400000Y-106702500D03*
%TO.P,U2,15*%
%TO.N,USB_CBUS0*%
X206400000Y-107337500D03*
%TO.P,U2,16*%
%TO.N,USB_CBUS3*%
X206400000Y-107972500D03*
%TD*%
D25*
%TO.P,U3,2*%
%TO.N,+3V3*%
X225500000Y-99737500D03*
%TO.P,U3,3*%
%TO.N,GND*%
X225000000Y-99737500D03*
%TO.P,U3,9*%
%TO.N,+3V3*%
X225500000Y-101262500D03*
%TO.P,U3,8*%
%TO.N,GND*%
X225000000Y-101262500D03*
%TO.P,U3,4*%
%TO.N,I2C1_SDA*%
X224500000Y-99737500D03*
%TO.P,U3,7*%
%TO.N,GND*%
X224500000Y-101262500D03*
%TO.P,U3,1*%
%TO.N,I2C1_SCL*%
X226000000Y-99737500D03*
%TO.P,U3,10*%
%TO.N,+3V3*%
X226000000Y-101262500D03*
D26*
%TO.P,U3,5*%
%TO.N,GND*%
X224487500Y-100250000D03*
%TO.P,U3,6*%
X224487500Y-100750000D03*
%TO.P,U3,11*%
%TO.N,ACC_INT2*%
X226012500Y-100750000D03*
%TO.P,U3,12*%
%TO.N,ACC_INT1*%
X226012500Y-100250000D03*
%TD*%
D27*
%TO.P,Y1,2*%
%TO.N,HSE_OCC_OUT*%
X204250000Y-86000000D03*
%TO.P,Y1,1*%
%TO.N,HSE_OCC_IN*%
X204250000Y-79500000D03*
%TD*%
D28*
%TO.N,GND*%
X203000000Y-77000000D03*
X203000000Y-88500000D03*
X206650000Y-89950000D03*
X216800000Y-96750000D03*
X223850000Y-100300000D03*
X223850000Y-101300000D03*
X228300000Y-102500000D03*
X224000000Y-102500000D03*
X224000000Y-104000000D03*
X239900000Y-98850000D03*
X239900000Y-109850000D03*
X239900000Y-87750000D03*
X196900000Y-105550000D03*
X196900000Y-106600000D03*
X194800000Y-117750000D03*
X200650000Y-116850000D03*
X208700000Y-116850000D03*
X203700000Y-103150000D03*
X229700000Y-90000000D03*
X229700000Y-88000000D03*
X221250000Y-87350000D03*
X213200000Y-84000000D03*
X213200000Y-82750000D03*
X206300000Y-123000000D03*
X212650000Y-105400000D03*
X204400000Y-106900000D03*
%TO.N,+3V3*%
X204780000Y-103150000D03*
X210550000Y-106700000D03*
X249200000Y-89550000D03*
X249250000Y-100600000D03*
X249300000Y-111650000D03*
X228300000Y-101500000D03*
X226450000Y-104000000D03*
X223500000Y-98000000D03*
X227000000Y-98000000D03*
X225500000Y-99050000D03*
X193300000Y-97000000D03*
X193300000Y-99000000D03*
X218450000Y-96000000D03*
X203300000Y-91500000D03*
X226450000Y-102500000D03*
X221250000Y-86300000D03*
X210800000Y-82750000D03*
X210800000Y-84000000D03*
%TO.N,NRST*%
X217000000Y-89200000D03*
%TO.N,SPI1_SCK*%
X213000000Y-96700000D03*
X213200000Y-102300000D03*
X215700000Y-105700000D03*
%TO.N,SPI1_MOSI*%
X218100000Y-105000000D03*
X224500000Y-119800000D03*
%TO.N,LPUART1_RX*%
X216200000Y-91100000D03*
%TO.N,LPUART1_TX*%
X216600000Y-87400000D03*
X212300000Y-89500000D03*
X209450000Y-93400000D03*
%TO.N,LED_USB_RX*%
X208000000Y-106700000D03*
X208000000Y-102200000D03*
%TO.N,BOOT0*%
X214200000Y-84300000D03*
X199700000Y-77500000D03*
%TO.N,I2C1_SCL*%
X222000000Y-90750000D03*
X226000000Y-96000000D03*
%TO.N,USB_CBUS0*%
X204650000Y-108400000D03*
X208300000Y-92700000D03*
%TO.N,USB_CBUS3*%
X207900000Y-107700000D03*
X212400000Y-92200000D03*
%TO.N,ACC_INT1*%
X216200000Y-92400000D03*
X227400000Y-99400000D03*
%TO.N,ACC_INT2*%
X216700000Y-98600000D03*
X229550000Y-101500000D03*
%TO.N,USART2_TX*%
X215400000Y-87500000D03*
X215000000Y-104700000D03*
%TO.N,USART2_RX*%
X214200000Y-107200000D03*
X213750000Y-87300000D03*
%TO.N,Net-(U2-Pad2)*%
X213350000Y-104450000D03*
X213200000Y-106900000D03*
%TD*%
D29*
%TO.N,Net-(C1-Pad1)*%
X197275000Y-115587500D02*
X197000000Y-115312500D01*
X197275000Y-117750000D02*
X197275000Y-115587500D01*
X198650000Y-117750000D02*
X197275000Y-117750000D01*
X203700000Y-122800000D02*
X198650000Y-117750000D01*
X203700000Y-124375000D02*
X203700000Y-122800000D01*
D30*
%TO.N,GND*%
X212250000Y-84230000D02*
X212250000Y-85837500D01*
X212480000Y-84000000D02*
X212250000Y-84230000D01*
X212480000Y-82750000D02*
X212480000Y-84000000D01*
X216750000Y-95980000D02*
X216770000Y-96000000D01*
X216750000Y-94162500D02*
X216750000Y-95980000D01*
X208730000Y-90750000D02*
X208500000Y-90520000D01*
X210337500Y-90750000D02*
X208730000Y-90750000D01*
X207250000Y-90520000D02*
X208500000Y-90520000D01*
X204912500Y-106067500D02*
X204750000Y-106230000D01*
X206400000Y-106067500D02*
X204912500Y-106067500D01*
D31*
X225000000Y-101262500D02*
X224500000Y-101262500D01*
X224500000Y-100762500D02*
X224487500Y-100750000D01*
X224500000Y-101262500D02*
X224500000Y-100762500D01*
X224487500Y-100750000D02*
X224487500Y-100250000D01*
X225000000Y-99737500D02*
X225000000Y-99750000D01*
X225000000Y-102270000D02*
X224770000Y-102500000D01*
X225000000Y-101262500D02*
X225000000Y-102270000D01*
D30*
X224770000Y-102500000D02*
X224770000Y-104000000D01*
D31*
X224935002Y-100250000D02*
X224487500Y-100250000D01*
X225000001Y-100185001D02*
X224935002Y-100250000D01*
X225000000Y-99737500D02*
X225000001Y-100185001D01*
D29*
X194800000Y-117750000D02*
X195725000Y-117750000D01*
X200650000Y-116850000D02*
X201575000Y-116850000D01*
X208700000Y-116850000D02*
X207775000Y-116850000D01*
X239900000Y-109850000D02*
X239900000Y-110590000D01*
X239900000Y-87750000D02*
X239900000Y-88490000D01*
X229700000Y-88000000D02*
X228825000Y-88000000D01*
X229700000Y-90000000D02*
X228825000Y-90000000D01*
X213200000Y-82750000D02*
X212480000Y-82750000D01*
X213200000Y-84000000D02*
X212480000Y-84000000D01*
X203000000Y-88500000D02*
X203770000Y-88500000D01*
X206680000Y-89950000D02*
X207250000Y-90520000D01*
X206650000Y-89950000D02*
X206680000Y-89950000D01*
X203000000Y-77000000D02*
X203770000Y-77000000D01*
X198250000Y-105550000D02*
X198700000Y-106000000D01*
X196900000Y-105550000D02*
X198250000Y-105550000D01*
X198100000Y-106600000D02*
X198700000Y-106000000D01*
X196900000Y-106600000D02*
X198100000Y-106600000D01*
D30*
X206300000Y-123000000D02*
X206300000Y-124375000D01*
D29*
X216800000Y-96030000D02*
X216770000Y-96000000D01*
X216800000Y-96750000D02*
X216800000Y-96030000D01*
D31*
X224437500Y-100300000D02*
X224487500Y-100250000D01*
X223850000Y-100300000D02*
X224437500Y-100300000D01*
X224462500Y-101300000D02*
X224500000Y-101262500D01*
X223850000Y-101300000D02*
X224462500Y-101300000D01*
D29*
X224000000Y-102500000D02*
X224770000Y-102500000D01*
X224000000Y-104000000D02*
X224770000Y-104000000D01*
X228280000Y-102480000D02*
X228300000Y-102500000D01*
X227500000Y-102480000D02*
X228280000Y-102480000D01*
X239900000Y-98850000D02*
X239900000Y-99590000D01*
D30*
X212617500Y-105432500D02*
X212650000Y-105400000D01*
X211600000Y-105432500D02*
X212617500Y-105432500D01*
D29*
X204750000Y-106550000D02*
X204400000Y-106900000D01*
X204750000Y-106230000D02*
X204750000Y-106550000D01*
X203700000Y-103780000D02*
X203820000Y-103900000D01*
X203700000Y-103150000D02*
X203700000Y-103780000D01*
X221180000Y-87280000D02*
X221250000Y-87350000D01*
X220500000Y-87280000D02*
X221180000Y-87280000D01*
D30*
X220030000Y-87750000D02*
X220500000Y-87280000D01*
X218662500Y-87750000D02*
X220030000Y-87750000D01*
%TO.N,+5V*%
X204912500Y-105432500D02*
X206400000Y-105432500D01*
X204750000Y-105270000D02*
X204912500Y-105432500D01*
D29*
X203030000Y-105270000D02*
X202300000Y-106000000D01*
X204750000Y-105270000D02*
X203030000Y-105270000D01*
X197000000Y-111300000D02*
X202300000Y-106000000D01*
X197000000Y-113187500D02*
X197000000Y-111300000D01*
D30*
%TO.N,+3V3*%
X211750000Y-84230000D02*
X211520000Y-84000000D01*
X211750000Y-85837500D02*
X211750000Y-84230000D01*
X211520000Y-84000000D02*
X211520000Y-82750000D01*
X217730000Y-94642500D02*
X217250000Y-94162500D01*
X217730000Y-96000000D02*
X217730000Y-94642500D01*
D31*
X225500000Y-102270000D02*
X225730000Y-102500000D01*
X225500000Y-101262500D02*
X225500000Y-102270000D01*
D30*
X225730000Y-104000000D02*
X225730000Y-102500000D01*
X205042500Y-104162500D02*
X204780000Y-103900000D01*
X206400000Y-104162500D02*
X205042500Y-104162500D01*
X205677500Y-104797500D02*
X204780000Y-103900000D01*
X206400000Y-104797500D02*
X205677500Y-104797500D01*
X204780000Y-103900000D02*
X204780000Y-103900000D01*
D31*
X226257500Y-101520000D02*
X226000000Y-101262500D01*
X227500000Y-101520000D02*
X226257500Y-101520000D01*
D29*
X249300000Y-111650000D02*
X247725000Y-111650000D01*
X247745000Y-100600000D02*
X247740000Y-100605000D01*
X249250000Y-100600000D02*
X247745000Y-100600000D01*
X247745000Y-89550000D02*
X247740000Y-89555000D01*
X249200000Y-89550000D02*
X247745000Y-89550000D01*
X210800000Y-82750000D02*
X211520000Y-82750000D01*
X210800000Y-84000000D02*
X211520000Y-84000000D01*
X203300000Y-91500000D02*
X204212500Y-91500000D01*
X193300000Y-97000000D02*
X194212500Y-97000000D01*
X193300000Y-99000000D02*
X194212500Y-99000000D01*
X204780000Y-103150000D02*
X204780000Y-103900000D01*
D30*
X211597500Y-106700000D02*
X211600000Y-106702500D01*
X210550000Y-106700000D02*
X211597500Y-106700000D01*
D29*
X221230000Y-86320000D02*
X221250000Y-86300000D01*
X220500000Y-86320000D02*
X221230000Y-86320000D01*
X218450000Y-96000000D02*
X217730000Y-96000000D01*
X223500000Y-97260000D02*
X223490000Y-97250000D01*
X223500000Y-98000000D02*
X223500000Y-97260000D01*
X227010000Y-97990000D02*
X227000000Y-98000000D01*
X227010000Y-97250000D02*
X227010000Y-97990000D01*
X226450000Y-104000000D02*
X225730000Y-104000000D01*
X226450000Y-102500000D02*
X225730000Y-102500000D01*
X227520000Y-101500000D02*
X227500000Y-101520000D01*
X228300000Y-101500000D02*
X227520000Y-101500000D01*
D30*
X219592500Y-86320000D02*
X220500000Y-86320000D01*
X218662500Y-87250000D02*
X219592500Y-86320000D01*
D31*
X225500000Y-99737500D02*
X225500000Y-99050000D01*
D32*
%TO.N,USB_CONN_D+*%
X204900000Y-122962499D02*
X204900000Y-118175000D01*
X204900000Y-118175000D02*
X206225000Y-116850000D01*
X205000000Y-123062499D02*
X204900000Y-122962499D01*
X205000000Y-124375000D02*
X205000000Y-123062499D01*
X204900000Y-114925000D02*
X206000000Y-113825000D01*
X204900000Y-115525000D02*
X204900000Y-114925000D01*
X206225000Y-116850000D02*
X204900000Y-115525000D01*
%TO.N,USB_CONN_D-*%
X204450000Y-118175000D02*
X203125000Y-116850000D01*
X204450000Y-122962499D02*
X204450000Y-118175000D01*
X204350000Y-123062499D02*
X204450000Y-122962499D01*
X204350000Y-124375000D02*
X204350000Y-123062499D01*
X204450000Y-114925000D02*
X203350000Y-113825000D01*
X204450000Y-115525000D02*
X204450000Y-114925000D01*
X203125000Y-116850000D02*
X204450000Y-115525000D01*
D30*
%TO.N,+3.3VA*%
X208730000Y-91250000D02*
X208500000Y-91480000D01*
X210337500Y-91250000D02*
X208730000Y-91250000D01*
X208500000Y-91480000D02*
X207250000Y-91480000D01*
D29*
X205807500Y-91480000D02*
X205787500Y-91500000D01*
X207250000Y-91480000D02*
X205807500Y-91480000D01*
D30*
%TO.N,HSE_OCC_IN*%
X210337500Y-89250000D02*
X208500000Y-89250000D01*
X208500000Y-89250000D02*
X207250000Y-88000000D01*
X207250000Y-82500000D02*
X204250000Y-79500000D01*
X207250000Y-88000000D02*
X207250000Y-82500000D01*
D29*
X204730000Y-79020000D02*
X204250000Y-79500000D01*
X204730000Y-77000000D02*
X204730000Y-79020000D01*
D30*
%TO.N,HSE_OCC_OUT*%
X208000000Y-89750000D02*
X204250000Y-86000000D01*
X210337500Y-89750000D02*
X208000000Y-89750000D01*
D29*
X204730000Y-86480000D02*
X204250000Y-86000000D01*
X204730000Y-88500000D02*
X204730000Y-86480000D01*
D31*
%TO.N,SW_GP1*%
X218662500Y-92750000D02*
X225500000Y-92750000D01*
X225500000Y-92750000D02*
X234500000Y-101750000D01*
X234500000Y-101750000D02*
X234500000Y-106275000D01*
X234565000Y-106275000D02*
X239900000Y-111610000D01*
X234500000Y-106275000D02*
X234565000Y-106275000D01*
D30*
X243185000Y-111610000D02*
X243225000Y-111650000D01*
X239900000Y-111610000D02*
X243185000Y-111610000D01*
D29*
%TO.N,Net-(D2-Pad1)*%
X198175000Y-99000000D02*
X195787500Y-99000000D01*
%TO.N,Net-(D3-Pad1)*%
X198175000Y-97000000D02*
X195787500Y-97000000D01*
D30*
%TO.N,LED_STATUS*%
X222962500Y-88750000D02*
X223712500Y-88000000D01*
X218662500Y-88750000D02*
X222962500Y-88750000D01*
D29*
%TO.N,Net-(D4-Pad1)*%
X225287500Y-88000000D02*
X227175000Y-88000000D01*
%TO.N,Net-(D5-Pad1)*%
X225287500Y-90000000D02*
X227175000Y-90000000D01*
D30*
%TO.N,LED_GP*%
X222962500Y-89250000D02*
X223712500Y-90000000D01*
X218662500Y-89250000D02*
X222962500Y-89250000D01*
D31*
%TO.N,Net-(J2-Pad2)*%
X241290000Y-72980000D02*
X241300000Y-72990000D01*
X241290000Y-69520000D02*
X241290000Y-72980000D01*
%TO.N,SW_CLK*%
X217250000Y-85837500D02*
X218012500Y-85837500D01*
X218012500Y-85837500D02*
X223900000Y-79950000D01*
X229590000Y-79950000D02*
X240020000Y-69520000D01*
X223900000Y-79950000D02*
X229590000Y-79950000D01*
%TO.N,NRST*%
X215950000Y-90250000D02*
X217000000Y-89200000D01*
X210337500Y-90250000D02*
X215950000Y-90250000D01*
%TO.N,LCD_LED*%
X215225010Y-94174990D02*
X215225010Y-98225010D01*
X215237500Y-94162500D02*
X215225010Y-94174990D01*
X215250000Y-94162500D02*
X215237500Y-94162500D01*
X229530000Y-112530000D02*
X229530000Y-125500000D01*
X215225010Y-98225010D02*
X229530000Y-112530000D01*
%TO.N,SPI1_SCK*%
X212750000Y-96450000D02*
X212750000Y-94162500D01*
X213000000Y-96700000D02*
X212750000Y-96450000D01*
X215725001Y-105674999D02*
X215700000Y-105700000D01*
X213673002Y-102300000D02*
X215725001Y-104351999D01*
X215725001Y-104351999D02*
X215725001Y-105674999D01*
X213200000Y-102300000D02*
X213673002Y-102300000D01*
%TO.N,SPI1_MOSI*%
X213750000Y-100650000D02*
X218100000Y-105000000D01*
X213750000Y-94162500D02*
X213750000Y-100650000D01*
X224500000Y-125450000D02*
X224450000Y-125500000D01*
X224500000Y-119800000D02*
X224500000Y-125450000D01*
%TO.N,LCD_A0*%
X214750000Y-94162500D02*
X214750000Y-98950000D01*
X221910000Y-106110000D02*
X221910000Y-125500000D01*
X214750000Y-98950000D02*
X221910000Y-106110000D01*
%TO.N,LCD_RST*%
X219370000Y-125500000D02*
X219370000Y-104770000D01*
X214274990Y-94187490D02*
X214250000Y-94162500D01*
X214274990Y-99674990D02*
X214274990Y-94187490D01*
X219370000Y-104770000D02*
X214274990Y-99674990D01*
%TO.N,LCD_CS*%
X216830000Y-125500000D02*
X216830000Y-104730000D01*
X212274990Y-100174990D02*
X216830000Y-104730000D01*
X212274990Y-94474990D02*
X212274990Y-100174990D01*
X212250000Y-94450000D02*
X212274990Y-94474990D01*
X212250000Y-94162500D02*
X212250000Y-94450000D01*
%TO.N,LPUART1_RX*%
X214200010Y-93099990D02*
X216200000Y-91100000D01*
X212009308Y-93099990D02*
X214200010Y-93099990D01*
X211750000Y-93359298D02*
X212009308Y-93099990D01*
X211750000Y-94162500D02*
X211750000Y-93359298D01*
%TO.N,LPUART1_TX*%
X223300000Y-68580000D02*
X223380000Y-68500000D01*
X214500000Y-89500000D02*
X212300000Y-89500000D01*
X216600000Y-87400000D02*
X214500000Y-89500000D01*
X209687500Y-93400000D02*
X210337500Y-92750000D01*
X209450000Y-93400000D02*
X209687500Y-93400000D01*
%TO.N,GPIO8*%
X216750000Y-85034298D02*
X217384298Y-84400000D01*
X216750000Y-85837500D02*
X216750000Y-85034298D01*
X217384298Y-84400000D02*
X217384298Y-82815702D01*
X220840000Y-79360000D02*
X220840000Y-68500000D01*
X217384298Y-82815702D02*
X220840000Y-79360000D01*
%TO.N,GPIO7*%
X216250000Y-85837500D02*
X216250000Y-84550000D01*
X216250000Y-84550000D02*
X216600000Y-84200000D01*
X216600000Y-84200000D02*
X216600000Y-80300000D01*
X218300000Y-78600000D02*
X218300000Y-68500000D01*
X216600000Y-80300000D02*
X218300000Y-78600000D01*
%TO.N,GPIO6*%
X215750000Y-68510000D02*
X215760000Y-68500000D01*
X215750000Y-85837500D02*
X215750000Y-68510000D01*
%TO.N,GPIO5*%
X213220000Y-68500000D02*
X213220000Y-80820000D01*
X215250000Y-85034298D02*
X215250000Y-85837500D01*
X215000000Y-84784298D02*
X215250000Y-85034298D01*
X215000000Y-82600000D02*
X215000000Y-84784298D01*
X213220000Y-80820000D02*
X215000000Y-82600000D01*
%TO.N,GPIO4*%
X210337500Y-68842500D02*
X210680000Y-68500000D01*
X210100000Y-69080000D02*
X210680000Y-68500000D01*
X210074999Y-69105001D02*
X210680000Y-68500000D01*
X210074999Y-86987499D02*
X210074999Y-69105001D01*
X210337500Y-87250000D02*
X210074999Y-86987499D01*
%TO.N,GPIO3*%
X209534298Y-87750000D02*
X209250000Y-87465702D01*
X210337500Y-87750000D02*
X209534298Y-87750000D01*
X209250000Y-69610000D02*
X208140000Y-68500000D01*
X209250000Y-87465702D02*
X209250000Y-69610000D01*
%TO.N,GPIO2*%
X209397888Y-88250000D02*
X208500000Y-87352112D01*
X210337500Y-88250000D02*
X209397888Y-88250000D01*
X208500000Y-71400000D02*
X205600000Y-68500000D01*
X208500000Y-87352112D02*
X208500000Y-71400000D01*
%TO.N,GPIO1*%
X209261478Y-88750000D02*
X207750000Y-87238522D01*
X210337500Y-88750000D02*
X209261478Y-88750000D01*
X207750000Y-73190000D02*
X203060000Y-68500000D01*
X207750000Y-87238522D02*
X207750000Y-73190000D01*
D32*
%TO.N,USB_D+*%
X206000000Y-112175000D02*
X206000000Y-110161397D01*
X206000000Y-110161397D02*
X207238905Y-108922492D01*
X207238905Y-108922492D02*
X208349893Y-108922492D01*
X208349893Y-108922492D02*
X209225000Y-108047385D01*
X209225000Y-108047385D02*
X209225000Y-105197498D01*
X210759999Y-103662499D02*
X211600000Y-103662499D01*
X211600000Y-103662499D02*
X211600000Y-103527500D01*
X209225000Y-105197498D02*
X210759999Y-103662499D01*
%TO.N,USB_D-*%
X206400000Y-103662499D02*
X206400000Y-103527500D01*
X207240001Y-103662499D02*
X206400000Y-103662499D01*
X203350000Y-112175000D02*
X207052499Y-108472501D01*
X208775000Y-105197498D02*
X207240001Y-103662499D01*
X208775000Y-107861002D02*
X208775000Y-105197498D01*
X207052499Y-108472501D02*
X208163501Y-108472501D01*
X208163501Y-108472501D02*
X208775000Y-107861002D01*
D30*
%TO.N,LED_USB_RX*%
X199825000Y-99000000D02*
X200000000Y-99000000D01*
X207997500Y-106702500D02*
X208000000Y-106700000D01*
X206400000Y-106702500D02*
X207997500Y-106702500D01*
X208000000Y-102200000D02*
X208000000Y-101200000D01*
X205800000Y-99000000D02*
X199825000Y-99000000D01*
X208000000Y-101200000D02*
X205800000Y-99000000D01*
%TO.N,LED_USB_TX*%
X206502502Y-97000000D02*
X199825000Y-97000000D01*
X212550001Y-103047499D02*
X206502502Y-97000000D01*
X212550001Y-104112499D02*
X212550001Y-103047499D01*
X212500000Y-104162500D02*
X212550001Y-104112499D01*
X211600000Y-104162500D02*
X212500000Y-104162500D01*
D31*
%TO.N,Net-(R5-Pad1)*%
X194000000Y-77500000D02*
X193750000Y-77250000D01*
X196740000Y-77500000D02*
X194000000Y-77500000D01*
%TO.N,BOOT0*%
X213750000Y-84750000D02*
X214200000Y-84300000D01*
X213750000Y-85837500D02*
X213750000Y-84750000D01*
X199700000Y-77500000D02*
X197760000Y-77500000D01*
%TO.N,I2C1_SDA*%
X224500000Y-97260000D02*
X224510000Y-97250000D01*
X224500000Y-99737500D02*
X224500000Y-97260000D01*
X220594308Y-93334308D02*
X217834308Y-93334308D01*
X224510000Y-97250000D02*
X220594308Y-93334308D01*
X217834308Y-93334308D02*
X217000000Y-92500000D01*
X217859298Y-89750000D02*
X218662500Y-89750000D01*
X217000000Y-90609298D02*
X217859298Y-89750000D01*
X217000000Y-92500000D02*
X217000000Y-90609298D01*
%TO.N,I2C1_SCL*%
X226000000Y-97260000D02*
X225990000Y-97250000D01*
X221500000Y-90250000D02*
X222000000Y-90750000D01*
X218662500Y-90250000D02*
X221500000Y-90250000D01*
X226000000Y-97240000D02*
X225990000Y-97250000D01*
X226000000Y-96000000D02*
X226000000Y-97240000D01*
X226000000Y-99737500D02*
X226000000Y-99700000D01*
X225990000Y-97250000D02*
X225990000Y-98290000D01*
X225990000Y-98290000D02*
X226350000Y-98650000D01*
X226350000Y-99387500D02*
X226000000Y-99737500D01*
X226350000Y-98650000D02*
X226350000Y-99387500D01*
%TO.N,SW_DIO*%
X222218506Y-88250000D02*
X224168506Y-86300000D01*
X218662500Y-88250000D02*
X222218506Y-88250000D01*
X229010000Y-86300000D02*
X241300000Y-74010000D01*
X224168506Y-86300000D02*
X229010000Y-86300000D01*
%TO.N,USB_CBUS0*%
X209250000Y-91750000D02*
X210337500Y-91750000D01*
X208300000Y-92700000D02*
X209250000Y-91750000D01*
X205712500Y-107337500D02*
X204650000Y-108400000D01*
X206400000Y-107337500D02*
X205712500Y-107337500D01*
%TO.N,USB_CBUS3*%
X207627500Y-107972500D02*
X207900000Y-107700000D01*
X206400000Y-107972500D02*
X207627500Y-107972500D01*
X212350000Y-92250000D02*
X210337500Y-92250000D01*
X212400000Y-92200000D02*
X212350000Y-92250000D01*
%TO.N,ACC_INT1*%
X226012500Y-100250000D02*
X226450000Y-100250000D01*
X215750000Y-92850000D02*
X215750000Y-94162500D01*
X216200000Y-92400000D02*
X215750000Y-92850000D01*
X226550000Y-100250000D02*
X227400000Y-99400000D01*
X226450000Y-100250000D02*
X226550000Y-100250000D01*
%TO.N,ACC_INT2*%
X216237500Y-94162500D02*
X216225010Y-94174990D01*
X216250000Y-94162500D02*
X216237500Y-94162500D01*
X216700000Y-98600000D02*
X216164990Y-98064990D01*
X228800000Y-100750000D02*
X229550000Y-101500000D01*
X226012500Y-100750000D02*
X228800000Y-100750000D01*
X216225010Y-94824990D02*
X216225010Y-95174990D01*
X216250000Y-94800000D02*
X216225010Y-94824990D01*
X216250000Y-94162500D02*
X216250000Y-94800000D01*
X216225010Y-95174990D02*
X215950000Y-95450000D01*
X215950000Y-97850000D02*
X216164990Y-98064990D01*
X215950000Y-95450000D02*
X215950000Y-97850000D01*
D30*
%TO.N,USART2_TX*%
X214750000Y-86850000D02*
X215400000Y-87500000D01*
X214750000Y-85837500D02*
X214750000Y-86850000D01*
D31*
X211709999Y-106177499D02*
X211600000Y-106067500D01*
X212956816Y-106177499D02*
X211709999Y-106177499D01*
X214434315Y-104700000D02*
X212956816Y-106177499D01*
X215000000Y-104700000D02*
X214434315Y-104700000D01*
D30*
%TO.N,USART2_RX*%
X213427500Y-107972500D02*
X214200000Y-107200000D01*
X211600000Y-107972500D02*
X213427500Y-107972500D01*
X214250000Y-86800000D02*
X213750000Y-87300000D01*
X214250000Y-85837500D02*
X214250000Y-86800000D01*
D31*
%TO.N,Net-(U2-Pad2)*%
X212762500Y-107337500D02*
X211600000Y-107337500D01*
X213200000Y-106900000D02*
X212762500Y-107337500D01*
X213162490Y-104637510D02*
X213350000Y-104450000D01*
X212509992Y-104637510D02*
X213162490Y-104637510D01*
X212460001Y-104687501D02*
X212509992Y-104637510D01*
X212162499Y-104687501D02*
X212460001Y-104687501D01*
X212052500Y-104797500D02*
X212162499Y-104687501D01*
X211600000Y-104797500D02*
X212052500Y-104797500D01*
%TO.N,SW_GP2*%
X218662500Y-92250000D02*
X228000000Y-92250000D01*
X228000000Y-92250000D02*
X236775000Y-101025000D01*
X239485000Y-101025000D02*
X239900000Y-100610000D01*
X236775000Y-101025000D02*
X239485000Y-101025000D01*
D30*
X243235000Y-100610000D02*
X243240000Y-100605000D01*
X239900000Y-100610000D02*
X243235000Y-100610000D01*
D31*
%TO.N,SW_GP3*%
X218662500Y-91750000D02*
X238275000Y-91750000D01*
X239900000Y-90125000D02*
X238275000Y-91750000D01*
X239900000Y-89510000D02*
X239900000Y-90125000D01*
D30*
X243195000Y-89510000D02*
X243240000Y-89555000D01*
X239900000Y-89510000D02*
X243195000Y-89510000D01*
%TD*%
M02*
