M48
; DRILL file {KiCad (5.1.9)-1} date 05/17/21 17:29:22
; FORMAT={-:-/ absolute / inch / decimal}
; #@! TF.CreationDate,2021-05-17T17:29:22-07:00
; #@! TF.GenerationSoftware,Kicad,Pcbnew,(5.1.9)-1
; #@! TF.FileFunction,Plated,1,4,PTH
FMAT,2
INCH
T1C0.0157
T2C0.0197
T3C0.0256
T4C0.0276
T5C0.0354
T6C0.0394
T7C0.1063
%
G90
G05
T1
X7.6102Y-3.8189
X7.6102Y-3.8976
X7.6693Y-4.6358
X7.752Y-4.1555
X7.752Y-4.1969
X7.8622Y-3.0512
X7.8996Y-4.6004
X7.9921Y-3.0315
X7.9921Y-3.4843
X8.0039Y-3.6024
X8.0197Y-4.061
X8.0472Y-4.2087
X8.0571Y-4.2677
X8.0622Y-4.061
X8.122Y-4.8425
X8.1358Y-3.5413
X8.185Y-4.2402
X8.189Y-4.0236
X8.189Y-4.2008
X8.2008Y-3.6496
X8.2165Y-4.6004
X8.2461Y-3.6772
X8.2894Y-4.2008
X8.2992Y-3.2579
X8.2992Y-3.3071
X8.3583Y-3.5236
X8.3622Y-3.6299
X8.372Y-4.1496
X8.3858Y-3.8071
X8.3937Y-3.2579
X8.3937Y-3.3071
X8.3937Y-4.0276
X8.3937Y-4.2087
X8.3996Y-4.1122
X8.4154Y-3.437
X8.4331Y-3.3189
X8.4331Y-4.2205
X8.4646Y-4.122
X8.4803Y-3.4449
X8.4921Y-4.1614
X8.5118Y-3.5866
X8.5118Y-3.6378
X8.5276Y-3.4409
X8.5315Y-3.8819
X8.5354Y-3.8091
X8.5433Y-3.5118
X8.5866Y-4.1339
X8.6004Y-3.7795
X8.7106Y-3.3976
X8.7106Y-3.439
X8.7402Y-3.5728
X8.7992Y-3.8583
X8.813Y-3.9488
X8.813Y-3.9882
X8.8189Y-4.0354
X8.8189Y-4.0945
X8.8386Y-4.7165
X8.878Y-3.8996
X8.8976Y-3.7795
X8.9154Y-4.0354
X8.9154Y-4.0945
X8.937Y-3.8583
X8.9528Y-3.9134
X8.9882Y-3.9961
X8.9882Y-4.0354
X9.0374Y-3.9961
X9.0433Y-3.4646
X9.0433Y-3.5433
X9.4449Y-3.4547
X9.4449Y-3.8917
X9.4449Y-4.3248
X9.811Y-3.5256
X9.813Y-3.9606
X9.815Y-4.3957
T2
X7.5482Y-2.7165
X7.5482Y-4.9114
X7.5716Y-2.6602
X7.5716Y-2.7729
X7.5716Y-4.855
X7.5716Y-4.9678
X7.628Y-2.6368
X7.628Y-2.7963
X7.628Y-4.8317
X7.628Y-4.9911
X7.6843Y-2.6602
X7.6843Y-2.7729
X7.6843Y-4.855
X7.6843Y-4.9678
X7.7077Y-2.7165
X7.7077Y-4.9114
X9.6644Y-2.7165
X9.6644Y-4.9114
X9.6877Y-2.6602
X9.6877Y-2.7729
X9.6877Y-4.855
X9.6877Y-4.9678
X9.7441Y-2.6368
X9.7441Y-2.7963
X9.7441Y-4.8317
X9.7441Y-4.9911
X9.8005Y-2.6602
X9.8005Y-2.7729
X9.8005Y-4.855
X9.8005Y-4.9678
X9.8238Y-2.7165
X9.8238Y-4.9114
T3
X9.2996Y-2.687
X9.2996Y-2.737
X9.3496Y-2.687
X9.3496Y-2.737
X9.3996Y-2.687
X9.3996Y-2.737
X9.4496Y-2.687
X9.4496Y-2.737
X9.4996Y-2.687
X9.4996Y-2.737
T4
X7.9754Y-4.9016
X8.1663Y-4.9016
T5
X7.628Y-2.9429
X7.628Y-3.0413
X7.628Y-3.1398
T6
X7.9945Y-2.6969
X8.0945Y-2.6969
X8.1945Y-2.6969
X8.2945Y-2.6969
X8.3366Y-4.9409
X8.3945Y-2.6969
X8.4366Y-4.9409
X8.4945Y-2.6969
X8.5366Y-4.9409
X8.5945Y-2.6969
X8.6366Y-4.9409
X8.6945Y-2.6969
X8.7366Y-4.9409
X8.7945Y-2.6969
X8.8366Y-4.9409
X8.8945Y-2.6969
X8.9366Y-4.9409
X8.9945Y-2.6969
X9.0366Y-4.9409
X9.0945Y-2.6969
T7
X7.628Y-2.7165
X7.628Y-4.9114
X9.7441Y-2.7165
X9.7441Y-4.9114
T4
G00X7.9281Y-5.0138
M15
G01X7.9281Y-4.998
M16
G05
G00X8.2136Y-5.0138
M15
G01X8.2136Y-4.998
M16
G05
T0
M30
