%TF.GenerationSoftware,KiCad,Pcbnew,(5.1.9)-1*%
%TF.CreationDate,2021-05-17T17:29:26-07:00*%
%TF.ProjectId,dev_test_board_v1,6465765f-7465-4737-945f-626f6172645f,rev?*%
%TF.SameCoordinates,Original*%
%TF.FileFunction,Copper,L2,Inr*%
%TF.FilePolarity,Positive*%
%FSLAX46Y46*%
G04 Gerber Fmt 4.6, Leading zero omitted, Abs format (unit mm)*
G04 Created by KiCad (PCBNEW (5.1.9)-1) date 2021-05-17 17:29:26*
%MOMM*%
%LPD*%
G01*
G04 APERTURE LIST*
%TA.AperFunction,ComponentPad*%
%ADD10C,1.300000*%
%TD*%
%TA.AperFunction,ComponentPad*%
%ADD11O,1.300000X1.700000*%
%TD*%
%TA.AperFunction,WasherPad*%
%ADD12C,1.524000*%
%TD*%
%TA.AperFunction,ComponentPad*%
%ADD13R,1.400000X1.400000*%
%TD*%
%TA.AperFunction,ComponentPad*%
%ADD14C,1.400000*%
%TD*%
%TA.AperFunction,ComponentPad*%
%ADD15C,5.400000*%
%TD*%
%TA.AperFunction,ComponentPad*%
%ADD16C,0.800000*%
%TD*%
%TA.AperFunction,ComponentPad*%
%ADD17R,1.000000X1.000000*%
%TD*%
%TA.AperFunction,ComponentPad*%
%ADD18O,1.000000X1.000000*%
%TD*%
%TA.AperFunction,ComponentPad*%
%ADD19R,1.700000X1.700000*%
%TD*%
%TA.AperFunction,ComponentPad*%
%ADD20O,1.700000X1.700000*%
%TD*%
%TA.AperFunction,ViaPad*%
%ADD21C,0.800000*%
%TD*%
%TA.AperFunction,Conductor*%
%ADD22C,0.254000*%
%TD*%
%TA.AperFunction,Conductor*%
%ADD23C,0.100000*%
%TD*%
G04 APERTURE END LIST*
D10*
%TO.N,N/C*%
%TO.C,J1*%
X202575000Y-124500000D03*
%TO.N,Net-(J1-Pad6)*%
X207425000Y-124500000D03*
D11*
%TO.N,N/C*%
X201375000Y-127150000D03*
X208625000Y-127150000D03*
%TD*%
D12*
%TO.N,*%
%TO.C,REF\u002A\u002A*%
X243250000Y-123150000D03*
%TD*%
%TO.N,*%
%TO.C,REF\u002A\u002A*%
X197300000Y-71850000D03*
%TD*%
%TO.N,*%
%TO.C,REF\u002A\u002A*%
X197300000Y-71850000D03*
%TD*%
%TO.N,*%
%TO.C,REF\u002A\u002A*%
X245000000Y-72750000D03*
%TD*%
D13*
%TO.N,+3V3*%
%TO.C,SW1*%
X193750000Y-79750000D03*
D14*
%TO.N,Net-(R5-Pad1)*%
X193750000Y-77250000D03*
%TO.N,GND*%
X193750000Y-74750000D03*
%TD*%
D15*
%TO.N,GND*%
%TO.C,H1*%
X247500000Y-69000000D03*
D16*
X249525000Y-69000000D03*
X248931891Y-70431891D03*
X247500000Y-71025000D03*
X246068109Y-70431891D03*
X245475000Y-69000000D03*
X246068109Y-67568109D03*
X247500000Y-66975000D03*
X248931891Y-67568109D03*
%TD*%
%TO.N,GND*%
%TO.C,H2*%
X195181891Y-67568109D03*
X193750000Y-66975000D03*
X192318109Y-67568109D03*
X191725000Y-69000000D03*
X192318109Y-70431891D03*
X193750000Y-71025000D03*
X195181891Y-70431891D03*
X195775000Y-69000000D03*
D15*
X193750000Y-69000000D03*
%TD*%
D16*
%TO.N,GND*%
%TO.C,H3*%
X195181891Y-123318109D03*
X193750000Y-122725000D03*
X192318109Y-123318109D03*
X191725000Y-124750000D03*
X192318109Y-126181891D03*
X193750000Y-126775000D03*
X195181891Y-126181891D03*
X195775000Y-124750000D03*
D15*
X193750000Y-124750000D03*
%TD*%
%TO.N,GND*%
%TO.C,H4*%
X247500000Y-124750000D03*
D16*
X249525000Y-124750000D03*
X248931891Y-126181891D03*
X247500000Y-126775000D03*
X246068109Y-126181891D03*
X245475000Y-124750000D03*
X246068109Y-123318109D03*
X247500000Y-122725000D03*
X248931891Y-123318109D03*
%TD*%
D17*
%TO.N,+3V3*%
%TO.C,J2*%
X241290000Y-68250000D03*
D18*
%TO.N,Net-(J2-Pad2)*%
X241290000Y-69520000D03*
%TO.N,GND*%
X240020000Y-68250000D03*
%TO.N,SW_CLK*%
X240020000Y-69520000D03*
%TO.N,GND*%
X238750000Y-68250000D03*
%TO.N,Net-(J2-Pad6)*%
X238750000Y-69520000D03*
%TO.N,Net-(J2-Pad7)*%
X237480000Y-68250000D03*
%TO.N,Net-(J2-Pad8)*%
X237480000Y-69520000D03*
%TO.N,GND*%
X236210000Y-68250000D03*
%TO.N,NRST*%
X236210000Y-69520000D03*
%TD*%
D19*
%TO.N,+3V3*%
%TO.C,J3*%
X211750000Y-125500000D03*
D20*
%TO.N,GND*%
X214290000Y-125500000D03*
%TO.N,LCD_CS*%
X216830000Y-125500000D03*
%TO.N,LCD_RST*%
X219370000Y-125500000D03*
%TO.N,LCD_A0*%
X221910000Y-125500000D03*
%TO.N,SPI1_MOSI*%
X224450000Y-125500000D03*
%TO.N,SPI1_SCK*%
X226990000Y-125500000D03*
%TO.N,LCD_LED*%
X229530000Y-125500000D03*
%TD*%
D19*
%TO.N,+3V3*%
%TO.C,J4*%
X231000000Y-68500000D03*
D20*
%TO.N,GND*%
X228460000Y-68500000D03*
%TO.N,LPUART1_RX*%
X225920000Y-68500000D03*
%TO.N,LPUART1_TX*%
X223380000Y-68500000D03*
%TO.N,GPIO8*%
X220840000Y-68500000D03*
%TO.N,GPIO7*%
X218300000Y-68500000D03*
%TO.N,GPIO6*%
X215760000Y-68500000D03*
%TO.N,GPIO5*%
X213220000Y-68500000D03*
%TO.N,GPIO4*%
X210680000Y-68500000D03*
%TO.N,GPIO3*%
X208140000Y-68500000D03*
%TO.N,GPIO2*%
X205600000Y-68500000D03*
%TO.N,GPIO1*%
X203060000Y-68500000D03*
%TD*%
D21*
%TO.N,GND*%
X203000000Y-77000000D03*
X203000000Y-88500000D03*
X206650000Y-89950000D03*
X216800000Y-96750000D03*
X223850000Y-100300000D03*
X223850000Y-101300000D03*
X228300000Y-102500000D03*
X224000000Y-102500000D03*
X224000000Y-104000000D03*
X239900000Y-98850000D03*
X239900000Y-109850000D03*
X239900000Y-87750000D03*
X196900000Y-105550000D03*
X196900000Y-106600000D03*
X194800000Y-117750000D03*
X200650000Y-116850000D03*
X208700000Y-116850000D03*
X203700000Y-103150000D03*
X229700000Y-90000000D03*
X229700000Y-88000000D03*
X221250000Y-87350000D03*
X213200000Y-84000000D03*
X213200000Y-82750000D03*
X206300000Y-123000000D03*
X212650000Y-105400000D03*
X204400000Y-106900000D03*
%TO.N,+3V3*%
X204780000Y-103150000D03*
X210550000Y-106700000D03*
X249200000Y-89550000D03*
X249250000Y-100600000D03*
X249300000Y-111650000D03*
X228300000Y-101500000D03*
X226450000Y-104000000D03*
X223500000Y-98000000D03*
X227000000Y-98000000D03*
X225500000Y-99050000D03*
X193300000Y-97000000D03*
X193300000Y-99000000D03*
X218450000Y-96000000D03*
X203300000Y-91500000D03*
X226450000Y-102500000D03*
X221250000Y-86300000D03*
X210800000Y-82750000D03*
X210800000Y-84000000D03*
%TO.N,NRST*%
X217000000Y-89200000D03*
%TO.N,SPI1_SCK*%
X213000000Y-96700000D03*
X213200000Y-102300000D03*
X215700000Y-105700000D03*
%TO.N,SPI1_MOSI*%
X218100000Y-105000000D03*
X224500000Y-119800000D03*
%TO.N,LPUART1_RX*%
X216200000Y-91100000D03*
%TO.N,LPUART1_TX*%
X216600000Y-87400000D03*
X212300000Y-89500000D03*
X209450000Y-93400000D03*
%TO.N,LED_USB_RX*%
X208000000Y-106700000D03*
X208000000Y-102200000D03*
%TO.N,BOOT0*%
X214200000Y-84300000D03*
X199700000Y-77500000D03*
%TO.N,I2C1_SCL*%
X222000000Y-90750000D03*
X226000000Y-96000000D03*
%TO.N,USB_CBUS0*%
X204650000Y-108400000D03*
X208300000Y-92700000D03*
%TO.N,USB_CBUS3*%
X207900000Y-107700000D03*
X212400000Y-92200000D03*
%TO.N,ACC_INT1*%
X216200000Y-92400000D03*
X227400000Y-99400000D03*
%TO.N,ACC_INT2*%
X216700000Y-98600000D03*
X229550000Y-101500000D03*
%TO.N,USART2_TX*%
X215400000Y-87500000D03*
X215000000Y-104700000D03*
%TO.N,USART2_RX*%
X214200000Y-107200000D03*
X213750000Y-87300000D03*
%TO.N,Net-(U2-Pad2)*%
X213350000Y-104450000D03*
X213200000Y-106900000D03*
%TD*%
D22*
%TO.N,GND*%
X246850707Y-65712366D02*
X246221797Y-65902208D01*
X245642008Y-66211096D01*
X245634411Y-66216172D01*
X245334231Y-66654626D01*
X247500000Y-68820395D01*
X247514143Y-68806253D01*
X247693748Y-68985858D01*
X247679605Y-69000000D01*
X249845374Y-71165769D01*
X250283828Y-70865589D01*
X250594296Y-70286644D01*
X250785852Y-69658254D01*
X250840000Y-69116057D01*
X250840001Y-124639932D01*
X250787634Y-124100707D01*
X250597792Y-123471797D01*
X250288904Y-122892008D01*
X250283828Y-122884411D01*
X249845374Y-122584231D01*
X247679605Y-124750000D01*
X247693748Y-124764143D01*
X247514143Y-124943748D01*
X247500000Y-124929605D01*
X245334231Y-127095374D01*
X245634411Y-127533828D01*
X246213356Y-127844296D01*
X246841746Y-128035852D01*
X247383943Y-128090000D01*
X209680029Y-128090000D01*
X209698608Y-128067362D01*
X209817929Y-127844127D01*
X209891407Y-127601904D01*
X209910000Y-127413123D01*
X209910000Y-126886878D01*
X209891407Y-126698097D01*
X209817929Y-126455874D01*
X209698608Y-126232638D01*
X209538028Y-126036972D01*
X209342362Y-125876392D01*
X209119127Y-125757071D01*
X208876904Y-125683593D01*
X208625000Y-125658783D01*
X208373097Y-125683593D01*
X208130874Y-125757071D01*
X207907639Y-125876392D01*
X207711973Y-126036972D01*
X207551392Y-126232638D01*
X207432071Y-126455873D01*
X207358593Y-126698096D01*
X207340000Y-126886877D01*
X207340000Y-127413122D01*
X207358593Y-127601903D01*
X207432071Y-127844126D01*
X207551392Y-128067361D01*
X207569971Y-128090000D01*
X202430029Y-128090000D01*
X202448608Y-128067362D01*
X202567929Y-127844127D01*
X202641407Y-127601904D01*
X202660000Y-127413123D01*
X202660000Y-126886878D01*
X202641407Y-126698097D01*
X202567929Y-126455874D01*
X202448608Y-126232638D01*
X202288028Y-126036972D01*
X202092362Y-125876392D01*
X201869127Y-125757071D01*
X201626904Y-125683593D01*
X201375000Y-125658783D01*
X201123097Y-125683593D01*
X200880874Y-125757071D01*
X200657639Y-125876392D01*
X200461973Y-126036972D01*
X200301392Y-126232638D01*
X200182071Y-126455873D01*
X200108593Y-126698096D01*
X200090000Y-126886877D01*
X200090000Y-127413122D01*
X200108593Y-127601903D01*
X200182071Y-127844126D01*
X200301392Y-128067361D01*
X200319971Y-128090000D01*
X193860078Y-128090000D01*
X194399293Y-128037634D01*
X195028203Y-127847792D01*
X195607992Y-127538904D01*
X195615589Y-127533828D01*
X195915769Y-127095374D01*
X193750000Y-124929605D01*
X193735858Y-124943748D01*
X193556253Y-124764143D01*
X193570395Y-124750000D01*
X193929605Y-124750000D01*
X196095374Y-126915769D01*
X196533828Y-126615589D01*
X196844296Y-126036644D01*
X197035852Y-125408254D01*
X197101134Y-124754569D01*
X197064121Y-124373439D01*
X201290000Y-124373439D01*
X201290000Y-124626561D01*
X201339381Y-124874821D01*
X201436247Y-125108676D01*
X201576875Y-125319140D01*
X201755860Y-125498125D01*
X201966324Y-125638753D01*
X202200179Y-125735619D01*
X202448439Y-125785000D01*
X202701561Y-125785000D01*
X202949821Y-125735619D01*
X203183676Y-125638753D01*
X203394140Y-125498125D01*
X203573125Y-125319140D01*
X203713753Y-125108676D01*
X203810619Y-124874821D01*
X203860000Y-124626561D01*
X203860000Y-124373439D01*
X206140000Y-124373439D01*
X206140000Y-124626561D01*
X206189381Y-124874821D01*
X206286247Y-125108676D01*
X206426875Y-125319140D01*
X206605860Y-125498125D01*
X206816324Y-125638753D01*
X207050179Y-125735619D01*
X207298439Y-125785000D01*
X207551561Y-125785000D01*
X207799821Y-125735619D01*
X208033676Y-125638753D01*
X208244140Y-125498125D01*
X208423125Y-125319140D01*
X208563753Y-125108676D01*
X208660619Y-124874821D01*
X208705337Y-124650000D01*
X210261928Y-124650000D01*
X210261928Y-126350000D01*
X210274188Y-126474482D01*
X210310498Y-126594180D01*
X210369463Y-126704494D01*
X210448815Y-126801185D01*
X210545506Y-126880537D01*
X210655820Y-126939502D01*
X210775518Y-126975812D01*
X210900000Y-126988072D01*
X212600000Y-126988072D01*
X212724482Y-126975812D01*
X212844180Y-126939502D01*
X212954494Y-126880537D01*
X213051185Y-126801185D01*
X213130537Y-126704494D01*
X213189502Y-126594180D01*
X213213966Y-126513534D01*
X213289731Y-126597588D01*
X213523080Y-126771641D01*
X213785901Y-126896825D01*
X213933110Y-126941476D01*
X214163000Y-126820155D01*
X214163000Y-125627000D01*
X214143000Y-125627000D01*
X214143000Y-125373000D01*
X214163000Y-125373000D01*
X214163000Y-124179845D01*
X214417000Y-124179845D01*
X214417000Y-125373000D01*
X214437000Y-125373000D01*
X214437000Y-125627000D01*
X214417000Y-125627000D01*
X214417000Y-126820155D01*
X214646890Y-126941476D01*
X214794099Y-126896825D01*
X215056920Y-126771641D01*
X215290269Y-126597588D01*
X215485178Y-126381355D01*
X215554805Y-126264466D01*
X215676525Y-126446632D01*
X215883368Y-126653475D01*
X216126589Y-126815990D01*
X216396842Y-126927932D01*
X216683740Y-126985000D01*
X216976260Y-126985000D01*
X217263158Y-126927932D01*
X217533411Y-126815990D01*
X217776632Y-126653475D01*
X217983475Y-126446632D01*
X218100000Y-126272240D01*
X218216525Y-126446632D01*
X218423368Y-126653475D01*
X218666589Y-126815990D01*
X218936842Y-126927932D01*
X219223740Y-126985000D01*
X219516260Y-126985000D01*
X219803158Y-126927932D01*
X220073411Y-126815990D01*
X220316632Y-126653475D01*
X220523475Y-126446632D01*
X220640000Y-126272240D01*
X220756525Y-126446632D01*
X220963368Y-126653475D01*
X221206589Y-126815990D01*
X221476842Y-126927932D01*
X221763740Y-126985000D01*
X222056260Y-126985000D01*
X222343158Y-126927932D01*
X222613411Y-126815990D01*
X222856632Y-126653475D01*
X223063475Y-126446632D01*
X223180000Y-126272240D01*
X223296525Y-126446632D01*
X223503368Y-126653475D01*
X223746589Y-126815990D01*
X224016842Y-126927932D01*
X224303740Y-126985000D01*
X224596260Y-126985000D01*
X224883158Y-126927932D01*
X225153411Y-126815990D01*
X225396632Y-126653475D01*
X225603475Y-126446632D01*
X225720000Y-126272240D01*
X225836525Y-126446632D01*
X226043368Y-126653475D01*
X226286589Y-126815990D01*
X226556842Y-126927932D01*
X226843740Y-126985000D01*
X227136260Y-126985000D01*
X227423158Y-126927932D01*
X227693411Y-126815990D01*
X227936632Y-126653475D01*
X228143475Y-126446632D01*
X228260000Y-126272240D01*
X228376525Y-126446632D01*
X228583368Y-126653475D01*
X228826589Y-126815990D01*
X229096842Y-126927932D01*
X229383740Y-126985000D01*
X229676260Y-126985000D01*
X229963158Y-126927932D01*
X230233411Y-126815990D01*
X230476632Y-126653475D01*
X230683475Y-126446632D01*
X230845990Y-126203411D01*
X230957932Y-125933158D01*
X231015000Y-125646260D01*
X231015000Y-125353740D01*
X230957932Y-125066842D01*
X230845990Y-124796589D01*
X230683475Y-124553368D01*
X230476632Y-124346525D01*
X230233411Y-124184010D01*
X229963158Y-124072068D01*
X229676260Y-124015000D01*
X229383740Y-124015000D01*
X229096842Y-124072068D01*
X228826589Y-124184010D01*
X228583368Y-124346525D01*
X228376525Y-124553368D01*
X228260000Y-124727760D01*
X228143475Y-124553368D01*
X227936632Y-124346525D01*
X227693411Y-124184010D01*
X227423158Y-124072068D01*
X227136260Y-124015000D01*
X226843740Y-124015000D01*
X226556842Y-124072068D01*
X226286589Y-124184010D01*
X226043368Y-124346525D01*
X225836525Y-124553368D01*
X225720000Y-124727760D01*
X225603475Y-124553368D01*
X225396632Y-124346525D01*
X225153411Y-124184010D01*
X224883158Y-124072068D01*
X224596260Y-124015000D01*
X224303740Y-124015000D01*
X224016842Y-124072068D01*
X223746589Y-124184010D01*
X223503368Y-124346525D01*
X223296525Y-124553368D01*
X223180000Y-124727760D01*
X223063475Y-124553368D01*
X222856632Y-124346525D01*
X222613411Y-124184010D01*
X222343158Y-124072068D01*
X222056260Y-124015000D01*
X221763740Y-124015000D01*
X221476842Y-124072068D01*
X221206589Y-124184010D01*
X220963368Y-124346525D01*
X220756525Y-124553368D01*
X220640000Y-124727760D01*
X220523475Y-124553368D01*
X220316632Y-124346525D01*
X220073411Y-124184010D01*
X219803158Y-124072068D01*
X219516260Y-124015000D01*
X219223740Y-124015000D01*
X218936842Y-124072068D01*
X218666589Y-124184010D01*
X218423368Y-124346525D01*
X218216525Y-124553368D01*
X218100000Y-124727760D01*
X217983475Y-124553368D01*
X217776632Y-124346525D01*
X217533411Y-124184010D01*
X217263158Y-124072068D01*
X216976260Y-124015000D01*
X216683740Y-124015000D01*
X216396842Y-124072068D01*
X216126589Y-124184010D01*
X215883368Y-124346525D01*
X215676525Y-124553368D01*
X215554805Y-124735534D01*
X215485178Y-124618645D01*
X215290269Y-124402412D01*
X215056920Y-124228359D01*
X214794099Y-124103175D01*
X214646890Y-124058524D01*
X214417000Y-124179845D01*
X214163000Y-124179845D01*
X213933110Y-124058524D01*
X213785901Y-124103175D01*
X213523080Y-124228359D01*
X213289731Y-124402412D01*
X213213966Y-124486466D01*
X213189502Y-124405820D01*
X213130537Y-124295506D01*
X213051185Y-124198815D01*
X212954494Y-124119463D01*
X212844180Y-124060498D01*
X212724482Y-124024188D01*
X212600000Y-124011928D01*
X210900000Y-124011928D01*
X210775518Y-124024188D01*
X210655820Y-124060498D01*
X210545506Y-124119463D01*
X210448815Y-124198815D01*
X210369463Y-124295506D01*
X210310498Y-124405820D01*
X210274188Y-124525518D01*
X210261928Y-124650000D01*
X208705337Y-124650000D01*
X208710000Y-124626561D01*
X208710000Y-124373439D01*
X208660619Y-124125179D01*
X208563753Y-123891324D01*
X208423125Y-123680860D01*
X208244140Y-123501875D01*
X208033676Y-123361247D01*
X207799821Y-123264381D01*
X207551561Y-123215000D01*
X207298439Y-123215000D01*
X207050179Y-123264381D01*
X206816324Y-123361247D01*
X206605860Y-123501875D01*
X206426875Y-123680860D01*
X206286247Y-123891324D01*
X206189381Y-124125179D01*
X206140000Y-124373439D01*
X203860000Y-124373439D01*
X203810619Y-124125179D01*
X203713753Y-123891324D01*
X203573125Y-123680860D01*
X203394140Y-123501875D01*
X203183676Y-123361247D01*
X202949821Y-123264381D01*
X202701561Y-123215000D01*
X202448439Y-123215000D01*
X202200179Y-123264381D01*
X201966324Y-123361247D01*
X201755860Y-123501875D01*
X201576875Y-123680860D01*
X201436247Y-123891324D01*
X201339381Y-124125179D01*
X201290000Y-124373439D01*
X197064121Y-124373439D01*
X197037634Y-124100707D01*
X196847792Y-123471797D01*
X196603049Y-123012408D01*
X241853000Y-123012408D01*
X241853000Y-123287592D01*
X241906686Y-123557490D01*
X242011995Y-123811727D01*
X242164880Y-124040535D01*
X242359465Y-124235120D01*
X242588273Y-124388005D01*
X242842510Y-124493314D01*
X243112408Y-124547000D01*
X243387592Y-124547000D01*
X243657490Y-124493314D01*
X243911727Y-124388005D01*
X244140535Y-124235120D01*
X244206408Y-124169247D01*
X244148866Y-124745431D01*
X244212366Y-125399293D01*
X244402208Y-126028203D01*
X244711096Y-126607992D01*
X244716172Y-126615589D01*
X245154626Y-126915769D01*
X247320395Y-124750000D01*
X245154626Y-122584231D01*
X244716172Y-122884411D01*
X244647000Y-123013399D01*
X244647000Y-123012408D01*
X244593314Y-122742510D01*
X244488005Y-122488273D01*
X244432114Y-122404626D01*
X245334231Y-122404626D01*
X247500000Y-124570395D01*
X249665769Y-122404626D01*
X249365589Y-121966172D01*
X248786644Y-121655704D01*
X248158254Y-121464148D01*
X247504569Y-121398866D01*
X246850707Y-121462366D01*
X246221797Y-121652208D01*
X245642008Y-121961096D01*
X245634411Y-121966172D01*
X245334231Y-122404626D01*
X244432114Y-122404626D01*
X244335120Y-122259465D01*
X244140535Y-122064880D01*
X243911727Y-121911995D01*
X243657490Y-121806686D01*
X243387592Y-121753000D01*
X243112408Y-121753000D01*
X242842510Y-121806686D01*
X242588273Y-121911995D01*
X242359465Y-122064880D01*
X242164880Y-122259465D01*
X242011995Y-122488273D01*
X241906686Y-122742510D01*
X241853000Y-123012408D01*
X196603049Y-123012408D01*
X196538904Y-122892008D01*
X196533828Y-122884411D01*
X196095374Y-122584231D01*
X193929605Y-124750000D01*
X193570395Y-124750000D01*
X191404626Y-122584231D01*
X190966172Y-122884411D01*
X190655704Y-123463356D01*
X190464148Y-124091746D01*
X190410000Y-124633943D01*
X190410000Y-122404626D01*
X191584231Y-122404626D01*
X193750000Y-124570395D01*
X195915769Y-122404626D01*
X195615589Y-121966172D01*
X195036644Y-121655704D01*
X194408254Y-121464148D01*
X193754569Y-121398866D01*
X193100707Y-121462366D01*
X192471797Y-121652208D01*
X191892008Y-121961096D01*
X191884411Y-121966172D01*
X191584231Y-122404626D01*
X190410000Y-122404626D01*
X190410000Y-119698061D01*
X223465000Y-119698061D01*
X223465000Y-119901939D01*
X223504774Y-120101898D01*
X223582795Y-120290256D01*
X223696063Y-120459774D01*
X223840226Y-120603937D01*
X224009744Y-120717205D01*
X224198102Y-120795226D01*
X224398061Y-120835000D01*
X224601939Y-120835000D01*
X224801898Y-120795226D01*
X224990256Y-120717205D01*
X225159774Y-120603937D01*
X225303937Y-120459774D01*
X225417205Y-120290256D01*
X225495226Y-120101898D01*
X225535000Y-119901939D01*
X225535000Y-119698061D01*
X225495226Y-119498102D01*
X225417205Y-119309744D01*
X225303937Y-119140226D01*
X225159774Y-118996063D01*
X224990256Y-118882795D01*
X224801898Y-118804774D01*
X224601939Y-118765000D01*
X224398061Y-118765000D01*
X224198102Y-118804774D01*
X224009744Y-118882795D01*
X223840226Y-118996063D01*
X223696063Y-119140226D01*
X223582795Y-119309744D01*
X223504774Y-119498102D01*
X223465000Y-119698061D01*
X190410000Y-119698061D01*
X190410000Y-111548061D01*
X248265000Y-111548061D01*
X248265000Y-111751939D01*
X248304774Y-111951898D01*
X248382795Y-112140256D01*
X248496063Y-112309774D01*
X248640226Y-112453937D01*
X248809744Y-112567205D01*
X248998102Y-112645226D01*
X249198061Y-112685000D01*
X249401939Y-112685000D01*
X249601898Y-112645226D01*
X249790256Y-112567205D01*
X249959774Y-112453937D01*
X250103937Y-112309774D01*
X250217205Y-112140256D01*
X250295226Y-111951898D01*
X250335000Y-111751939D01*
X250335000Y-111548061D01*
X250295226Y-111348102D01*
X250217205Y-111159744D01*
X250103937Y-110990226D01*
X249959774Y-110846063D01*
X249790256Y-110732795D01*
X249601898Y-110654774D01*
X249401939Y-110615000D01*
X249198061Y-110615000D01*
X248998102Y-110654774D01*
X248809744Y-110732795D01*
X248640226Y-110846063D01*
X248496063Y-110990226D01*
X248382795Y-111159744D01*
X248304774Y-111348102D01*
X248265000Y-111548061D01*
X190410000Y-111548061D01*
X190410000Y-108298061D01*
X203615000Y-108298061D01*
X203615000Y-108501939D01*
X203654774Y-108701898D01*
X203732795Y-108890256D01*
X203846063Y-109059774D01*
X203990226Y-109203937D01*
X204159744Y-109317205D01*
X204348102Y-109395226D01*
X204548061Y-109435000D01*
X204751939Y-109435000D01*
X204951898Y-109395226D01*
X205140256Y-109317205D01*
X205309774Y-109203937D01*
X205453937Y-109059774D01*
X205567205Y-108890256D01*
X205645226Y-108701898D01*
X205685000Y-108501939D01*
X205685000Y-108298061D01*
X205645226Y-108098102D01*
X205567205Y-107909744D01*
X205453937Y-107740226D01*
X205311772Y-107598061D01*
X206865000Y-107598061D01*
X206865000Y-107801939D01*
X206904774Y-108001898D01*
X206982795Y-108190256D01*
X207096063Y-108359774D01*
X207240226Y-108503937D01*
X207409744Y-108617205D01*
X207598102Y-108695226D01*
X207798061Y-108735000D01*
X208001939Y-108735000D01*
X208201898Y-108695226D01*
X208390256Y-108617205D01*
X208559774Y-108503937D01*
X208703937Y-108359774D01*
X208817205Y-108190256D01*
X208895226Y-108001898D01*
X208935000Y-107801939D01*
X208935000Y-107598061D01*
X208895226Y-107398102D01*
X208850490Y-107290102D01*
X208917205Y-107190256D01*
X208995226Y-107001898D01*
X209035000Y-106801939D01*
X209035000Y-106598061D01*
X209515000Y-106598061D01*
X209515000Y-106801939D01*
X209554774Y-107001898D01*
X209632795Y-107190256D01*
X209746063Y-107359774D01*
X209890226Y-107503937D01*
X210059744Y-107617205D01*
X210248102Y-107695226D01*
X210448061Y-107735000D01*
X210651939Y-107735000D01*
X210851898Y-107695226D01*
X211040256Y-107617205D01*
X211209774Y-107503937D01*
X211353937Y-107359774D01*
X211467205Y-107190256D01*
X211545226Y-107001898D01*
X211585000Y-106801939D01*
X211585000Y-106798061D01*
X212165000Y-106798061D01*
X212165000Y-107001939D01*
X212204774Y-107201898D01*
X212282795Y-107390256D01*
X212396063Y-107559774D01*
X212540226Y-107703937D01*
X212709744Y-107817205D01*
X212898102Y-107895226D01*
X213098061Y-107935000D01*
X213301939Y-107935000D01*
X213443192Y-107906903D01*
X213540226Y-108003937D01*
X213709744Y-108117205D01*
X213898102Y-108195226D01*
X214098061Y-108235000D01*
X214301939Y-108235000D01*
X214501898Y-108195226D01*
X214690256Y-108117205D01*
X214859774Y-108003937D01*
X215003937Y-107859774D01*
X215117205Y-107690256D01*
X215195226Y-107501898D01*
X215235000Y-107301939D01*
X215235000Y-107098061D01*
X215195226Y-106898102D01*
X215117205Y-106709744D01*
X215003937Y-106540226D01*
X214859774Y-106396063D01*
X214690256Y-106282795D01*
X214501898Y-106204774D01*
X214301939Y-106165000D01*
X214098061Y-106165000D01*
X213956808Y-106193097D01*
X213859774Y-106096063D01*
X213690256Y-105982795D01*
X213501898Y-105904774D01*
X213301939Y-105865000D01*
X213098061Y-105865000D01*
X212898102Y-105904774D01*
X212709744Y-105982795D01*
X212540226Y-106096063D01*
X212396063Y-106240226D01*
X212282795Y-106409744D01*
X212204774Y-106598102D01*
X212165000Y-106798061D01*
X211585000Y-106798061D01*
X211585000Y-106598061D01*
X211545226Y-106398102D01*
X211467205Y-106209744D01*
X211353937Y-106040226D01*
X211209774Y-105896063D01*
X211040256Y-105782795D01*
X210851898Y-105704774D01*
X210651939Y-105665000D01*
X210448061Y-105665000D01*
X210248102Y-105704774D01*
X210059744Y-105782795D01*
X209890226Y-105896063D01*
X209746063Y-106040226D01*
X209632795Y-106209744D01*
X209554774Y-106398102D01*
X209515000Y-106598061D01*
X209035000Y-106598061D01*
X208995226Y-106398102D01*
X208917205Y-106209744D01*
X208803937Y-106040226D01*
X208659774Y-105896063D01*
X208490256Y-105782795D01*
X208301898Y-105704774D01*
X208101939Y-105665000D01*
X207898061Y-105665000D01*
X207698102Y-105704774D01*
X207509744Y-105782795D01*
X207340226Y-105896063D01*
X207196063Y-106040226D01*
X207082795Y-106209744D01*
X207004774Y-106398102D01*
X206965000Y-106598061D01*
X206965000Y-106801939D01*
X207004774Y-107001898D01*
X207049510Y-107109898D01*
X206982795Y-107209744D01*
X206904774Y-107398102D01*
X206865000Y-107598061D01*
X205311772Y-107598061D01*
X205309774Y-107596063D01*
X205140256Y-107482795D01*
X204951898Y-107404774D01*
X204751939Y-107365000D01*
X204548061Y-107365000D01*
X204348102Y-107404774D01*
X204159744Y-107482795D01*
X203990226Y-107596063D01*
X203846063Y-107740226D01*
X203732795Y-107909744D01*
X203654774Y-108098102D01*
X203615000Y-108298061D01*
X190410000Y-108298061D01*
X190410000Y-104348061D01*
X212315000Y-104348061D01*
X212315000Y-104551939D01*
X212354774Y-104751898D01*
X212432795Y-104940256D01*
X212546063Y-105109774D01*
X212690226Y-105253937D01*
X212859744Y-105367205D01*
X213048102Y-105445226D01*
X213248061Y-105485000D01*
X213451939Y-105485000D01*
X213651898Y-105445226D01*
X213840256Y-105367205D01*
X214009774Y-105253937D01*
X214080059Y-105183652D01*
X214082795Y-105190256D01*
X214196063Y-105359774D01*
X214340226Y-105503937D01*
X214509744Y-105617205D01*
X214665000Y-105681515D01*
X214665000Y-105801939D01*
X214704774Y-106001898D01*
X214782795Y-106190256D01*
X214896063Y-106359774D01*
X215040226Y-106503937D01*
X215209744Y-106617205D01*
X215398102Y-106695226D01*
X215598061Y-106735000D01*
X215801939Y-106735000D01*
X216001898Y-106695226D01*
X216190256Y-106617205D01*
X216359774Y-106503937D01*
X216503937Y-106359774D01*
X216617205Y-106190256D01*
X216695226Y-106001898D01*
X216735000Y-105801939D01*
X216735000Y-105598061D01*
X216695226Y-105398102D01*
X216617205Y-105209744D01*
X216503937Y-105040226D01*
X216361772Y-104898061D01*
X217065000Y-104898061D01*
X217065000Y-105101939D01*
X217104774Y-105301898D01*
X217182795Y-105490256D01*
X217296063Y-105659774D01*
X217440226Y-105803937D01*
X217609744Y-105917205D01*
X217798102Y-105995226D01*
X217998061Y-106035000D01*
X218201939Y-106035000D01*
X218401898Y-105995226D01*
X218590256Y-105917205D01*
X218759774Y-105803937D01*
X218903937Y-105659774D01*
X219017205Y-105490256D01*
X219095226Y-105301898D01*
X219135000Y-105101939D01*
X219135000Y-104898061D01*
X219095226Y-104698102D01*
X219017205Y-104509744D01*
X218903937Y-104340226D01*
X218759774Y-104196063D01*
X218590256Y-104082795D01*
X218401898Y-104004774D01*
X218201939Y-103965000D01*
X217998061Y-103965000D01*
X217798102Y-104004774D01*
X217609744Y-104082795D01*
X217440226Y-104196063D01*
X217296063Y-104340226D01*
X217182795Y-104509744D01*
X217104774Y-104698102D01*
X217065000Y-104898061D01*
X216361772Y-104898061D01*
X216359774Y-104896063D01*
X216190256Y-104782795D01*
X216035000Y-104718485D01*
X216035000Y-104598061D01*
X215995226Y-104398102D01*
X215917205Y-104209744D01*
X215803937Y-104040226D01*
X215659774Y-103896063D01*
X215490256Y-103782795D01*
X215301898Y-103704774D01*
X215101939Y-103665000D01*
X214898061Y-103665000D01*
X214698102Y-103704774D01*
X214509744Y-103782795D01*
X214340226Y-103896063D01*
X214269941Y-103966348D01*
X214267205Y-103959744D01*
X214153937Y-103790226D01*
X214009774Y-103646063D01*
X213840256Y-103532795D01*
X213651898Y-103454774D01*
X213451939Y-103415000D01*
X213248061Y-103415000D01*
X213048102Y-103454774D01*
X212859744Y-103532795D01*
X212690226Y-103646063D01*
X212546063Y-103790226D01*
X212432795Y-103959744D01*
X212354774Y-104148102D01*
X212315000Y-104348061D01*
X190410000Y-104348061D01*
X190410000Y-103048061D01*
X203745000Y-103048061D01*
X203745000Y-103251939D01*
X203784774Y-103451898D01*
X203862795Y-103640256D01*
X203976063Y-103809774D01*
X204120226Y-103953937D01*
X204289744Y-104067205D01*
X204478102Y-104145226D01*
X204678061Y-104185000D01*
X204881939Y-104185000D01*
X205081898Y-104145226D01*
X205270256Y-104067205D01*
X205439774Y-103953937D01*
X205583937Y-103809774D01*
X205697205Y-103640256D01*
X205775226Y-103451898D01*
X205815000Y-103251939D01*
X205815000Y-103048061D01*
X205775226Y-102848102D01*
X205697205Y-102659744D01*
X205583937Y-102490226D01*
X205439774Y-102346063D01*
X205270256Y-102232795D01*
X205081898Y-102154774D01*
X204881939Y-102115000D01*
X204678061Y-102115000D01*
X204478102Y-102154774D01*
X204289744Y-102232795D01*
X204120226Y-102346063D01*
X203976063Y-102490226D01*
X203862795Y-102659744D01*
X203784774Y-102848102D01*
X203745000Y-103048061D01*
X190410000Y-103048061D01*
X190410000Y-102098061D01*
X206965000Y-102098061D01*
X206965000Y-102301939D01*
X207004774Y-102501898D01*
X207082795Y-102690256D01*
X207196063Y-102859774D01*
X207340226Y-103003937D01*
X207509744Y-103117205D01*
X207698102Y-103195226D01*
X207898061Y-103235000D01*
X208101939Y-103235000D01*
X208301898Y-103195226D01*
X208490256Y-103117205D01*
X208659774Y-103003937D01*
X208803937Y-102859774D01*
X208917205Y-102690256D01*
X208995226Y-102501898D01*
X209035000Y-102301939D01*
X209035000Y-102198061D01*
X212165000Y-102198061D01*
X212165000Y-102401939D01*
X212204774Y-102601898D01*
X212282795Y-102790256D01*
X212396063Y-102959774D01*
X212540226Y-103103937D01*
X212709744Y-103217205D01*
X212898102Y-103295226D01*
X213098061Y-103335000D01*
X213301939Y-103335000D01*
X213501898Y-103295226D01*
X213690256Y-103217205D01*
X213859774Y-103103937D01*
X214003937Y-102959774D01*
X214117205Y-102790256D01*
X214195226Y-102601898D01*
X214235000Y-102401939D01*
X214235000Y-102398061D01*
X225415000Y-102398061D01*
X225415000Y-102601939D01*
X225454774Y-102801898D01*
X225532795Y-102990256D01*
X225646063Y-103159774D01*
X225736289Y-103250000D01*
X225646063Y-103340226D01*
X225532795Y-103509744D01*
X225454774Y-103698102D01*
X225415000Y-103898061D01*
X225415000Y-104101939D01*
X225454774Y-104301898D01*
X225532795Y-104490256D01*
X225646063Y-104659774D01*
X225790226Y-104803937D01*
X225959744Y-104917205D01*
X226148102Y-104995226D01*
X226348061Y-105035000D01*
X226551939Y-105035000D01*
X226751898Y-104995226D01*
X226940256Y-104917205D01*
X227109774Y-104803937D01*
X227253937Y-104659774D01*
X227367205Y-104490256D01*
X227445226Y-104301898D01*
X227485000Y-104101939D01*
X227485000Y-103898061D01*
X227445226Y-103698102D01*
X227367205Y-103509744D01*
X227253937Y-103340226D01*
X227163711Y-103250000D01*
X227253937Y-103159774D01*
X227367205Y-102990256D01*
X227445226Y-102801898D01*
X227485000Y-102601939D01*
X227485000Y-102398061D01*
X227445226Y-102198102D01*
X227367205Y-102009744D01*
X227253937Y-101840226D01*
X227109774Y-101696063D01*
X226940256Y-101582795D01*
X226751898Y-101504774D01*
X226551939Y-101465000D01*
X226348061Y-101465000D01*
X226148102Y-101504774D01*
X225959744Y-101582795D01*
X225790226Y-101696063D01*
X225646063Y-101840226D01*
X225532795Y-102009744D01*
X225454774Y-102198102D01*
X225415000Y-102398061D01*
X214235000Y-102398061D01*
X214235000Y-102198061D01*
X214195226Y-101998102D01*
X214117205Y-101809744D01*
X214003937Y-101640226D01*
X213859774Y-101496063D01*
X213713104Y-101398061D01*
X227265000Y-101398061D01*
X227265000Y-101601939D01*
X227304774Y-101801898D01*
X227382795Y-101990256D01*
X227496063Y-102159774D01*
X227640226Y-102303937D01*
X227809744Y-102417205D01*
X227998102Y-102495226D01*
X228198061Y-102535000D01*
X228401939Y-102535000D01*
X228601898Y-102495226D01*
X228790256Y-102417205D01*
X228925000Y-102327172D01*
X229059744Y-102417205D01*
X229248102Y-102495226D01*
X229448061Y-102535000D01*
X229651939Y-102535000D01*
X229851898Y-102495226D01*
X230040256Y-102417205D01*
X230209774Y-102303937D01*
X230353937Y-102159774D01*
X230467205Y-101990256D01*
X230545226Y-101801898D01*
X230585000Y-101601939D01*
X230585000Y-101398061D01*
X230545226Y-101198102D01*
X230467205Y-101009744D01*
X230353937Y-100840226D01*
X230209774Y-100696063D01*
X230040256Y-100582795D01*
X229851898Y-100504774D01*
X229818150Y-100498061D01*
X248215000Y-100498061D01*
X248215000Y-100701939D01*
X248254774Y-100901898D01*
X248332795Y-101090256D01*
X248446063Y-101259774D01*
X248590226Y-101403937D01*
X248759744Y-101517205D01*
X248948102Y-101595226D01*
X249148061Y-101635000D01*
X249351939Y-101635000D01*
X249551898Y-101595226D01*
X249740256Y-101517205D01*
X249909774Y-101403937D01*
X250053937Y-101259774D01*
X250167205Y-101090256D01*
X250245226Y-100901898D01*
X250285000Y-100701939D01*
X250285000Y-100498061D01*
X250245226Y-100298102D01*
X250167205Y-100109744D01*
X250053937Y-99940226D01*
X249909774Y-99796063D01*
X249740256Y-99682795D01*
X249551898Y-99604774D01*
X249351939Y-99565000D01*
X249148061Y-99565000D01*
X248948102Y-99604774D01*
X248759744Y-99682795D01*
X248590226Y-99796063D01*
X248446063Y-99940226D01*
X248332795Y-100109744D01*
X248254774Y-100298102D01*
X248215000Y-100498061D01*
X229818150Y-100498061D01*
X229651939Y-100465000D01*
X229448061Y-100465000D01*
X229248102Y-100504774D01*
X229059744Y-100582795D01*
X228925000Y-100672828D01*
X228790256Y-100582795D01*
X228601898Y-100504774D01*
X228401939Y-100465000D01*
X228198061Y-100465000D01*
X227998102Y-100504774D01*
X227809744Y-100582795D01*
X227640226Y-100696063D01*
X227496063Y-100840226D01*
X227382795Y-101009744D01*
X227304774Y-101198102D01*
X227265000Y-101398061D01*
X213713104Y-101398061D01*
X213690256Y-101382795D01*
X213501898Y-101304774D01*
X213301939Y-101265000D01*
X213098061Y-101265000D01*
X212898102Y-101304774D01*
X212709744Y-101382795D01*
X212540226Y-101496063D01*
X212396063Y-101640226D01*
X212282795Y-101809744D01*
X212204774Y-101998102D01*
X212165000Y-102198061D01*
X209035000Y-102198061D01*
X209035000Y-102098061D01*
X208995226Y-101898102D01*
X208917205Y-101709744D01*
X208803937Y-101540226D01*
X208659774Y-101396063D01*
X208490256Y-101282795D01*
X208301898Y-101204774D01*
X208101939Y-101165000D01*
X207898061Y-101165000D01*
X207698102Y-101204774D01*
X207509744Y-101282795D01*
X207340226Y-101396063D01*
X207196063Y-101540226D01*
X207082795Y-101709744D01*
X207004774Y-101898102D01*
X206965000Y-102098061D01*
X190410000Y-102098061D01*
X190410000Y-96898061D01*
X192265000Y-96898061D01*
X192265000Y-97101939D01*
X192304774Y-97301898D01*
X192382795Y-97490256D01*
X192496063Y-97659774D01*
X192640226Y-97803937D01*
X192809744Y-97917205D01*
X192998102Y-97995226D01*
X193022103Y-98000000D01*
X192998102Y-98004774D01*
X192809744Y-98082795D01*
X192640226Y-98196063D01*
X192496063Y-98340226D01*
X192382795Y-98509744D01*
X192304774Y-98698102D01*
X192265000Y-98898061D01*
X192265000Y-99101939D01*
X192304774Y-99301898D01*
X192382795Y-99490256D01*
X192496063Y-99659774D01*
X192640226Y-99803937D01*
X192809744Y-99917205D01*
X192998102Y-99995226D01*
X193198061Y-100035000D01*
X193401939Y-100035000D01*
X193601898Y-99995226D01*
X193790256Y-99917205D01*
X193959774Y-99803937D01*
X194103937Y-99659774D01*
X194217205Y-99490256D01*
X194295226Y-99301898D01*
X194335000Y-99101939D01*
X194335000Y-98898061D01*
X194295226Y-98698102D01*
X194217205Y-98509744D01*
X194209399Y-98498061D01*
X215665000Y-98498061D01*
X215665000Y-98701939D01*
X215704774Y-98901898D01*
X215782795Y-99090256D01*
X215896063Y-99259774D01*
X216040226Y-99403937D01*
X216209744Y-99517205D01*
X216398102Y-99595226D01*
X216598061Y-99635000D01*
X216801939Y-99635000D01*
X217001898Y-99595226D01*
X217190256Y-99517205D01*
X217359774Y-99403937D01*
X217503937Y-99259774D01*
X217617205Y-99090256D01*
X217695226Y-98901898D01*
X217735000Y-98701939D01*
X217735000Y-98498061D01*
X217695226Y-98298102D01*
X217617205Y-98109744D01*
X217503937Y-97940226D01*
X217461772Y-97898061D01*
X222465000Y-97898061D01*
X222465000Y-98101939D01*
X222504774Y-98301898D01*
X222582795Y-98490256D01*
X222696063Y-98659774D01*
X222840226Y-98803937D01*
X223009744Y-98917205D01*
X223198102Y-98995226D01*
X223398061Y-99035000D01*
X223601939Y-99035000D01*
X223801898Y-98995226D01*
X223915763Y-98948061D01*
X224465000Y-98948061D01*
X224465000Y-99151939D01*
X224504774Y-99351898D01*
X224582795Y-99540256D01*
X224696063Y-99709774D01*
X224840226Y-99853937D01*
X225009744Y-99967205D01*
X225198102Y-100045226D01*
X225398061Y-100085000D01*
X225601939Y-100085000D01*
X225801898Y-100045226D01*
X225990256Y-99967205D01*
X226159774Y-99853937D01*
X226303937Y-99709774D01*
X226382849Y-99591673D01*
X226404774Y-99701898D01*
X226482795Y-99890256D01*
X226596063Y-100059774D01*
X226740226Y-100203937D01*
X226909744Y-100317205D01*
X227098102Y-100395226D01*
X227298061Y-100435000D01*
X227501939Y-100435000D01*
X227701898Y-100395226D01*
X227890256Y-100317205D01*
X228059774Y-100203937D01*
X228203937Y-100059774D01*
X228317205Y-99890256D01*
X228395226Y-99701898D01*
X228435000Y-99501939D01*
X228435000Y-99298061D01*
X228395226Y-99098102D01*
X228317205Y-98909744D01*
X228203937Y-98740226D01*
X228059774Y-98596063D01*
X227912334Y-98497547D01*
X227917205Y-98490256D01*
X227995226Y-98301898D01*
X228035000Y-98101939D01*
X228035000Y-97898061D01*
X227995226Y-97698102D01*
X227917205Y-97509744D01*
X227803937Y-97340226D01*
X227659774Y-97196063D01*
X227490256Y-97082795D01*
X227301898Y-97004774D01*
X227101939Y-96965000D01*
X226898061Y-96965000D01*
X226698102Y-97004774D01*
X226509744Y-97082795D01*
X226340226Y-97196063D01*
X226196063Y-97340226D01*
X226082795Y-97509744D01*
X226004774Y-97698102D01*
X225965000Y-97898061D01*
X225965000Y-98101939D01*
X225969421Y-98124165D01*
X225801898Y-98054774D01*
X225601939Y-98015000D01*
X225398061Y-98015000D01*
X225198102Y-98054774D01*
X225009744Y-98132795D01*
X224840226Y-98246063D01*
X224696063Y-98390226D01*
X224582795Y-98559744D01*
X224504774Y-98748102D01*
X224465000Y-98948061D01*
X223915763Y-98948061D01*
X223990256Y-98917205D01*
X224159774Y-98803937D01*
X224303937Y-98659774D01*
X224417205Y-98490256D01*
X224495226Y-98301898D01*
X224535000Y-98101939D01*
X224535000Y-97898061D01*
X224495226Y-97698102D01*
X224417205Y-97509744D01*
X224303937Y-97340226D01*
X224159774Y-97196063D01*
X223990256Y-97082795D01*
X223801898Y-97004774D01*
X223601939Y-96965000D01*
X223398061Y-96965000D01*
X223198102Y-97004774D01*
X223009744Y-97082795D01*
X222840226Y-97196063D01*
X222696063Y-97340226D01*
X222582795Y-97509744D01*
X222504774Y-97698102D01*
X222465000Y-97898061D01*
X217461772Y-97898061D01*
X217359774Y-97796063D01*
X217190256Y-97682795D01*
X217001898Y-97604774D01*
X216801939Y-97565000D01*
X216598061Y-97565000D01*
X216398102Y-97604774D01*
X216209744Y-97682795D01*
X216040226Y-97796063D01*
X215896063Y-97940226D01*
X215782795Y-98109744D01*
X215704774Y-98298102D01*
X215665000Y-98498061D01*
X194209399Y-98498061D01*
X194103937Y-98340226D01*
X193959774Y-98196063D01*
X193790256Y-98082795D01*
X193601898Y-98004774D01*
X193577897Y-98000000D01*
X193601898Y-97995226D01*
X193790256Y-97917205D01*
X193959774Y-97803937D01*
X194103937Y-97659774D01*
X194217205Y-97490256D01*
X194295226Y-97301898D01*
X194335000Y-97101939D01*
X194335000Y-96898061D01*
X194295226Y-96698102D01*
X194253788Y-96598061D01*
X211965000Y-96598061D01*
X211965000Y-96801939D01*
X212004774Y-97001898D01*
X212082795Y-97190256D01*
X212196063Y-97359774D01*
X212340226Y-97503937D01*
X212509744Y-97617205D01*
X212698102Y-97695226D01*
X212898061Y-97735000D01*
X213101939Y-97735000D01*
X213301898Y-97695226D01*
X213490256Y-97617205D01*
X213659774Y-97503937D01*
X213803937Y-97359774D01*
X213917205Y-97190256D01*
X213995226Y-97001898D01*
X214035000Y-96801939D01*
X214035000Y-96598061D01*
X213995226Y-96398102D01*
X213917205Y-96209744D01*
X213803937Y-96040226D01*
X213661772Y-95898061D01*
X217415000Y-95898061D01*
X217415000Y-96101939D01*
X217454774Y-96301898D01*
X217532795Y-96490256D01*
X217646063Y-96659774D01*
X217790226Y-96803937D01*
X217959744Y-96917205D01*
X218148102Y-96995226D01*
X218348061Y-97035000D01*
X218551939Y-97035000D01*
X218751898Y-96995226D01*
X218940256Y-96917205D01*
X219109774Y-96803937D01*
X219253937Y-96659774D01*
X219367205Y-96490256D01*
X219445226Y-96301898D01*
X219485000Y-96101939D01*
X219485000Y-95898061D01*
X224965000Y-95898061D01*
X224965000Y-96101939D01*
X225004774Y-96301898D01*
X225082795Y-96490256D01*
X225196063Y-96659774D01*
X225340226Y-96803937D01*
X225509744Y-96917205D01*
X225698102Y-96995226D01*
X225898061Y-97035000D01*
X226101939Y-97035000D01*
X226301898Y-96995226D01*
X226490256Y-96917205D01*
X226659774Y-96803937D01*
X226803937Y-96659774D01*
X226917205Y-96490256D01*
X226995226Y-96301898D01*
X227035000Y-96101939D01*
X227035000Y-95898061D01*
X226995226Y-95698102D01*
X226917205Y-95509744D01*
X226803937Y-95340226D01*
X226659774Y-95196063D01*
X226490256Y-95082795D01*
X226301898Y-95004774D01*
X226101939Y-94965000D01*
X225898061Y-94965000D01*
X225698102Y-95004774D01*
X225509744Y-95082795D01*
X225340226Y-95196063D01*
X225196063Y-95340226D01*
X225082795Y-95509744D01*
X225004774Y-95698102D01*
X224965000Y-95898061D01*
X219485000Y-95898061D01*
X219445226Y-95698102D01*
X219367205Y-95509744D01*
X219253937Y-95340226D01*
X219109774Y-95196063D01*
X218940256Y-95082795D01*
X218751898Y-95004774D01*
X218551939Y-94965000D01*
X218348061Y-94965000D01*
X218148102Y-95004774D01*
X217959744Y-95082795D01*
X217790226Y-95196063D01*
X217646063Y-95340226D01*
X217532795Y-95509744D01*
X217454774Y-95698102D01*
X217415000Y-95898061D01*
X213661772Y-95898061D01*
X213659774Y-95896063D01*
X213490256Y-95782795D01*
X213301898Y-95704774D01*
X213101939Y-95665000D01*
X212898061Y-95665000D01*
X212698102Y-95704774D01*
X212509744Y-95782795D01*
X212340226Y-95896063D01*
X212196063Y-96040226D01*
X212082795Y-96209744D01*
X212004774Y-96398102D01*
X211965000Y-96598061D01*
X194253788Y-96598061D01*
X194217205Y-96509744D01*
X194103937Y-96340226D01*
X193959774Y-96196063D01*
X193790256Y-96082795D01*
X193601898Y-96004774D01*
X193401939Y-95965000D01*
X193198061Y-95965000D01*
X192998102Y-96004774D01*
X192809744Y-96082795D01*
X192640226Y-96196063D01*
X192496063Y-96340226D01*
X192382795Y-96509744D01*
X192304774Y-96698102D01*
X192265000Y-96898061D01*
X190410000Y-96898061D01*
X190410000Y-92598061D01*
X207265000Y-92598061D01*
X207265000Y-92801939D01*
X207304774Y-93001898D01*
X207382795Y-93190256D01*
X207496063Y-93359774D01*
X207640226Y-93503937D01*
X207809744Y-93617205D01*
X207998102Y-93695226D01*
X208198061Y-93735000D01*
X208401939Y-93735000D01*
X208463420Y-93722771D01*
X208532795Y-93890256D01*
X208646063Y-94059774D01*
X208790226Y-94203937D01*
X208959744Y-94317205D01*
X209148102Y-94395226D01*
X209348061Y-94435000D01*
X209551939Y-94435000D01*
X209751898Y-94395226D01*
X209940256Y-94317205D01*
X210109774Y-94203937D01*
X210253937Y-94059774D01*
X210367205Y-93890256D01*
X210445226Y-93701898D01*
X210485000Y-93501939D01*
X210485000Y-93298061D01*
X210445226Y-93098102D01*
X210367205Y-92909744D01*
X210253937Y-92740226D01*
X210109774Y-92596063D01*
X209940256Y-92482795D01*
X209751898Y-92404774D01*
X209551939Y-92365000D01*
X209348061Y-92365000D01*
X209286580Y-92377229D01*
X209217205Y-92209744D01*
X209142582Y-92098061D01*
X211365000Y-92098061D01*
X211365000Y-92301939D01*
X211404774Y-92501898D01*
X211482795Y-92690256D01*
X211596063Y-92859774D01*
X211740226Y-93003937D01*
X211909744Y-93117205D01*
X212098102Y-93195226D01*
X212298061Y-93235000D01*
X212501939Y-93235000D01*
X212701898Y-93195226D01*
X212890256Y-93117205D01*
X213059774Y-93003937D01*
X213203937Y-92859774D01*
X213317205Y-92690256D01*
X213395226Y-92501898D01*
X213435000Y-92301939D01*
X213435000Y-92098061D01*
X213395226Y-91898102D01*
X213317205Y-91709744D01*
X213203937Y-91540226D01*
X213059774Y-91396063D01*
X212890256Y-91282795D01*
X212701898Y-91204774D01*
X212501939Y-91165000D01*
X212298061Y-91165000D01*
X212098102Y-91204774D01*
X211909744Y-91282795D01*
X211740226Y-91396063D01*
X211596063Y-91540226D01*
X211482795Y-91709744D01*
X211404774Y-91898102D01*
X211365000Y-92098061D01*
X209142582Y-92098061D01*
X209103937Y-92040226D01*
X208959774Y-91896063D01*
X208790256Y-91782795D01*
X208601898Y-91704774D01*
X208401939Y-91665000D01*
X208198061Y-91665000D01*
X207998102Y-91704774D01*
X207809744Y-91782795D01*
X207640226Y-91896063D01*
X207496063Y-92040226D01*
X207382795Y-92209744D01*
X207304774Y-92398102D01*
X207265000Y-92598061D01*
X190410000Y-92598061D01*
X190410000Y-91398061D01*
X202265000Y-91398061D01*
X202265000Y-91601939D01*
X202304774Y-91801898D01*
X202382795Y-91990256D01*
X202496063Y-92159774D01*
X202640226Y-92303937D01*
X202809744Y-92417205D01*
X202998102Y-92495226D01*
X203198061Y-92535000D01*
X203401939Y-92535000D01*
X203601898Y-92495226D01*
X203790256Y-92417205D01*
X203959774Y-92303937D01*
X204103937Y-92159774D01*
X204217205Y-91990256D01*
X204295226Y-91801898D01*
X204335000Y-91601939D01*
X204335000Y-91398061D01*
X204295226Y-91198102D01*
X204217205Y-91009744D01*
X204103937Y-90840226D01*
X203959774Y-90696063D01*
X203790256Y-90582795D01*
X203601898Y-90504774D01*
X203401939Y-90465000D01*
X203198061Y-90465000D01*
X202998102Y-90504774D01*
X202809744Y-90582795D01*
X202640226Y-90696063D01*
X202496063Y-90840226D01*
X202382795Y-91009744D01*
X202304774Y-91198102D01*
X202265000Y-91398061D01*
X190410000Y-91398061D01*
X190410000Y-89398061D01*
X211265000Y-89398061D01*
X211265000Y-89601939D01*
X211304774Y-89801898D01*
X211382795Y-89990256D01*
X211496063Y-90159774D01*
X211640226Y-90303937D01*
X211809744Y-90417205D01*
X211998102Y-90495226D01*
X212198061Y-90535000D01*
X212401939Y-90535000D01*
X212601898Y-90495226D01*
X212790256Y-90417205D01*
X212959774Y-90303937D01*
X213103937Y-90159774D01*
X213217205Y-89990256D01*
X213295226Y-89801898D01*
X213335000Y-89601939D01*
X213335000Y-89398061D01*
X213295226Y-89198102D01*
X213217205Y-89009744D01*
X213103937Y-88840226D01*
X212959774Y-88696063D01*
X212790256Y-88582795D01*
X212601898Y-88504774D01*
X212401939Y-88465000D01*
X212198061Y-88465000D01*
X211998102Y-88504774D01*
X211809744Y-88582795D01*
X211640226Y-88696063D01*
X211496063Y-88840226D01*
X211382795Y-89009744D01*
X211304774Y-89198102D01*
X211265000Y-89398061D01*
X190410000Y-89398061D01*
X190410000Y-87198061D01*
X212715000Y-87198061D01*
X212715000Y-87401939D01*
X212754774Y-87601898D01*
X212832795Y-87790256D01*
X212946063Y-87959774D01*
X213090226Y-88103937D01*
X213259744Y-88217205D01*
X213448102Y-88295226D01*
X213648061Y-88335000D01*
X213851939Y-88335000D01*
X214051898Y-88295226D01*
X214240256Y-88217205D01*
X214409774Y-88103937D01*
X214499081Y-88014630D01*
X214596063Y-88159774D01*
X214740226Y-88303937D01*
X214909744Y-88417205D01*
X215098102Y-88495226D01*
X215298061Y-88535000D01*
X215501939Y-88535000D01*
X215701898Y-88495226D01*
X215890256Y-88417205D01*
X216059774Y-88303937D01*
X216071836Y-88291875D01*
X216109744Y-88317205D01*
X216298102Y-88395226D01*
X216333935Y-88402354D01*
X216196063Y-88540226D01*
X216082795Y-88709744D01*
X216004774Y-88898102D01*
X215965000Y-89098061D01*
X215965000Y-89301939D01*
X216004774Y-89501898D01*
X216082795Y-89690256D01*
X216196063Y-89859774D01*
X216340226Y-90003937D01*
X216486579Y-90101727D01*
X216301939Y-90065000D01*
X216098061Y-90065000D01*
X215898102Y-90104774D01*
X215709744Y-90182795D01*
X215540226Y-90296063D01*
X215396063Y-90440226D01*
X215282795Y-90609744D01*
X215204774Y-90798102D01*
X215165000Y-90998061D01*
X215165000Y-91201939D01*
X215204774Y-91401898D01*
X215282795Y-91590256D01*
X215389532Y-91750000D01*
X215282795Y-91909744D01*
X215204774Y-92098102D01*
X215165000Y-92298061D01*
X215165000Y-92501939D01*
X215204774Y-92701898D01*
X215282795Y-92890256D01*
X215396063Y-93059774D01*
X215540226Y-93203937D01*
X215709744Y-93317205D01*
X215898102Y-93395226D01*
X216098061Y-93435000D01*
X216301939Y-93435000D01*
X216501898Y-93395226D01*
X216690256Y-93317205D01*
X216859774Y-93203937D01*
X217003937Y-93059774D01*
X217117205Y-92890256D01*
X217195226Y-92701898D01*
X217235000Y-92501939D01*
X217235000Y-92298061D01*
X217195226Y-92098102D01*
X217117205Y-91909744D01*
X217010468Y-91750000D01*
X217117205Y-91590256D01*
X217195226Y-91401898D01*
X217235000Y-91201939D01*
X217235000Y-90998061D01*
X217195226Y-90798102D01*
X217133077Y-90648061D01*
X220965000Y-90648061D01*
X220965000Y-90851939D01*
X221004774Y-91051898D01*
X221082795Y-91240256D01*
X221196063Y-91409774D01*
X221340226Y-91553937D01*
X221509744Y-91667205D01*
X221698102Y-91745226D01*
X221898061Y-91785000D01*
X222101939Y-91785000D01*
X222301898Y-91745226D01*
X222490256Y-91667205D01*
X222659774Y-91553937D01*
X222803937Y-91409774D01*
X222917205Y-91240256D01*
X222995226Y-91051898D01*
X223035000Y-90851939D01*
X223035000Y-90648061D01*
X222995226Y-90448102D01*
X222917205Y-90259744D01*
X222803937Y-90090226D01*
X222659774Y-89946063D01*
X222490256Y-89832795D01*
X222301898Y-89754774D01*
X222101939Y-89715000D01*
X221898061Y-89715000D01*
X221698102Y-89754774D01*
X221509744Y-89832795D01*
X221340226Y-89946063D01*
X221196063Y-90090226D01*
X221082795Y-90259744D01*
X221004774Y-90448102D01*
X220965000Y-90648061D01*
X217133077Y-90648061D01*
X217117205Y-90609744D01*
X217003937Y-90440226D01*
X216859774Y-90296063D01*
X216713421Y-90198273D01*
X216898061Y-90235000D01*
X217101939Y-90235000D01*
X217301898Y-90195226D01*
X217490256Y-90117205D01*
X217659774Y-90003937D01*
X217803937Y-89859774D01*
X217917205Y-89690256D01*
X217995226Y-89501898D01*
X218005934Y-89448061D01*
X248165000Y-89448061D01*
X248165000Y-89651939D01*
X248204774Y-89851898D01*
X248282795Y-90040256D01*
X248396063Y-90209774D01*
X248540226Y-90353937D01*
X248709744Y-90467205D01*
X248898102Y-90545226D01*
X249098061Y-90585000D01*
X249301939Y-90585000D01*
X249501898Y-90545226D01*
X249690256Y-90467205D01*
X249859774Y-90353937D01*
X250003937Y-90209774D01*
X250117205Y-90040256D01*
X250195226Y-89851898D01*
X250235000Y-89651939D01*
X250235000Y-89448061D01*
X250195226Y-89248102D01*
X250117205Y-89059744D01*
X250003937Y-88890226D01*
X249859774Y-88746063D01*
X249690256Y-88632795D01*
X249501898Y-88554774D01*
X249301939Y-88515000D01*
X249098061Y-88515000D01*
X248898102Y-88554774D01*
X248709744Y-88632795D01*
X248540226Y-88746063D01*
X248396063Y-88890226D01*
X248282795Y-89059744D01*
X248204774Y-89248102D01*
X248165000Y-89448061D01*
X218005934Y-89448061D01*
X218035000Y-89301939D01*
X218035000Y-89098061D01*
X217995226Y-88898102D01*
X217917205Y-88709744D01*
X217803937Y-88540226D01*
X217659774Y-88396063D01*
X217490256Y-88282795D01*
X217301898Y-88204774D01*
X217266065Y-88197646D01*
X217403937Y-88059774D01*
X217517205Y-87890256D01*
X217595226Y-87701898D01*
X217635000Y-87501939D01*
X217635000Y-87298061D01*
X217595226Y-87098102D01*
X217517205Y-86909744D01*
X217403937Y-86740226D01*
X217259774Y-86596063D01*
X217090256Y-86482795D01*
X216901898Y-86404774D01*
X216701939Y-86365000D01*
X216498061Y-86365000D01*
X216298102Y-86404774D01*
X216109744Y-86482795D01*
X215940226Y-86596063D01*
X215928164Y-86608125D01*
X215890256Y-86582795D01*
X215701898Y-86504774D01*
X215501939Y-86465000D01*
X215298061Y-86465000D01*
X215098102Y-86504774D01*
X214909744Y-86582795D01*
X214740226Y-86696063D01*
X214650919Y-86785370D01*
X214553937Y-86640226D01*
X214409774Y-86496063D01*
X214240256Y-86382795D01*
X214051898Y-86304774D01*
X213851939Y-86265000D01*
X213648061Y-86265000D01*
X213448102Y-86304774D01*
X213259744Y-86382795D01*
X213090226Y-86496063D01*
X212946063Y-86640226D01*
X212832795Y-86809744D01*
X212754774Y-86998102D01*
X212715000Y-87198061D01*
X190410000Y-87198061D01*
X190410000Y-86198061D01*
X220215000Y-86198061D01*
X220215000Y-86401939D01*
X220254774Y-86601898D01*
X220332795Y-86790256D01*
X220446063Y-86959774D01*
X220590226Y-87103937D01*
X220759744Y-87217205D01*
X220948102Y-87295226D01*
X221148061Y-87335000D01*
X221351939Y-87335000D01*
X221551898Y-87295226D01*
X221740256Y-87217205D01*
X221909774Y-87103937D01*
X222053937Y-86959774D01*
X222167205Y-86790256D01*
X222245226Y-86601898D01*
X222285000Y-86401939D01*
X222285000Y-86198061D01*
X222245226Y-85998102D01*
X222167205Y-85809744D01*
X222053937Y-85640226D01*
X221909774Y-85496063D01*
X221740256Y-85382795D01*
X221551898Y-85304774D01*
X221351939Y-85265000D01*
X221148061Y-85265000D01*
X220948102Y-85304774D01*
X220759744Y-85382795D01*
X220590226Y-85496063D01*
X220446063Y-85640226D01*
X220332795Y-85809744D01*
X220254774Y-85998102D01*
X220215000Y-86198061D01*
X190410000Y-86198061D01*
X190410000Y-82648061D01*
X209765000Y-82648061D01*
X209765000Y-82851939D01*
X209804774Y-83051898D01*
X209882795Y-83240256D01*
X209972828Y-83375000D01*
X209882795Y-83509744D01*
X209804774Y-83698102D01*
X209765000Y-83898061D01*
X209765000Y-84101939D01*
X209804774Y-84301898D01*
X209882795Y-84490256D01*
X209996063Y-84659774D01*
X210140226Y-84803937D01*
X210309744Y-84917205D01*
X210498102Y-84995226D01*
X210698061Y-85035000D01*
X210901939Y-85035000D01*
X211101898Y-84995226D01*
X211290256Y-84917205D01*
X211459774Y-84803937D01*
X211603937Y-84659774D01*
X211717205Y-84490256D01*
X211795226Y-84301898D01*
X211815880Y-84198061D01*
X213165000Y-84198061D01*
X213165000Y-84401939D01*
X213204774Y-84601898D01*
X213282795Y-84790256D01*
X213396063Y-84959774D01*
X213540226Y-85103937D01*
X213709744Y-85217205D01*
X213898102Y-85295226D01*
X214098061Y-85335000D01*
X214301939Y-85335000D01*
X214501898Y-85295226D01*
X214690256Y-85217205D01*
X214859774Y-85103937D01*
X215003937Y-84959774D01*
X215117205Y-84790256D01*
X215195226Y-84601898D01*
X215235000Y-84401939D01*
X215235000Y-84198061D01*
X215195226Y-83998102D01*
X215117205Y-83809744D01*
X215003937Y-83640226D01*
X214859774Y-83496063D01*
X214690256Y-83382795D01*
X214501898Y-83304774D01*
X214301939Y-83265000D01*
X214098061Y-83265000D01*
X213898102Y-83304774D01*
X213709744Y-83382795D01*
X213540226Y-83496063D01*
X213396063Y-83640226D01*
X213282795Y-83809744D01*
X213204774Y-83998102D01*
X213165000Y-84198061D01*
X211815880Y-84198061D01*
X211835000Y-84101939D01*
X211835000Y-83898061D01*
X211795226Y-83698102D01*
X211717205Y-83509744D01*
X211627172Y-83375000D01*
X211717205Y-83240256D01*
X211795226Y-83051898D01*
X211835000Y-82851939D01*
X211835000Y-82648061D01*
X211795226Y-82448102D01*
X211717205Y-82259744D01*
X211603937Y-82090226D01*
X211459774Y-81946063D01*
X211290256Y-81832795D01*
X211101898Y-81754774D01*
X210901939Y-81715000D01*
X210698061Y-81715000D01*
X210498102Y-81754774D01*
X210309744Y-81832795D01*
X210140226Y-81946063D01*
X209996063Y-82090226D01*
X209882795Y-82259744D01*
X209804774Y-82448102D01*
X209765000Y-82648061D01*
X190410000Y-82648061D01*
X190410000Y-79050000D01*
X192411928Y-79050000D01*
X192411928Y-80450000D01*
X192424188Y-80574482D01*
X192460498Y-80694180D01*
X192519463Y-80804494D01*
X192598815Y-80901185D01*
X192695506Y-80980537D01*
X192805820Y-81039502D01*
X192925518Y-81075812D01*
X193050000Y-81088072D01*
X194450000Y-81088072D01*
X194574482Y-81075812D01*
X194694180Y-81039502D01*
X194804494Y-80980537D01*
X194901185Y-80901185D01*
X194980537Y-80804494D01*
X195039502Y-80694180D01*
X195075812Y-80574482D01*
X195088072Y-80450000D01*
X195088072Y-79050000D01*
X195075812Y-78925518D01*
X195039502Y-78805820D01*
X194980537Y-78695506D01*
X194901185Y-78598815D01*
X194804494Y-78519463D01*
X194694180Y-78460498D01*
X194574482Y-78424188D01*
X194450000Y-78411928D01*
X194413987Y-78411928D01*
X194601013Y-78286962D01*
X194786962Y-78101013D01*
X194933061Y-77882359D01*
X195033696Y-77639405D01*
X195081702Y-77398061D01*
X198665000Y-77398061D01*
X198665000Y-77601939D01*
X198704774Y-77801898D01*
X198782795Y-77990256D01*
X198896063Y-78159774D01*
X199040226Y-78303937D01*
X199209744Y-78417205D01*
X199398102Y-78495226D01*
X199598061Y-78535000D01*
X199801939Y-78535000D01*
X200001898Y-78495226D01*
X200190256Y-78417205D01*
X200359774Y-78303937D01*
X200503937Y-78159774D01*
X200617205Y-77990256D01*
X200695226Y-77801898D01*
X200735000Y-77601939D01*
X200735000Y-77398061D01*
X200695226Y-77198102D01*
X200617205Y-77009744D01*
X200503937Y-76840226D01*
X200359774Y-76696063D01*
X200190256Y-76582795D01*
X200001898Y-76504774D01*
X199801939Y-76465000D01*
X199598061Y-76465000D01*
X199398102Y-76504774D01*
X199209744Y-76582795D01*
X199040226Y-76696063D01*
X198896063Y-76840226D01*
X198782795Y-77009744D01*
X198704774Y-77198102D01*
X198665000Y-77398061D01*
X195081702Y-77398061D01*
X195085000Y-77381486D01*
X195085000Y-77118514D01*
X195033696Y-76860595D01*
X194933061Y-76617641D01*
X194786962Y-76398987D01*
X194601013Y-76213038D01*
X194382359Y-76066939D01*
X194219882Y-75999639D01*
X194331366Y-75958935D01*
X194432203Y-75905037D01*
X194491664Y-75671269D01*
X193750000Y-74929605D01*
X193008336Y-75671269D01*
X193067797Y-75905037D01*
X193275404Y-76001592D01*
X193117641Y-76066939D01*
X192898987Y-76213038D01*
X192713038Y-76398987D01*
X192566939Y-76617641D01*
X192466304Y-76860595D01*
X192415000Y-77118514D01*
X192415000Y-77381486D01*
X192466304Y-77639405D01*
X192566939Y-77882359D01*
X192713038Y-78101013D01*
X192898987Y-78286962D01*
X193086013Y-78411928D01*
X193050000Y-78411928D01*
X192925518Y-78424188D01*
X192805820Y-78460498D01*
X192695506Y-78519463D01*
X192598815Y-78598815D01*
X192519463Y-78695506D01*
X192460498Y-78805820D01*
X192424188Y-78925518D01*
X192411928Y-79050000D01*
X190410000Y-79050000D01*
X190410000Y-74824473D01*
X192410610Y-74824473D01*
X192450875Y-75084344D01*
X192541065Y-75331366D01*
X192594963Y-75432203D01*
X192828731Y-75491664D01*
X193570395Y-74750000D01*
X193929605Y-74750000D01*
X194671269Y-75491664D01*
X194905037Y-75432203D01*
X195015934Y-75193758D01*
X195078183Y-74938260D01*
X195089390Y-74675527D01*
X195049125Y-74415656D01*
X194958935Y-74168634D01*
X194905037Y-74067797D01*
X194671269Y-74008336D01*
X193929605Y-74750000D01*
X193570395Y-74750000D01*
X192828731Y-74008336D01*
X192594963Y-74067797D01*
X192484066Y-74306242D01*
X192421817Y-74561740D01*
X192410610Y-74824473D01*
X190410000Y-74824473D01*
X190410000Y-73828731D01*
X193008336Y-73828731D01*
X193750000Y-74570395D01*
X194491664Y-73828731D01*
X194432203Y-73594963D01*
X194193758Y-73484066D01*
X193938260Y-73421817D01*
X193675527Y-73410610D01*
X193415656Y-73450875D01*
X193168634Y-73541065D01*
X193067797Y-73594963D01*
X193008336Y-73828731D01*
X190410000Y-73828731D01*
X190410000Y-71345374D01*
X191584231Y-71345374D01*
X191884411Y-71783828D01*
X192463356Y-72094296D01*
X193091746Y-72285852D01*
X193745431Y-72351134D01*
X194399293Y-72287634D01*
X195028203Y-72097792D01*
X195607992Y-71788904D01*
X195615589Y-71783828D01*
X195915768Y-71345376D01*
X195973151Y-71402759D01*
X195956686Y-71442510D01*
X195903000Y-71712408D01*
X195903000Y-71987592D01*
X195956686Y-72257490D01*
X196061995Y-72511727D01*
X196214880Y-72740535D01*
X196409465Y-72935120D01*
X196638273Y-73088005D01*
X196892510Y-73193314D01*
X197162408Y-73247000D01*
X197437592Y-73247000D01*
X197707490Y-73193314D01*
X197961727Y-73088005D01*
X198190535Y-72935120D01*
X198385120Y-72740535D01*
X198470731Y-72612408D01*
X243603000Y-72612408D01*
X243603000Y-72887592D01*
X243656686Y-73157490D01*
X243761995Y-73411727D01*
X243914880Y-73640535D01*
X244109465Y-73835120D01*
X244338273Y-73988005D01*
X244592510Y-74093314D01*
X244862408Y-74147000D01*
X245137592Y-74147000D01*
X245407490Y-74093314D01*
X245661727Y-73988005D01*
X245890535Y-73835120D01*
X246085120Y-73640535D01*
X246238005Y-73411727D01*
X246343314Y-73157490D01*
X246397000Y-72887592D01*
X246397000Y-72612408D01*
X246343314Y-72342510D01*
X246244423Y-72103766D01*
X246841746Y-72285852D01*
X247495431Y-72351134D01*
X248149293Y-72287634D01*
X248778203Y-72097792D01*
X249357992Y-71788904D01*
X249365589Y-71783828D01*
X249665769Y-71345374D01*
X247500000Y-69179605D01*
X247485858Y-69193748D01*
X247306253Y-69014143D01*
X247320395Y-69000000D01*
X245154626Y-66834231D01*
X244716172Y-67134411D01*
X244405704Y-67713356D01*
X244214148Y-68341746D01*
X244148866Y-68995431D01*
X244212366Y-69649293D01*
X244402208Y-70278203D01*
X244711096Y-70857992D01*
X244716172Y-70865589D01*
X245154624Y-71165768D01*
X245041019Y-71279373D01*
X245114646Y-71353000D01*
X244862408Y-71353000D01*
X244592510Y-71406686D01*
X244338273Y-71511995D01*
X244109465Y-71664880D01*
X243914880Y-71859465D01*
X243761995Y-72088273D01*
X243656686Y-72342510D01*
X243603000Y-72612408D01*
X198470731Y-72612408D01*
X198538005Y-72511727D01*
X198643314Y-72257490D01*
X198697000Y-71987592D01*
X198697000Y-71712408D01*
X198643314Y-71442510D01*
X198538005Y-71188273D01*
X198385120Y-70959465D01*
X198190535Y-70764880D01*
X197961727Y-70611995D01*
X197707490Y-70506686D01*
X197437592Y-70453000D01*
X197162408Y-70453000D01*
X196892510Y-70506686D01*
X196678831Y-70595195D01*
X196844296Y-70286644D01*
X197035852Y-69658254D01*
X197101134Y-69004569D01*
X197037929Y-68353740D01*
X201575000Y-68353740D01*
X201575000Y-68646260D01*
X201632068Y-68933158D01*
X201744010Y-69203411D01*
X201906525Y-69446632D01*
X202113368Y-69653475D01*
X202356589Y-69815990D01*
X202626842Y-69927932D01*
X202913740Y-69985000D01*
X203206260Y-69985000D01*
X203493158Y-69927932D01*
X203763411Y-69815990D01*
X204006632Y-69653475D01*
X204213475Y-69446632D01*
X204330000Y-69272240D01*
X204446525Y-69446632D01*
X204653368Y-69653475D01*
X204896589Y-69815990D01*
X205166842Y-69927932D01*
X205453740Y-69985000D01*
X205746260Y-69985000D01*
X206033158Y-69927932D01*
X206303411Y-69815990D01*
X206546632Y-69653475D01*
X206753475Y-69446632D01*
X206870000Y-69272240D01*
X206986525Y-69446632D01*
X207193368Y-69653475D01*
X207436589Y-69815990D01*
X207706842Y-69927932D01*
X207993740Y-69985000D01*
X208286260Y-69985000D01*
X208573158Y-69927932D01*
X208843411Y-69815990D01*
X209086632Y-69653475D01*
X209293475Y-69446632D01*
X209410000Y-69272240D01*
X209526525Y-69446632D01*
X209733368Y-69653475D01*
X209976589Y-69815990D01*
X210246842Y-69927932D01*
X210533740Y-69985000D01*
X210826260Y-69985000D01*
X211113158Y-69927932D01*
X211383411Y-69815990D01*
X211626632Y-69653475D01*
X211833475Y-69446632D01*
X211950000Y-69272240D01*
X212066525Y-69446632D01*
X212273368Y-69653475D01*
X212516589Y-69815990D01*
X212786842Y-69927932D01*
X213073740Y-69985000D01*
X213366260Y-69985000D01*
X213653158Y-69927932D01*
X213923411Y-69815990D01*
X214166632Y-69653475D01*
X214373475Y-69446632D01*
X214490000Y-69272240D01*
X214606525Y-69446632D01*
X214813368Y-69653475D01*
X215056589Y-69815990D01*
X215326842Y-69927932D01*
X215613740Y-69985000D01*
X215906260Y-69985000D01*
X216193158Y-69927932D01*
X216463411Y-69815990D01*
X216706632Y-69653475D01*
X216913475Y-69446632D01*
X217030000Y-69272240D01*
X217146525Y-69446632D01*
X217353368Y-69653475D01*
X217596589Y-69815990D01*
X217866842Y-69927932D01*
X218153740Y-69985000D01*
X218446260Y-69985000D01*
X218733158Y-69927932D01*
X219003411Y-69815990D01*
X219246632Y-69653475D01*
X219453475Y-69446632D01*
X219570000Y-69272240D01*
X219686525Y-69446632D01*
X219893368Y-69653475D01*
X220136589Y-69815990D01*
X220406842Y-69927932D01*
X220693740Y-69985000D01*
X220986260Y-69985000D01*
X221273158Y-69927932D01*
X221543411Y-69815990D01*
X221786632Y-69653475D01*
X221993475Y-69446632D01*
X222110000Y-69272240D01*
X222226525Y-69446632D01*
X222433368Y-69653475D01*
X222676589Y-69815990D01*
X222946842Y-69927932D01*
X223233740Y-69985000D01*
X223526260Y-69985000D01*
X223813158Y-69927932D01*
X224083411Y-69815990D01*
X224326632Y-69653475D01*
X224533475Y-69446632D01*
X224650000Y-69272240D01*
X224766525Y-69446632D01*
X224973368Y-69653475D01*
X225216589Y-69815990D01*
X225486842Y-69927932D01*
X225773740Y-69985000D01*
X226066260Y-69985000D01*
X226353158Y-69927932D01*
X226623411Y-69815990D01*
X226866632Y-69653475D01*
X227073475Y-69446632D01*
X227195195Y-69264466D01*
X227264822Y-69381355D01*
X227459731Y-69597588D01*
X227693080Y-69771641D01*
X227955901Y-69896825D01*
X228103110Y-69941476D01*
X228333000Y-69820155D01*
X228333000Y-68627000D01*
X228313000Y-68627000D01*
X228313000Y-68373000D01*
X228333000Y-68373000D01*
X228333000Y-67179845D01*
X228587000Y-67179845D01*
X228587000Y-68373000D01*
X228607000Y-68373000D01*
X228607000Y-68627000D01*
X228587000Y-68627000D01*
X228587000Y-69820155D01*
X228816890Y-69941476D01*
X228964099Y-69896825D01*
X229226920Y-69771641D01*
X229460269Y-69597588D01*
X229536034Y-69513534D01*
X229560498Y-69594180D01*
X229619463Y-69704494D01*
X229698815Y-69801185D01*
X229795506Y-69880537D01*
X229905820Y-69939502D01*
X230025518Y-69975812D01*
X230150000Y-69988072D01*
X231850000Y-69988072D01*
X231974482Y-69975812D01*
X232094180Y-69939502D01*
X232204494Y-69880537D01*
X232301185Y-69801185D01*
X232380537Y-69704494D01*
X232439502Y-69594180D01*
X232475812Y-69474482D01*
X232482338Y-69408212D01*
X235075000Y-69408212D01*
X235075000Y-69631788D01*
X235118617Y-69851067D01*
X235204176Y-70057624D01*
X235328388Y-70243520D01*
X235486480Y-70401612D01*
X235672376Y-70525824D01*
X235878933Y-70611383D01*
X236098212Y-70655000D01*
X236321788Y-70655000D01*
X236541067Y-70611383D01*
X236747624Y-70525824D01*
X236845000Y-70460759D01*
X236942376Y-70525824D01*
X237148933Y-70611383D01*
X237368212Y-70655000D01*
X237591788Y-70655000D01*
X237811067Y-70611383D01*
X238017624Y-70525824D01*
X238115000Y-70460759D01*
X238212376Y-70525824D01*
X238418933Y-70611383D01*
X238638212Y-70655000D01*
X238861788Y-70655000D01*
X239081067Y-70611383D01*
X239287624Y-70525824D01*
X239385000Y-70460759D01*
X239482376Y-70525824D01*
X239688933Y-70611383D01*
X239908212Y-70655000D01*
X240131788Y-70655000D01*
X240351067Y-70611383D01*
X240557624Y-70525824D01*
X240655000Y-70460759D01*
X240752376Y-70525824D01*
X240958933Y-70611383D01*
X241178212Y-70655000D01*
X241401788Y-70655000D01*
X241621067Y-70611383D01*
X241827624Y-70525824D01*
X242013520Y-70401612D01*
X242171612Y-70243520D01*
X242295824Y-70057624D01*
X242381383Y-69851067D01*
X242425000Y-69631788D01*
X242425000Y-69408212D01*
X242381383Y-69188933D01*
X242335112Y-69077226D01*
X242379502Y-68994180D01*
X242415812Y-68874482D01*
X242428072Y-68750000D01*
X242428072Y-67750000D01*
X242415812Y-67625518D01*
X242379502Y-67505820D01*
X242320537Y-67395506D01*
X242241185Y-67298815D01*
X242144494Y-67219463D01*
X242034180Y-67160498D01*
X241914482Y-67124188D01*
X241790000Y-67111928D01*
X240790000Y-67111928D01*
X240665518Y-67124188D01*
X240545820Y-67160498D01*
X240456820Y-67208070D01*
X240376864Y-67172554D01*
X240321874Y-67155881D01*
X240147000Y-67282046D01*
X240147000Y-68123000D01*
X240151928Y-68123000D01*
X240151928Y-68377000D01*
X240147000Y-68377000D01*
X240147000Y-68388026D01*
X240131788Y-68385000D01*
X239908212Y-68385000D01*
X239893000Y-68388026D01*
X239893000Y-68377000D01*
X238877000Y-68377000D01*
X238877000Y-68388026D01*
X238861788Y-68385000D01*
X238638212Y-68385000D01*
X238623000Y-68388026D01*
X238623000Y-68377000D01*
X238611974Y-68377000D01*
X238615000Y-68361788D01*
X238615000Y-68138212D01*
X238611974Y-68123000D01*
X238623000Y-68123000D01*
X238623000Y-67282046D01*
X238877000Y-67282046D01*
X238877000Y-68123000D01*
X239893000Y-68123000D01*
X239893000Y-67282046D01*
X239718126Y-67155881D01*
X239663136Y-67172554D01*
X239459794Y-67262877D01*
X239385000Y-67315639D01*
X239310206Y-67262877D01*
X239106864Y-67172554D01*
X239051874Y-67155881D01*
X238877000Y-67282046D01*
X238623000Y-67282046D01*
X238448126Y-67155881D01*
X238393136Y-67172554D01*
X238189794Y-67262877D01*
X238119658Y-67312353D01*
X238017624Y-67244176D01*
X237811067Y-67158617D01*
X237591788Y-67115000D01*
X237368212Y-67115000D01*
X237148933Y-67158617D01*
X236942376Y-67244176D01*
X236840342Y-67312353D01*
X236770206Y-67262877D01*
X236566864Y-67172554D01*
X236511874Y-67155881D01*
X236337000Y-67282046D01*
X236337000Y-68123000D01*
X236348026Y-68123000D01*
X236345000Y-68138212D01*
X236345000Y-68361788D01*
X236348026Y-68377000D01*
X236337000Y-68377000D01*
X236337000Y-68388026D01*
X236321788Y-68385000D01*
X236098212Y-68385000D01*
X236083000Y-68388026D01*
X236083000Y-68377000D01*
X235240871Y-68377000D01*
X235115874Y-68551876D01*
X235195790Y-68759529D01*
X235272256Y-68880488D01*
X235204176Y-68982376D01*
X235118617Y-69188933D01*
X235075000Y-69408212D01*
X232482338Y-69408212D01*
X232488072Y-69350000D01*
X232488072Y-67948124D01*
X235115874Y-67948124D01*
X235240871Y-68123000D01*
X236083000Y-68123000D01*
X236083000Y-67282046D01*
X235908126Y-67155881D01*
X235853136Y-67172554D01*
X235649794Y-67262877D01*
X235467980Y-67391135D01*
X235314682Y-67552399D01*
X235195790Y-67740471D01*
X235115874Y-67948124D01*
X232488072Y-67948124D01*
X232488072Y-67650000D01*
X232475812Y-67525518D01*
X232439502Y-67405820D01*
X232380537Y-67295506D01*
X232301185Y-67198815D01*
X232204494Y-67119463D01*
X232094180Y-67060498D01*
X231974482Y-67024188D01*
X231850000Y-67011928D01*
X230150000Y-67011928D01*
X230025518Y-67024188D01*
X229905820Y-67060498D01*
X229795506Y-67119463D01*
X229698815Y-67198815D01*
X229619463Y-67295506D01*
X229560498Y-67405820D01*
X229536034Y-67486466D01*
X229460269Y-67402412D01*
X229226920Y-67228359D01*
X228964099Y-67103175D01*
X228816890Y-67058524D01*
X228587000Y-67179845D01*
X228333000Y-67179845D01*
X228103110Y-67058524D01*
X227955901Y-67103175D01*
X227693080Y-67228359D01*
X227459731Y-67402412D01*
X227264822Y-67618645D01*
X227195195Y-67735534D01*
X227073475Y-67553368D01*
X226866632Y-67346525D01*
X226623411Y-67184010D01*
X226353158Y-67072068D01*
X226066260Y-67015000D01*
X225773740Y-67015000D01*
X225486842Y-67072068D01*
X225216589Y-67184010D01*
X224973368Y-67346525D01*
X224766525Y-67553368D01*
X224650000Y-67727760D01*
X224533475Y-67553368D01*
X224326632Y-67346525D01*
X224083411Y-67184010D01*
X223813158Y-67072068D01*
X223526260Y-67015000D01*
X223233740Y-67015000D01*
X222946842Y-67072068D01*
X222676589Y-67184010D01*
X222433368Y-67346525D01*
X222226525Y-67553368D01*
X222110000Y-67727760D01*
X221993475Y-67553368D01*
X221786632Y-67346525D01*
X221543411Y-67184010D01*
X221273158Y-67072068D01*
X220986260Y-67015000D01*
X220693740Y-67015000D01*
X220406842Y-67072068D01*
X220136589Y-67184010D01*
X219893368Y-67346525D01*
X219686525Y-67553368D01*
X219570000Y-67727760D01*
X219453475Y-67553368D01*
X219246632Y-67346525D01*
X219003411Y-67184010D01*
X218733158Y-67072068D01*
X218446260Y-67015000D01*
X218153740Y-67015000D01*
X217866842Y-67072068D01*
X217596589Y-67184010D01*
X217353368Y-67346525D01*
X217146525Y-67553368D01*
X217030000Y-67727760D01*
X216913475Y-67553368D01*
X216706632Y-67346525D01*
X216463411Y-67184010D01*
X216193158Y-67072068D01*
X215906260Y-67015000D01*
X215613740Y-67015000D01*
X215326842Y-67072068D01*
X215056589Y-67184010D01*
X214813368Y-67346525D01*
X214606525Y-67553368D01*
X214490000Y-67727760D01*
X214373475Y-67553368D01*
X214166632Y-67346525D01*
X213923411Y-67184010D01*
X213653158Y-67072068D01*
X213366260Y-67015000D01*
X213073740Y-67015000D01*
X212786842Y-67072068D01*
X212516589Y-67184010D01*
X212273368Y-67346525D01*
X212066525Y-67553368D01*
X211950000Y-67727760D01*
X211833475Y-67553368D01*
X211626632Y-67346525D01*
X211383411Y-67184010D01*
X211113158Y-67072068D01*
X210826260Y-67015000D01*
X210533740Y-67015000D01*
X210246842Y-67072068D01*
X209976589Y-67184010D01*
X209733368Y-67346525D01*
X209526525Y-67553368D01*
X209410000Y-67727760D01*
X209293475Y-67553368D01*
X209086632Y-67346525D01*
X208843411Y-67184010D01*
X208573158Y-67072068D01*
X208286260Y-67015000D01*
X207993740Y-67015000D01*
X207706842Y-67072068D01*
X207436589Y-67184010D01*
X207193368Y-67346525D01*
X206986525Y-67553368D01*
X206870000Y-67727760D01*
X206753475Y-67553368D01*
X206546632Y-67346525D01*
X206303411Y-67184010D01*
X206033158Y-67072068D01*
X205746260Y-67015000D01*
X205453740Y-67015000D01*
X205166842Y-67072068D01*
X204896589Y-67184010D01*
X204653368Y-67346525D01*
X204446525Y-67553368D01*
X204330000Y-67727760D01*
X204213475Y-67553368D01*
X204006632Y-67346525D01*
X203763411Y-67184010D01*
X203493158Y-67072068D01*
X203206260Y-67015000D01*
X202913740Y-67015000D01*
X202626842Y-67072068D01*
X202356589Y-67184010D01*
X202113368Y-67346525D01*
X201906525Y-67553368D01*
X201744010Y-67796589D01*
X201632068Y-68066842D01*
X201575000Y-68353740D01*
X197037929Y-68353740D01*
X197037634Y-68350707D01*
X196847792Y-67721797D01*
X196538904Y-67142008D01*
X196533828Y-67134411D01*
X196095374Y-66834231D01*
X193929605Y-69000000D01*
X193943748Y-69014143D01*
X193764143Y-69193748D01*
X193750000Y-69179605D01*
X191584231Y-71345374D01*
X190410000Y-71345374D01*
X190410000Y-69110078D01*
X190462366Y-69649293D01*
X190652208Y-70278203D01*
X190961096Y-70857992D01*
X190966172Y-70865589D01*
X191404626Y-71165769D01*
X193570395Y-69000000D01*
X193556253Y-68985858D01*
X193735858Y-68806253D01*
X193750000Y-68820395D01*
X195915769Y-66654626D01*
X195615589Y-66216172D01*
X195036644Y-65905704D01*
X194408254Y-65714148D01*
X193866057Y-65660000D01*
X247389922Y-65660000D01*
X246850707Y-65712366D01*
%TA.AperFunction,Conductor*%
D23*
G36*
X246850707Y-65712366D02*
G01*
X246221797Y-65902208D01*
X245642008Y-66211096D01*
X245634411Y-66216172D01*
X245334231Y-66654626D01*
X247500000Y-68820395D01*
X247514143Y-68806253D01*
X247693748Y-68985858D01*
X247679605Y-69000000D01*
X249845374Y-71165769D01*
X250283828Y-70865589D01*
X250594296Y-70286644D01*
X250785852Y-69658254D01*
X250840000Y-69116057D01*
X250840001Y-124639932D01*
X250787634Y-124100707D01*
X250597792Y-123471797D01*
X250288904Y-122892008D01*
X250283828Y-122884411D01*
X249845374Y-122584231D01*
X247679605Y-124750000D01*
X247693748Y-124764143D01*
X247514143Y-124943748D01*
X247500000Y-124929605D01*
X245334231Y-127095374D01*
X245634411Y-127533828D01*
X246213356Y-127844296D01*
X246841746Y-128035852D01*
X247383943Y-128090000D01*
X209680029Y-128090000D01*
X209698608Y-128067362D01*
X209817929Y-127844127D01*
X209891407Y-127601904D01*
X209910000Y-127413123D01*
X209910000Y-126886878D01*
X209891407Y-126698097D01*
X209817929Y-126455874D01*
X209698608Y-126232638D01*
X209538028Y-126036972D01*
X209342362Y-125876392D01*
X209119127Y-125757071D01*
X208876904Y-125683593D01*
X208625000Y-125658783D01*
X208373097Y-125683593D01*
X208130874Y-125757071D01*
X207907639Y-125876392D01*
X207711973Y-126036972D01*
X207551392Y-126232638D01*
X207432071Y-126455873D01*
X207358593Y-126698096D01*
X207340000Y-126886877D01*
X207340000Y-127413122D01*
X207358593Y-127601903D01*
X207432071Y-127844126D01*
X207551392Y-128067361D01*
X207569971Y-128090000D01*
X202430029Y-128090000D01*
X202448608Y-128067362D01*
X202567929Y-127844127D01*
X202641407Y-127601904D01*
X202660000Y-127413123D01*
X202660000Y-126886878D01*
X202641407Y-126698097D01*
X202567929Y-126455874D01*
X202448608Y-126232638D01*
X202288028Y-126036972D01*
X202092362Y-125876392D01*
X201869127Y-125757071D01*
X201626904Y-125683593D01*
X201375000Y-125658783D01*
X201123097Y-125683593D01*
X200880874Y-125757071D01*
X200657639Y-125876392D01*
X200461973Y-126036972D01*
X200301392Y-126232638D01*
X200182071Y-126455873D01*
X200108593Y-126698096D01*
X200090000Y-126886877D01*
X200090000Y-127413122D01*
X200108593Y-127601903D01*
X200182071Y-127844126D01*
X200301392Y-128067361D01*
X200319971Y-128090000D01*
X193860078Y-128090000D01*
X194399293Y-128037634D01*
X195028203Y-127847792D01*
X195607992Y-127538904D01*
X195615589Y-127533828D01*
X195915769Y-127095374D01*
X193750000Y-124929605D01*
X193735858Y-124943748D01*
X193556253Y-124764143D01*
X193570395Y-124750000D01*
X193929605Y-124750000D01*
X196095374Y-126915769D01*
X196533828Y-126615589D01*
X196844296Y-126036644D01*
X197035852Y-125408254D01*
X197101134Y-124754569D01*
X197064121Y-124373439D01*
X201290000Y-124373439D01*
X201290000Y-124626561D01*
X201339381Y-124874821D01*
X201436247Y-125108676D01*
X201576875Y-125319140D01*
X201755860Y-125498125D01*
X201966324Y-125638753D01*
X202200179Y-125735619D01*
X202448439Y-125785000D01*
X202701561Y-125785000D01*
X202949821Y-125735619D01*
X203183676Y-125638753D01*
X203394140Y-125498125D01*
X203573125Y-125319140D01*
X203713753Y-125108676D01*
X203810619Y-124874821D01*
X203860000Y-124626561D01*
X203860000Y-124373439D01*
X206140000Y-124373439D01*
X206140000Y-124626561D01*
X206189381Y-124874821D01*
X206286247Y-125108676D01*
X206426875Y-125319140D01*
X206605860Y-125498125D01*
X206816324Y-125638753D01*
X207050179Y-125735619D01*
X207298439Y-125785000D01*
X207551561Y-125785000D01*
X207799821Y-125735619D01*
X208033676Y-125638753D01*
X208244140Y-125498125D01*
X208423125Y-125319140D01*
X208563753Y-125108676D01*
X208660619Y-124874821D01*
X208705337Y-124650000D01*
X210261928Y-124650000D01*
X210261928Y-126350000D01*
X210274188Y-126474482D01*
X210310498Y-126594180D01*
X210369463Y-126704494D01*
X210448815Y-126801185D01*
X210545506Y-126880537D01*
X210655820Y-126939502D01*
X210775518Y-126975812D01*
X210900000Y-126988072D01*
X212600000Y-126988072D01*
X212724482Y-126975812D01*
X212844180Y-126939502D01*
X212954494Y-126880537D01*
X213051185Y-126801185D01*
X213130537Y-126704494D01*
X213189502Y-126594180D01*
X213213966Y-126513534D01*
X213289731Y-126597588D01*
X213523080Y-126771641D01*
X213785901Y-126896825D01*
X213933110Y-126941476D01*
X214163000Y-126820155D01*
X214163000Y-125627000D01*
X214143000Y-125627000D01*
X214143000Y-125373000D01*
X214163000Y-125373000D01*
X214163000Y-124179845D01*
X214417000Y-124179845D01*
X214417000Y-125373000D01*
X214437000Y-125373000D01*
X214437000Y-125627000D01*
X214417000Y-125627000D01*
X214417000Y-126820155D01*
X214646890Y-126941476D01*
X214794099Y-126896825D01*
X215056920Y-126771641D01*
X215290269Y-126597588D01*
X215485178Y-126381355D01*
X215554805Y-126264466D01*
X215676525Y-126446632D01*
X215883368Y-126653475D01*
X216126589Y-126815990D01*
X216396842Y-126927932D01*
X216683740Y-126985000D01*
X216976260Y-126985000D01*
X217263158Y-126927932D01*
X217533411Y-126815990D01*
X217776632Y-126653475D01*
X217983475Y-126446632D01*
X218100000Y-126272240D01*
X218216525Y-126446632D01*
X218423368Y-126653475D01*
X218666589Y-126815990D01*
X218936842Y-126927932D01*
X219223740Y-126985000D01*
X219516260Y-126985000D01*
X219803158Y-126927932D01*
X220073411Y-126815990D01*
X220316632Y-126653475D01*
X220523475Y-126446632D01*
X220640000Y-126272240D01*
X220756525Y-126446632D01*
X220963368Y-126653475D01*
X221206589Y-126815990D01*
X221476842Y-126927932D01*
X221763740Y-126985000D01*
X222056260Y-126985000D01*
X222343158Y-126927932D01*
X222613411Y-126815990D01*
X222856632Y-126653475D01*
X223063475Y-126446632D01*
X223180000Y-126272240D01*
X223296525Y-126446632D01*
X223503368Y-126653475D01*
X223746589Y-126815990D01*
X224016842Y-126927932D01*
X224303740Y-126985000D01*
X224596260Y-126985000D01*
X224883158Y-126927932D01*
X225153411Y-126815990D01*
X225396632Y-126653475D01*
X225603475Y-126446632D01*
X225720000Y-126272240D01*
X225836525Y-126446632D01*
X226043368Y-126653475D01*
X226286589Y-126815990D01*
X226556842Y-126927932D01*
X226843740Y-126985000D01*
X227136260Y-126985000D01*
X227423158Y-126927932D01*
X227693411Y-126815990D01*
X227936632Y-126653475D01*
X228143475Y-126446632D01*
X228260000Y-126272240D01*
X228376525Y-126446632D01*
X228583368Y-126653475D01*
X228826589Y-126815990D01*
X229096842Y-126927932D01*
X229383740Y-126985000D01*
X229676260Y-126985000D01*
X229963158Y-126927932D01*
X230233411Y-126815990D01*
X230476632Y-126653475D01*
X230683475Y-126446632D01*
X230845990Y-126203411D01*
X230957932Y-125933158D01*
X231015000Y-125646260D01*
X231015000Y-125353740D01*
X230957932Y-125066842D01*
X230845990Y-124796589D01*
X230683475Y-124553368D01*
X230476632Y-124346525D01*
X230233411Y-124184010D01*
X229963158Y-124072068D01*
X229676260Y-124015000D01*
X229383740Y-124015000D01*
X229096842Y-124072068D01*
X228826589Y-124184010D01*
X228583368Y-124346525D01*
X228376525Y-124553368D01*
X228260000Y-124727760D01*
X228143475Y-124553368D01*
X227936632Y-124346525D01*
X227693411Y-124184010D01*
X227423158Y-124072068D01*
X227136260Y-124015000D01*
X226843740Y-124015000D01*
X226556842Y-124072068D01*
X226286589Y-124184010D01*
X226043368Y-124346525D01*
X225836525Y-124553368D01*
X225720000Y-124727760D01*
X225603475Y-124553368D01*
X225396632Y-124346525D01*
X225153411Y-124184010D01*
X224883158Y-124072068D01*
X224596260Y-124015000D01*
X224303740Y-124015000D01*
X224016842Y-124072068D01*
X223746589Y-124184010D01*
X223503368Y-124346525D01*
X223296525Y-124553368D01*
X223180000Y-124727760D01*
X223063475Y-124553368D01*
X222856632Y-124346525D01*
X222613411Y-124184010D01*
X222343158Y-124072068D01*
X222056260Y-124015000D01*
X221763740Y-124015000D01*
X221476842Y-124072068D01*
X221206589Y-124184010D01*
X220963368Y-124346525D01*
X220756525Y-124553368D01*
X220640000Y-124727760D01*
X220523475Y-124553368D01*
X220316632Y-124346525D01*
X220073411Y-124184010D01*
X219803158Y-124072068D01*
X219516260Y-124015000D01*
X219223740Y-124015000D01*
X218936842Y-124072068D01*
X218666589Y-124184010D01*
X218423368Y-124346525D01*
X218216525Y-124553368D01*
X218100000Y-124727760D01*
X217983475Y-124553368D01*
X217776632Y-124346525D01*
X217533411Y-124184010D01*
X217263158Y-124072068D01*
X216976260Y-124015000D01*
X216683740Y-124015000D01*
X216396842Y-124072068D01*
X216126589Y-124184010D01*
X215883368Y-124346525D01*
X215676525Y-124553368D01*
X215554805Y-124735534D01*
X215485178Y-124618645D01*
X215290269Y-124402412D01*
X215056920Y-124228359D01*
X214794099Y-124103175D01*
X214646890Y-124058524D01*
X214417000Y-124179845D01*
X214163000Y-124179845D01*
X213933110Y-124058524D01*
X213785901Y-124103175D01*
X213523080Y-124228359D01*
X213289731Y-124402412D01*
X213213966Y-124486466D01*
X213189502Y-124405820D01*
X213130537Y-124295506D01*
X213051185Y-124198815D01*
X212954494Y-124119463D01*
X212844180Y-124060498D01*
X212724482Y-124024188D01*
X212600000Y-124011928D01*
X210900000Y-124011928D01*
X210775518Y-124024188D01*
X210655820Y-124060498D01*
X210545506Y-124119463D01*
X210448815Y-124198815D01*
X210369463Y-124295506D01*
X210310498Y-124405820D01*
X210274188Y-124525518D01*
X210261928Y-124650000D01*
X208705337Y-124650000D01*
X208710000Y-124626561D01*
X208710000Y-124373439D01*
X208660619Y-124125179D01*
X208563753Y-123891324D01*
X208423125Y-123680860D01*
X208244140Y-123501875D01*
X208033676Y-123361247D01*
X207799821Y-123264381D01*
X207551561Y-123215000D01*
X207298439Y-123215000D01*
X207050179Y-123264381D01*
X206816324Y-123361247D01*
X206605860Y-123501875D01*
X206426875Y-123680860D01*
X206286247Y-123891324D01*
X206189381Y-124125179D01*
X206140000Y-124373439D01*
X203860000Y-124373439D01*
X203810619Y-124125179D01*
X203713753Y-123891324D01*
X203573125Y-123680860D01*
X203394140Y-123501875D01*
X203183676Y-123361247D01*
X202949821Y-123264381D01*
X202701561Y-123215000D01*
X202448439Y-123215000D01*
X202200179Y-123264381D01*
X201966324Y-123361247D01*
X201755860Y-123501875D01*
X201576875Y-123680860D01*
X201436247Y-123891324D01*
X201339381Y-124125179D01*
X201290000Y-124373439D01*
X197064121Y-124373439D01*
X197037634Y-124100707D01*
X196847792Y-123471797D01*
X196603049Y-123012408D01*
X241853000Y-123012408D01*
X241853000Y-123287592D01*
X241906686Y-123557490D01*
X242011995Y-123811727D01*
X242164880Y-124040535D01*
X242359465Y-124235120D01*
X242588273Y-124388005D01*
X242842510Y-124493314D01*
X243112408Y-124547000D01*
X243387592Y-124547000D01*
X243657490Y-124493314D01*
X243911727Y-124388005D01*
X244140535Y-124235120D01*
X244206408Y-124169247D01*
X244148866Y-124745431D01*
X244212366Y-125399293D01*
X244402208Y-126028203D01*
X244711096Y-126607992D01*
X244716172Y-126615589D01*
X245154626Y-126915769D01*
X247320395Y-124750000D01*
X245154626Y-122584231D01*
X244716172Y-122884411D01*
X244647000Y-123013399D01*
X244647000Y-123012408D01*
X244593314Y-122742510D01*
X244488005Y-122488273D01*
X244432114Y-122404626D01*
X245334231Y-122404626D01*
X247500000Y-124570395D01*
X249665769Y-122404626D01*
X249365589Y-121966172D01*
X248786644Y-121655704D01*
X248158254Y-121464148D01*
X247504569Y-121398866D01*
X246850707Y-121462366D01*
X246221797Y-121652208D01*
X245642008Y-121961096D01*
X245634411Y-121966172D01*
X245334231Y-122404626D01*
X244432114Y-122404626D01*
X244335120Y-122259465D01*
X244140535Y-122064880D01*
X243911727Y-121911995D01*
X243657490Y-121806686D01*
X243387592Y-121753000D01*
X243112408Y-121753000D01*
X242842510Y-121806686D01*
X242588273Y-121911995D01*
X242359465Y-122064880D01*
X242164880Y-122259465D01*
X242011995Y-122488273D01*
X241906686Y-122742510D01*
X241853000Y-123012408D01*
X196603049Y-123012408D01*
X196538904Y-122892008D01*
X196533828Y-122884411D01*
X196095374Y-122584231D01*
X193929605Y-124750000D01*
X193570395Y-124750000D01*
X191404626Y-122584231D01*
X190966172Y-122884411D01*
X190655704Y-123463356D01*
X190464148Y-124091746D01*
X190410000Y-124633943D01*
X190410000Y-122404626D01*
X191584231Y-122404626D01*
X193750000Y-124570395D01*
X195915769Y-122404626D01*
X195615589Y-121966172D01*
X195036644Y-121655704D01*
X194408254Y-121464148D01*
X193754569Y-121398866D01*
X193100707Y-121462366D01*
X192471797Y-121652208D01*
X191892008Y-121961096D01*
X191884411Y-121966172D01*
X191584231Y-122404626D01*
X190410000Y-122404626D01*
X190410000Y-119698061D01*
X223465000Y-119698061D01*
X223465000Y-119901939D01*
X223504774Y-120101898D01*
X223582795Y-120290256D01*
X223696063Y-120459774D01*
X223840226Y-120603937D01*
X224009744Y-120717205D01*
X224198102Y-120795226D01*
X224398061Y-120835000D01*
X224601939Y-120835000D01*
X224801898Y-120795226D01*
X224990256Y-120717205D01*
X225159774Y-120603937D01*
X225303937Y-120459774D01*
X225417205Y-120290256D01*
X225495226Y-120101898D01*
X225535000Y-119901939D01*
X225535000Y-119698061D01*
X225495226Y-119498102D01*
X225417205Y-119309744D01*
X225303937Y-119140226D01*
X225159774Y-118996063D01*
X224990256Y-118882795D01*
X224801898Y-118804774D01*
X224601939Y-118765000D01*
X224398061Y-118765000D01*
X224198102Y-118804774D01*
X224009744Y-118882795D01*
X223840226Y-118996063D01*
X223696063Y-119140226D01*
X223582795Y-119309744D01*
X223504774Y-119498102D01*
X223465000Y-119698061D01*
X190410000Y-119698061D01*
X190410000Y-111548061D01*
X248265000Y-111548061D01*
X248265000Y-111751939D01*
X248304774Y-111951898D01*
X248382795Y-112140256D01*
X248496063Y-112309774D01*
X248640226Y-112453937D01*
X248809744Y-112567205D01*
X248998102Y-112645226D01*
X249198061Y-112685000D01*
X249401939Y-112685000D01*
X249601898Y-112645226D01*
X249790256Y-112567205D01*
X249959774Y-112453937D01*
X250103937Y-112309774D01*
X250217205Y-112140256D01*
X250295226Y-111951898D01*
X250335000Y-111751939D01*
X250335000Y-111548061D01*
X250295226Y-111348102D01*
X250217205Y-111159744D01*
X250103937Y-110990226D01*
X249959774Y-110846063D01*
X249790256Y-110732795D01*
X249601898Y-110654774D01*
X249401939Y-110615000D01*
X249198061Y-110615000D01*
X248998102Y-110654774D01*
X248809744Y-110732795D01*
X248640226Y-110846063D01*
X248496063Y-110990226D01*
X248382795Y-111159744D01*
X248304774Y-111348102D01*
X248265000Y-111548061D01*
X190410000Y-111548061D01*
X190410000Y-108298061D01*
X203615000Y-108298061D01*
X203615000Y-108501939D01*
X203654774Y-108701898D01*
X203732795Y-108890256D01*
X203846063Y-109059774D01*
X203990226Y-109203937D01*
X204159744Y-109317205D01*
X204348102Y-109395226D01*
X204548061Y-109435000D01*
X204751939Y-109435000D01*
X204951898Y-109395226D01*
X205140256Y-109317205D01*
X205309774Y-109203937D01*
X205453937Y-109059774D01*
X205567205Y-108890256D01*
X205645226Y-108701898D01*
X205685000Y-108501939D01*
X205685000Y-108298061D01*
X205645226Y-108098102D01*
X205567205Y-107909744D01*
X205453937Y-107740226D01*
X205311772Y-107598061D01*
X206865000Y-107598061D01*
X206865000Y-107801939D01*
X206904774Y-108001898D01*
X206982795Y-108190256D01*
X207096063Y-108359774D01*
X207240226Y-108503937D01*
X207409744Y-108617205D01*
X207598102Y-108695226D01*
X207798061Y-108735000D01*
X208001939Y-108735000D01*
X208201898Y-108695226D01*
X208390256Y-108617205D01*
X208559774Y-108503937D01*
X208703937Y-108359774D01*
X208817205Y-108190256D01*
X208895226Y-108001898D01*
X208935000Y-107801939D01*
X208935000Y-107598061D01*
X208895226Y-107398102D01*
X208850490Y-107290102D01*
X208917205Y-107190256D01*
X208995226Y-107001898D01*
X209035000Y-106801939D01*
X209035000Y-106598061D01*
X209515000Y-106598061D01*
X209515000Y-106801939D01*
X209554774Y-107001898D01*
X209632795Y-107190256D01*
X209746063Y-107359774D01*
X209890226Y-107503937D01*
X210059744Y-107617205D01*
X210248102Y-107695226D01*
X210448061Y-107735000D01*
X210651939Y-107735000D01*
X210851898Y-107695226D01*
X211040256Y-107617205D01*
X211209774Y-107503937D01*
X211353937Y-107359774D01*
X211467205Y-107190256D01*
X211545226Y-107001898D01*
X211585000Y-106801939D01*
X211585000Y-106798061D01*
X212165000Y-106798061D01*
X212165000Y-107001939D01*
X212204774Y-107201898D01*
X212282795Y-107390256D01*
X212396063Y-107559774D01*
X212540226Y-107703937D01*
X212709744Y-107817205D01*
X212898102Y-107895226D01*
X213098061Y-107935000D01*
X213301939Y-107935000D01*
X213443192Y-107906903D01*
X213540226Y-108003937D01*
X213709744Y-108117205D01*
X213898102Y-108195226D01*
X214098061Y-108235000D01*
X214301939Y-108235000D01*
X214501898Y-108195226D01*
X214690256Y-108117205D01*
X214859774Y-108003937D01*
X215003937Y-107859774D01*
X215117205Y-107690256D01*
X215195226Y-107501898D01*
X215235000Y-107301939D01*
X215235000Y-107098061D01*
X215195226Y-106898102D01*
X215117205Y-106709744D01*
X215003937Y-106540226D01*
X214859774Y-106396063D01*
X214690256Y-106282795D01*
X214501898Y-106204774D01*
X214301939Y-106165000D01*
X214098061Y-106165000D01*
X213956808Y-106193097D01*
X213859774Y-106096063D01*
X213690256Y-105982795D01*
X213501898Y-105904774D01*
X213301939Y-105865000D01*
X213098061Y-105865000D01*
X212898102Y-105904774D01*
X212709744Y-105982795D01*
X212540226Y-106096063D01*
X212396063Y-106240226D01*
X212282795Y-106409744D01*
X212204774Y-106598102D01*
X212165000Y-106798061D01*
X211585000Y-106798061D01*
X211585000Y-106598061D01*
X211545226Y-106398102D01*
X211467205Y-106209744D01*
X211353937Y-106040226D01*
X211209774Y-105896063D01*
X211040256Y-105782795D01*
X210851898Y-105704774D01*
X210651939Y-105665000D01*
X210448061Y-105665000D01*
X210248102Y-105704774D01*
X210059744Y-105782795D01*
X209890226Y-105896063D01*
X209746063Y-106040226D01*
X209632795Y-106209744D01*
X209554774Y-106398102D01*
X209515000Y-106598061D01*
X209035000Y-106598061D01*
X208995226Y-106398102D01*
X208917205Y-106209744D01*
X208803937Y-106040226D01*
X208659774Y-105896063D01*
X208490256Y-105782795D01*
X208301898Y-105704774D01*
X208101939Y-105665000D01*
X207898061Y-105665000D01*
X207698102Y-105704774D01*
X207509744Y-105782795D01*
X207340226Y-105896063D01*
X207196063Y-106040226D01*
X207082795Y-106209744D01*
X207004774Y-106398102D01*
X206965000Y-106598061D01*
X206965000Y-106801939D01*
X207004774Y-107001898D01*
X207049510Y-107109898D01*
X206982795Y-107209744D01*
X206904774Y-107398102D01*
X206865000Y-107598061D01*
X205311772Y-107598061D01*
X205309774Y-107596063D01*
X205140256Y-107482795D01*
X204951898Y-107404774D01*
X204751939Y-107365000D01*
X204548061Y-107365000D01*
X204348102Y-107404774D01*
X204159744Y-107482795D01*
X203990226Y-107596063D01*
X203846063Y-107740226D01*
X203732795Y-107909744D01*
X203654774Y-108098102D01*
X203615000Y-108298061D01*
X190410000Y-108298061D01*
X190410000Y-104348061D01*
X212315000Y-104348061D01*
X212315000Y-104551939D01*
X212354774Y-104751898D01*
X212432795Y-104940256D01*
X212546063Y-105109774D01*
X212690226Y-105253937D01*
X212859744Y-105367205D01*
X213048102Y-105445226D01*
X213248061Y-105485000D01*
X213451939Y-105485000D01*
X213651898Y-105445226D01*
X213840256Y-105367205D01*
X214009774Y-105253937D01*
X214080059Y-105183652D01*
X214082795Y-105190256D01*
X214196063Y-105359774D01*
X214340226Y-105503937D01*
X214509744Y-105617205D01*
X214665000Y-105681515D01*
X214665000Y-105801939D01*
X214704774Y-106001898D01*
X214782795Y-106190256D01*
X214896063Y-106359774D01*
X215040226Y-106503937D01*
X215209744Y-106617205D01*
X215398102Y-106695226D01*
X215598061Y-106735000D01*
X215801939Y-106735000D01*
X216001898Y-106695226D01*
X216190256Y-106617205D01*
X216359774Y-106503937D01*
X216503937Y-106359774D01*
X216617205Y-106190256D01*
X216695226Y-106001898D01*
X216735000Y-105801939D01*
X216735000Y-105598061D01*
X216695226Y-105398102D01*
X216617205Y-105209744D01*
X216503937Y-105040226D01*
X216361772Y-104898061D01*
X217065000Y-104898061D01*
X217065000Y-105101939D01*
X217104774Y-105301898D01*
X217182795Y-105490256D01*
X217296063Y-105659774D01*
X217440226Y-105803937D01*
X217609744Y-105917205D01*
X217798102Y-105995226D01*
X217998061Y-106035000D01*
X218201939Y-106035000D01*
X218401898Y-105995226D01*
X218590256Y-105917205D01*
X218759774Y-105803937D01*
X218903937Y-105659774D01*
X219017205Y-105490256D01*
X219095226Y-105301898D01*
X219135000Y-105101939D01*
X219135000Y-104898061D01*
X219095226Y-104698102D01*
X219017205Y-104509744D01*
X218903937Y-104340226D01*
X218759774Y-104196063D01*
X218590256Y-104082795D01*
X218401898Y-104004774D01*
X218201939Y-103965000D01*
X217998061Y-103965000D01*
X217798102Y-104004774D01*
X217609744Y-104082795D01*
X217440226Y-104196063D01*
X217296063Y-104340226D01*
X217182795Y-104509744D01*
X217104774Y-104698102D01*
X217065000Y-104898061D01*
X216361772Y-104898061D01*
X216359774Y-104896063D01*
X216190256Y-104782795D01*
X216035000Y-104718485D01*
X216035000Y-104598061D01*
X215995226Y-104398102D01*
X215917205Y-104209744D01*
X215803937Y-104040226D01*
X215659774Y-103896063D01*
X215490256Y-103782795D01*
X215301898Y-103704774D01*
X215101939Y-103665000D01*
X214898061Y-103665000D01*
X214698102Y-103704774D01*
X214509744Y-103782795D01*
X214340226Y-103896063D01*
X214269941Y-103966348D01*
X214267205Y-103959744D01*
X214153937Y-103790226D01*
X214009774Y-103646063D01*
X213840256Y-103532795D01*
X213651898Y-103454774D01*
X213451939Y-103415000D01*
X213248061Y-103415000D01*
X213048102Y-103454774D01*
X212859744Y-103532795D01*
X212690226Y-103646063D01*
X212546063Y-103790226D01*
X212432795Y-103959744D01*
X212354774Y-104148102D01*
X212315000Y-104348061D01*
X190410000Y-104348061D01*
X190410000Y-103048061D01*
X203745000Y-103048061D01*
X203745000Y-103251939D01*
X203784774Y-103451898D01*
X203862795Y-103640256D01*
X203976063Y-103809774D01*
X204120226Y-103953937D01*
X204289744Y-104067205D01*
X204478102Y-104145226D01*
X204678061Y-104185000D01*
X204881939Y-104185000D01*
X205081898Y-104145226D01*
X205270256Y-104067205D01*
X205439774Y-103953937D01*
X205583937Y-103809774D01*
X205697205Y-103640256D01*
X205775226Y-103451898D01*
X205815000Y-103251939D01*
X205815000Y-103048061D01*
X205775226Y-102848102D01*
X205697205Y-102659744D01*
X205583937Y-102490226D01*
X205439774Y-102346063D01*
X205270256Y-102232795D01*
X205081898Y-102154774D01*
X204881939Y-102115000D01*
X204678061Y-102115000D01*
X204478102Y-102154774D01*
X204289744Y-102232795D01*
X204120226Y-102346063D01*
X203976063Y-102490226D01*
X203862795Y-102659744D01*
X203784774Y-102848102D01*
X203745000Y-103048061D01*
X190410000Y-103048061D01*
X190410000Y-102098061D01*
X206965000Y-102098061D01*
X206965000Y-102301939D01*
X207004774Y-102501898D01*
X207082795Y-102690256D01*
X207196063Y-102859774D01*
X207340226Y-103003937D01*
X207509744Y-103117205D01*
X207698102Y-103195226D01*
X207898061Y-103235000D01*
X208101939Y-103235000D01*
X208301898Y-103195226D01*
X208490256Y-103117205D01*
X208659774Y-103003937D01*
X208803937Y-102859774D01*
X208917205Y-102690256D01*
X208995226Y-102501898D01*
X209035000Y-102301939D01*
X209035000Y-102198061D01*
X212165000Y-102198061D01*
X212165000Y-102401939D01*
X212204774Y-102601898D01*
X212282795Y-102790256D01*
X212396063Y-102959774D01*
X212540226Y-103103937D01*
X212709744Y-103217205D01*
X212898102Y-103295226D01*
X213098061Y-103335000D01*
X213301939Y-103335000D01*
X213501898Y-103295226D01*
X213690256Y-103217205D01*
X213859774Y-103103937D01*
X214003937Y-102959774D01*
X214117205Y-102790256D01*
X214195226Y-102601898D01*
X214235000Y-102401939D01*
X214235000Y-102398061D01*
X225415000Y-102398061D01*
X225415000Y-102601939D01*
X225454774Y-102801898D01*
X225532795Y-102990256D01*
X225646063Y-103159774D01*
X225736289Y-103250000D01*
X225646063Y-103340226D01*
X225532795Y-103509744D01*
X225454774Y-103698102D01*
X225415000Y-103898061D01*
X225415000Y-104101939D01*
X225454774Y-104301898D01*
X225532795Y-104490256D01*
X225646063Y-104659774D01*
X225790226Y-104803937D01*
X225959744Y-104917205D01*
X226148102Y-104995226D01*
X226348061Y-105035000D01*
X226551939Y-105035000D01*
X226751898Y-104995226D01*
X226940256Y-104917205D01*
X227109774Y-104803937D01*
X227253937Y-104659774D01*
X227367205Y-104490256D01*
X227445226Y-104301898D01*
X227485000Y-104101939D01*
X227485000Y-103898061D01*
X227445226Y-103698102D01*
X227367205Y-103509744D01*
X227253937Y-103340226D01*
X227163711Y-103250000D01*
X227253937Y-103159774D01*
X227367205Y-102990256D01*
X227445226Y-102801898D01*
X227485000Y-102601939D01*
X227485000Y-102398061D01*
X227445226Y-102198102D01*
X227367205Y-102009744D01*
X227253937Y-101840226D01*
X227109774Y-101696063D01*
X226940256Y-101582795D01*
X226751898Y-101504774D01*
X226551939Y-101465000D01*
X226348061Y-101465000D01*
X226148102Y-101504774D01*
X225959744Y-101582795D01*
X225790226Y-101696063D01*
X225646063Y-101840226D01*
X225532795Y-102009744D01*
X225454774Y-102198102D01*
X225415000Y-102398061D01*
X214235000Y-102398061D01*
X214235000Y-102198061D01*
X214195226Y-101998102D01*
X214117205Y-101809744D01*
X214003937Y-101640226D01*
X213859774Y-101496063D01*
X213713104Y-101398061D01*
X227265000Y-101398061D01*
X227265000Y-101601939D01*
X227304774Y-101801898D01*
X227382795Y-101990256D01*
X227496063Y-102159774D01*
X227640226Y-102303937D01*
X227809744Y-102417205D01*
X227998102Y-102495226D01*
X228198061Y-102535000D01*
X228401939Y-102535000D01*
X228601898Y-102495226D01*
X228790256Y-102417205D01*
X228925000Y-102327172D01*
X229059744Y-102417205D01*
X229248102Y-102495226D01*
X229448061Y-102535000D01*
X229651939Y-102535000D01*
X229851898Y-102495226D01*
X230040256Y-102417205D01*
X230209774Y-102303937D01*
X230353937Y-102159774D01*
X230467205Y-101990256D01*
X230545226Y-101801898D01*
X230585000Y-101601939D01*
X230585000Y-101398061D01*
X230545226Y-101198102D01*
X230467205Y-101009744D01*
X230353937Y-100840226D01*
X230209774Y-100696063D01*
X230040256Y-100582795D01*
X229851898Y-100504774D01*
X229818150Y-100498061D01*
X248215000Y-100498061D01*
X248215000Y-100701939D01*
X248254774Y-100901898D01*
X248332795Y-101090256D01*
X248446063Y-101259774D01*
X248590226Y-101403937D01*
X248759744Y-101517205D01*
X248948102Y-101595226D01*
X249148061Y-101635000D01*
X249351939Y-101635000D01*
X249551898Y-101595226D01*
X249740256Y-101517205D01*
X249909774Y-101403937D01*
X250053937Y-101259774D01*
X250167205Y-101090256D01*
X250245226Y-100901898D01*
X250285000Y-100701939D01*
X250285000Y-100498061D01*
X250245226Y-100298102D01*
X250167205Y-100109744D01*
X250053937Y-99940226D01*
X249909774Y-99796063D01*
X249740256Y-99682795D01*
X249551898Y-99604774D01*
X249351939Y-99565000D01*
X249148061Y-99565000D01*
X248948102Y-99604774D01*
X248759744Y-99682795D01*
X248590226Y-99796063D01*
X248446063Y-99940226D01*
X248332795Y-100109744D01*
X248254774Y-100298102D01*
X248215000Y-100498061D01*
X229818150Y-100498061D01*
X229651939Y-100465000D01*
X229448061Y-100465000D01*
X229248102Y-100504774D01*
X229059744Y-100582795D01*
X228925000Y-100672828D01*
X228790256Y-100582795D01*
X228601898Y-100504774D01*
X228401939Y-100465000D01*
X228198061Y-100465000D01*
X227998102Y-100504774D01*
X227809744Y-100582795D01*
X227640226Y-100696063D01*
X227496063Y-100840226D01*
X227382795Y-101009744D01*
X227304774Y-101198102D01*
X227265000Y-101398061D01*
X213713104Y-101398061D01*
X213690256Y-101382795D01*
X213501898Y-101304774D01*
X213301939Y-101265000D01*
X213098061Y-101265000D01*
X212898102Y-101304774D01*
X212709744Y-101382795D01*
X212540226Y-101496063D01*
X212396063Y-101640226D01*
X212282795Y-101809744D01*
X212204774Y-101998102D01*
X212165000Y-102198061D01*
X209035000Y-102198061D01*
X209035000Y-102098061D01*
X208995226Y-101898102D01*
X208917205Y-101709744D01*
X208803937Y-101540226D01*
X208659774Y-101396063D01*
X208490256Y-101282795D01*
X208301898Y-101204774D01*
X208101939Y-101165000D01*
X207898061Y-101165000D01*
X207698102Y-101204774D01*
X207509744Y-101282795D01*
X207340226Y-101396063D01*
X207196063Y-101540226D01*
X207082795Y-101709744D01*
X207004774Y-101898102D01*
X206965000Y-102098061D01*
X190410000Y-102098061D01*
X190410000Y-96898061D01*
X192265000Y-96898061D01*
X192265000Y-97101939D01*
X192304774Y-97301898D01*
X192382795Y-97490256D01*
X192496063Y-97659774D01*
X192640226Y-97803937D01*
X192809744Y-97917205D01*
X192998102Y-97995226D01*
X193022103Y-98000000D01*
X192998102Y-98004774D01*
X192809744Y-98082795D01*
X192640226Y-98196063D01*
X192496063Y-98340226D01*
X192382795Y-98509744D01*
X192304774Y-98698102D01*
X192265000Y-98898061D01*
X192265000Y-99101939D01*
X192304774Y-99301898D01*
X192382795Y-99490256D01*
X192496063Y-99659774D01*
X192640226Y-99803937D01*
X192809744Y-99917205D01*
X192998102Y-99995226D01*
X193198061Y-100035000D01*
X193401939Y-100035000D01*
X193601898Y-99995226D01*
X193790256Y-99917205D01*
X193959774Y-99803937D01*
X194103937Y-99659774D01*
X194217205Y-99490256D01*
X194295226Y-99301898D01*
X194335000Y-99101939D01*
X194335000Y-98898061D01*
X194295226Y-98698102D01*
X194217205Y-98509744D01*
X194209399Y-98498061D01*
X215665000Y-98498061D01*
X215665000Y-98701939D01*
X215704774Y-98901898D01*
X215782795Y-99090256D01*
X215896063Y-99259774D01*
X216040226Y-99403937D01*
X216209744Y-99517205D01*
X216398102Y-99595226D01*
X216598061Y-99635000D01*
X216801939Y-99635000D01*
X217001898Y-99595226D01*
X217190256Y-99517205D01*
X217359774Y-99403937D01*
X217503937Y-99259774D01*
X217617205Y-99090256D01*
X217695226Y-98901898D01*
X217735000Y-98701939D01*
X217735000Y-98498061D01*
X217695226Y-98298102D01*
X217617205Y-98109744D01*
X217503937Y-97940226D01*
X217461772Y-97898061D01*
X222465000Y-97898061D01*
X222465000Y-98101939D01*
X222504774Y-98301898D01*
X222582795Y-98490256D01*
X222696063Y-98659774D01*
X222840226Y-98803937D01*
X223009744Y-98917205D01*
X223198102Y-98995226D01*
X223398061Y-99035000D01*
X223601939Y-99035000D01*
X223801898Y-98995226D01*
X223915763Y-98948061D01*
X224465000Y-98948061D01*
X224465000Y-99151939D01*
X224504774Y-99351898D01*
X224582795Y-99540256D01*
X224696063Y-99709774D01*
X224840226Y-99853937D01*
X225009744Y-99967205D01*
X225198102Y-100045226D01*
X225398061Y-100085000D01*
X225601939Y-100085000D01*
X225801898Y-100045226D01*
X225990256Y-99967205D01*
X226159774Y-99853937D01*
X226303937Y-99709774D01*
X226382849Y-99591673D01*
X226404774Y-99701898D01*
X226482795Y-99890256D01*
X226596063Y-100059774D01*
X226740226Y-100203937D01*
X226909744Y-100317205D01*
X227098102Y-100395226D01*
X227298061Y-100435000D01*
X227501939Y-100435000D01*
X227701898Y-100395226D01*
X227890256Y-100317205D01*
X228059774Y-100203937D01*
X228203937Y-100059774D01*
X228317205Y-99890256D01*
X228395226Y-99701898D01*
X228435000Y-99501939D01*
X228435000Y-99298061D01*
X228395226Y-99098102D01*
X228317205Y-98909744D01*
X228203937Y-98740226D01*
X228059774Y-98596063D01*
X227912334Y-98497547D01*
X227917205Y-98490256D01*
X227995226Y-98301898D01*
X228035000Y-98101939D01*
X228035000Y-97898061D01*
X227995226Y-97698102D01*
X227917205Y-97509744D01*
X227803937Y-97340226D01*
X227659774Y-97196063D01*
X227490256Y-97082795D01*
X227301898Y-97004774D01*
X227101939Y-96965000D01*
X226898061Y-96965000D01*
X226698102Y-97004774D01*
X226509744Y-97082795D01*
X226340226Y-97196063D01*
X226196063Y-97340226D01*
X226082795Y-97509744D01*
X226004774Y-97698102D01*
X225965000Y-97898061D01*
X225965000Y-98101939D01*
X225969421Y-98124165D01*
X225801898Y-98054774D01*
X225601939Y-98015000D01*
X225398061Y-98015000D01*
X225198102Y-98054774D01*
X225009744Y-98132795D01*
X224840226Y-98246063D01*
X224696063Y-98390226D01*
X224582795Y-98559744D01*
X224504774Y-98748102D01*
X224465000Y-98948061D01*
X223915763Y-98948061D01*
X223990256Y-98917205D01*
X224159774Y-98803937D01*
X224303937Y-98659774D01*
X224417205Y-98490256D01*
X224495226Y-98301898D01*
X224535000Y-98101939D01*
X224535000Y-97898061D01*
X224495226Y-97698102D01*
X224417205Y-97509744D01*
X224303937Y-97340226D01*
X224159774Y-97196063D01*
X223990256Y-97082795D01*
X223801898Y-97004774D01*
X223601939Y-96965000D01*
X223398061Y-96965000D01*
X223198102Y-97004774D01*
X223009744Y-97082795D01*
X222840226Y-97196063D01*
X222696063Y-97340226D01*
X222582795Y-97509744D01*
X222504774Y-97698102D01*
X222465000Y-97898061D01*
X217461772Y-97898061D01*
X217359774Y-97796063D01*
X217190256Y-97682795D01*
X217001898Y-97604774D01*
X216801939Y-97565000D01*
X216598061Y-97565000D01*
X216398102Y-97604774D01*
X216209744Y-97682795D01*
X216040226Y-97796063D01*
X215896063Y-97940226D01*
X215782795Y-98109744D01*
X215704774Y-98298102D01*
X215665000Y-98498061D01*
X194209399Y-98498061D01*
X194103937Y-98340226D01*
X193959774Y-98196063D01*
X193790256Y-98082795D01*
X193601898Y-98004774D01*
X193577897Y-98000000D01*
X193601898Y-97995226D01*
X193790256Y-97917205D01*
X193959774Y-97803937D01*
X194103937Y-97659774D01*
X194217205Y-97490256D01*
X194295226Y-97301898D01*
X194335000Y-97101939D01*
X194335000Y-96898061D01*
X194295226Y-96698102D01*
X194253788Y-96598061D01*
X211965000Y-96598061D01*
X211965000Y-96801939D01*
X212004774Y-97001898D01*
X212082795Y-97190256D01*
X212196063Y-97359774D01*
X212340226Y-97503937D01*
X212509744Y-97617205D01*
X212698102Y-97695226D01*
X212898061Y-97735000D01*
X213101939Y-97735000D01*
X213301898Y-97695226D01*
X213490256Y-97617205D01*
X213659774Y-97503937D01*
X213803937Y-97359774D01*
X213917205Y-97190256D01*
X213995226Y-97001898D01*
X214035000Y-96801939D01*
X214035000Y-96598061D01*
X213995226Y-96398102D01*
X213917205Y-96209744D01*
X213803937Y-96040226D01*
X213661772Y-95898061D01*
X217415000Y-95898061D01*
X217415000Y-96101939D01*
X217454774Y-96301898D01*
X217532795Y-96490256D01*
X217646063Y-96659774D01*
X217790226Y-96803937D01*
X217959744Y-96917205D01*
X218148102Y-96995226D01*
X218348061Y-97035000D01*
X218551939Y-97035000D01*
X218751898Y-96995226D01*
X218940256Y-96917205D01*
X219109774Y-96803937D01*
X219253937Y-96659774D01*
X219367205Y-96490256D01*
X219445226Y-96301898D01*
X219485000Y-96101939D01*
X219485000Y-95898061D01*
X224965000Y-95898061D01*
X224965000Y-96101939D01*
X225004774Y-96301898D01*
X225082795Y-96490256D01*
X225196063Y-96659774D01*
X225340226Y-96803937D01*
X225509744Y-96917205D01*
X225698102Y-96995226D01*
X225898061Y-97035000D01*
X226101939Y-97035000D01*
X226301898Y-96995226D01*
X226490256Y-96917205D01*
X226659774Y-96803937D01*
X226803937Y-96659774D01*
X226917205Y-96490256D01*
X226995226Y-96301898D01*
X227035000Y-96101939D01*
X227035000Y-95898061D01*
X226995226Y-95698102D01*
X226917205Y-95509744D01*
X226803937Y-95340226D01*
X226659774Y-95196063D01*
X226490256Y-95082795D01*
X226301898Y-95004774D01*
X226101939Y-94965000D01*
X225898061Y-94965000D01*
X225698102Y-95004774D01*
X225509744Y-95082795D01*
X225340226Y-95196063D01*
X225196063Y-95340226D01*
X225082795Y-95509744D01*
X225004774Y-95698102D01*
X224965000Y-95898061D01*
X219485000Y-95898061D01*
X219445226Y-95698102D01*
X219367205Y-95509744D01*
X219253937Y-95340226D01*
X219109774Y-95196063D01*
X218940256Y-95082795D01*
X218751898Y-95004774D01*
X218551939Y-94965000D01*
X218348061Y-94965000D01*
X218148102Y-95004774D01*
X217959744Y-95082795D01*
X217790226Y-95196063D01*
X217646063Y-95340226D01*
X217532795Y-95509744D01*
X217454774Y-95698102D01*
X217415000Y-95898061D01*
X213661772Y-95898061D01*
X213659774Y-95896063D01*
X213490256Y-95782795D01*
X213301898Y-95704774D01*
X213101939Y-95665000D01*
X212898061Y-95665000D01*
X212698102Y-95704774D01*
X212509744Y-95782795D01*
X212340226Y-95896063D01*
X212196063Y-96040226D01*
X212082795Y-96209744D01*
X212004774Y-96398102D01*
X211965000Y-96598061D01*
X194253788Y-96598061D01*
X194217205Y-96509744D01*
X194103937Y-96340226D01*
X193959774Y-96196063D01*
X193790256Y-96082795D01*
X193601898Y-96004774D01*
X193401939Y-95965000D01*
X193198061Y-95965000D01*
X192998102Y-96004774D01*
X192809744Y-96082795D01*
X192640226Y-96196063D01*
X192496063Y-96340226D01*
X192382795Y-96509744D01*
X192304774Y-96698102D01*
X192265000Y-96898061D01*
X190410000Y-96898061D01*
X190410000Y-92598061D01*
X207265000Y-92598061D01*
X207265000Y-92801939D01*
X207304774Y-93001898D01*
X207382795Y-93190256D01*
X207496063Y-93359774D01*
X207640226Y-93503937D01*
X207809744Y-93617205D01*
X207998102Y-93695226D01*
X208198061Y-93735000D01*
X208401939Y-93735000D01*
X208463420Y-93722771D01*
X208532795Y-93890256D01*
X208646063Y-94059774D01*
X208790226Y-94203937D01*
X208959744Y-94317205D01*
X209148102Y-94395226D01*
X209348061Y-94435000D01*
X209551939Y-94435000D01*
X209751898Y-94395226D01*
X209940256Y-94317205D01*
X210109774Y-94203937D01*
X210253937Y-94059774D01*
X210367205Y-93890256D01*
X210445226Y-93701898D01*
X210485000Y-93501939D01*
X210485000Y-93298061D01*
X210445226Y-93098102D01*
X210367205Y-92909744D01*
X210253937Y-92740226D01*
X210109774Y-92596063D01*
X209940256Y-92482795D01*
X209751898Y-92404774D01*
X209551939Y-92365000D01*
X209348061Y-92365000D01*
X209286580Y-92377229D01*
X209217205Y-92209744D01*
X209142582Y-92098061D01*
X211365000Y-92098061D01*
X211365000Y-92301939D01*
X211404774Y-92501898D01*
X211482795Y-92690256D01*
X211596063Y-92859774D01*
X211740226Y-93003937D01*
X211909744Y-93117205D01*
X212098102Y-93195226D01*
X212298061Y-93235000D01*
X212501939Y-93235000D01*
X212701898Y-93195226D01*
X212890256Y-93117205D01*
X213059774Y-93003937D01*
X213203937Y-92859774D01*
X213317205Y-92690256D01*
X213395226Y-92501898D01*
X213435000Y-92301939D01*
X213435000Y-92098061D01*
X213395226Y-91898102D01*
X213317205Y-91709744D01*
X213203937Y-91540226D01*
X213059774Y-91396063D01*
X212890256Y-91282795D01*
X212701898Y-91204774D01*
X212501939Y-91165000D01*
X212298061Y-91165000D01*
X212098102Y-91204774D01*
X211909744Y-91282795D01*
X211740226Y-91396063D01*
X211596063Y-91540226D01*
X211482795Y-91709744D01*
X211404774Y-91898102D01*
X211365000Y-92098061D01*
X209142582Y-92098061D01*
X209103937Y-92040226D01*
X208959774Y-91896063D01*
X208790256Y-91782795D01*
X208601898Y-91704774D01*
X208401939Y-91665000D01*
X208198061Y-91665000D01*
X207998102Y-91704774D01*
X207809744Y-91782795D01*
X207640226Y-91896063D01*
X207496063Y-92040226D01*
X207382795Y-92209744D01*
X207304774Y-92398102D01*
X207265000Y-92598061D01*
X190410000Y-92598061D01*
X190410000Y-91398061D01*
X202265000Y-91398061D01*
X202265000Y-91601939D01*
X202304774Y-91801898D01*
X202382795Y-91990256D01*
X202496063Y-92159774D01*
X202640226Y-92303937D01*
X202809744Y-92417205D01*
X202998102Y-92495226D01*
X203198061Y-92535000D01*
X203401939Y-92535000D01*
X203601898Y-92495226D01*
X203790256Y-92417205D01*
X203959774Y-92303937D01*
X204103937Y-92159774D01*
X204217205Y-91990256D01*
X204295226Y-91801898D01*
X204335000Y-91601939D01*
X204335000Y-91398061D01*
X204295226Y-91198102D01*
X204217205Y-91009744D01*
X204103937Y-90840226D01*
X203959774Y-90696063D01*
X203790256Y-90582795D01*
X203601898Y-90504774D01*
X203401939Y-90465000D01*
X203198061Y-90465000D01*
X202998102Y-90504774D01*
X202809744Y-90582795D01*
X202640226Y-90696063D01*
X202496063Y-90840226D01*
X202382795Y-91009744D01*
X202304774Y-91198102D01*
X202265000Y-91398061D01*
X190410000Y-91398061D01*
X190410000Y-89398061D01*
X211265000Y-89398061D01*
X211265000Y-89601939D01*
X211304774Y-89801898D01*
X211382795Y-89990256D01*
X211496063Y-90159774D01*
X211640226Y-90303937D01*
X211809744Y-90417205D01*
X211998102Y-90495226D01*
X212198061Y-90535000D01*
X212401939Y-90535000D01*
X212601898Y-90495226D01*
X212790256Y-90417205D01*
X212959774Y-90303937D01*
X213103937Y-90159774D01*
X213217205Y-89990256D01*
X213295226Y-89801898D01*
X213335000Y-89601939D01*
X213335000Y-89398061D01*
X213295226Y-89198102D01*
X213217205Y-89009744D01*
X213103937Y-88840226D01*
X212959774Y-88696063D01*
X212790256Y-88582795D01*
X212601898Y-88504774D01*
X212401939Y-88465000D01*
X212198061Y-88465000D01*
X211998102Y-88504774D01*
X211809744Y-88582795D01*
X211640226Y-88696063D01*
X211496063Y-88840226D01*
X211382795Y-89009744D01*
X211304774Y-89198102D01*
X211265000Y-89398061D01*
X190410000Y-89398061D01*
X190410000Y-87198061D01*
X212715000Y-87198061D01*
X212715000Y-87401939D01*
X212754774Y-87601898D01*
X212832795Y-87790256D01*
X212946063Y-87959774D01*
X213090226Y-88103937D01*
X213259744Y-88217205D01*
X213448102Y-88295226D01*
X213648061Y-88335000D01*
X213851939Y-88335000D01*
X214051898Y-88295226D01*
X214240256Y-88217205D01*
X214409774Y-88103937D01*
X214499081Y-88014630D01*
X214596063Y-88159774D01*
X214740226Y-88303937D01*
X214909744Y-88417205D01*
X215098102Y-88495226D01*
X215298061Y-88535000D01*
X215501939Y-88535000D01*
X215701898Y-88495226D01*
X215890256Y-88417205D01*
X216059774Y-88303937D01*
X216071836Y-88291875D01*
X216109744Y-88317205D01*
X216298102Y-88395226D01*
X216333935Y-88402354D01*
X216196063Y-88540226D01*
X216082795Y-88709744D01*
X216004774Y-88898102D01*
X215965000Y-89098061D01*
X215965000Y-89301939D01*
X216004774Y-89501898D01*
X216082795Y-89690256D01*
X216196063Y-89859774D01*
X216340226Y-90003937D01*
X216486579Y-90101727D01*
X216301939Y-90065000D01*
X216098061Y-90065000D01*
X215898102Y-90104774D01*
X215709744Y-90182795D01*
X215540226Y-90296063D01*
X215396063Y-90440226D01*
X215282795Y-90609744D01*
X215204774Y-90798102D01*
X215165000Y-90998061D01*
X215165000Y-91201939D01*
X215204774Y-91401898D01*
X215282795Y-91590256D01*
X215389532Y-91750000D01*
X215282795Y-91909744D01*
X215204774Y-92098102D01*
X215165000Y-92298061D01*
X215165000Y-92501939D01*
X215204774Y-92701898D01*
X215282795Y-92890256D01*
X215396063Y-93059774D01*
X215540226Y-93203937D01*
X215709744Y-93317205D01*
X215898102Y-93395226D01*
X216098061Y-93435000D01*
X216301939Y-93435000D01*
X216501898Y-93395226D01*
X216690256Y-93317205D01*
X216859774Y-93203937D01*
X217003937Y-93059774D01*
X217117205Y-92890256D01*
X217195226Y-92701898D01*
X217235000Y-92501939D01*
X217235000Y-92298061D01*
X217195226Y-92098102D01*
X217117205Y-91909744D01*
X217010468Y-91750000D01*
X217117205Y-91590256D01*
X217195226Y-91401898D01*
X217235000Y-91201939D01*
X217235000Y-90998061D01*
X217195226Y-90798102D01*
X217133077Y-90648061D01*
X220965000Y-90648061D01*
X220965000Y-90851939D01*
X221004774Y-91051898D01*
X221082795Y-91240256D01*
X221196063Y-91409774D01*
X221340226Y-91553937D01*
X221509744Y-91667205D01*
X221698102Y-91745226D01*
X221898061Y-91785000D01*
X222101939Y-91785000D01*
X222301898Y-91745226D01*
X222490256Y-91667205D01*
X222659774Y-91553937D01*
X222803937Y-91409774D01*
X222917205Y-91240256D01*
X222995226Y-91051898D01*
X223035000Y-90851939D01*
X223035000Y-90648061D01*
X222995226Y-90448102D01*
X222917205Y-90259744D01*
X222803937Y-90090226D01*
X222659774Y-89946063D01*
X222490256Y-89832795D01*
X222301898Y-89754774D01*
X222101939Y-89715000D01*
X221898061Y-89715000D01*
X221698102Y-89754774D01*
X221509744Y-89832795D01*
X221340226Y-89946063D01*
X221196063Y-90090226D01*
X221082795Y-90259744D01*
X221004774Y-90448102D01*
X220965000Y-90648061D01*
X217133077Y-90648061D01*
X217117205Y-90609744D01*
X217003937Y-90440226D01*
X216859774Y-90296063D01*
X216713421Y-90198273D01*
X216898061Y-90235000D01*
X217101939Y-90235000D01*
X217301898Y-90195226D01*
X217490256Y-90117205D01*
X217659774Y-90003937D01*
X217803937Y-89859774D01*
X217917205Y-89690256D01*
X217995226Y-89501898D01*
X218005934Y-89448061D01*
X248165000Y-89448061D01*
X248165000Y-89651939D01*
X248204774Y-89851898D01*
X248282795Y-90040256D01*
X248396063Y-90209774D01*
X248540226Y-90353937D01*
X248709744Y-90467205D01*
X248898102Y-90545226D01*
X249098061Y-90585000D01*
X249301939Y-90585000D01*
X249501898Y-90545226D01*
X249690256Y-90467205D01*
X249859774Y-90353937D01*
X250003937Y-90209774D01*
X250117205Y-90040256D01*
X250195226Y-89851898D01*
X250235000Y-89651939D01*
X250235000Y-89448061D01*
X250195226Y-89248102D01*
X250117205Y-89059744D01*
X250003937Y-88890226D01*
X249859774Y-88746063D01*
X249690256Y-88632795D01*
X249501898Y-88554774D01*
X249301939Y-88515000D01*
X249098061Y-88515000D01*
X248898102Y-88554774D01*
X248709744Y-88632795D01*
X248540226Y-88746063D01*
X248396063Y-88890226D01*
X248282795Y-89059744D01*
X248204774Y-89248102D01*
X248165000Y-89448061D01*
X218005934Y-89448061D01*
X218035000Y-89301939D01*
X218035000Y-89098061D01*
X217995226Y-88898102D01*
X217917205Y-88709744D01*
X217803937Y-88540226D01*
X217659774Y-88396063D01*
X217490256Y-88282795D01*
X217301898Y-88204774D01*
X217266065Y-88197646D01*
X217403937Y-88059774D01*
X217517205Y-87890256D01*
X217595226Y-87701898D01*
X217635000Y-87501939D01*
X217635000Y-87298061D01*
X217595226Y-87098102D01*
X217517205Y-86909744D01*
X217403937Y-86740226D01*
X217259774Y-86596063D01*
X217090256Y-86482795D01*
X216901898Y-86404774D01*
X216701939Y-86365000D01*
X216498061Y-86365000D01*
X216298102Y-86404774D01*
X216109744Y-86482795D01*
X215940226Y-86596063D01*
X215928164Y-86608125D01*
X215890256Y-86582795D01*
X215701898Y-86504774D01*
X215501939Y-86465000D01*
X215298061Y-86465000D01*
X215098102Y-86504774D01*
X214909744Y-86582795D01*
X214740226Y-86696063D01*
X214650919Y-86785370D01*
X214553937Y-86640226D01*
X214409774Y-86496063D01*
X214240256Y-86382795D01*
X214051898Y-86304774D01*
X213851939Y-86265000D01*
X213648061Y-86265000D01*
X213448102Y-86304774D01*
X213259744Y-86382795D01*
X213090226Y-86496063D01*
X212946063Y-86640226D01*
X212832795Y-86809744D01*
X212754774Y-86998102D01*
X212715000Y-87198061D01*
X190410000Y-87198061D01*
X190410000Y-86198061D01*
X220215000Y-86198061D01*
X220215000Y-86401939D01*
X220254774Y-86601898D01*
X220332795Y-86790256D01*
X220446063Y-86959774D01*
X220590226Y-87103937D01*
X220759744Y-87217205D01*
X220948102Y-87295226D01*
X221148061Y-87335000D01*
X221351939Y-87335000D01*
X221551898Y-87295226D01*
X221740256Y-87217205D01*
X221909774Y-87103937D01*
X222053937Y-86959774D01*
X222167205Y-86790256D01*
X222245226Y-86601898D01*
X222285000Y-86401939D01*
X222285000Y-86198061D01*
X222245226Y-85998102D01*
X222167205Y-85809744D01*
X222053937Y-85640226D01*
X221909774Y-85496063D01*
X221740256Y-85382795D01*
X221551898Y-85304774D01*
X221351939Y-85265000D01*
X221148061Y-85265000D01*
X220948102Y-85304774D01*
X220759744Y-85382795D01*
X220590226Y-85496063D01*
X220446063Y-85640226D01*
X220332795Y-85809744D01*
X220254774Y-85998102D01*
X220215000Y-86198061D01*
X190410000Y-86198061D01*
X190410000Y-82648061D01*
X209765000Y-82648061D01*
X209765000Y-82851939D01*
X209804774Y-83051898D01*
X209882795Y-83240256D01*
X209972828Y-83375000D01*
X209882795Y-83509744D01*
X209804774Y-83698102D01*
X209765000Y-83898061D01*
X209765000Y-84101939D01*
X209804774Y-84301898D01*
X209882795Y-84490256D01*
X209996063Y-84659774D01*
X210140226Y-84803937D01*
X210309744Y-84917205D01*
X210498102Y-84995226D01*
X210698061Y-85035000D01*
X210901939Y-85035000D01*
X211101898Y-84995226D01*
X211290256Y-84917205D01*
X211459774Y-84803937D01*
X211603937Y-84659774D01*
X211717205Y-84490256D01*
X211795226Y-84301898D01*
X211815880Y-84198061D01*
X213165000Y-84198061D01*
X213165000Y-84401939D01*
X213204774Y-84601898D01*
X213282795Y-84790256D01*
X213396063Y-84959774D01*
X213540226Y-85103937D01*
X213709744Y-85217205D01*
X213898102Y-85295226D01*
X214098061Y-85335000D01*
X214301939Y-85335000D01*
X214501898Y-85295226D01*
X214690256Y-85217205D01*
X214859774Y-85103937D01*
X215003937Y-84959774D01*
X215117205Y-84790256D01*
X215195226Y-84601898D01*
X215235000Y-84401939D01*
X215235000Y-84198061D01*
X215195226Y-83998102D01*
X215117205Y-83809744D01*
X215003937Y-83640226D01*
X214859774Y-83496063D01*
X214690256Y-83382795D01*
X214501898Y-83304774D01*
X214301939Y-83265000D01*
X214098061Y-83265000D01*
X213898102Y-83304774D01*
X213709744Y-83382795D01*
X213540226Y-83496063D01*
X213396063Y-83640226D01*
X213282795Y-83809744D01*
X213204774Y-83998102D01*
X213165000Y-84198061D01*
X211815880Y-84198061D01*
X211835000Y-84101939D01*
X211835000Y-83898061D01*
X211795226Y-83698102D01*
X211717205Y-83509744D01*
X211627172Y-83375000D01*
X211717205Y-83240256D01*
X211795226Y-83051898D01*
X211835000Y-82851939D01*
X211835000Y-82648061D01*
X211795226Y-82448102D01*
X211717205Y-82259744D01*
X211603937Y-82090226D01*
X211459774Y-81946063D01*
X211290256Y-81832795D01*
X211101898Y-81754774D01*
X210901939Y-81715000D01*
X210698061Y-81715000D01*
X210498102Y-81754774D01*
X210309744Y-81832795D01*
X210140226Y-81946063D01*
X209996063Y-82090226D01*
X209882795Y-82259744D01*
X209804774Y-82448102D01*
X209765000Y-82648061D01*
X190410000Y-82648061D01*
X190410000Y-79050000D01*
X192411928Y-79050000D01*
X192411928Y-80450000D01*
X192424188Y-80574482D01*
X192460498Y-80694180D01*
X192519463Y-80804494D01*
X192598815Y-80901185D01*
X192695506Y-80980537D01*
X192805820Y-81039502D01*
X192925518Y-81075812D01*
X193050000Y-81088072D01*
X194450000Y-81088072D01*
X194574482Y-81075812D01*
X194694180Y-81039502D01*
X194804494Y-80980537D01*
X194901185Y-80901185D01*
X194980537Y-80804494D01*
X195039502Y-80694180D01*
X195075812Y-80574482D01*
X195088072Y-80450000D01*
X195088072Y-79050000D01*
X195075812Y-78925518D01*
X195039502Y-78805820D01*
X194980537Y-78695506D01*
X194901185Y-78598815D01*
X194804494Y-78519463D01*
X194694180Y-78460498D01*
X194574482Y-78424188D01*
X194450000Y-78411928D01*
X194413987Y-78411928D01*
X194601013Y-78286962D01*
X194786962Y-78101013D01*
X194933061Y-77882359D01*
X195033696Y-77639405D01*
X195081702Y-77398061D01*
X198665000Y-77398061D01*
X198665000Y-77601939D01*
X198704774Y-77801898D01*
X198782795Y-77990256D01*
X198896063Y-78159774D01*
X199040226Y-78303937D01*
X199209744Y-78417205D01*
X199398102Y-78495226D01*
X199598061Y-78535000D01*
X199801939Y-78535000D01*
X200001898Y-78495226D01*
X200190256Y-78417205D01*
X200359774Y-78303937D01*
X200503937Y-78159774D01*
X200617205Y-77990256D01*
X200695226Y-77801898D01*
X200735000Y-77601939D01*
X200735000Y-77398061D01*
X200695226Y-77198102D01*
X200617205Y-77009744D01*
X200503937Y-76840226D01*
X200359774Y-76696063D01*
X200190256Y-76582795D01*
X200001898Y-76504774D01*
X199801939Y-76465000D01*
X199598061Y-76465000D01*
X199398102Y-76504774D01*
X199209744Y-76582795D01*
X199040226Y-76696063D01*
X198896063Y-76840226D01*
X198782795Y-77009744D01*
X198704774Y-77198102D01*
X198665000Y-77398061D01*
X195081702Y-77398061D01*
X195085000Y-77381486D01*
X195085000Y-77118514D01*
X195033696Y-76860595D01*
X194933061Y-76617641D01*
X194786962Y-76398987D01*
X194601013Y-76213038D01*
X194382359Y-76066939D01*
X194219882Y-75999639D01*
X194331366Y-75958935D01*
X194432203Y-75905037D01*
X194491664Y-75671269D01*
X193750000Y-74929605D01*
X193008336Y-75671269D01*
X193067797Y-75905037D01*
X193275404Y-76001592D01*
X193117641Y-76066939D01*
X192898987Y-76213038D01*
X192713038Y-76398987D01*
X192566939Y-76617641D01*
X192466304Y-76860595D01*
X192415000Y-77118514D01*
X192415000Y-77381486D01*
X192466304Y-77639405D01*
X192566939Y-77882359D01*
X192713038Y-78101013D01*
X192898987Y-78286962D01*
X193086013Y-78411928D01*
X193050000Y-78411928D01*
X192925518Y-78424188D01*
X192805820Y-78460498D01*
X192695506Y-78519463D01*
X192598815Y-78598815D01*
X192519463Y-78695506D01*
X192460498Y-78805820D01*
X192424188Y-78925518D01*
X192411928Y-79050000D01*
X190410000Y-79050000D01*
X190410000Y-74824473D01*
X192410610Y-74824473D01*
X192450875Y-75084344D01*
X192541065Y-75331366D01*
X192594963Y-75432203D01*
X192828731Y-75491664D01*
X193570395Y-74750000D01*
X193929605Y-74750000D01*
X194671269Y-75491664D01*
X194905037Y-75432203D01*
X195015934Y-75193758D01*
X195078183Y-74938260D01*
X195089390Y-74675527D01*
X195049125Y-74415656D01*
X194958935Y-74168634D01*
X194905037Y-74067797D01*
X194671269Y-74008336D01*
X193929605Y-74750000D01*
X193570395Y-74750000D01*
X192828731Y-74008336D01*
X192594963Y-74067797D01*
X192484066Y-74306242D01*
X192421817Y-74561740D01*
X192410610Y-74824473D01*
X190410000Y-74824473D01*
X190410000Y-73828731D01*
X193008336Y-73828731D01*
X193750000Y-74570395D01*
X194491664Y-73828731D01*
X194432203Y-73594963D01*
X194193758Y-73484066D01*
X193938260Y-73421817D01*
X193675527Y-73410610D01*
X193415656Y-73450875D01*
X193168634Y-73541065D01*
X193067797Y-73594963D01*
X193008336Y-73828731D01*
X190410000Y-73828731D01*
X190410000Y-71345374D01*
X191584231Y-71345374D01*
X191884411Y-71783828D01*
X192463356Y-72094296D01*
X193091746Y-72285852D01*
X193745431Y-72351134D01*
X194399293Y-72287634D01*
X195028203Y-72097792D01*
X195607992Y-71788904D01*
X195615589Y-71783828D01*
X195915768Y-71345376D01*
X195973151Y-71402759D01*
X195956686Y-71442510D01*
X195903000Y-71712408D01*
X195903000Y-71987592D01*
X195956686Y-72257490D01*
X196061995Y-72511727D01*
X196214880Y-72740535D01*
X196409465Y-72935120D01*
X196638273Y-73088005D01*
X196892510Y-73193314D01*
X197162408Y-73247000D01*
X197437592Y-73247000D01*
X197707490Y-73193314D01*
X197961727Y-73088005D01*
X198190535Y-72935120D01*
X198385120Y-72740535D01*
X198470731Y-72612408D01*
X243603000Y-72612408D01*
X243603000Y-72887592D01*
X243656686Y-73157490D01*
X243761995Y-73411727D01*
X243914880Y-73640535D01*
X244109465Y-73835120D01*
X244338273Y-73988005D01*
X244592510Y-74093314D01*
X244862408Y-74147000D01*
X245137592Y-74147000D01*
X245407490Y-74093314D01*
X245661727Y-73988005D01*
X245890535Y-73835120D01*
X246085120Y-73640535D01*
X246238005Y-73411727D01*
X246343314Y-73157490D01*
X246397000Y-72887592D01*
X246397000Y-72612408D01*
X246343314Y-72342510D01*
X246244423Y-72103766D01*
X246841746Y-72285852D01*
X247495431Y-72351134D01*
X248149293Y-72287634D01*
X248778203Y-72097792D01*
X249357992Y-71788904D01*
X249365589Y-71783828D01*
X249665769Y-71345374D01*
X247500000Y-69179605D01*
X247485858Y-69193748D01*
X247306253Y-69014143D01*
X247320395Y-69000000D01*
X245154626Y-66834231D01*
X244716172Y-67134411D01*
X244405704Y-67713356D01*
X244214148Y-68341746D01*
X244148866Y-68995431D01*
X244212366Y-69649293D01*
X244402208Y-70278203D01*
X244711096Y-70857992D01*
X244716172Y-70865589D01*
X245154624Y-71165768D01*
X245041019Y-71279373D01*
X245114646Y-71353000D01*
X244862408Y-71353000D01*
X244592510Y-71406686D01*
X244338273Y-71511995D01*
X244109465Y-71664880D01*
X243914880Y-71859465D01*
X243761995Y-72088273D01*
X243656686Y-72342510D01*
X243603000Y-72612408D01*
X198470731Y-72612408D01*
X198538005Y-72511727D01*
X198643314Y-72257490D01*
X198697000Y-71987592D01*
X198697000Y-71712408D01*
X198643314Y-71442510D01*
X198538005Y-71188273D01*
X198385120Y-70959465D01*
X198190535Y-70764880D01*
X197961727Y-70611995D01*
X197707490Y-70506686D01*
X197437592Y-70453000D01*
X197162408Y-70453000D01*
X196892510Y-70506686D01*
X196678831Y-70595195D01*
X196844296Y-70286644D01*
X197035852Y-69658254D01*
X197101134Y-69004569D01*
X197037929Y-68353740D01*
X201575000Y-68353740D01*
X201575000Y-68646260D01*
X201632068Y-68933158D01*
X201744010Y-69203411D01*
X201906525Y-69446632D01*
X202113368Y-69653475D01*
X202356589Y-69815990D01*
X202626842Y-69927932D01*
X202913740Y-69985000D01*
X203206260Y-69985000D01*
X203493158Y-69927932D01*
X203763411Y-69815990D01*
X204006632Y-69653475D01*
X204213475Y-69446632D01*
X204330000Y-69272240D01*
X204446525Y-69446632D01*
X204653368Y-69653475D01*
X204896589Y-69815990D01*
X205166842Y-69927932D01*
X205453740Y-69985000D01*
X205746260Y-69985000D01*
X206033158Y-69927932D01*
X206303411Y-69815990D01*
X206546632Y-69653475D01*
X206753475Y-69446632D01*
X206870000Y-69272240D01*
X206986525Y-69446632D01*
X207193368Y-69653475D01*
X207436589Y-69815990D01*
X207706842Y-69927932D01*
X207993740Y-69985000D01*
X208286260Y-69985000D01*
X208573158Y-69927932D01*
X208843411Y-69815990D01*
X209086632Y-69653475D01*
X209293475Y-69446632D01*
X209410000Y-69272240D01*
X209526525Y-69446632D01*
X209733368Y-69653475D01*
X209976589Y-69815990D01*
X210246842Y-69927932D01*
X210533740Y-69985000D01*
X210826260Y-69985000D01*
X211113158Y-69927932D01*
X211383411Y-69815990D01*
X211626632Y-69653475D01*
X211833475Y-69446632D01*
X211950000Y-69272240D01*
X212066525Y-69446632D01*
X212273368Y-69653475D01*
X212516589Y-69815990D01*
X212786842Y-69927932D01*
X213073740Y-69985000D01*
X213366260Y-69985000D01*
X213653158Y-69927932D01*
X213923411Y-69815990D01*
X214166632Y-69653475D01*
X214373475Y-69446632D01*
X214490000Y-69272240D01*
X214606525Y-69446632D01*
X214813368Y-69653475D01*
X215056589Y-69815990D01*
X215326842Y-69927932D01*
X215613740Y-69985000D01*
X215906260Y-69985000D01*
X216193158Y-69927932D01*
X216463411Y-69815990D01*
X216706632Y-69653475D01*
X216913475Y-69446632D01*
X217030000Y-69272240D01*
X217146525Y-69446632D01*
X217353368Y-69653475D01*
X217596589Y-69815990D01*
X217866842Y-69927932D01*
X218153740Y-69985000D01*
X218446260Y-69985000D01*
X218733158Y-69927932D01*
X219003411Y-69815990D01*
X219246632Y-69653475D01*
X219453475Y-69446632D01*
X219570000Y-69272240D01*
X219686525Y-69446632D01*
X219893368Y-69653475D01*
X220136589Y-69815990D01*
X220406842Y-69927932D01*
X220693740Y-69985000D01*
X220986260Y-69985000D01*
X221273158Y-69927932D01*
X221543411Y-69815990D01*
X221786632Y-69653475D01*
X221993475Y-69446632D01*
X222110000Y-69272240D01*
X222226525Y-69446632D01*
X222433368Y-69653475D01*
X222676589Y-69815990D01*
X222946842Y-69927932D01*
X223233740Y-69985000D01*
X223526260Y-69985000D01*
X223813158Y-69927932D01*
X224083411Y-69815990D01*
X224326632Y-69653475D01*
X224533475Y-69446632D01*
X224650000Y-69272240D01*
X224766525Y-69446632D01*
X224973368Y-69653475D01*
X225216589Y-69815990D01*
X225486842Y-69927932D01*
X225773740Y-69985000D01*
X226066260Y-69985000D01*
X226353158Y-69927932D01*
X226623411Y-69815990D01*
X226866632Y-69653475D01*
X227073475Y-69446632D01*
X227195195Y-69264466D01*
X227264822Y-69381355D01*
X227459731Y-69597588D01*
X227693080Y-69771641D01*
X227955901Y-69896825D01*
X228103110Y-69941476D01*
X228333000Y-69820155D01*
X228333000Y-68627000D01*
X228313000Y-68627000D01*
X228313000Y-68373000D01*
X228333000Y-68373000D01*
X228333000Y-67179845D01*
X228587000Y-67179845D01*
X228587000Y-68373000D01*
X228607000Y-68373000D01*
X228607000Y-68627000D01*
X228587000Y-68627000D01*
X228587000Y-69820155D01*
X228816890Y-69941476D01*
X228964099Y-69896825D01*
X229226920Y-69771641D01*
X229460269Y-69597588D01*
X229536034Y-69513534D01*
X229560498Y-69594180D01*
X229619463Y-69704494D01*
X229698815Y-69801185D01*
X229795506Y-69880537D01*
X229905820Y-69939502D01*
X230025518Y-69975812D01*
X230150000Y-69988072D01*
X231850000Y-69988072D01*
X231974482Y-69975812D01*
X232094180Y-69939502D01*
X232204494Y-69880537D01*
X232301185Y-69801185D01*
X232380537Y-69704494D01*
X232439502Y-69594180D01*
X232475812Y-69474482D01*
X232482338Y-69408212D01*
X235075000Y-69408212D01*
X235075000Y-69631788D01*
X235118617Y-69851067D01*
X235204176Y-70057624D01*
X235328388Y-70243520D01*
X235486480Y-70401612D01*
X235672376Y-70525824D01*
X235878933Y-70611383D01*
X236098212Y-70655000D01*
X236321788Y-70655000D01*
X236541067Y-70611383D01*
X236747624Y-70525824D01*
X236845000Y-70460759D01*
X236942376Y-70525824D01*
X237148933Y-70611383D01*
X237368212Y-70655000D01*
X237591788Y-70655000D01*
X237811067Y-70611383D01*
X238017624Y-70525824D01*
X238115000Y-70460759D01*
X238212376Y-70525824D01*
X238418933Y-70611383D01*
X238638212Y-70655000D01*
X238861788Y-70655000D01*
X239081067Y-70611383D01*
X239287624Y-70525824D01*
X239385000Y-70460759D01*
X239482376Y-70525824D01*
X239688933Y-70611383D01*
X239908212Y-70655000D01*
X240131788Y-70655000D01*
X240351067Y-70611383D01*
X240557624Y-70525824D01*
X240655000Y-70460759D01*
X240752376Y-70525824D01*
X240958933Y-70611383D01*
X241178212Y-70655000D01*
X241401788Y-70655000D01*
X241621067Y-70611383D01*
X241827624Y-70525824D01*
X242013520Y-70401612D01*
X242171612Y-70243520D01*
X242295824Y-70057624D01*
X242381383Y-69851067D01*
X242425000Y-69631788D01*
X242425000Y-69408212D01*
X242381383Y-69188933D01*
X242335112Y-69077226D01*
X242379502Y-68994180D01*
X242415812Y-68874482D01*
X242428072Y-68750000D01*
X242428072Y-67750000D01*
X242415812Y-67625518D01*
X242379502Y-67505820D01*
X242320537Y-67395506D01*
X242241185Y-67298815D01*
X242144494Y-67219463D01*
X242034180Y-67160498D01*
X241914482Y-67124188D01*
X241790000Y-67111928D01*
X240790000Y-67111928D01*
X240665518Y-67124188D01*
X240545820Y-67160498D01*
X240456820Y-67208070D01*
X240376864Y-67172554D01*
X240321874Y-67155881D01*
X240147000Y-67282046D01*
X240147000Y-68123000D01*
X240151928Y-68123000D01*
X240151928Y-68377000D01*
X240147000Y-68377000D01*
X240147000Y-68388026D01*
X240131788Y-68385000D01*
X239908212Y-68385000D01*
X239893000Y-68388026D01*
X239893000Y-68377000D01*
X238877000Y-68377000D01*
X238877000Y-68388026D01*
X238861788Y-68385000D01*
X238638212Y-68385000D01*
X238623000Y-68388026D01*
X238623000Y-68377000D01*
X238611974Y-68377000D01*
X238615000Y-68361788D01*
X238615000Y-68138212D01*
X238611974Y-68123000D01*
X238623000Y-68123000D01*
X238623000Y-67282046D01*
X238877000Y-67282046D01*
X238877000Y-68123000D01*
X239893000Y-68123000D01*
X239893000Y-67282046D01*
X239718126Y-67155881D01*
X239663136Y-67172554D01*
X239459794Y-67262877D01*
X239385000Y-67315639D01*
X239310206Y-67262877D01*
X239106864Y-67172554D01*
X239051874Y-67155881D01*
X238877000Y-67282046D01*
X238623000Y-67282046D01*
X238448126Y-67155881D01*
X238393136Y-67172554D01*
X238189794Y-67262877D01*
X238119658Y-67312353D01*
X238017624Y-67244176D01*
X237811067Y-67158617D01*
X237591788Y-67115000D01*
X237368212Y-67115000D01*
X237148933Y-67158617D01*
X236942376Y-67244176D01*
X236840342Y-67312353D01*
X236770206Y-67262877D01*
X236566864Y-67172554D01*
X236511874Y-67155881D01*
X236337000Y-67282046D01*
X236337000Y-68123000D01*
X236348026Y-68123000D01*
X236345000Y-68138212D01*
X236345000Y-68361788D01*
X236348026Y-68377000D01*
X236337000Y-68377000D01*
X236337000Y-68388026D01*
X236321788Y-68385000D01*
X236098212Y-68385000D01*
X236083000Y-68388026D01*
X236083000Y-68377000D01*
X235240871Y-68377000D01*
X235115874Y-68551876D01*
X235195790Y-68759529D01*
X235272256Y-68880488D01*
X235204176Y-68982376D01*
X235118617Y-69188933D01*
X235075000Y-69408212D01*
X232482338Y-69408212D01*
X232488072Y-69350000D01*
X232488072Y-67948124D01*
X235115874Y-67948124D01*
X235240871Y-68123000D01*
X236083000Y-68123000D01*
X236083000Y-67282046D01*
X235908126Y-67155881D01*
X235853136Y-67172554D01*
X235649794Y-67262877D01*
X235467980Y-67391135D01*
X235314682Y-67552399D01*
X235195790Y-67740471D01*
X235115874Y-67948124D01*
X232488072Y-67948124D01*
X232488072Y-67650000D01*
X232475812Y-67525518D01*
X232439502Y-67405820D01*
X232380537Y-67295506D01*
X232301185Y-67198815D01*
X232204494Y-67119463D01*
X232094180Y-67060498D01*
X231974482Y-67024188D01*
X231850000Y-67011928D01*
X230150000Y-67011928D01*
X230025518Y-67024188D01*
X229905820Y-67060498D01*
X229795506Y-67119463D01*
X229698815Y-67198815D01*
X229619463Y-67295506D01*
X229560498Y-67405820D01*
X229536034Y-67486466D01*
X229460269Y-67402412D01*
X229226920Y-67228359D01*
X228964099Y-67103175D01*
X228816890Y-67058524D01*
X228587000Y-67179845D01*
X228333000Y-67179845D01*
X228103110Y-67058524D01*
X227955901Y-67103175D01*
X227693080Y-67228359D01*
X227459731Y-67402412D01*
X227264822Y-67618645D01*
X227195195Y-67735534D01*
X227073475Y-67553368D01*
X226866632Y-67346525D01*
X226623411Y-67184010D01*
X226353158Y-67072068D01*
X226066260Y-67015000D01*
X225773740Y-67015000D01*
X225486842Y-67072068D01*
X225216589Y-67184010D01*
X224973368Y-67346525D01*
X224766525Y-67553368D01*
X224650000Y-67727760D01*
X224533475Y-67553368D01*
X224326632Y-67346525D01*
X224083411Y-67184010D01*
X223813158Y-67072068D01*
X223526260Y-67015000D01*
X223233740Y-67015000D01*
X222946842Y-67072068D01*
X222676589Y-67184010D01*
X222433368Y-67346525D01*
X222226525Y-67553368D01*
X222110000Y-67727760D01*
X221993475Y-67553368D01*
X221786632Y-67346525D01*
X221543411Y-67184010D01*
X221273158Y-67072068D01*
X220986260Y-67015000D01*
X220693740Y-67015000D01*
X220406842Y-67072068D01*
X220136589Y-67184010D01*
X219893368Y-67346525D01*
X219686525Y-67553368D01*
X219570000Y-67727760D01*
X219453475Y-67553368D01*
X219246632Y-67346525D01*
X219003411Y-67184010D01*
X218733158Y-67072068D01*
X218446260Y-67015000D01*
X218153740Y-67015000D01*
X217866842Y-67072068D01*
X217596589Y-67184010D01*
X217353368Y-67346525D01*
X217146525Y-67553368D01*
X217030000Y-67727760D01*
X216913475Y-67553368D01*
X216706632Y-67346525D01*
X216463411Y-67184010D01*
X216193158Y-67072068D01*
X215906260Y-67015000D01*
X215613740Y-67015000D01*
X215326842Y-67072068D01*
X215056589Y-67184010D01*
X214813368Y-67346525D01*
X214606525Y-67553368D01*
X214490000Y-67727760D01*
X214373475Y-67553368D01*
X214166632Y-67346525D01*
X213923411Y-67184010D01*
X213653158Y-67072068D01*
X213366260Y-67015000D01*
X213073740Y-67015000D01*
X212786842Y-67072068D01*
X212516589Y-67184010D01*
X212273368Y-67346525D01*
X212066525Y-67553368D01*
X211950000Y-67727760D01*
X211833475Y-67553368D01*
X211626632Y-67346525D01*
X211383411Y-67184010D01*
X211113158Y-67072068D01*
X210826260Y-67015000D01*
X210533740Y-67015000D01*
X210246842Y-67072068D01*
X209976589Y-67184010D01*
X209733368Y-67346525D01*
X209526525Y-67553368D01*
X209410000Y-67727760D01*
X209293475Y-67553368D01*
X209086632Y-67346525D01*
X208843411Y-67184010D01*
X208573158Y-67072068D01*
X208286260Y-67015000D01*
X207993740Y-67015000D01*
X207706842Y-67072068D01*
X207436589Y-67184010D01*
X207193368Y-67346525D01*
X206986525Y-67553368D01*
X206870000Y-67727760D01*
X206753475Y-67553368D01*
X206546632Y-67346525D01*
X206303411Y-67184010D01*
X206033158Y-67072068D01*
X205746260Y-67015000D01*
X205453740Y-67015000D01*
X205166842Y-67072068D01*
X204896589Y-67184010D01*
X204653368Y-67346525D01*
X204446525Y-67553368D01*
X204330000Y-67727760D01*
X204213475Y-67553368D01*
X204006632Y-67346525D01*
X203763411Y-67184010D01*
X203493158Y-67072068D01*
X203206260Y-67015000D01*
X202913740Y-67015000D01*
X202626842Y-67072068D01*
X202356589Y-67184010D01*
X202113368Y-67346525D01*
X201906525Y-67553368D01*
X201744010Y-67796589D01*
X201632068Y-68066842D01*
X201575000Y-68353740D01*
X197037929Y-68353740D01*
X197037634Y-68350707D01*
X196847792Y-67721797D01*
X196538904Y-67142008D01*
X196533828Y-67134411D01*
X196095374Y-66834231D01*
X193929605Y-69000000D01*
X193943748Y-69014143D01*
X193764143Y-69193748D01*
X193750000Y-69179605D01*
X191584231Y-71345374D01*
X190410000Y-71345374D01*
X190410000Y-69110078D01*
X190462366Y-69649293D01*
X190652208Y-70278203D01*
X190961096Y-70857992D01*
X190966172Y-70865589D01*
X191404626Y-71165769D01*
X193570395Y-69000000D01*
X193556253Y-68985858D01*
X193735858Y-68806253D01*
X193750000Y-68820395D01*
X195915769Y-66654626D01*
X195615589Y-66216172D01*
X195036644Y-65905704D01*
X194408254Y-65714148D01*
X193866057Y-65660000D01*
X247389922Y-65660000D01*
X246850707Y-65712366D01*
G37*
%TD.AperFunction*%
%TD*%
M02*
