%TF.GenerationSoftware,KiCad,Pcbnew,(5.1.9)-1*%
%TF.CreationDate,2021-05-17T17:29:26-07:00*%
%TF.ProjectId,dev_test_board_v1,6465765f-7465-4737-945f-626f6172645f,rev?*%
%TF.SameCoordinates,Original*%
%TF.FileFunction,Soldermask,Top*%
%TF.FilePolarity,Negative*%
%FSLAX46Y46*%
G04 Gerber Fmt 4.6, Leading zero omitted, Abs format (unit mm)*
G04 Created by KiCad (PCBNEW (5.1.9)-1) date 2021-05-17 17:29:26*
%MOMM*%
%LPD*%
G01*
G04 APERTURE LIST*
%ADD10R,1.275000X1.400000*%
%ADD11C,1.300000*%
%ADD12O,1.300000X1.700000*%
%ADD13R,0.400000X1.750000*%
%ADD14C,1.524000*%
%ADD15R,1.300000X1.550000*%
%ADD16R,1.400000X1.400000*%
%ADD17C,1.400000*%
%ADD18C,5.400000*%
%ADD19C,0.800000*%
%ADD20R,1.000000X1.000000*%
%ADD21O,1.000000X1.000000*%
%ADD22R,1.700000X1.700000*%
%ADD23O,1.700000X1.700000*%
%ADD24R,1.200000X0.400000*%
%ADD25R,0.350000X0.375000*%
%ADD26R,0.375000X0.350000*%
%ADD27R,3.000000X2.500000*%
G04 APERTURE END LIST*
D10*
%TO.C,J1*%
X202862500Y-127150000D03*
X207137500Y-127150000D03*
D11*
X202575000Y-124500000D03*
X207425000Y-124500000D03*
D12*
X201375000Y-127150000D03*
X208625000Y-127150000D03*
D13*
X203700000Y-124375000D03*
X206300000Y-124375000D03*
X205650000Y-124375000D03*
X204350000Y-124375000D03*
X205000000Y-124375000D03*
%TD*%
%TO.C,R2*%
G36*
G01*
X203075000Y-113425000D02*
X203625000Y-113425000D01*
G75*
G02*
X203825000Y-113625000I0J-200000D01*
G01*
X203825000Y-114025000D01*
G75*
G02*
X203625000Y-114225000I-200000J0D01*
G01*
X203075000Y-114225000D01*
G75*
G02*
X202875000Y-114025000I0J200000D01*
G01*
X202875000Y-113625000D01*
G75*
G02*
X203075000Y-113425000I200000J0D01*
G01*
G37*
G36*
G01*
X203075000Y-111775000D02*
X203625000Y-111775000D01*
G75*
G02*
X203825000Y-111975000I0J-200000D01*
G01*
X203825000Y-112375000D01*
G75*
G02*
X203625000Y-112575000I-200000J0D01*
G01*
X203075000Y-112575000D01*
G75*
G02*
X202875000Y-112375000I0J200000D01*
G01*
X202875000Y-111975000D01*
G75*
G02*
X203075000Y-111775000I200000J0D01*
G01*
G37*
%TD*%
%TO.C,R1*%
G36*
G01*
X205725000Y-113425000D02*
X206275000Y-113425000D01*
G75*
G02*
X206475000Y-113625000I0J-200000D01*
G01*
X206475000Y-114025000D01*
G75*
G02*
X206275000Y-114225000I-200000J0D01*
G01*
X205725000Y-114225000D01*
G75*
G02*
X205525000Y-114025000I0J200000D01*
G01*
X205525000Y-113625000D01*
G75*
G02*
X205725000Y-113425000I200000J0D01*
G01*
G37*
G36*
G01*
X205725000Y-111775000D02*
X206275000Y-111775000D01*
G75*
G02*
X206475000Y-111975000I0J-200000D01*
G01*
X206475000Y-112375000D01*
G75*
G02*
X206275000Y-112575000I-200000J0D01*
G01*
X205725000Y-112575000D01*
G75*
G02*
X205525000Y-112375000I0J200000D01*
G01*
X205525000Y-111975000D01*
G75*
G02*
X205725000Y-111775000I200000J0D01*
G01*
G37*
%TD*%
D14*
%TO.C,REF\u002A\u002A*%
X243250000Y-123150000D03*
%TD*%
%TO.C,REF\u002A\u002A*%
X197300000Y-71850000D03*
%TD*%
%TO.C,REF\u002A\u002A*%
X197300000Y-71850000D03*
%TD*%
%TO.C,REF\u002A\u002A*%
X245000000Y-72750000D03*
%TD*%
%TO.C,R13*%
G36*
G01*
X239715000Y-89240000D02*
X240085000Y-89240000D01*
G75*
G02*
X240220000Y-89375000I0J-135000D01*
G01*
X240220000Y-89645000D01*
G75*
G02*
X240085000Y-89780000I-135000J0D01*
G01*
X239715000Y-89780000D01*
G75*
G02*
X239580000Y-89645000I0J135000D01*
G01*
X239580000Y-89375000D01*
G75*
G02*
X239715000Y-89240000I135000J0D01*
G01*
G37*
G36*
G01*
X239715000Y-88220000D02*
X240085000Y-88220000D01*
G75*
G02*
X240220000Y-88355000I0J-135000D01*
G01*
X240220000Y-88625000D01*
G75*
G02*
X240085000Y-88760000I-135000J0D01*
G01*
X239715000Y-88760000D01*
G75*
G02*
X239580000Y-88625000I0J135000D01*
G01*
X239580000Y-88355000D01*
G75*
G02*
X239715000Y-88220000I135000J0D01*
G01*
G37*
%TD*%
%TO.C,R12*%
G36*
G01*
X239715000Y-100340000D02*
X240085000Y-100340000D01*
G75*
G02*
X240220000Y-100475000I0J-135000D01*
G01*
X240220000Y-100745000D01*
G75*
G02*
X240085000Y-100880000I-135000J0D01*
G01*
X239715000Y-100880000D01*
G75*
G02*
X239580000Y-100745000I0J135000D01*
G01*
X239580000Y-100475000D01*
G75*
G02*
X239715000Y-100340000I135000J0D01*
G01*
G37*
G36*
G01*
X239715000Y-99320000D02*
X240085000Y-99320000D01*
G75*
G02*
X240220000Y-99455000I0J-135000D01*
G01*
X240220000Y-99725000D01*
G75*
G02*
X240085000Y-99860000I-135000J0D01*
G01*
X239715000Y-99860000D01*
G75*
G02*
X239580000Y-99725000I0J135000D01*
G01*
X239580000Y-99455000D01*
G75*
G02*
X239715000Y-99320000I135000J0D01*
G01*
G37*
%TD*%
%TO.C,R11*%
G36*
G01*
X239715000Y-111340000D02*
X240085000Y-111340000D01*
G75*
G02*
X240220000Y-111475000I0J-135000D01*
G01*
X240220000Y-111745000D01*
G75*
G02*
X240085000Y-111880000I-135000J0D01*
G01*
X239715000Y-111880000D01*
G75*
G02*
X239580000Y-111745000I0J135000D01*
G01*
X239580000Y-111475000D01*
G75*
G02*
X239715000Y-111340000I135000J0D01*
G01*
G37*
G36*
G01*
X239715000Y-110320000D02*
X240085000Y-110320000D01*
G75*
G02*
X240220000Y-110455000I0J-135000D01*
G01*
X240220000Y-110725000D01*
G75*
G02*
X240085000Y-110860000I-135000J0D01*
G01*
X239715000Y-110860000D01*
G75*
G02*
X239580000Y-110725000I0J135000D01*
G01*
X239580000Y-110455000D01*
G75*
G02*
X239715000Y-110320000I135000J0D01*
G01*
G37*
%TD*%
D15*
%TO.C,SW4*%
X247740000Y-81605000D03*
X243240000Y-81605000D03*
X243240000Y-89555000D03*
X247740000Y-89555000D03*
%TD*%
%TO.C,SW3*%
X247740000Y-92655000D03*
X243240000Y-92655000D03*
X243240000Y-100605000D03*
X247740000Y-100605000D03*
%TD*%
%TO.C,D2*%
G36*
G01*
X194650000Y-98743750D02*
X194650000Y-99256250D01*
G75*
G02*
X194431250Y-99475000I-218750J0D01*
G01*
X193993750Y-99475000D01*
G75*
G02*
X193775000Y-99256250I0J218750D01*
G01*
X193775000Y-98743750D01*
G75*
G02*
X193993750Y-98525000I218750J0D01*
G01*
X194431250Y-98525000D01*
G75*
G02*
X194650000Y-98743750I0J-218750D01*
G01*
G37*
G36*
G01*
X196225000Y-98743750D02*
X196225000Y-99256250D01*
G75*
G02*
X196006250Y-99475000I-218750J0D01*
G01*
X195568750Y-99475000D01*
G75*
G02*
X195350000Y-99256250I0J218750D01*
G01*
X195350000Y-98743750D01*
G75*
G02*
X195568750Y-98525000I218750J0D01*
G01*
X196006250Y-98525000D01*
G75*
G02*
X196225000Y-98743750I0J-218750D01*
G01*
G37*
%TD*%
%TO.C,D3*%
G36*
G01*
X196225000Y-96743750D02*
X196225000Y-97256250D01*
G75*
G02*
X196006250Y-97475000I-218750J0D01*
G01*
X195568750Y-97475000D01*
G75*
G02*
X195350000Y-97256250I0J218750D01*
G01*
X195350000Y-96743750D01*
G75*
G02*
X195568750Y-96525000I218750J0D01*
G01*
X196006250Y-96525000D01*
G75*
G02*
X196225000Y-96743750I0J-218750D01*
G01*
G37*
G36*
G01*
X194650000Y-96743750D02*
X194650000Y-97256250D01*
G75*
G02*
X194431250Y-97475000I-218750J0D01*
G01*
X193993750Y-97475000D01*
G75*
G02*
X193775000Y-97256250I0J218750D01*
G01*
X193775000Y-96743750D01*
G75*
G02*
X193993750Y-96525000I218750J0D01*
G01*
X194431250Y-96525000D01*
G75*
G02*
X194650000Y-96743750I0J-218750D01*
G01*
G37*
%TD*%
%TO.C,R4*%
G36*
G01*
X197775000Y-97275000D02*
X197775000Y-96725000D01*
G75*
G02*
X197975000Y-96525000I200000J0D01*
G01*
X198375000Y-96525000D01*
G75*
G02*
X198575000Y-96725000I0J-200000D01*
G01*
X198575000Y-97275000D01*
G75*
G02*
X198375000Y-97475000I-200000J0D01*
G01*
X197975000Y-97475000D01*
G75*
G02*
X197775000Y-97275000I0J200000D01*
G01*
G37*
G36*
G01*
X199425000Y-97275000D02*
X199425000Y-96725000D01*
G75*
G02*
X199625000Y-96525000I200000J0D01*
G01*
X200025000Y-96525000D01*
G75*
G02*
X200225000Y-96725000I0J-200000D01*
G01*
X200225000Y-97275000D01*
G75*
G02*
X200025000Y-97475000I-200000J0D01*
G01*
X199625000Y-97475000D01*
G75*
G02*
X199425000Y-97275000I0J200000D01*
G01*
G37*
%TD*%
%TO.C,R3*%
G36*
G01*
X199425000Y-99275000D02*
X199425000Y-98725000D01*
G75*
G02*
X199625000Y-98525000I200000J0D01*
G01*
X200025000Y-98525000D01*
G75*
G02*
X200225000Y-98725000I0J-200000D01*
G01*
X200225000Y-99275000D01*
G75*
G02*
X200025000Y-99475000I-200000J0D01*
G01*
X199625000Y-99475000D01*
G75*
G02*
X199425000Y-99275000I0J200000D01*
G01*
G37*
G36*
G01*
X197775000Y-99275000D02*
X197775000Y-98725000D01*
G75*
G02*
X197975000Y-98525000I200000J0D01*
G01*
X198375000Y-98525000D01*
G75*
G02*
X198575000Y-98725000I0J-200000D01*
G01*
X198575000Y-99275000D01*
G75*
G02*
X198375000Y-99475000I-200000J0D01*
G01*
X197975000Y-99475000D01*
G75*
G02*
X197775000Y-99275000I0J200000D01*
G01*
G37*
%TD*%
D16*
%TO.C,SW1*%
X193750000Y-79750000D03*
D17*
X193750000Y-77250000D03*
X193750000Y-74750000D03*
%TD*%
%TO.C,C1*%
G36*
G01*
X197725000Y-117500000D02*
X197725000Y-118000000D01*
G75*
G02*
X197500000Y-118225000I-225000J0D01*
G01*
X197050000Y-118225000D01*
G75*
G02*
X196825000Y-118000000I0J225000D01*
G01*
X196825000Y-117500000D01*
G75*
G02*
X197050000Y-117275000I225000J0D01*
G01*
X197500000Y-117275000D01*
G75*
G02*
X197725000Y-117500000I0J-225000D01*
G01*
G37*
G36*
G01*
X196175000Y-117500000D02*
X196175000Y-118000000D01*
G75*
G02*
X195950000Y-118225000I-225000J0D01*
G01*
X195500000Y-118225000D01*
G75*
G02*
X195275000Y-118000000I0J225000D01*
G01*
X195275000Y-117500000D01*
G75*
G02*
X195500000Y-117275000I225000J0D01*
G01*
X195950000Y-117275000D01*
G75*
G02*
X196175000Y-117500000I0J-225000D01*
G01*
G37*
%TD*%
%TO.C,C2*%
G36*
G01*
X203600000Y-105450000D02*
X203600000Y-106550000D01*
G75*
G02*
X203350000Y-106800000I-250000J0D01*
G01*
X201250000Y-106800000D01*
G75*
G02*
X201000000Y-106550000I0J250000D01*
G01*
X201000000Y-105450000D01*
G75*
G02*
X201250000Y-105200000I250000J0D01*
G01*
X203350000Y-105200000D01*
G75*
G02*
X203600000Y-105450000I0J-250000D01*
G01*
G37*
G36*
G01*
X200000000Y-105450000D02*
X200000000Y-106550000D01*
G75*
G02*
X199750000Y-106800000I-250000J0D01*
G01*
X197650000Y-106800000D01*
G75*
G02*
X197400000Y-106550000I0J250000D01*
G01*
X197400000Y-105450000D01*
G75*
G02*
X197650000Y-105200000I250000J0D01*
G01*
X199750000Y-105200000D01*
G75*
G02*
X200000000Y-105450000I0J-250000D01*
G01*
G37*
%TD*%
%TO.C,C3*%
G36*
G01*
X204580000Y-104990000D02*
X204920000Y-104990000D01*
G75*
G02*
X205060000Y-105130000I0J-140000D01*
G01*
X205060000Y-105410000D01*
G75*
G02*
X204920000Y-105550000I-140000J0D01*
G01*
X204580000Y-105550000D01*
G75*
G02*
X204440000Y-105410000I0J140000D01*
G01*
X204440000Y-105130000D01*
G75*
G02*
X204580000Y-104990000I140000J0D01*
G01*
G37*
G36*
G01*
X204580000Y-105950000D02*
X204920000Y-105950000D01*
G75*
G02*
X205060000Y-106090000I0J-140000D01*
G01*
X205060000Y-106370000D01*
G75*
G02*
X204920000Y-106510000I-140000J0D01*
G01*
X204580000Y-106510000D01*
G75*
G02*
X204440000Y-106370000I0J140000D01*
G01*
X204440000Y-106090000D01*
G75*
G02*
X204580000Y-105950000I140000J0D01*
G01*
G37*
%TD*%
%TO.C,C4*%
G36*
G01*
X204100000Y-103730000D02*
X204100000Y-104070000D01*
G75*
G02*
X203960000Y-104210000I-140000J0D01*
G01*
X203680000Y-104210000D01*
G75*
G02*
X203540000Y-104070000I0J140000D01*
G01*
X203540000Y-103730000D01*
G75*
G02*
X203680000Y-103590000I140000J0D01*
G01*
X203960000Y-103590000D01*
G75*
G02*
X204100000Y-103730000I0J-140000D01*
G01*
G37*
G36*
G01*
X205060000Y-103730000D02*
X205060000Y-104070000D01*
G75*
G02*
X204920000Y-104210000I-140000J0D01*
G01*
X204640000Y-104210000D01*
G75*
G02*
X204500000Y-104070000I0J140000D01*
G01*
X204500000Y-103730000D01*
G75*
G02*
X204640000Y-103590000I140000J0D01*
G01*
X204920000Y-103590000D01*
G75*
G02*
X205060000Y-103730000I0J-140000D01*
G01*
G37*
%TD*%
%TO.C,C5*%
G36*
G01*
X208225000Y-116600000D02*
X208225000Y-117100000D01*
G75*
G02*
X208000000Y-117325000I-225000J0D01*
G01*
X207550000Y-117325000D01*
G75*
G02*
X207325000Y-117100000I0J225000D01*
G01*
X207325000Y-116600000D01*
G75*
G02*
X207550000Y-116375000I225000J0D01*
G01*
X208000000Y-116375000D01*
G75*
G02*
X208225000Y-116600000I0J-225000D01*
G01*
G37*
G36*
G01*
X206675000Y-116600000D02*
X206675000Y-117100000D01*
G75*
G02*
X206450000Y-117325000I-225000J0D01*
G01*
X206000000Y-117325000D01*
G75*
G02*
X205775000Y-117100000I0J225000D01*
G01*
X205775000Y-116600000D01*
G75*
G02*
X206000000Y-116375000I225000J0D01*
G01*
X206450000Y-116375000D01*
G75*
G02*
X206675000Y-116600000I0J-225000D01*
G01*
G37*
%TD*%
%TO.C,C6*%
G36*
G01*
X202025000Y-116600000D02*
X202025000Y-117100000D01*
G75*
G02*
X201800000Y-117325000I-225000J0D01*
G01*
X201350000Y-117325000D01*
G75*
G02*
X201125000Y-117100000I0J225000D01*
G01*
X201125000Y-116600000D01*
G75*
G02*
X201350000Y-116375000I225000J0D01*
G01*
X201800000Y-116375000D01*
G75*
G02*
X202025000Y-116600000I0J-225000D01*
G01*
G37*
G36*
G01*
X203575000Y-116600000D02*
X203575000Y-117100000D01*
G75*
G02*
X203350000Y-117325000I-225000J0D01*
G01*
X202900000Y-117325000D01*
G75*
G02*
X202675000Y-117100000I0J225000D01*
G01*
X202675000Y-116600000D01*
G75*
G02*
X202900000Y-116375000I225000J0D01*
G01*
X203350000Y-116375000D01*
G75*
G02*
X203575000Y-116600000I0J-225000D01*
G01*
G37*
%TD*%
%TO.C,C7*%
G36*
G01*
X211240000Y-82920000D02*
X211240000Y-82580000D01*
G75*
G02*
X211380000Y-82440000I140000J0D01*
G01*
X211660000Y-82440000D01*
G75*
G02*
X211800000Y-82580000I0J-140000D01*
G01*
X211800000Y-82920000D01*
G75*
G02*
X211660000Y-83060000I-140000J0D01*
G01*
X211380000Y-83060000D01*
G75*
G02*
X211240000Y-82920000I0J140000D01*
G01*
G37*
G36*
G01*
X212200000Y-82920000D02*
X212200000Y-82580000D01*
G75*
G02*
X212340000Y-82440000I140000J0D01*
G01*
X212620000Y-82440000D01*
G75*
G02*
X212760000Y-82580000I0J-140000D01*
G01*
X212760000Y-82920000D01*
G75*
G02*
X212620000Y-83060000I-140000J0D01*
G01*
X212340000Y-83060000D01*
G75*
G02*
X212200000Y-82920000I0J140000D01*
G01*
G37*
%TD*%
%TO.C,C8*%
G36*
G01*
X212200000Y-84170000D02*
X212200000Y-83830000D01*
G75*
G02*
X212340000Y-83690000I140000J0D01*
G01*
X212620000Y-83690000D01*
G75*
G02*
X212760000Y-83830000I0J-140000D01*
G01*
X212760000Y-84170000D01*
G75*
G02*
X212620000Y-84310000I-140000J0D01*
G01*
X212340000Y-84310000D01*
G75*
G02*
X212200000Y-84170000I0J140000D01*
G01*
G37*
G36*
G01*
X211240000Y-84170000D02*
X211240000Y-83830000D01*
G75*
G02*
X211380000Y-83690000I140000J0D01*
G01*
X211660000Y-83690000D01*
G75*
G02*
X211800000Y-83830000I0J-140000D01*
G01*
X211800000Y-84170000D01*
G75*
G02*
X211660000Y-84310000I-140000J0D01*
G01*
X211380000Y-84310000D01*
G75*
G02*
X211240000Y-84170000I0J140000D01*
G01*
G37*
%TD*%
%TO.C,C9*%
G36*
G01*
X220330000Y-86040000D02*
X220670000Y-86040000D01*
G75*
G02*
X220810000Y-86180000I0J-140000D01*
G01*
X220810000Y-86460000D01*
G75*
G02*
X220670000Y-86600000I-140000J0D01*
G01*
X220330000Y-86600000D01*
G75*
G02*
X220190000Y-86460000I0J140000D01*
G01*
X220190000Y-86180000D01*
G75*
G02*
X220330000Y-86040000I140000J0D01*
G01*
G37*
G36*
G01*
X220330000Y-87000000D02*
X220670000Y-87000000D01*
G75*
G02*
X220810000Y-87140000I0J-140000D01*
G01*
X220810000Y-87420000D01*
G75*
G02*
X220670000Y-87560000I-140000J0D01*
G01*
X220330000Y-87560000D01*
G75*
G02*
X220190000Y-87420000I0J140000D01*
G01*
X220190000Y-87140000D01*
G75*
G02*
X220330000Y-87000000I140000J0D01*
G01*
G37*
%TD*%
%TO.C,C10*%
G36*
G01*
X218010000Y-95830000D02*
X218010000Y-96170000D01*
G75*
G02*
X217870000Y-96310000I-140000J0D01*
G01*
X217590000Y-96310000D01*
G75*
G02*
X217450000Y-96170000I0J140000D01*
G01*
X217450000Y-95830000D01*
G75*
G02*
X217590000Y-95690000I140000J0D01*
G01*
X217870000Y-95690000D01*
G75*
G02*
X218010000Y-95830000I0J-140000D01*
G01*
G37*
G36*
G01*
X217050000Y-95830000D02*
X217050000Y-96170000D01*
G75*
G02*
X216910000Y-96310000I-140000J0D01*
G01*
X216630000Y-96310000D01*
G75*
G02*
X216490000Y-96170000I0J140000D01*
G01*
X216490000Y-95830000D01*
G75*
G02*
X216630000Y-95690000I140000J0D01*
G01*
X216910000Y-95690000D01*
G75*
G02*
X217050000Y-95830000I0J-140000D01*
G01*
G37*
%TD*%
%TO.C,C11*%
G36*
G01*
X207420000Y-90800000D02*
X207080000Y-90800000D01*
G75*
G02*
X206940000Y-90660000I0J140000D01*
G01*
X206940000Y-90380000D01*
G75*
G02*
X207080000Y-90240000I140000J0D01*
G01*
X207420000Y-90240000D01*
G75*
G02*
X207560000Y-90380000I0J-140000D01*
G01*
X207560000Y-90660000D01*
G75*
G02*
X207420000Y-90800000I-140000J0D01*
G01*
G37*
G36*
G01*
X207420000Y-91760000D02*
X207080000Y-91760000D01*
G75*
G02*
X206940000Y-91620000I0J140000D01*
G01*
X206940000Y-91340000D01*
G75*
G02*
X207080000Y-91200000I140000J0D01*
G01*
X207420000Y-91200000D01*
G75*
G02*
X207560000Y-91340000I0J-140000D01*
G01*
X207560000Y-91620000D01*
G75*
G02*
X207420000Y-91760000I-140000J0D01*
G01*
G37*
%TD*%
%TO.C,C12*%
G36*
G01*
X208670000Y-91760000D02*
X208330000Y-91760000D01*
G75*
G02*
X208190000Y-91620000I0J140000D01*
G01*
X208190000Y-91340000D01*
G75*
G02*
X208330000Y-91200000I140000J0D01*
G01*
X208670000Y-91200000D01*
G75*
G02*
X208810000Y-91340000I0J-140000D01*
G01*
X208810000Y-91620000D01*
G75*
G02*
X208670000Y-91760000I-140000J0D01*
G01*
G37*
G36*
G01*
X208670000Y-90800000D02*
X208330000Y-90800000D01*
G75*
G02*
X208190000Y-90660000I0J140000D01*
G01*
X208190000Y-90380000D01*
G75*
G02*
X208330000Y-90240000I140000J0D01*
G01*
X208670000Y-90240000D01*
G75*
G02*
X208810000Y-90380000I0J-140000D01*
G01*
X208810000Y-90660000D01*
G75*
G02*
X208670000Y-90800000I-140000J0D01*
G01*
G37*
%TD*%
%TO.C,C13*%
G36*
G01*
X205010000Y-76830000D02*
X205010000Y-77170000D01*
G75*
G02*
X204870000Y-77310000I-140000J0D01*
G01*
X204590000Y-77310000D01*
G75*
G02*
X204450000Y-77170000I0J140000D01*
G01*
X204450000Y-76830000D01*
G75*
G02*
X204590000Y-76690000I140000J0D01*
G01*
X204870000Y-76690000D01*
G75*
G02*
X205010000Y-76830000I0J-140000D01*
G01*
G37*
G36*
G01*
X204050000Y-76830000D02*
X204050000Y-77170000D01*
G75*
G02*
X203910000Y-77310000I-140000J0D01*
G01*
X203630000Y-77310000D01*
G75*
G02*
X203490000Y-77170000I0J140000D01*
G01*
X203490000Y-76830000D01*
G75*
G02*
X203630000Y-76690000I140000J0D01*
G01*
X203910000Y-76690000D01*
G75*
G02*
X204050000Y-76830000I0J-140000D01*
G01*
G37*
%TD*%
%TO.C,C14*%
G36*
G01*
X205010000Y-88330000D02*
X205010000Y-88670000D01*
G75*
G02*
X204870000Y-88810000I-140000J0D01*
G01*
X204590000Y-88810000D01*
G75*
G02*
X204450000Y-88670000I0J140000D01*
G01*
X204450000Y-88330000D01*
G75*
G02*
X204590000Y-88190000I140000J0D01*
G01*
X204870000Y-88190000D01*
G75*
G02*
X205010000Y-88330000I0J-140000D01*
G01*
G37*
G36*
G01*
X204050000Y-88330000D02*
X204050000Y-88670000D01*
G75*
G02*
X203910000Y-88810000I-140000J0D01*
G01*
X203630000Y-88810000D01*
G75*
G02*
X203490000Y-88670000I0J140000D01*
G01*
X203490000Y-88330000D01*
G75*
G02*
X203630000Y-88190000I140000J0D01*
G01*
X203910000Y-88190000D01*
G75*
G02*
X204050000Y-88330000I0J-140000D01*
G01*
G37*
%TD*%
%TO.C,C15*%
G36*
G01*
X225050000Y-103830000D02*
X225050000Y-104170000D01*
G75*
G02*
X224910000Y-104310000I-140000J0D01*
G01*
X224630000Y-104310000D01*
G75*
G02*
X224490000Y-104170000I0J140000D01*
G01*
X224490000Y-103830000D01*
G75*
G02*
X224630000Y-103690000I140000J0D01*
G01*
X224910000Y-103690000D01*
G75*
G02*
X225050000Y-103830000I0J-140000D01*
G01*
G37*
G36*
G01*
X226010000Y-103830000D02*
X226010000Y-104170000D01*
G75*
G02*
X225870000Y-104310000I-140000J0D01*
G01*
X225590000Y-104310000D01*
G75*
G02*
X225450000Y-104170000I0J140000D01*
G01*
X225450000Y-103830000D01*
G75*
G02*
X225590000Y-103690000I140000J0D01*
G01*
X225870000Y-103690000D01*
G75*
G02*
X226010000Y-103830000I0J-140000D01*
G01*
G37*
%TD*%
%TO.C,C16*%
G36*
G01*
X225050000Y-102330000D02*
X225050000Y-102670000D01*
G75*
G02*
X224910000Y-102810000I-140000J0D01*
G01*
X224630000Y-102810000D01*
G75*
G02*
X224490000Y-102670000I0J140000D01*
G01*
X224490000Y-102330000D01*
G75*
G02*
X224630000Y-102190000I140000J0D01*
G01*
X224910000Y-102190000D01*
G75*
G02*
X225050000Y-102330000I0J-140000D01*
G01*
G37*
G36*
G01*
X226010000Y-102330000D02*
X226010000Y-102670000D01*
G75*
G02*
X225870000Y-102810000I-140000J0D01*
G01*
X225590000Y-102810000D01*
G75*
G02*
X225450000Y-102670000I0J140000D01*
G01*
X225450000Y-102330000D01*
G75*
G02*
X225590000Y-102190000I140000J0D01*
G01*
X225870000Y-102190000D01*
G75*
G02*
X226010000Y-102330000I0J-140000D01*
G01*
G37*
%TD*%
%TO.C,C17*%
G36*
G01*
X227330000Y-102200000D02*
X227670000Y-102200000D01*
G75*
G02*
X227810000Y-102340000I0J-140000D01*
G01*
X227810000Y-102620000D01*
G75*
G02*
X227670000Y-102760000I-140000J0D01*
G01*
X227330000Y-102760000D01*
G75*
G02*
X227190000Y-102620000I0J140000D01*
G01*
X227190000Y-102340000D01*
G75*
G02*
X227330000Y-102200000I140000J0D01*
G01*
G37*
G36*
G01*
X227330000Y-101240000D02*
X227670000Y-101240000D01*
G75*
G02*
X227810000Y-101380000I0J-140000D01*
G01*
X227810000Y-101660000D01*
G75*
G02*
X227670000Y-101800000I-140000J0D01*
G01*
X227330000Y-101800000D01*
G75*
G02*
X227190000Y-101660000I0J140000D01*
G01*
X227190000Y-101380000D01*
G75*
G02*
X227330000Y-101240000I140000J0D01*
G01*
G37*
%TD*%
%TO.C,D4*%
G36*
G01*
X224150000Y-87743750D02*
X224150000Y-88256250D01*
G75*
G02*
X223931250Y-88475000I-218750J0D01*
G01*
X223493750Y-88475000D01*
G75*
G02*
X223275000Y-88256250I0J218750D01*
G01*
X223275000Y-87743750D01*
G75*
G02*
X223493750Y-87525000I218750J0D01*
G01*
X223931250Y-87525000D01*
G75*
G02*
X224150000Y-87743750I0J-218750D01*
G01*
G37*
G36*
G01*
X225725000Y-87743750D02*
X225725000Y-88256250D01*
G75*
G02*
X225506250Y-88475000I-218750J0D01*
G01*
X225068750Y-88475000D01*
G75*
G02*
X224850000Y-88256250I0J218750D01*
G01*
X224850000Y-87743750D01*
G75*
G02*
X225068750Y-87525000I218750J0D01*
G01*
X225506250Y-87525000D01*
G75*
G02*
X225725000Y-87743750I0J-218750D01*
G01*
G37*
%TD*%
%TO.C,D5*%
G36*
G01*
X225725000Y-89743750D02*
X225725000Y-90256250D01*
G75*
G02*
X225506250Y-90475000I-218750J0D01*
G01*
X225068750Y-90475000D01*
G75*
G02*
X224850000Y-90256250I0J218750D01*
G01*
X224850000Y-89743750D01*
G75*
G02*
X225068750Y-89525000I218750J0D01*
G01*
X225506250Y-89525000D01*
G75*
G02*
X225725000Y-89743750I0J-218750D01*
G01*
G37*
G36*
G01*
X224150000Y-89743750D02*
X224150000Y-90256250D01*
G75*
G02*
X223931250Y-90475000I-218750J0D01*
G01*
X223493750Y-90475000D01*
G75*
G02*
X223275000Y-90256250I0J218750D01*
G01*
X223275000Y-89743750D01*
G75*
G02*
X223493750Y-89525000I218750J0D01*
G01*
X223931250Y-89525000D01*
G75*
G02*
X224150000Y-89743750I0J-218750D01*
G01*
G37*
%TD*%
%TO.C,FB1*%
G36*
G01*
X196618750Y-112750000D02*
X197381250Y-112750000D01*
G75*
G02*
X197600000Y-112968750I0J-218750D01*
G01*
X197600000Y-113406250D01*
G75*
G02*
X197381250Y-113625000I-218750J0D01*
G01*
X196618750Y-113625000D01*
G75*
G02*
X196400000Y-113406250I0J218750D01*
G01*
X196400000Y-112968750D01*
G75*
G02*
X196618750Y-112750000I218750J0D01*
G01*
G37*
G36*
G01*
X196618750Y-114875000D02*
X197381250Y-114875000D01*
G75*
G02*
X197600000Y-115093750I0J-218750D01*
G01*
X197600000Y-115531250D01*
G75*
G02*
X197381250Y-115750000I-218750J0D01*
G01*
X196618750Y-115750000D01*
G75*
G02*
X196400000Y-115531250I0J218750D01*
G01*
X196400000Y-115093750D01*
G75*
G02*
X196618750Y-114875000I218750J0D01*
G01*
G37*
%TD*%
D18*
%TO.C,H1*%
X247500000Y-69000000D03*
D19*
X249525000Y-69000000D03*
X248931891Y-70431891D03*
X247500000Y-71025000D03*
X246068109Y-70431891D03*
X245475000Y-69000000D03*
X246068109Y-67568109D03*
X247500000Y-66975000D03*
X248931891Y-67568109D03*
%TD*%
%TO.C,H2*%
X195181891Y-67568109D03*
X193750000Y-66975000D03*
X192318109Y-67568109D03*
X191725000Y-69000000D03*
X192318109Y-70431891D03*
X193750000Y-71025000D03*
X195181891Y-70431891D03*
X195775000Y-69000000D03*
D18*
X193750000Y-69000000D03*
%TD*%
D19*
%TO.C,H3*%
X195181891Y-123318109D03*
X193750000Y-122725000D03*
X192318109Y-123318109D03*
X191725000Y-124750000D03*
X192318109Y-126181891D03*
X193750000Y-126775000D03*
X195181891Y-126181891D03*
X195775000Y-124750000D03*
D18*
X193750000Y-124750000D03*
%TD*%
%TO.C,H4*%
X247500000Y-124750000D03*
D19*
X249525000Y-124750000D03*
X248931891Y-126181891D03*
X247500000Y-126775000D03*
X246068109Y-126181891D03*
X245475000Y-124750000D03*
X246068109Y-123318109D03*
X247500000Y-122725000D03*
X248931891Y-123318109D03*
%TD*%
D20*
%TO.C,J2*%
X241290000Y-68250000D03*
D21*
X241290000Y-69520000D03*
X240020000Y-68250000D03*
X240020000Y-69520000D03*
X238750000Y-68250000D03*
X238750000Y-69520000D03*
X237480000Y-68250000D03*
X237480000Y-69520000D03*
X236210000Y-68250000D03*
X236210000Y-69520000D03*
%TD*%
D22*
%TO.C,J3*%
X211750000Y-125500000D03*
D23*
X214290000Y-125500000D03*
X216830000Y-125500000D03*
X219370000Y-125500000D03*
X221910000Y-125500000D03*
X224450000Y-125500000D03*
X226990000Y-125500000D03*
X229530000Y-125500000D03*
%TD*%
D22*
%TO.C,J4*%
X231000000Y-68500000D03*
D23*
X228460000Y-68500000D03*
X225920000Y-68500000D03*
X223380000Y-68500000D03*
X220840000Y-68500000D03*
X218300000Y-68500000D03*
X215760000Y-68500000D03*
X213220000Y-68500000D03*
X210680000Y-68500000D03*
X208140000Y-68500000D03*
X205600000Y-68500000D03*
X203060000Y-68500000D03*
%TD*%
%TO.C,L1*%
G36*
G01*
X206225000Y-91243750D02*
X206225000Y-91756250D01*
G75*
G02*
X206006250Y-91975000I-218750J0D01*
G01*
X205568750Y-91975000D01*
G75*
G02*
X205350000Y-91756250I0J218750D01*
G01*
X205350000Y-91243750D01*
G75*
G02*
X205568750Y-91025000I218750J0D01*
G01*
X206006250Y-91025000D01*
G75*
G02*
X206225000Y-91243750I0J-218750D01*
G01*
G37*
G36*
G01*
X204650000Y-91243750D02*
X204650000Y-91756250D01*
G75*
G02*
X204431250Y-91975000I-218750J0D01*
G01*
X203993750Y-91975000D01*
G75*
G02*
X203775000Y-91756250I0J218750D01*
G01*
X203775000Y-91243750D01*
G75*
G02*
X203993750Y-91025000I218750J0D01*
G01*
X204431250Y-91025000D01*
G75*
G02*
X204650000Y-91243750I0J-218750D01*
G01*
G37*
%TD*%
%TO.C,R5*%
G36*
G01*
X196470000Y-77685000D02*
X196470000Y-77315000D01*
G75*
G02*
X196605000Y-77180000I135000J0D01*
G01*
X196875000Y-77180000D01*
G75*
G02*
X197010000Y-77315000I0J-135000D01*
G01*
X197010000Y-77685000D01*
G75*
G02*
X196875000Y-77820000I-135000J0D01*
G01*
X196605000Y-77820000D01*
G75*
G02*
X196470000Y-77685000I0J135000D01*
G01*
G37*
G36*
G01*
X197490000Y-77685000D02*
X197490000Y-77315000D01*
G75*
G02*
X197625000Y-77180000I135000J0D01*
G01*
X197895000Y-77180000D01*
G75*
G02*
X198030000Y-77315000I0J-135000D01*
G01*
X198030000Y-77685000D01*
G75*
G02*
X197895000Y-77820000I-135000J0D01*
G01*
X197625000Y-77820000D01*
G75*
G02*
X197490000Y-77685000I0J135000D01*
G01*
G37*
%TD*%
%TO.C,R6*%
G36*
G01*
X226775000Y-88275000D02*
X226775000Y-87725000D01*
G75*
G02*
X226975000Y-87525000I200000J0D01*
G01*
X227375000Y-87525000D01*
G75*
G02*
X227575000Y-87725000I0J-200000D01*
G01*
X227575000Y-88275000D01*
G75*
G02*
X227375000Y-88475000I-200000J0D01*
G01*
X226975000Y-88475000D01*
G75*
G02*
X226775000Y-88275000I0J200000D01*
G01*
G37*
G36*
G01*
X228425000Y-88275000D02*
X228425000Y-87725000D01*
G75*
G02*
X228625000Y-87525000I200000J0D01*
G01*
X229025000Y-87525000D01*
G75*
G02*
X229225000Y-87725000I0J-200000D01*
G01*
X229225000Y-88275000D01*
G75*
G02*
X229025000Y-88475000I-200000J0D01*
G01*
X228625000Y-88475000D01*
G75*
G02*
X228425000Y-88275000I0J200000D01*
G01*
G37*
%TD*%
%TO.C,R7*%
G36*
G01*
X228425000Y-90275000D02*
X228425000Y-89725000D01*
G75*
G02*
X228625000Y-89525000I200000J0D01*
G01*
X229025000Y-89525000D01*
G75*
G02*
X229225000Y-89725000I0J-200000D01*
G01*
X229225000Y-90275000D01*
G75*
G02*
X229025000Y-90475000I-200000J0D01*
G01*
X228625000Y-90475000D01*
G75*
G02*
X228425000Y-90275000I0J200000D01*
G01*
G37*
G36*
G01*
X226775000Y-90275000D02*
X226775000Y-89725000D01*
G75*
G02*
X226975000Y-89525000I200000J0D01*
G01*
X227375000Y-89525000D01*
G75*
G02*
X227575000Y-89725000I0J-200000D01*
G01*
X227575000Y-90275000D01*
G75*
G02*
X227375000Y-90475000I-200000J0D01*
G01*
X226975000Y-90475000D01*
G75*
G02*
X226775000Y-90275000I0J200000D01*
G01*
G37*
%TD*%
%TO.C,R8*%
G36*
G01*
X224780000Y-97065000D02*
X224780000Y-97435000D01*
G75*
G02*
X224645000Y-97570000I-135000J0D01*
G01*
X224375000Y-97570000D01*
G75*
G02*
X224240000Y-97435000I0J135000D01*
G01*
X224240000Y-97065000D01*
G75*
G02*
X224375000Y-96930000I135000J0D01*
G01*
X224645000Y-96930000D01*
G75*
G02*
X224780000Y-97065000I0J-135000D01*
G01*
G37*
G36*
G01*
X223760000Y-97065000D02*
X223760000Y-97435000D01*
G75*
G02*
X223625000Y-97570000I-135000J0D01*
G01*
X223355000Y-97570000D01*
G75*
G02*
X223220000Y-97435000I0J135000D01*
G01*
X223220000Y-97065000D01*
G75*
G02*
X223355000Y-96930000I135000J0D01*
G01*
X223625000Y-96930000D01*
G75*
G02*
X223760000Y-97065000I0J-135000D01*
G01*
G37*
%TD*%
%TO.C,R9*%
G36*
G01*
X226260000Y-97065000D02*
X226260000Y-97435000D01*
G75*
G02*
X226125000Y-97570000I-135000J0D01*
G01*
X225855000Y-97570000D01*
G75*
G02*
X225720000Y-97435000I0J135000D01*
G01*
X225720000Y-97065000D01*
G75*
G02*
X225855000Y-96930000I135000J0D01*
G01*
X226125000Y-96930000D01*
G75*
G02*
X226260000Y-97065000I0J-135000D01*
G01*
G37*
G36*
G01*
X227280000Y-97065000D02*
X227280000Y-97435000D01*
G75*
G02*
X227145000Y-97570000I-135000J0D01*
G01*
X226875000Y-97570000D01*
G75*
G02*
X226740000Y-97435000I0J135000D01*
G01*
X226740000Y-97065000D01*
G75*
G02*
X226875000Y-96930000I135000J0D01*
G01*
X227145000Y-96930000D01*
G75*
G02*
X227280000Y-97065000I0J-135000D01*
G01*
G37*
%TD*%
%TO.C,R10*%
G36*
G01*
X241485000Y-73260000D02*
X241115000Y-73260000D01*
G75*
G02*
X240980000Y-73125000I0J135000D01*
G01*
X240980000Y-72855000D01*
G75*
G02*
X241115000Y-72720000I135000J0D01*
G01*
X241485000Y-72720000D01*
G75*
G02*
X241620000Y-72855000I0J-135000D01*
G01*
X241620000Y-73125000D01*
G75*
G02*
X241485000Y-73260000I-135000J0D01*
G01*
G37*
G36*
G01*
X241485000Y-74280000D02*
X241115000Y-74280000D01*
G75*
G02*
X240980000Y-74145000I0J135000D01*
G01*
X240980000Y-73875000D01*
G75*
G02*
X241115000Y-73740000I135000J0D01*
G01*
X241485000Y-73740000D01*
G75*
G02*
X241620000Y-73875000I0J-135000D01*
G01*
X241620000Y-74145000D01*
G75*
G02*
X241485000Y-74280000I-135000J0D01*
G01*
G37*
%TD*%
D15*
%TO.C,SW2*%
X247725000Y-111650000D03*
X243225000Y-111650000D03*
X243225000Y-103700000D03*
X247725000Y-103700000D03*
%TD*%
%TO.C,U1*%
G36*
G01*
X209600000Y-87325000D02*
X209600000Y-87175000D01*
G75*
G02*
X209675000Y-87100000I75000J0D01*
G01*
X211000000Y-87100000D01*
G75*
G02*
X211075000Y-87175000I0J-75000D01*
G01*
X211075000Y-87325000D01*
G75*
G02*
X211000000Y-87400000I-75000J0D01*
G01*
X209675000Y-87400000D01*
G75*
G02*
X209600000Y-87325000I0J75000D01*
G01*
G37*
G36*
G01*
X209600000Y-87825000D02*
X209600000Y-87675000D01*
G75*
G02*
X209675000Y-87600000I75000J0D01*
G01*
X211000000Y-87600000D01*
G75*
G02*
X211075000Y-87675000I0J-75000D01*
G01*
X211075000Y-87825000D01*
G75*
G02*
X211000000Y-87900000I-75000J0D01*
G01*
X209675000Y-87900000D01*
G75*
G02*
X209600000Y-87825000I0J75000D01*
G01*
G37*
G36*
G01*
X209600000Y-88325000D02*
X209600000Y-88175000D01*
G75*
G02*
X209675000Y-88100000I75000J0D01*
G01*
X211000000Y-88100000D01*
G75*
G02*
X211075000Y-88175000I0J-75000D01*
G01*
X211075000Y-88325000D01*
G75*
G02*
X211000000Y-88400000I-75000J0D01*
G01*
X209675000Y-88400000D01*
G75*
G02*
X209600000Y-88325000I0J75000D01*
G01*
G37*
G36*
G01*
X209600000Y-88825000D02*
X209600000Y-88675000D01*
G75*
G02*
X209675000Y-88600000I75000J0D01*
G01*
X211000000Y-88600000D01*
G75*
G02*
X211075000Y-88675000I0J-75000D01*
G01*
X211075000Y-88825000D01*
G75*
G02*
X211000000Y-88900000I-75000J0D01*
G01*
X209675000Y-88900000D01*
G75*
G02*
X209600000Y-88825000I0J75000D01*
G01*
G37*
G36*
G01*
X209600000Y-89325000D02*
X209600000Y-89175000D01*
G75*
G02*
X209675000Y-89100000I75000J0D01*
G01*
X211000000Y-89100000D01*
G75*
G02*
X211075000Y-89175000I0J-75000D01*
G01*
X211075000Y-89325000D01*
G75*
G02*
X211000000Y-89400000I-75000J0D01*
G01*
X209675000Y-89400000D01*
G75*
G02*
X209600000Y-89325000I0J75000D01*
G01*
G37*
G36*
G01*
X209600000Y-89825000D02*
X209600000Y-89675000D01*
G75*
G02*
X209675000Y-89600000I75000J0D01*
G01*
X211000000Y-89600000D01*
G75*
G02*
X211075000Y-89675000I0J-75000D01*
G01*
X211075000Y-89825000D01*
G75*
G02*
X211000000Y-89900000I-75000J0D01*
G01*
X209675000Y-89900000D01*
G75*
G02*
X209600000Y-89825000I0J75000D01*
G01*
G37*
G36*
G01*
X209600000Y-90325000D02*
X209600000Y-90175000D01*
G75*
G02*
X209675000Y-90100000I75000J0D01*
G01*
X211000000Y-90100000D01*
G75*
G02*
X211075000Y-90175000I0J-75000D01*
G01*
X211075000Y-90325000D01*
G75*
G02*
X211000000Y-90400000I-75000J0D01*
G01*
X209675000Y-90400000D01*
G75*
G02*
X209600000Y-90325000I0J75000D01*
G01*
G37*
G36*
G01*
X209600000Y-90825000D02*
X209600000Y-90675000D01*
G75*
G02*
X209675000Y-90600000I75000J0D01*
G01*
X211000000Y-90600000D01*
G75*
G02*
X211075000Y-90675000I0J-75000D01*
G01*
X211075000Y-90825000D01*
G75*
G02*
X211000000Y-90900000I-75000J0D01*
G01*
X209675000Y-90900000D01*
G75*
G02*
X209600000Y-90825000I0J75000D01*
G01*
G37*
G36*
G01*
X209600000Y-91325000D02*
X209600000Y-91175000D01*
G75*
G02*
X209675000Y-91100000I75000J0D01*
G01*
X211000000Y-91100000D01*
G75*
G02*
X211075000Y-91175000I0J-75000D01*
G01*
X211075000Y-91325000D01*
G75*
G02*
X211000000Y-91400000I-75000J0D01*
G01*
X209675000Y-91400000D01*
G75*
G02*
X209600000Y-91325000I0J75000D01*
G01*
G37*
G36*
G01*
X209600000Y-91825000D02*
X209600000Y-91675000D01*
G75*
G02*
X209675000Y-91600000I75000J0D01*
G01*
X211000000Y-91600000D01*
G75*
G02*
X211075000Y-91675000I0J-75000D01*
G01*
X211075000Y-91825000D01*
G75*
G02*
X211000000Y-91900000I-75000J0D01*
G01*
X209675000Y-91900000D01*
G75*
G02*
X209600000Y-91825000I0J75000D01*
G01*
G37*
G36*
G01*
X209600000Y-92325000D02*
X209600000Y-92175000D01*
G75*
G02*
X209675000Y-92100000I75000J0D01*
G01*
X211000000Y-92100000D01*
G75*
G02*
X211075000Y-92175000I0J-75000D01*
G01*
X211075000Y-92325000D01*
G75*
G02*
X211000000Y-92400000I-75000J0D01*
G01*
X209675000Y-92400000D01*
G75*
G02*
X209600000Y-92325000I0J75000D01*
G01*
G37*
G36*
G01*
X209600000Y-92825000D02*
X209600000Y-92675000D01*
G75*
G02*
X209675000Y-92600000I75000J0D01*
G01*
X211000000Y-92600000D01*
G75*
G02*
X211075000Y-92675000I0J-75000D01*
G01*
X211075000Y-92825000D01*
G75*
G02*
X211000000Y-92900000I-75000J0D01*
G01*
X209675000Y-92900000D01*
G75*
G02*
X209600000Y-92825000I0J75000D01*
G01*
G37*
G36*
G01*
X211600000Y-94825000D02*
X211600000Y-93500000D01*
G75*
G02*
X211675000Y-93425000I75000J0D01*
G01*
X211825000Y-93425000D01*
G75*
G02*
X211900000Y-93500000I0J-75000D01*
G01*
X211900000Y-94825000D01*
G75*
G02*
X211825000Y-94900000I-75000J0D01*
G01*
X211675000Y-94900000D01*
G75*
G02*
X211600000Y-94825000I0J75000D01*
G01*
G37*
G36*
G01*
X212100000Y-94825000D02*
X212100000Y-93500000D01*
G75*
G02*
X212175000Y-93425000I75000J0D01*
G01*
X212325000Y-93425000D01*
G75*
G02*
X212400000Y-93500000I0J-75000D01*
G01*
X212400000Y-94825000D01*
G75*
G02*
X212325000Y-94900000I-75000J0D01*
G01*
X212175000Y-94900000D01*
G75*
G02*
X212100000Y-94825000I0J75000D01*
G01*
G37*
G36*
G01*
X212600000Y-94825000D02*
X212600000Y-93500000D01*
G75*
G02*
X212675000Y-93425000I75000J0D01*
G01*
X212825000Y-93425000D01*
G75*
G02*
X212900000Y-93500000I0J-75000D01*
G01*
X212900000Y-94825000D01*
G75*
G02*
X212825000Y-94900000I-75000J0D01*
G01*
X212675000Y-94900000D01*
G75*
G02*
X212600000Y-94825000I0J75000D01*
G01*
G37*
G36*
G01*
X213100000Y-94825000D02*
X213100000Y-93500000D01*
G75*
G02*
X213175000Y-93425000I75000J0D01*
G01*
X213325000Y-93425000D01*
G75*
G02*
X213400000Y-93500000I0J-75000D01*
G01*
X213400000Y-94825000D01*
G75*
G02*
X213325000Y-94900000I-75000J0D01*
G01*
X213175000Y-94900000D01*
G75*
G02*
X213100000Y-94825000I0J75000D01*
G01*
G37*
G36*
G01*
X213600000Y-94825000D02*
X213600000Y-93500000D01*
G75*
G02*
X213675000Y-93425000I75000J0D01*
G01*
X213825000Y-93425000D01*
G75*
G02*
X213900000Y-93500000I0J-75000D01*
G01*
X213900000Y-94825000D01*
G75*
G02*
X213825000Y-94900000I-75000J0D01*
G01*
X213675000Y-94900000D01*
G75*
G02*
X213600000Y-94825000I0J75000D01*
G01*
G37*
G36*
G01*
X214100000Y-94825000D02*
X214100000Y-93500000D01*
G75*
G02*
X214175000Y-93425000I75000J0D01*
G01*
X214325000Y-93425000D01*
G75*
G02*
X214400000Y-93500000I0J-75000D01*
G01*
X214400000Y-94825000D01*
G75*
G02*
X214325000Y-94900000I-75000J0D01*
G01*
X214175000Y-94900000D01*
G75*
G02*
X214100000Y-94825000I0J75000D01*
G01*
G37*
G36*
G01*
X214600000Y-94825000D02*
X214600000Y-93500000D01*
G75*
G02*
X214675000Y-93425000I75000J0D01*
G01*
X214825000Y-93425000D01*
G75*
G02*
X214900000Y-93500000I0J-75000D01*
G01*
X214900000Y-94825000D01*
G75*
G02*
X214825000Y-94900000I-75000J0D01*
G01*
X214675000Y-94900000D01*
G75*
G02*
X214600000Y-94825000I0J75000D01*
G01*
G37*
G36*
G01*
X215100000Y-94825000D02*
X215100000Y-93500000D01*
G75*
G02*
X215175000Y-93425000I75000J0D01*
G01*
X215325000Y-93425000D01*
G75*
G02*
X215400000Y-93500000I0J-75000D01*
G01*
X215400000Y-94825000D01*
G75*
G02*
X215325000Y-94900000I-75000J0D01*
G01*
X215175000Y-94900000D01*
G75*
G02*
X215100000Y-94825000I0J75000D01*
G01*
G37*
G36*
G01*
X215600000Y-94825000D02*
X215600000Y-93500000D01*
G75*
G02*
X215675000Y-93425000I75000J0D01*
G01*
X215825000Y-93425000D01*
G75*
G02*
X215900000Y-93500000I0J-75000D01*
G01*
X215900000Y-94825000D01*
G75*
G02*
X215825000Y-94900000I-75000J0D01*
G01*
X215675000Y-94900000D01*
G75*
G02*
X215600000Y-94825000I0J75000D01*
G01*
G37*
G36*
G01*
X216100000Y-94825000D02*
X216100000Y-93500000D01*
G75*
G02*
X216175000Y-93425000I75000J0D01*
G01*
X216325000Y-93425000D01*
G75*
G02*
X216400000Y-93500000I0J-75000D01*
G01*
X216400000Y-94825000D01*
G75*
G02*
X216325000Y-94900000I-75000J0D01*
G01*
X216175000Y-94900000D01*
G75*
G02*
X216100000Y-94825000I0J75000D01*
G01*
G37*
G36*
G01*
X216600000Y-94825000D02*
X216600000Y-93500000D01*
G75*
G02*
X216675000Y-93425000I75000J0D01*
G01*
X216825000Y-93425000D01*
G75*
G02*
X216900000Y-93500000I0J-75000D01*
G01*
X216900000Y-94825000D01*
G75*
G02*
X216825000Y-94900000I-75000J0D01*
G01*
X216675000Y-94900000D01*
G75*
G02*
X216600000Y-94825000I0J75000D01*
G01*
G37*
G36*
G01*
X217100000Y-94825000D02*
X217100000Y-93500000D01*
G75*
G02*
X217175000Y-93425000I75000J0D01*
G01*
X217325000Y-93425000D01*
G75*
G02*
X217400000Y-93500000I0J-75000D01*
G01*
X217400000Y-94825000D01*
G75*
G02*
X217325000Y-94900000I-75000J0D01*
G01*
X217175000Y-94900000D01*
G75*
G02*
X217100000Y-94825000I0J75000D01*
G01*
G37*
G36*
G01*
X217925000Y-92825000D02*
X217925000Y-92675000D01*
G75*
G02*
X218000000Y-92600000I75000J0D01*
G01*
X219325000Y-92600000D01*
G75*
G02*
X219400000Y-92675000I0J-75000D01*
G01*
X219400000Y-92825000D01*
G75*
G02*
X219325000Y-92900000I-75000J0D01*
G01*
X218000000Y-92900000D01*
G75*
G02*
X217925000Y-92825000I0J75000D01*
G01*
G37*
G36*
G01*
X217925000Y-92325000D02*
X217925000Y-92175000D01*
G75*
G02*
X218000000Y-92100000I75000J0D01*
G01*
X219325000Y-92100000D01*
G75*
G02*
X219400000Y-92175000I0J-75000D01*
G01*
X219400000Y-92325000D01*
G75*
G02*
X219325000Y-92400000I-75000J0D01*
G01*
X218000000Y-92400000D01*
G75*
G02*
X217925000Y-92325000I0J75000D01*
G01*
G37*
G36*
G01*
X217925000Y-91825000D02*
X217925000Y-91675000D01*
G75*
G02*
X218000000Y-91600000I75000J0D01*
G01*
X219325000Y-91600000D01*
G75*
G02*
X219400000Y-91675000I0J-75000D01*
G01*
X219400000Y-91825000D01*
G75*
G02*
X219325000Y-91900000I-75000J0D01*
G01*
X218000000Y-91900000D01*
G75*
G02*
X217925000Y-91825000I0J75000D01*
G01*
G37*
G36*
G01*
X217925000Y-91325000D02*
X217925000Y-91175000D01*
G75*
G02*
X218000000Y-91100000I75000J0D01*
G01*
X219325000Y-91100000D01*
G75*
G02*
X219400000Y-91175000I0J-75000D01*
G01*
X219400000Y-91325000D01*
G75*
G02*
X219325000Y-91400000I-75000J0D01*
G01*
X218000000Y-91400000D01*
G75*
G02*
X217925000Y-91325000I0J75000D01*
G01*
G37*
G36*
G01*
X217925000Y-90825000D02*
X217925000Y-90675000D01*
G75*
G02*
X218000000Y-90600000I75000J0D01*
G01*
X219325000Y-90600000D01*
G75*
G02*
X219400000Y-90675000I0J-75000D01*
G01*
X219400000Y-90825000D01*
G75*
G02*
X219325000Y-90900000I-75000J0D01*
G01*
X218000000Y-90900000D01*
G75*
G02*
X217925000Y-90825000I0J75000D01*
G01*
G37*
G36*
G01*
X217925000Y-90325000D02*
X217925000Y-90175000D01*
G75*
G02*
X218000000Y-90100000I75000J0D01*
G01*
X219325000Y-90100000D01*
G75*
G02*
X219400000Y-90175000I0J-75000D01*
G01*
X219400000Y-90325000D01*
G75*
G02*
X219325000Y-90400000I-75000J0D01*
G01*
X218000000Y-90400000D01*
G75*
G02*
X217925000Y-90325000I0J75000D01*
G01*
G37*
G36*
G01*
X217925000Y-89825000D02*
X217925000Y-89675000D01*
G75*
G02*
X218000000Y-89600000I75000J0D01*
G01*
X219325000Y-89600000D01*
G75*
G02*
X219400000Y-89675000I0J-75000D01*
G01*
X219400000Y-89825000D01*
G75*
G02*
X219325000Y-89900000I-75000J0D01*
G01*
X218000000Y-89900000D01*
G75*
G02*
X217925000Y-89825000I0J75000D01*
G01*
G37*
G36*
G01*
X217925000Y-89325000D02*
X217925000Y-89175000D01*
G75*
G02*
X218000000Y-89100000I75000J0D01*
G01*
X219325000Y-89100000D01*
G75*
G02*
X219400000Y-89175000I0J-75000D01*
G01*
X219400000Y-89325000D01*
G75*
G02*
X219325000Y-89400000I-75000J0D01*
G01*
X218000000Y-89400000D01*
G75*
G02*
X217925000Y-89325000I0J75000D01*
G01*
G37*
G36*
G01*
X217925000Y-88825000D02*
X217925000Y-88675000D01*
G75*
G02*
X218000000Y-88600000I75000J0D01*
G01*
X219325000Y-88600000D01*
G75*
G02*
X219400000Y-88675000I0J-75000D01*
G01*
X219400000Y-88825000D01*
G75*
G02*
X219325000Y-88900000I-75000J0D01*
G01*
X218000000Y-88900000D01*
G75*
G02*
X217925000Y-88825000I0J75000D01*
G01*
G37*
G36*
G01*
X217925000Y-88325000D02*
X217925000Y-88175000D01*
G75*
G02*
X218000000Y-88100000I75000J0D01*
G01*
X219325000Y-88100000D01*
G75*
G02*
X219400000Y-88175000I0J-75000D01*
G01*
X219400000Y-88325000D01*
G75*
G02*
X219325000Y-88400000I-75000J0D01*
G01*
X218000000Y-88400000D01*
G75*
G02*
X217925000Y-88325000I0J75000D01*
G01*
G37*
G36*
G01*
X217925000Y-87825000D02*
X217925000Y-87675000D01*
G75*
G02*
X218000000Y-87600000I75000J0D01*
G01*
X219325000Y-87600000D01*
G75*
G02*
X219400000Y-87675000I0J-75000D01*
G01*
X219400000Y-87825000D01*
G75*
G02*
X219325000Y-87900000I-75000J0D01*
G01*
X218000000Y-87900000D01*
G75*
G02*
X217925000Y-87825000I0J75000D01*
G01*
G37*
G36*
G01*
X217925000Y-87325000D02*
X217925000Y-87175000D01*
G75*
G02*
X218000000Y-87100000I75000J0D01*
G01*
X219325000Y-87100000D01*
G75*
G02*
X219400000Y-87175000I0J-75000D01*
G01*
X219400000Y-87325000D01*
G75*
G02*
X219325000Y-87400000I-75000J0D01*
G01*
X218000000Y-87400000D01*
G75*
G02*
X217925000Y-87325000I0J75000D01*
G01*
G37*
G36*
G01*
X217100000Y-86500000D02*
X217100000Y-85175000D01*
G75*
G02*
X217175000Y-85100000I75000J0D01*
G01*
X217325000Y-85100000D01*
G75*
G02*
X217400000Y-85175000I0J-75000D01*
G01*
X217400000Y-86500000D01*
G75*
G02*
X217325000Y-86575000I-75000J0D01*
G01*
X217175000Y-86575000D01*
G75*
G02*
X217100000Y-86500000I0J75000D01*
G01*
G37*
G36*
G01*
X216600000Y-86500000D02*
X216600000Y-85175000D01*
G75*
G02*
X216675000Y-85100000I75000J0D01*
G01*
X216825000Y-85100000D01*
G75*
G02*
X216900000Y-85175000I0J-75000D01*
G01*
X216900000Y-86500000D01*
G75*
G02*
X216825000Y-86575000I-75000J0D01*
G01*
X216675000Y-86575000D01*
G75*
G02*
X216600000Y-86500000I0J75000D01*
G01*
G37*
G36*
G01*
X216100000Y-86500000D02*
X216100000Y-85175000D01*
G75*
G02*
X216175000Y-85100000I75000J0D01*
G01*
X216325000Y-85100000D01*
G75*
G02*
X216400000Y-85175000I0J-75000D01*
G01*
X216400000Y-86500000D01*
G75*
G02*
X216325000Y-86575000I-75000J0D01*
G01*
X216175000Y-86575000D01*
G75*
G02*
X216100000Y-86500000I0J75000D01*
G01*
G37*
G36*
G01*
X215600000Y-86500000D02*
X215600000Y-85175000D01*
G75*
G02*
X215675000Y-85100000I75000J0D01*
G01*
X215825000Y-85100000D01*
G75*
G02*
X215900000Y-85175000I0J-75000D01*
G01*
X215900000Y-86500000D01*
G75*
G02*
X215825000Y-86575000I-75000J0D01*
G01*
X215675000Y-86575000D01*
G75*
G02*
X215600000Y-86500000I0J75000D01*
G01*
G37*
G36*
G01*
X215100000Y-86500000D02*
X215100000Y-85175000D01*
G75*
G02*
X215175000Y-85100000I75000J0D01*
G01*
X215325000Y-85100000D01*
G75*
G02*
X215400000Y-85175000I0J-75000D01*
G01*
X215400000Y-86500000D01*
G75*
G02*
X215325000Y-86575000I-75000J0D01*
G01*
X215175000Y-86575000D01*
G75*
G02*
X215100000Y-86500000I0J75000D01*
G01*
G37*
G36*
G01*
X214600000Y-86500000D02*
X214600000Y-85175000D01*
G75*
G02*
X214675000Y-85100000I75000J0D01*
G01*
X214825000Y-85100000D01*
G75*
G02*
X214900000Y-85175000I0J-75000D01*
G01*
X214900000Y-86500000D01*
G75*
G02*
X214825000Y-86575000I-75000J0D01*
G01*
X214675000Y-86575000D01*
G75*
G02*
X214600000Y-86500000I0J75000D01*
G01*
G37*
G36*
G01*
X214100000Y-86500000D02*
X214100000Y-85175000D01*
G75*
G02*
X214175000Y-85100000I75000J0D01*
G01*
X214325000Y-85100000D01*
G75*
G02*
X214400000Y-85175000I0J-75000D01*
G01*
X214400000Y-86500000D01*
G75*
G02*
X214325000Y-86575000I-75000J0D01*
G01*
X214175000Y-86575000D01*
G75*
G02*
X214100000Y-86500000I0J75000D01*
G01*
G37*
G36*
G01*
X213600000Y-86500000D02*
X213600000Y-85175000D01*
G75*
G02*
X213675000Y-85100000I75000J0D01*
G01*
X213825000Y-85100000D01*
G75*
G02*
X213900000Y-85175000I0J-75000D01*
G01*
X213900000Y-86500000D01*
G75*
G02*
X213825000Y-86575000I-75000J0D01*
G01*
X213675000Y-86575000D01*
G75*
G02*
X213600000Y-86500000I0J75000D01*
G01*
G37*
G36*
G01*
X213100000Y-86500000D02*
X213100000Y-85175000D01*
G75*
G02*
X213175000Y-85100000I75000J0D01*
G01*
X213325000Y-85100000D01*
G75*
G02*
X213400000Y-85175000I0J-75000D01*
G01*
X213400000Y-86500000D01*
G75*
G02*
X213325000Y-86575000I-75000J0D01*
G01*
X213175000Y-86575000D01*
G75*
G02*
X213100000Y-86500000I0J75000D01*
G01*
G37*
G36*
G01*
X212600000Y-86500000D02*
X212600000Y-85175000D01*
G75*
G02*
X212675000Y-85100000I75000J0D01*
G01*
X212825000Y-85100000D01*
G75*
G02*
X212900000Y-85175000I0J-75000D01*
G01*
X212900000Y-86500000D01*
G75*
G02*
X212825000Y-86575000I-75000J0D01*
G01*
X212675000Y-86575000D01*
G75*
G02*
X212600000Y-86500000I0J75000D01*
G01*
G37*
G36*
G01*
X212100000Y-86500000D02*
X212100000Y-85175000D01*
G75*
G02*
X212175000Y-85100000I75000J0D01*
G01*
X212325000Y-85100000D01*
G75*
G02*
X212400000Y-85175000I0J-75000D01*
G01*
X212400000Y-86500000D01*
G75*
G02*
X212325000Y-86575000I-75000J0D01*
G01*
X212175000Y-86575000D01*
G75*
G02*
X212100000Y-86500000I0J75000D01*
G01*
G37*
G36*
G01*
X211600000Y-86500000D02*
X211600000Y-85175000D01*
G75*
G02*
X211675000Y-85100000I75000J0D01*
G01*
X211825000Y-85100000D01*
G75*
G02*
X211900000Y-85175000I0J-75000D01*
G01*
X211900000Y-86500000D01*
G75*
G02*
X211825000Y-86575000I-75000J0D01*
G01*
X211675000Y-86575000D01*
G75*
G02*
X211600000Y-86500000I0J75000D01*
G01*
G37*
%TD*%
D24*
%TO.C,U2*%
X211600000Y-107972500D03*
X211600000Y-107337500D03*
X211600000Y-106702500D03*
X211600000Y-106067500D03*
X211600000Y-105432500D03*
X211600000Y-104797500D03*
X211600000Y-104162500D03*
X211600000Y-103527500D03*
X206400000Y-103527500D03*
X206400000Y-104162500D03*
X206400000Y-104797500D03*
X206400000Y-105432500D03*
X206400000Y-106067500D03*
X206400000Y-106702500D03*
X206400000Y-107337500D03*
X206400000Y-107972500D03*
%TD*%
D25*
%TO.C,U3*%
X225500000Y-99737500D03*
X225000000Y-99737500D03*
X225500000Y-101262500D03*
X225000000Y-101262500D03*
X224500000Y-99737500D03*
X224500000Y-101262500D03*
X226000000Y-99737500D03*
X226000000Y-101262500D03*
D26*
X224487500Y-100250000D03*
X224487500Y-100750000D03*
X226012500Y-100750000D03*
X226012500Y-100250000D03*
%TD*%
D27*
%TO.C,Y1*%
X204250000Y-86000000D03*
X204250000Y-79500000D03*
%TD*%
M02*
